*
*
G04 PADS 9.5 Build Number: 522968 generated Gerber (RS-274-X) file*
G04 PC Version=2.1*
*
%IN "NuTiny-SDK-N76E003 V2.0"*%
*
%MOIN*%
*
%FSLAX35Y35*%
*
*
*
*
G04 PC Standard Apertures*
*
*
G04 Thermal Relief Aperture macro.*
%AMTER*
1,1,$1,0,0*
1,0,$1-$2,0,0*
21,0,$3,$4,0,0,45*
21,0,$3,$4,0,0,135*
%
*
*
G04 Annular Aperture macro.*
%AMANN*
1,1,$1,0,0*
1,0,$2,0,0*
%
*
*
G04 Odd Aperture macro.*
%AMODD*
1,1,$1,0,0*
1,0,$1-0.005,0,0*
%
*
*
G04 PC Custom Aperture Macros*
*
*
*
*
*
*
G04 PC Aperture Table*
*
%ADD016C,0.01*%
%ADD018C,0.012*%
%ADD021C,0.008*%
%ADD022C,0.006*%
%ADD032C,0.06*%
%ADD033R,0.06X0.06*%
%ADD036C,0.02*%
%ADD076C,0.028*%
%ADD118C,0.0001*%
*
*
*
*
G04 PC Circuitry*
G04 Layer Name NuTiny-SDK-N76E003 V2.0 - circuitry*
%LPD*%
*
*
G04 PC Custom Flashes*
G04 Layer Name NuTiny-SDK-N76E003 V2.0 - flashes*
%LPD*%
*
*
G04 PC Circuitry*
G04 Layer Name NuTiny-SDK-N76E003 V2.0 - circuitry*
%LPD*%
*
G54D16*
G01X361291Y147213D02*
X369191Y155113D01*
X383869*
X386369Y157613*
X398269*
X361291Y157213D02*
X381069D01*
X383669Y159813*
X430469*
X449669Y179013*
Y180913*
X460769Y192013*
X463569*
X411969Y152913D02*
X407569D01*
X402869Y157613*
X398269*
X411969Y152913D02*
X425869D01*
X451269Y178313*
Y178913*
X461269Y188913*
X139500Y239000D02*
Y99000D01*
X520500*
Y239000*
X139500*
X340175Y130274D02*
Y100213D01*
X344112*
Y130274*
X340175*
Y144146D02*
Y135868D01*
X344269*
Y144146*
X340175*
X344269Y155413D02*
X340175D01*
Y150513*
X344269*
Y155413*
X340175Y237213D02*
Y191811D01*
X344269*
Y237213*
X340175*
Y174213D02*
Y170213D01*
X344269*
Y174213*
X340175*
Y164513D02*
Y160713D01*
X344269*
Y164513*
X340175*
Y184213D02*
X344269D01*
Y180213*
X340175*
Y184213*
X515000Y179100D02*
X519900D01*
Y150000*
X515000*
Y179100*
G54D18*
X193475Y132500D02*
X231318Y170343D01*
X249895*
X254463Y174911*
G54D21*
X479769Y158713D02*
G75*
G03X479769I-4400J0D01*
G01Y168713D02*
G03X479769I-4400J0D01*
G01X454646Y214713D02*
G03X454646I-4400J0D01*
G01X444646D02*
G03X444646I-4400J0D01*
G01X365691Y187213D02*
G03X365691I-4400J0D01*
G01X278669Y119213D02*
G03X278669I-4400J0D01*
G01X258669D02*
G03X258669I-4400J0D01*
G01X248669D02*
G03X248669I-4400J0D01*
G01X238669D02*
G03X238669I-4400J0D01*
G01X228669Y109213D02*
G03X228669I-4400J0D01*
G01Y119213D02*
G03X228669I-4400J0D01*
G01X218669Y109213D02*
G03X218669I-4400J0D01*
G01Y119213D02*
G03X218669I-4400J0D01*
G01X208669D02*
G03X208669I-4400J0D01*
G01X288669Y219213D02*
G03X288669I-4400J0D01*
G01Y229213D02*
G03X288669I-4400J0D01*
G01X278669Y219213D02*
G03X278669I-4400J0D01*
G01Y229213D02*
G03X278669I-4400J0D01*
G01X268669Y219213D02*
G03X268669I-4400J0D01*
G01Y229213D02*
G03X268669I-4400J0D01*
G01X258669Y219213D02*
G03X258669I-4400J0D01*
G01Y229213D02*
G03X258669I-4400J0D01*
G01X248669Y219213D02*
G03X248669I-4400J0D01*
G01Y229213D02*
G03X248669I-4400J0D01*
G01X238669Y219213D02*
G03X238669I-4400J0D01*
G01Y229213D02*
G03X238669I-4400J0D01*
G01X228669Y219213D02*
G03X228669I-4400J0D01*
G01Y229213D02*
G03X228669I-4400J0D01*
G01X218669Y219213D02*
G03X218669I-4400J0D01*
G01Y229213D02*
G03X218669I-4400J0D01*
G01X208669D02*
G03X208669I-4400J0D01*
G01X172258Y179189D02*
G03X172258I-4400J0D01*
G01Y202811D02*
G03X172258I-4400J0D01*
G01X154542D02*
G03X154542I-4400J0D01*
G01X327691Y177213D02*
G03X327691I-4400J0D01*
G01X518600Y180500D02*
Y235397D01*
G03X518483Y235679I-400J-0*
G01X516279Y237883*
G03X515997Y238000I-282J-283*
G01X347873*
G03X347591Y237883I0J-400*
G01X345387Y235679*
G03X345270Y235397I283J-282*
G01Y159313*
G03X345670Y158913I400J0*
G01X346975*
G03X347334Y159138I-0J400*
G01X352728Y161372D02*
G03X347334Y159138I-1437J-4159D01*
G01X352728Y161372D02*
G03X353141Y161467I130J378D01*
G01X353604Y161930*
G03Y162496I-283J283*
G01X353141Y162959*
G03X352728Y163054I-283J-283*
G01X355450Y165776D02*
G03X352728Y163054I-4159J1437D01*
G01X355450Y165776D02*
G03X355545Y165363I378J-130D01*
G01X356578Y164330*
G03X356861Y164213I283J283*
G01X357256*
G03X357592Y164830I0J400*
G01X357237Y168924D02*
G03X357592Y164830I4054J-1711D01*
G01X357237Y168924D02*
G03X356968Y169466I-368J155D01*
G01X356189Y169911D02*
G03X356968Y169466I1202J1202D01*
G01X356189Y169911D02*
X353141Y172959D01*
G03X352728Y173054I-283J-283*
G01X355450Y175776D02*
G03X352728Y173054I-4159J1437D01*
G01X355450Y175776D02*
G03X355545Y175363I378J-130D01*
G01X357978Y172930*
G03X358261Y172813I283J283*
G01X358638*
G03X358859Y173546I-0J400*
G01X363723D02*
G03X358859I-2432J3667D01*
G01X363723D02*
G03X363944Y172813I221J-333D01*
G01X435754*
G03X436056Y172951I0J400*
G01X440295Y172935D02*
G03X436056Y172951I-2126J-1822D01*
G01X440295Y172935D02*
G03X440882Y172913I304J260D01*
G01X447652Y179683*
G03X447769Y179966I-283J283*
G01Y180913*
X448325Y182257D02*
G03X447769Y180913I1344J-1344D01*
G01X448325Y182257D02*
X459425Y193357D01*
X460769Y193913D02*
G03X459425Y193357I0J-1900D01*
G01X460769Y193913D02*
X461344D01*
G03X461622Y194026I0J400*
G01X464356Y189326D02*
G03X461622Y194026I-787J2687D01*
G01X464356Y189326D02*
G03X464069Y188938I113J-384D01*
G01X461315Y186113D02*
G03X464069Y188938I-46J2800D01*
G01X461315Y186113D02*
G03X461039Y185996I7J-400D01*
G01X453254Y178211*
G03X453142Y177995I283J-283*
G01X452613Y176969D02*
G03X453142Y177995I-1344J1344D01*
G01X452613Y176969D02*
X427213Y151569D01*
X425869Y151013D02*
G03X427213Y151569I0J1900D01*
G01X425869Y151013D02*
X411969D01*
X407569*
X406225Y151569D02*
G03X407569Y151013I1344J1344D01*
G01X406225Y151569D02*
X402199Y155596D01*
G03X401916Y155713I-283J-283*
G01X398269*
X387322*
G03X387039Y155596I-0J-400*
G01X385839Y154396*
G03X386122Y153713I283J-283*
G01X389869*
X391354Y153198D02*
G03X389869Y153713I-1485J-1885D01*
G01X391354Y153198D02*
G03X391602Y153113I248J315D01*
G01X399420*
G03X399614Y153163I0J400*
G01Y148263D02*
G03Y153163I1355J2450D01*
G01Y148263D02*
G03X399420Y148313I-194J-350D01*
G01X390469*
X388984Y148827D02*
G03X390469Y148313I1485J1886D01*
G01X388984Y148827D02*
G03X388737Y148913I-247J-314D01*
G01X380918*
G03X380725Y148863I0J-400*
G01X376896Y152625D02*
G03X380725Y148863I2473J-1312D01*
G01X376896Y152625D02*
G03X376542Y153213I-354J188D01*
G01X370144*
G03X369861Y153096I-0J-400*
G01X365614Y148849*
G03X365513Y148453I282J-283*
G01X362531Y151435D02*
G03X365513Y148453I-1240J-4222D01*
G01X362531Y151435D02*
G03X362927Y151536I113J383D01*
G01X364575Y153184*
G03X364042Y153779I-283J283*
G01X357268Y158995D02*
G03X364042Y153779I4023J-1782D01*
G01X357268Y158995D02*
G03X356902Y159557I-366J162D01*
G01X356205*
G03X355922Y159440I-0J-400*
G01X355545Y159063*
G03X355450Y158650I283J-283*
G01X347334Y155288D02*
G03X355450Y158650I3957J1925D01*
G01X347334Y155288D02*
G03X346975Y155513I-359J-175D01*
G01X345670*
G03X345270Y155113I0J-400*
G01Y102873*
G03X345387Y102591I400J0*
G01X347719Y100259*
G03X348001Y100142I282J283*
G01X515869*
G03X516151Y100259I-0J400*
G01X518483Y102591*
G03X518600Y102873I-283J282*
G01Y148600*
G03X518200Y149000I-400J-0*
G01X515000*
X514000Y150000D02*
G03X515000Y149000I1000J0D01*
G01X514000Y150000D02*
Y179100D01*
X515000Y180100D02*
G03X514000Y179100I0J-1000D01*
G01X515000Y180100D02*
X518200D01*
G03X518600Y180500I0J400*
G01X427499Y157230D02*
G03X427216Y157913I-283J283D01*
G01X406222*
G03X405939Y157230I-0J-400*
G01X408239Y154930*
G03X408522Y154813I283J283*
G01X411969*
X424916*
G03X425199Y154930I0J400*
G01X427499Y157230*
X366021Y154630D02*
G03X365738Y155313I-283J283D01*
G01X365504*
G03X365153Y155105I0J-400*
G01X364725Y154462D02*
G03X365153Y155105I-3434J2751D01*
G01X364725Y154462D02*
G03X365320Y153929I312J-250D01*
G01X366021Y154630*
X421293Y168670D02*
G03X421087Y169413I-206J343D01*
G01X365741*
G03X365370Y168863I-0J-400*
G01X364990Y164830D02*
G03X365370Y168863I-3699J2383D01*
G01X364990Y164830D02*
G03X365326Y164213I336J-217D01*
G01X416599*
G03X416882Y164330I0J400*
G01X420967Y168415*
X421293Y168670D02*
G03X420967Y168415I876J-1457D01*
G01X338769Y102873D02*
Y155113D01*
G03X338369Y155513I-400J-0*
G01X337607*
G03X337248Y155288I0J-400*
G01X331854Y153054D02*
G03X337248Y155288I1437J4159D01*
G01X331854Y153054D02*
G03X331441Y152959I-130J-378D01*
G01X331003Y152521*
G03X330886Y152238I283J-283*
G01Y134985*
X330388Y133783D02*
G03X330886Y134985I-1202J1202D01*
G01X330388Y133783D02*
X297984Y101379D01*
X297189Y100930D02*
G03X297984Y101379I-407J1651D01*
G01X297189Y100930D02*
G03X297285Y100142I96J-388D01*
G01X336038*
G03X336321Y100259I-0J400*
G01X338652Y102591*
G03X338769Y102873I-283J282*
G01Y159313D02*
Y235397D01*
G03X338652Y235679I-400J-0*
G01X336449Y237883*
G03X336166Y238000I-283J-283*
G01X143873*
G03X143591Y237883I0J-400*
G01X141387Y235679*
G03X141270Y235397I283J-282*
G01Y102873*
G03X141387Y102591I400J0*
G01X143719Y100259*
G03X144001Y100142I282J283*
G01X240398*
G03X240494Y100930I0J400*
G01X239699Y101379D02*
G03X240494Y100930I1202J1202D01*
G01X239699Y101379D02*
X236119Y104959D01*
G03X235706Y105054I-283J-283*
G01X238428Y107776D02*
G03X235706Y105054I-4159J1437D01*
G01X238428Y107776D02*
G03X238523Y107363I378J-130D01*
G01X241488Y104398*
G03X241771Y104281I283J283*
G01X242687*
G03X242819Y105059I0J400*
G01X245719D02*
G03X242819I-1450J4154D01*
G01X245719D02*
G03X245851Y104281I132J-378D01*
G01X252687*
G03X252819Y105059I0J400*
G01X255719D02*
G03X252819I-1450J4154D01*
G01X255719D02*
G03X255851Y104281I132J-378D01*
G01X272687*
G03X272819Y105059I0J400*
G01X278428Y107776D02*
G03X272819Y105059I-4159J1437D01*
G01X278428Y107776D02*
G03X278523Y107363I378J-130D01*
G01X280288Y105598*
G03X280571Y105481I283J283*
G01X280814*
G03X281102Y106159I-0J400*
G01X287436D02*
G03X281102I-3167J3054D01*
G01X287436D02*
G03X287724Y105481I288J-278D01*
G01X290814*
G03X291102Y106159I-0J400*
G01X298657Y109544D02*
G03X291102Y106159I-4388J-331D01*
G01X298657Y109544D02*
G03X299338Y109291I398J30D01*
G01X326169Y136122*
G03X326286Y136405I-283J283*
G01Y143175*
G03X325670Y143511I-400J-0*
G01Y150915D02*
G03Y143511I-2379J-3702D01*
G01Y150915D02*
G03X326286Y151251I216J336D01*
G01Y153175*
G03X325670Y153511I-400J-0*
G01Y160915D02*
G03Y153511I-2379J-3702D01*
G01Y160915D02*
G03X326286Y161251I216J336D01*
G01Y163175*
G03X325670Y163511I-400J-0*
G01Y170915D02*
G03Y163511I-2379J-3702D01*
G01Y170915D02*
G03X326286Y171251I216J336D01*
G01Y171908*
X326784Y173110D02*
G03X326286Y171908I1202J-1202D01*
G01X326784Y173110D02*
X329037Y175363D01*
G03X329132Y175776I-283J283*
G01X331854Y173054D02*
G03X329132Y175776I1437J4159D01*
G01X331854Y173054D02*
G03X331441Y172959I-130J-378D01*
G01X329803Y171321*
G03X329686Y171038I283J-283*
G01Y170786*
G03X330353Y170489I400J0*
G01Y163937D02*
G03Y170489I2938J3276D01*
G01Y163937D02*
G03X329686Y163640I-267J-297D01*
G01Y160786*
G03X330353Y160489I400J0*
G01X337248Y159138D02*
G03X330353Y160489I-3957J-1925D01*
G01X337248Y159138D02*
G03X337607Y158913I359J175D01*
G01X338369*
G03X338769Y159313I0J400*
G01X479769Y151713D02*
Y145713D01*
X478369Y144313D02*
G03X479769Y145713I0J1400D01*
G01X478369Y144313D02*
X472369D01*
X470969Y145713D02*
G03X472369Y144313I1400J-0D01*
G01X470969Y145713D02*
Y151713D01*
X472369Y153113D02*
G03X470969Y151713I0J-1400D01*
G01X472369Y153113D02*
X478369D01*
X479769Y151713D02*
G03X478369Y153113I-1400J-0D01*
G01X479769Y158713D02*
G03X479769I-4400J0D01*
G01Y168713D02*
G03X479769I-4400J0D01*
G01X469378Y198439D02*
G03X472843Y201904I2691J774D01*
G01X469378Y198439D02*
G03X469276Y198611I-384J-110D01*
G01X465472Y202416*
X464769Y204113D02*
G03X465472Y202416I2400J0D01*
G01X464769Y204113D02*
Y206630D01*
G03X464652Y206913I-400J0*
G01X461369Y210195*
G03X461087Y210313I-282J-282*
G01X457246*
X455846Y211713D02*
G03X457246Y210313I1400J-0D01*
G01X455846Y211713D02*
Y217713D01*
X457246Y219113D02*
G03X455846Y217713I0J-1400D01*
G01X457246Y219113D02*
X463246D01*
X464646Y217713D02*
G03X463246Y219113I-1400J-0D01*
G01X464646Y217713D02*
Y213872D01*
G03X464764Y213590I400J0*
G01X468866Y209487*
X469569Y207790D02*
G03X468866Y209487I-2400J-0D01*
G01X469569Y207790D02*
Y205273D01*
G03X469686Y204990I400J-0*
G01X472671Y202006*
G03X472843Y201904I282J282*
G01X454646Y214713D02*
G03X454646I-4400J0D01*
G01X444646D02*
G03X444646I-4400J0D01*
G01X432171Y210756D02*
G03X428321I-1925J3957D01*
G01X432171D02*
G03X431946Y210396I175J-360D01*
G01Y198521*
G03X431951Y198462I400J-0*
G01X431969Y198213D02*
G03X431951Y198462I-1700J0D01*
G01X431969Y198213D02*
Y185828D01*
G03X432107Y185526I400J-0*
G01X428431D02*
G03X432107I1838J-2113D01*
G01X428431D02*
G03X428569Y185828I-262J302D01*
G01Y197928*
G03X428565Y197987I-400J-0*
G01X428546Y198236D02*
G03X428565Y197987I1700J-0D01*
G01X428546Y198236D02*
Y210396D01*
G03X428321Y210756I-400J0*
G01X419278Y198739D02*
G03X422743Y202204I2691J774D01*
G01X419278Y198739D02*
G03X419176Y198911I-384J-110D01*
G01X408892Y209195*
G03X408610Y209313I-282J-282*
G01X387718*
G03X387525Y209263I0J-400*
G01Y214163D02*
G03Y209263I-1356J-2450D01*
G01Y214163D02*
G03X387718Y214113I193J350D01*
G01X409769*
X411466Y213410D02*
G03X409769Y214113I-1697J-1697D01*
G01X411466Y213410D02*
X422571Y202306D01*
G03X422743Y202204I282J282*
G01X365691Y187213D02*
G03X365691I-4400J0D01*
G01X355691Y190213D02*
Y184213D01*
X354291Y182813D02*
G03X355691Y184213I0J1400D01*
G01X354291Y182813D02*
X348291D01*
X346891Y184213D02*
G03X348291Y182813I1400J0D01*
G01X346891Y184213D02*
Y190213D01*
X348291Y191613D02*
G03X346891Y190213I0J-1400D01*
G01X348291Y191613D02*
X354291D01*
X355691Y190213D02*
G03X354291Y191613I-1400J0D01*
G01X328949Y187925D02*
G03X332579Y191555I4342J-712D01*
G01X328949Y187925D02*
G03X328837Y188273I-395J65D01*
G01X328374Y188736*
G03X327691Y188453I-283J-283*
G01Y184213*
X326291Y182813D02*
G03X327691Y184213I0J1400D01*
G01X326291Y182813D02*
X320291D01*
X318891Y184213D02*
G03X320291Y182813I1400J0D01*
G01X318891Y184213D02*
Y190213D01*
X319831Y191535D02*
G03X318891Y190213I460J-1322D01*
G01X319831Y191535D02*
G03X319699Y192313I-132J378D01*
G01X318868*
G03X318585Y192196I-0J-400*
G01X315979Y189590*
G03X315862Y189307I283J-283*
G01Y148406*
X315159Y146709D02*
G03X315862Y148406I-1697J1697D01*
G01X315159Y146709D02*
X292515Y124065D01*
G03X292920Y123401I283J-283*
G01X290081Y120562D02*
G03X292920Y123401I4188J-1349D01*
G01X290081Y120562D02*
G03X289417Y120967I-381J122D01*
G01X288723Y120273*
G03X288611Y119925I283J-283*
G01X284981Y123555D02*
G03X288611Y119925I-712J-4342D01*
G01X284981Y123555D02*
G03X285329Y123667I65J395D01*
G01X310945Y149283*
G03X311062Y149566I-283J283*
G01Y190467*
X311765Y192164D02*
G03X311062Y190467I1697J-1697D01*
G01X311765Y192164D02*
X316011Y196410D01*
X317708Y197113D02*
G03X316011Y196410I0J-2400D01*
G01X317708Y197113D02*
X325791D01*
X327488Y196410D02*
G03X325791Y197113I-1697J-1697D01*
G01X327488Y196410D02*
X332231Y191667D01*
G03X332579Y191555I283J283*
G01X328669Y232213D02*
Y226213D01*
X327269Y224813D02*
G03X328669Y226213I0J1400D01*
G01X327269Y224813D02*
X321269D01*
X319869Y226213D02*
G03X321269Y224813I1400J0D01*
G01X319869Y226213D02*
Y232213D01*
X321269Y233613D02*
G03X319869Y232213I0J-1400D01*
G01X321269Y233613D02*
X327269D01*
X328669Y232213D02*
G03X327269Y233613I-1400J0D01*
G01X278669Y119213D02*
G03X278669I-4400J0D01*
G01X258669D02*
G03X258669I-4400J0D01*
G01X248669D02*
G03X248669I-4400J0D01*
G01X238669D02*
G03X238669I-4400J0D01*
G01X228669Y109213D02*
G03X228669I-4400J0D01*
G01Y119213D02*
G03X228669I-4400J0D01*
G01X218669Y109213D02*
G03X218669I-4400J0D01*
G01Y119213D02*
G03X218669I-4400J0D01*
G01X208669Y112213D02*
Y106213D01*
X207269Y104813D02*
G03X208669Y106213I0J1400D01*
G01X207269Y104813D02*
X201269D01*
X199869Y106213D02*
G03X201269Y104813I1400J0D01*
G01X199869Y106213D02*
Y112213D01*
X201269Y113613D02*
G03X199869Y112213I0J-1400D01*
G01X201269Y113613D02*
X207269D01*
X208669Y112213D02*
G03X207269Y113613I-1400J0D01*
G01X208669Y119213D02*
G03X208669I-4400J0D01*
G01X254638Y172116D02*
G03X251668Y175086I-175J2795D01*
G01X254638Y172116D02*
G03X254381Y172000I25J-399D01*
G01X251309Y168929*
X249895Y168343D02*
G03X251309Y168929I0J2000D01*
G01X249895Y168343D02*
X232312D01*
G03X232029Y168226I0J-400*
G01X196386Y132582*
G03X196270Y132325I283J-282*
G01X193300Y135295D02*
G03X196270Y132325I175J-2795D01*
G01X193300Y135295D02*
G03X193557Y135411I-25J399D01*
G01X229904Y171757*
X231318Y172343D02*
G03X229904Y171757I0J-2000D01*
G01X231318Y172343D02*
X248901D01*
G03X249184Y172460I-0J400*
G01X251552Y174829*
G03X251668Y175086I-283J282*
G01X313557Y224871D02*
G03X309927Y228501I712J4342D01*
G01X313557Y224871D02*
G03X313209Y224759I-65J-395D01*
G01X294753Y206303*
X293056Y205600D02*
G03X294753Y206303I0J2400D01*
G01X293056Y205600D02*
X206000D01*
X204303Y206303D02*
G03X206000Y205600I1697J1697D01*
G01X204303Y206303D02*
X188303Y222303D01*
X187600Y224000D02*
G03X188303Y222303I2400J0D01*
G01X187600Y224000D02*
Y225314D01*
G03X187433Y225639I-400J0*
G01X186426Y226646D02*
G03X187433Y225639I3574J2567D01*
G01X186426Y226646D02*
G03X186101Y226813I-325J-233D01*
G01X183899*
G03X183574Y226646I-0J-400*
G01X176426D02*
G03X183574I3574J2567D01*
G01X176426D02*
G03X176101Y226813I-325J-233D01*
G01X173899*
G03X173574Y226646I-0J-400*
G01X166426D02*
G03X173574I3574J2567D01*
G01X166426D02*
G03X166101Y226813I-325J-233D01*
G01X163899*
G03X163574Y226646I-0J-400*
G01X156426D02*
G03X163574I3574J2567D01*
G01X156426D02*
G03X156101Y226813I-325J-233D01*
G01X154800*
G03X154400Y226413I0J-400*
G01Y226213*
X153000Y224813D02*
G03X154400Y226213I0J1400D01*
G01X153000Y224813D02*
X147000D01*
X145600Y226213D02*
G03X147000Y224813I1400J0D01*
G01X145600Y226213D02*
Y232213D01*
X147000Y233613D02*
G03X145600Y232213I0J-1400D01*
G01X147000Y233613D02*
X153000D01*
X154400Y232213D02*
G03X153000Y233613I-1400J0D01*
G01X154400Y232213D02*
Y232013D01*
G03X154800Y231613I400J0*
G01X156101*
G03X156426Y231780I0J400*
G01X163574D02*
G03X156426I-3574J-2567D01*
G01X163574D02*
G03X163899Y231613I325J233D01*
G01X166101*
G03X166426Y231780I0J400*
G01X173574D02*
G03X166426I-3574J-2567D01*
G01X173574D02*
G03X173899Y231613I325J233D01*
G01X176101*
G03X176426Y231780I0J400*
G01X183574D02*
G03X176426I-3574J-2567D01*
G01X183574D02*
G03X183899Y231613I325J233D01*
G01X186101*
G03X186426Y231780I0J400*
G01X192567Y225639D02*
G03X186426Y231780I-2567J3574D01*
G01X192567Y225639D02*
G03X192400Y225314I233J-325D01*
G01Y225160*
G03X192517Y224877I400J-0*
G01X199251Y218143*
G03X199929Y218491I283J283*
G01X203547Y214873D02*
G03X199929Y218491I722J4340D01*
G01X203547Y214873D02*
G03X203199Y214195I-65J-395D01*
G01X206877Y210517*
G03X207160Y210400I283J283*
G01X291896*
G03X292179Y210517I0J400*
G01X296023Y214361*
G03X295618Y215025I-283J283*
G01X298457Y217864D02*
G03X295618Y215025I-4188J1349D01*
G01X298457Y217864D02*
G03X299121Y217459I381J-122D01*
G01X309815Y228153*
G03X309927Y228501I-283J283*
G01X298669Y232213D02*
Y226213D01*
X297269Y224813D02*
G03X298669Y226213I0J1400D01*
G01X297269Y224813D02*
X291269D01*
X289869Y226213D02*
G03X291269Y224813I1400J0D01*
G01X289869Y226213D02*
Y232213D01*
X291269Y233613D02*
G03X289869Y232213I0J-1400D01*
G01X291269Y233613D02*
X297269D01*
X298669Y232213D02*
G03X297269Y233613I-1400J0D01*
G01X288669Y219213D02*
G03X288669I-4400J0D01*
G01Y229213D02*
G03X288669I-4400J0D01*
G01X278669Y219213D02*
G03X278669I-4400J0D01*
G01Y229213D02*
G03X278669I-4400J0D01*
G01X268669Y219213D02*
G03X268669I-4400J0D01*
G01Y229213D02*
G03X268669I-4400J0D01*
G01X258669Y219213D02*
G03X258669I-4400J0D01*
G01Y229213D02*
G03X258669I-4400J0D01*
G01X248669Y219213D02*
G03X248669I-4400J0D01*
G01Y229213D02*
G03X248669I-4400J0D01*
G01X238669Y219213D02*
G03X238669I-4400J0D01*
G01Y229213D02*
G03X238669I-4400J0D01*
G01X228669Y219213D02*
G03X228669I-4400J0D01*
G01Y229213D02*
G03X228669I-4400J0D01*
G01X218669Y219213D02*
G03X218669I-4400J0D01*
G01Y229213D02*
G03X218669I-4400J0D01*
G01X208669D02*
G03X208669I-4400J0D01*
G01X172258Y179189D02*
G03X172258I-4400J0D01*
G01Y202811D02*
G03X172258I-4400J0D01*
G01X154542D02*
G03X154542I-4400J0D01*
G01X327691Y177213D02*
G03X327691I-4400J0D01*
G01X365427Y169261D02*
X421401D01*
X365486Y168541D02*
X421107D01*
X365649Y167821D02*
X420372D01*
X365690Y167101D02*
X419652D01*
X365612Y166381D02*
X418932D01*
X365408Y165661D02*
X418212D01*
X365059Y164941D02*
X417492D01*
X365248Y164221D02*
X416677D01*
X365009Y154861D02*
X366135D01*
X364643Y154141D02*
X365532D01*
X405893Y157741D02*
X427545D01*
X406148Y157021D02*
X427290D01*
X406868Y156301D02*
X426570D01*
X407588Y155581D02*
X425850D01*
X408332Y154861D02*
X425106D01*
X345270Y234781D02*
X518600D01*
X345270Y234061D02*
X518600D01*
X345270Y233341D02*
X518600D01*
X345270Y232621D02*
X518600D01*
X345270Y231901D02*
X518600D01*
X345270Y231181D02*
X518600D01*
X345270Y230461D02*
X518600D01*
X345270Y229741D02*
X518600D01*
X345270Y229021D02*
X518600D01*
X345270Y228301D02*
X518600D01*
X345270Y227581D02*
X518600D01*
X345270Y226861D02*
X518600D01*
X345270Y226141D02*
X518600D01*
X345270Y225421D02*
X518600D01*
X345270Y224701D02*
X518600D01*
X345270Y223981D02*
X518600D01*
X345270Y223261D02*
X518600D01*
X345270Y222541D02*
X518600D01*
X345270Y221821D02*
X518600D01*
X345270Y221101D02*
X518600D01*
X345270Y220381D02*
X518600D01*
X345270Y219661D02*
X518600D01*
X463919Y218941D02*
X518600D01*
X464551Y218221D02*
X518600D01*
X464646Y217501D02*
X518600D01*
X464646Y216781D02*
X518600D01*
X464646Y216061D02*
X518600D01*
X464646Y215341D02*
X518600D01*
X464646Y214621D02*
X518600D01*
X464646Y213901D02*
X518600D01*
X465172Y213181D02*
X518600D01*
X465892Y212461D02*
X518600D01*
X466612Y211741D02*
X518600D01*
X467332Y211021D02*
X518600D01*
X468052Y210301D02*
X518600D01*
X468772Y209581D02*
X518600D01*
X469317Y208861D02*
X518600D01*
X469543Y208141D02*
X518600D01*
X469569Y207421D02*
X518600D01*
X469569Y206701D02*
X518600D01*
X469569Y205981D02*
X518600D01*
X469569Y205261D02*
X518600D01*
X470135Y204541D02*
X518600D01*
X470855Y203821D02*
X518600D01*
X471575Y203101D02*
X518600D01*
X472295Y202381D02*
X518600D01*
X473429Y201661D02*
X518600D01*
X474272Y200941D02*
X518600D01*
X474681Y200221D02*
X518600D01*
X474854Y199501D02*
X518600D01*
X474835Y198781D02*
X518600D01*
X474621Y198061D02*
X518600D01*
X474151Y197341D02*
X518600D01*
X473127Y196621D02*
X518600D01*
X431969Y195901D02*
X518600D01*
X431969Y195181D02*
X518600D01*
X464929Y194461D02*
X518600D01*
X465772Y193741D02*
X518600D01*
X466181Y193021D02*
X518600D01*
X466354Y192301D02*
X518600D01*
X466335Y191581D02*
X518600D01*
X466121Y190861D02*
X518600D01*
X465651Y190141D02*
X518600D01*
X464627Y189421D02*
X518600D01*
X464061Y188701D02*
X518600D01*
X463909Y187981D02*
X518600D01*
X463530Y187261D02*
X518600D01*
X462756Y186541D02*
X518600D01*
X460864Y185821D02*
X518600D01*
X460144Y185101D02*
X518600D01*
X459424Y184381D02*
X518600D01*
X458704Y183661D02*
X518600D01*
X457984Y182941D02*
X518600D01*
X457264Y182221D02*
X518600D01*
X456544Y181501D02*
X518600D01*
X455824Y180781D02*
X518600D01*
X479769Y148381D02*
X518600D01*
X479769Y147661D02*
X518600D01*
X479769Y146941D02*
X518600D01*
X479769Y146221D02*
X518600D01*
X479753Y145501D02*
X518600D01*
X479414Y144781D02*
X518600D01*
X364361Y144061D02*
X518600D01*
X363380Y143341D02*
X518600D01*
X345270Y142621D02*
X518600D01*
X345270Y141901D02*
X518600D01*
X345270Y141181D02*
X518600D01*
X345270Y140461D02*
X518600D01*
X345270Y139741D02*
X518600D01*
X345270Y139021D02*
X518600D01*
X345270Y138301D02*
X518600D01*
X345270Y137581D02*
X518600D01*
X345270Y136861D02*
X518600D01*
X345270Y136141D02*
X518600D01*
X345270Y135421D02*
X518600D01*
X345270Y134701D02*
X518600D01*
X345270Y133981D02*
X518600D01*
X345270Y133261D02*
X518600D01*
X345270Y132541D02*
X518600D01*
X345270Y131821D02*
X518600D01*
X345270Y131101D02*
X518600D01*
X345270Y130381D02*
X518600D01*
X345270Y129661D02*
X518600D01*
X345270Y128941D02*
X518600D01*
X345270Y128221D02*
X518600D01*
X345270Y127501D02*
X518600D01*
X345270Y126781D02*
X518600D01*
X345270Y126061D02*
X518600D01*
X345270Y125341D02*
X518600D01*
X345270Y124621D02*
X518600D01*
X345270Y123901D02*
X518600D01*
X345270Y123181D02*
X518600D01*
X345270Y122461D02*
X518600D01*
X345270Y121741D02*
X518600D01*
X345270Y121021D02*
X518600D01*
X345270Y120301D02*
X518600D01*
X345270Y119581D02*
X518600D01*
X345270Y118861D02*
X518600D01*
X345270Y118141D02*
X518600D01*
X345270Y117421D02*
X518600D01*
X345270Y116701D02*
X518600D01*
X345270Y115981D02*
X518600D01*
X345270Y115261D02*
X518600D01*
X345270Y114541D02*
X518600D01*
X345270Y113821D02*
X518600D01*
X345270Y113101D02*
X518600D01*
X345270Y112381D02*
X518600D01*
X345270Y111661D02*
X518600D01*
X345270Y110941D02*
X518600D01*
X345270Y110221D02*
X518600D01*
X345270Y109501D02*
X518600D01*
X345270Y108781D02*
X518600D01*
X345270Y108061D02*
X518600D01*
X345270Y107341D02*
X518600D01*
X345270Y106621D02*
X518600D01*
X345270Y105901D02*
X518600D01*
X345270Y105181D02*
X518600D01*
X345270Y104461D02*
X518600D01*
X345270Y103741D02*
X518600D01*
X345270Y103021D02*
X518600D01*
X345284Y235501D02*
X518586D01*
X345677Y102301D02*
X518193D01*
X345928Y236221D02*
X517942D01*
X346397Y101581D02*
X517473D01*
X346648Y236941D02*
X517222D01*
X347117Y100861D02*
X516753D01*
X347368Y237661D02*
X516502D01*
X455104Y180061D02*
X514722D01*
X479769Y149101D02*
X514563D01*
X454384Y179341D02*
X514029D01*
X479769Y149821D02*
X514016D01*
X453664Y178621D02*
X514000D01*
X453124Y177901D02*
X514000D01*
X452795Y177181D02*
X514000D01*
X452104Y176461D02*
X514000D01*
X451384Y175741D02*
X514000D01*
X450664Y175021D02*
X514000D01*
X449944Y174301D02*
X514000D01*
X449224Y173581D02*
X514000D01*
X476837Y172861D02*
X514000D01*
X478128Y172141D02*
X514000D01*
X478837Y171421D02*
X514000D01*
X479295Y170701D02*
X514000D01*
X479583Y169981D02*
X514000D01*
X479735Y169261D02*
X514000D01*
X479766Y168541D02*
X514000D01*
X479678Y167821D02*
X514000D01*
X479463Y167101D02*
X514000D01*
X479101Y166381D02*
X514000D01*
X478539Y165661D02*
X514000D01*
X477635Y164941D02*
X514000D01*
X439864Y164221D02*
X514000D01*
X439144Y163501D02*
X514000D01*
X477046Y162781D02*
X514000D01*
X478224Y162061D02*
X514000D01*
X478898Y161341D02*
X514000D01*
X479334Y160621D02*
X514000D01*
X479606Y159901D02*
X514000D01*
X479744Y159181D02*
X514000D01*
X479762Y158461D02*
X514000D01*
X479661Y157741D02*
X514000D01*
X479431Y157021D02*
X514000D01*
X479049Y156301D02*
X514000D01*
X478460Y155581D02*
X514000D01*
X477496Y154861D02*
X514000D01*
X429784Y154141D02*
X514000D01*
X429064Y153421D02*
X514000D01*
X479361Y152701D02*
X514000D01*
X479743Y151981D02*
X514000D01*
X479769Y151261D02*
X514000D01*
X479769Y150541D02*
X514000D01*
X448504Y172861D02*
X473902D01*
X438424Y162781D02*
X473693D01*
X430504Y154861D02*
X473243D01*
X440584Y164941D02*
X473104D01*
X447784Y172141D02*
X472611D01*
X437704Y162061D02*
X472514D01*
X431224Y155581D02*
X472279D01*
X441304Y165661D02*
X472200D01*
X447064Y171421D02*
X471901D01*
X436984Y161341D02*
X471840D01*
X431944Y156301D02*
X471689D01*
X442024Y166381D02*
X471638D01*
X446344Y170701D02*
X471444D01*
X436264Y160621D02*
X471405D01*
X428344Y152701D02*
X471377D01*
X364958Y144781D02*
X471325D01*
X432664Y157021D02*
X471308D01*
X442744Y167101D02*
X471275D01*
X445624Y169981D02*
X471156D01*
X435544Y159901D02*
X471133D01*
X433384Y157741D02*
X471078D01*
X443464Y167821D02*
X471061D01*
X431969Y196621D02*
X471011D01*
X444904Y169261D02*
X471004D01*
X427624Y151981D02*
X470995D01*
X434824Y159181D02*
X470994D01*
X365344Y145501D02*
X470985D01*
X434104Y158461D02*
X470977D01*
X444184Y168541D02*
X470973D01*
X426807Y151261D02*
X470969D01*
X403764Y150541D02*
X470969D01*
X403623Y149821D02*
X470969D01*
X403259Y149101D02*
X470969D01*
X402519Y148381D02*
X470969D01*
X365668Y147661D02*
X470969D01*
X365683Y146941D02*
X470969D01*
X365578Y146221D02*
X470969D01*
X431969Y197341D02*
X469987D01*
X431969Y198061D02*
X469517D01*
X431946Y198781D02*
X469107D01*
X431946Y199501D02*
X468387D01*
X431946Y200221D02*
X467667D01*
X431946Y200941D02*
X466947D01*
X431946Y201661D02*
X466227D01*
X431946Y202381D02*
X465507D01*
X431946Y203101D02*
X464993D01*
X431946Y203821D02*
X464787D01*
X431946Y205981D02*
X464769D01*
X431946Y205261D02*
X464769D01*
X431946Y204541D02*
X464769D01*
X431946Y206701D02*
X464763D01*
X431946Y207421D02*
X464144D01*
X431946Y208141D02*
X463424D01*
X431946Y208861D02*
X462704D01*
X431969Y194461D02*
X462209D01*
X431946Y209581D02*
X461984D01*
X431946Y210301D02*
X461183D01*
X431969Y193741D02*
X459978D01*
X431969Y193021D02*
X459090D01*
X431969Y192301D02*
X458370D01*
X431969Y191581D02*
X457650D01*
X431969Y190861D02*
X456930D01*
X451464Y218941D02*
X456574D01*
X431969Y190141D02*
X456210D01*
X452640Y211021D02*
X456029D01*
X452902Y218221D02*
X455942D01*
X453650Y217501D02*
X455846D01*
X454130Y216781D02*
X455846D01*
X454435Y216061D02*
X455846D01*
X454601Y215341D02*
X455846D01*
X454645Y214621D02*
X455846D01*
X454571Y213901D02*
X455846D01*
X454371Y213181D02*
X455846D01*
X454026Y212461D02*
X455846D01*
X453491Y211741D02*
X455846D01*
X431969Y189421D02*
X455490D01*
X431969Y188701D02*
X454770D01*
X431969Y187981D02*
X454050D01*
X431969Y187261D02*
X453330D01*
X431969Y186541D02*
X452610D01*
X431969Y185821D02*
X451890D01*
X432503Y185101D02*
X451170D01*
X432896Y184381D02*
X450450D01*
X433058Y183661D02*
X449730D01*
X441464Y218941D02*
X449028D01*
X433029Y182941D02*
X449010D01*
X432802Y182221D02*
X448291D01*
X432314Y181501D02*
X447862D01*
X442640Y211021D02*
X447853D01*
X431223Y180781D02*
X447769D01*
X364645Y180061D02*
X447769D01*
X442902Y218221D02*
X447590D01*
X365142Y179341D02*
X447310D01*
X443491Y211741D02*
X447002D01*
X443650Y217501D02*
X446842D01*
X365460Y178621D02*
X446590D01*
X444026Y212461D02*
X446466D01*
X444130Y216781D02*
X446363D01*
X444371Y213181D02*
X446122D01*
X444435Y216061D02*
X446058D01*
X444571Y213901D02*
X445922D01*
X444601Y215341D02*
X445891D01*
X365637Y177901D02*
X445870D01*
X444645Y214621D02*
X445847D01*
X365691Y177181D02*
X445150D01*
X365626Y176461D02*
X444430D01*
X365437Y175741D02*
X443710D01*
X365106Y175021D02*
X442990D01*
X364589Y174301D02*
X442270D01*
X439492Y173581D02*
X441550D01*
X440380Y172861D02*
X440818D01*
X431464Y218941D02*
X439028D01*
X432640Y211021D02*
X437853D01*
X432902Y218221D02*
X437590D01*
X433491Y211741D02*
X437002D01*
X363774Y173581D02*
X436846D01*
X433650Y217501D02*
X436842D01*
X434026Y212461D02*
X436466D01*
X434130Y216781D02*
X436363D01*
X434371Y213181D02*
X436122D01*
X434435Y216061D02*
X436058D01*
X363755Y172861D02*
X435944D01*
X434571Y213901D02*
X435922D01*
X434601Y215341D02*
X435891D01*
X434645Y214621D02*
X435847D01*
X363866Y180781D02*
X429315D01*
X345270Y218941D02*
X429028D01*
X423736Y197341D02*
X428569D01*
X345270Y196621D02*
X428569D01*
X345270Y195901D02*
X428569D01*
X345270Y195181D02*
X428569D01*
X345270Y194461D02*
X428569D01*
X345270Y193741D02*
X428569D01*
X345270Y193021D02*
X428569D01*
X345270Y192301D02*
X428569D01*
X361823Y191581D02*
X428569D01*
X363752Y190861D02*
X428569D01*
X364576Y190141D02*
X428569D01*
X365097Y189421D02*
X428569D01*
X365432Y188701D02*
X428569D01*
X365624Y187981D02*
X428569D01*
X365691Y187261D02*
X428569D01*
X365639Y186541D02*
X428569D01*
X365465Y185821D02*
X428569D01*
X424363Y198061D02*
X428555D01*
X414575Y210301D02*
X428546D01*
X415295Y209581D02*
X428546D01*
X416015Y208861D02*
X428546D01*
X416735Y208141D02*
X428546D01*
X417455Y207421D02*
X428546D01*
X418175Y206701D02*
X428546D01*
X418895Y205981D02*
X428546D01*
X419615Y205261D02*
X428546D01*
X420335Y204541D02*
X428546D01*
X421055Y203821D02*
X428546D01*
X421775Y203101D02*
X428546D01*
X422495Y202381D02*
X428546D01*
X423766Y201661D02*
X428546D01*
X424378Y200941D02*
X428546D01*
X424678Y200221D02*
X428546D01*
X424769Y199501D02*
X428546D01*
X424672Y198781D02*
X428546D01*
X362279Y181501D02*
X428224D01*
X365151Y185101D02*
X428035D01*
X413855Y211021D02*
X427853D01*
X345270Y182221D02*
X427736D01*
X364658Y184381D02*
X427642D01*
X345270Y218221D02*
X427590D01*
X362343Y182941D02*
X427509D01*
X363887Y183661D02*
X427480D01*
X413135Y211741D02*
X427002D01*
X345270Y217501D02*
X426842D01*
X412415Y212461D02*
X426466D01*
X345270Y216781D02*
X426363D01*
X411695Y213181D02*
X426122D01*
X345270Y216061D02*
X426058D01*
X410755Y213901D02*
X425922D01*
X345270Y215341D02*
X425891D01*
X345270Y214621D02*
X425847D01*
X345270Y197341D02*
X420202D01*
X345270Y198061D02*
X419575D01*
X345270Y198781D02*
X419264D01*
X345270Y199501D02*
X418587D01*
X345270Y200221D02*
X417867D01*
X345270Y200941D02*
X417147D01*
X345270Y201661D02*
X416427D01*
X345270Y202381D02*
X415707D01*
X345270Y203101D02*
X414987D01*
X345270Y203821D02*
X414267D01*
X345270Y204541D02*
X413547D01*
X345270Y205261D02*
X412827D01*
X345270Y205981D02*
X412107D01*
X345270Y206701D02*
X411387D01*
X345270Y207421D02*
X410667D01*
X345270Y208141D02*
X409947D01*
X345270Y208861D02*
X409227D01*
X403715Y151261D02*
X406631D01*
X403466Y151981D02*
X405814D01*
X402941Y152701D02*
X405094D01*
X401681Y153421D02*
X404374D01*
X385723Y154141D02*
X403654D01*
X386304Y154861D02*
X402934D01*
X387024Y155581D02*
X402214D01*
X391017Y153421D02*
X400258D01*
X365533Y148381D02*
X389902D01*
X345270Y213901D02*
X384422D01*
X345270Y209581D02*
X384354D01*
X345270Y213181D02*
X383785D01*
X345270Y210301D02*
X383751D01*
X345270Y212461D02*
X383471D01*
X345270Y211021D02*
X383456D01*
X345270Y211741D02*
X383369D01*
X365866Y149101D02*
X377653D01*
X366586Y149821D02*
X377000D01*
X369466Y152701D02*
X376926D01*
X367306Y150541D02*
X376678D01*
X368746Y151981D02*
X376650D01*
X368026Y151261D02*
X376569D01*
X363522Y153421D02*
X364690D01*
X345270Y152701D02*
X364092D01*
X345270Y151981D02*
X363372D01*
X354590Y191581D02*
X360759D01*
X352279Y181501D02*
X360303D01*
X354875Y182941D02*
X360239D01*
X345270Y151261D02*
X359566D01*
X345270Y143341D02*
X359202D01*
X353522Y153421D02*
X359060D01*
X355532Y190861D02*
X358830D01*
X358071Y172861D02*
X358827D01*
X357328Y173581D02*
X358808D01*
X353866Y180781D02*
X358716D01*
X355577Y183661D02*
X358695D01*
X345270Y150541D02*
X358412D01*
X345270Y144061D02*
X358221D01*
X354441Y154141D02*
X358141D01*
X355691Y190141D02*
X358006D01*
X356608Y174301D02*
X357993D01*
X354645Y180061D02*
X357937D01*
X355691Y184381D02*
X357924D01*
X345270Y149821D02*
X357747D01*
X345270Y144781D02*
X357624D01*
X355009Y154861D02*
X357573D01*
X355968Y164941D02*
X357523D01*
X355691Y189421D02*
X357485D01*
X355888Y175021D02*
X357476D01*
X355142Y179341D02*
X357440D01*
X355691Y185101D02*
X357431D01*
X356783Y164221D02*
X357334D01*
X345270Y149101D02*
X357316D01*
X355663Y159181D02*
X357302D01*
X345270Y145501D02*
X357238D01*
X355186Y169261D02*
X357225D01*
X355377Y155581D02*
X357205D01*
X355428Y165661D02*
X357174D01*
X355691Y188701D02*
X357150D01*
X355439Y175741D02*
X357145D01*
X355460Y178621D02*
X357122D01*
X355691Y185821D02*
X357117D01*
X355486Y168541D02*
X357096D01*
X355510Y158461D02*
X357072D01*
X345270Y148381D02*
X357049D01*
X345270Y146221D02*
X357004D01*
X355595Y156301D02*
X356987D01*
X355612Y166381D02*
X356970D01*
X355691Y187981D02*
X356958D01*
X355626Y176461D02*
X356956D01*
X355637Y177901D02*
X356945D01*
X355691Y186541D02*
X356943D01*
X355649Y167821D02*
X356933D01*
X355659Y157741D02*
X356923D01*
X345270Y147661D02*
X356914D01*
X345270Y146941D02*
X356899D01*
X355687Y157021D02*
X356895D01*
X355690Y167101D02*
X356892D01*
X355691Y187261D02*
X356891D01*
X355691Y177181D02*
X356891D01*
X354712Y169981D02*
X356119D01*
X353974Y170701D02*
X355399D01*
X352578Y171421D02*
X354679D01*
X345270Y172141D02*
X353959D01*
X345270Y162061D02*
X353691D01*
X345270Y162781D02*
X353319D01*
X351937Y172861D02*
X353239D01*
X345270D02*
X350645D01*
X345270Y181501D02*
X350303D01*
X345270Y171421D02*
X350004D01*
X345270Y161341D02*
X349767D01*
X345270Y153421D02*
X349060D01*
X345270Y163501D02*
X348929D01*
X345270Y173581D02*
X348808D01*
X345270Y180781D02*
X348716D01*
X345270Y170701D02*
X348608D01*
X345270Y160621D02*
X348508D01*
X345270Y154141D02*
X348141D01*
X345270Y164221D02*
X348065D01*
X345270Y174301D02*
X347993D01*
X345270Y191581D02*
X347992D01*
X345270Y180061D02*
X347937D01*
X345270Y169981D02*
X347870D01*
X345270Y159901D02*
X347807D01*
X345270Y182941D02*
X347707D01*
X345270Y154861D02*
X347573D01*
X345270Y164941D02*
X347523D01*
X345270Y175021D02*
X347476D01*
X345270Y179341D02*
X347440D01*
X345270Y169261D02*
X347396D01*
X345293Y159181D02*
X347355D01*
X345270Y165661D02*
X347174D01*
X345270Y175741D02*
X347145D01*
X345270Y178621D02*
X347122D01*
X345270Y168541D02*
X347096D01*
X345270Y190861D02*
X347050D01*
X345270Y183661D02*
X347005D01*
X345270Y166381D02*
X346970D01*
X345270Y176461D02*
X346956D01*
X345270Y177901D02*
X346945D01*
X345270Y167821D02*
X346933D01*
X345270Y167101D02*
X346892D01*
X345270Y177181D02*
X346891D01*
X345270Y190141D02*
X346891D01*
X345270Y189421D02*
X346891D01*
X345270Y188701D02*
X346891D01*
X345270Y187981D02*
X346891D01*
X345270Y187261D02*
X346891D01*
X345270Y186541D02*
X346891D01*
X345270Y185821D02*
X346891D01*
X345270Y185101D02*
X346891D01*
X345270Y184381D02*
X346891D01*
X141270Y234781D02*
X338769D01*
X141270Y234061D02*
X338769D01*
X328099Y233341D02*
X338769D01*
X328608Y232621D02*
X338769D01*
X328669Y231901D02*
X338769D01*
X328669Y231181D02*
X338769D01*
X328669Y230461D02*
X338769D01*
X328669Y229741D02*
X338769D01*
X328669Y229021D02*
X338769D01*
X328669Y228301D02*
X338769D01*
X328669Y227581D02*
X338769D01*
X328669Y226861D02*
X338769D01*
X328667Y226141D02*
X338769D01*
X328423Y225421D02*
X338769D01*
X313151Y224701D02*
X338769D01*
X312431Y223981D02*
X338769D01*
X311711Y223261D02*
X338769D01*
X310991Y222541D02*
X338769D01*
X310271Y221821D02*
X338769D01*
X309551Y221101D02*
X338769D01*
X308831Y220381D02*
X338769D01*
X308111Y219661D02*
X338769D01*
X307391Y218941D02*
X338769D01*
X306671Y218221D02*
X338769D01*
X305951Y217501D02*
X338769D01*
X305231Y216781D02*
X338769D01*
X304511Y216061D02*
X338769D01*
X303791Y215341D02*
X338769D01*
X303071Y214621D02*
X338769D01*
X302351Y213901D02*
X338769D01*
X301631Y213181D02*
X338769D01*
X300911Y212461D02*
X338769D01*
X300191Y211741D02*
X338769D01*
X299471Y211021D02*
X338769D01*
X298751Y210301D02*
X338769D01*
X298031Y209581D02*
X338769D01*
X297311Y208861D02*
X338769D01*
X296591Y208141D02*
X338769D01*
X295871Y207421D02*
X338769D01*
X295151Y206701D02*
X338769D01*
X294353Y205981D02*
X338769D01*
X171513Y205261D02*
X338769D01*
X171904Y204541D02*
X338769D01*
X172141Y203821D02*
X338769D01*
X172249Y203101D02*
X338769D01*
X172237Y202381D02*
X338769D01*
X172105Y201661D02*
X338769D01*
X171841Y200941D02*
X338769D01*
X171415Y200221D02*
X338769D01*
X170757Y199501D02*
X338769D01*
X169624Y198781D02*
X338769D01*
X141270Y198061D02*
X338769D01*
X141270Y197341D02*
X338769D01*
X327247Y196621D02*
X338769D01*
X327997Y195901D02*
X338769D01*
X328717Y195181D02*
X338769D01*
X329437Y194461D02*
X338769D01*
X330157Y193741D02*
X338769D01*
X330877Y193021D02*
X338769D01*
X331597Y192301D02*
X338769D01*
X333823Y191581D02*
X338769D01*
X335752Y190861D02*
X338769D01*
X336576Y190141D02*
X338769D01*
X337097Y189421D02*
X338769D01*
X337432Y188701D02*
X338769D01*
X337624Y187981D02*
X338769D01*
X337691Y187261D02*
X338769D01*
X337639Y186541D02*
X338769D01*
X337465Y185821D02*
X338769D01*
X337151Y185101D02*
X338769D01*
X336658Y184381D02*
X338769D01*
X335887Y183661D02*
X338769D01*
X334343Y182941D02*
X338769D01*
X315862Y182221D02*
X338769D01*
X334279Y181501D02*
X338769D01*
X335866Y180781D02*
X338769D01*
X336645Y180061D02*
X338769D01*
X337142Y179341D02*
X338769D01*
X337460Y178621D02*
X338769D01*
X337637Y177901D02*
X338769D01*
X337691Y177181D02*
X338769D01*
X337626Y176461D02*
X338769D01*
X337437Y175741D02*
X338769D01*
X337106Y175021D02*
X338769D01*
X336589Y174301D02*
X338769D01*
X335774Y173581D02*
X338769D01*
X333937Y172861D02*
X338769D01*
X330623Y172141D02*
X338769D01*
X334578Y171421D02*
X338769D01*
X335974Y170701D02*
X338769D01*
X336712Y169981D02*
X338769D01*
X337186Y169261D02*
X338769D01*
X337486Y168541D02*
X338769D01*
X337649Y167821D02*
X338769D01*
X337690Y167101D02*
X338769D01*
X337612Y166381D02*
X338769D01*
X337408Y165661D02*
X338769D01*
X337059Y164941D02*
X338769D01*
X336517Y164221D02*
X338769D01*
X335653Y163501D02*
X338769D01*
X329686Y162781D02*
X338769D01*
X329686Y162061D02*
X338769D01*
X334815Y161341D02*
X338769D01*
X336074Y160621D02*
X338769D01*
X336775Y159901D02*
X338769D01*
X141284Y235501D02*
X338756D01*
X337227Y159181D02*
X338747D01*
X141928Y236221D02*
X338111D01*
X142648Y236941D02*
X337391D01*
X143368Y237661D02*
X336671D01*
X332360Y191581D02*
X332759D01*
X331343Y172861D02*
X332645D01*
X324279Y181501D02*
X332303D01*
X326875Y182941D02*
X332239D01*
X329903Y171421D02*
X332004D01*
X329686Y161341D02*
X331767D01*
X329686Y163501D02*
X330929D01*
X325866Y180781D02*
X330716D01*
X327577Y183661D02*
X330695D01*
X329695Y170701D02*
X330608D01*
X329722Y160621D02*
X330508D01*
X326645Y180061D02*
X329937D01*
X327691Y184381D02*
X329924D01*
X327142Y179341D02*
X329440D01*
X327691Y185101D02*
X329431D01*
X327437Y175741D02*
X329143D01*
X327460Y178621D02*
X329122D01*
X327691Y185821D02*
X329117D01*
X327626Y176461D02*
X328956D01*
X327691Y187981D02*
X328954D01*
X327637Y177901D02*
X328945D01*
X327691Y186541D02*
X328943D01*
X327691Y187261D02*
X328891D01*
X327691Y177181D02*
X328891D01*
X327106Y175021D02*
X328694D01*
X327777Y188701D02*
X328409D01*
X326589Y174301D02*
X327974D01*
X325774Y173581D02*
X327254D01*
X323937Y172861D02*
X326578D01*
X315862Y172141D02*
X326302D01*
X324578Y171421D02*
X326286D01*
X315862Y162781D02*
X326286D01*
X315862Y162061D02*
X326286D01*
X324815Y161341D02*
X326286D01*
X315862Y152701D02*
X326286D01*
X315862Y151981D02*
X326286D01*
X325016Y151261D02*
X326286D01*
X311071Y142621D02*
X326286D01*
X310351Y141901D02*
X326286D01*
X309631Y141181D02*
X326286D01*
X308911Y140461D02*
X326286D01*
X308191Y139741D02*
X326286D01*
X307471Y139021D02*
X326286D01*
X306751Y138301D02*
X326286D01*
X306031Y137581D02*
X326286D01*
X305311Y136861D02*
X326286D01*
X325380Y143341D02*
X326250D01*
X325522Y153421D02*
X326202D01*
X304591Y136141D02*
X326186D01*
X325653Y163501D02*
X326118D01*
X303871Y135421D02*
X325467D01*
X303151Y134701D02*
X324747D01*
X302431Y133981D02*
X324027D01*
X301711Y133261D02*
X323307D01*
X315862Y172861D02*
X322645D01*
X300991Y132541D02*
X322587D01*
X315862Y181501D02*
X322303D01*
X315862Y171421D02*
X322004D01*
X300271Y131821D02*
X321867D01*
X315862Y161341D02*
X321767D01*
X315862Y151261D02*
X321566D01*
X311791Y143341D02*
X321202D01*
X299551Y131101D02*
X321147D01*
X315862Y153421D02*
X321060D01*
X315862Y163501D02*
X320929D01*
X315862Y173581D02*
X320808D01*
X315862Y180781D02*
X320716D01*
X315862Y170701D02*
X320608D01*
X315862Y160621D02*
X320508D01*
X315793Y233341D02*
X320439D01*
X298831Y130381D02*
X320427D01*
X315862Y150541D02*
X320412D01*
X312511Y144061D02*
X320221D01*
X315862Y154141D02*
X320141D01*
X316500Y225421D02*
X320115D01*
X315862Y164221D02*
X320065D01*
X315862Y174301D02*
X319993D01*
X315862Y180061D02*
X319937D01*
X317052Y232621D02*
X319930D01*
X317970Y191581D02*
X319922D01*
X317419Y226141D02*
X319871D01*
X315862Y169981D02*
X319870D01*
X317753Y231901D02*
X319869D01*
X318205Y231181D02*
X319869D01*
X318488Y230461D02*
X319869D01*
X318637Y229741D02*
X319869D01*
X318665Y229021D02*
X319869D01*
X318573Y228301D02*
X319869D01*
X318355Y227581D02*
X319869D01*
X317987Y226861D02*
X319869D01*
X315862Y159901D02*
X319807D01*
X318769Y192301D02*
X319798D01*
X315862Y149821D02*
X319747D01*
X298111Y129661D02*
X319707D01*
X315862Y182941D02*
X319707D01*
X313231Y144781D02*
X319624D01*
X315862Y154861D02*
X319573D01*
X315862Y164941D02*
X319523D01*
X315862Y175021D02*
X319476D01*
X315862Y179341D02*
X319440D01*
X315862Y169261D02*
X319396D01*
X315862Y159181D02*
X319355D01*
X315862Y149101D02*
X319316D01*
X313951Y145501D02*
X319238D01*
X315862Y155581D02*
X319205D01*
X315862Y165661D02*
X319174D01*
X315862Y175741D02*
X319145D01*
X315862Y178621D02*
X319122D01*
X315862Y168541D02*
X319096D01*
X315862Y158461D02*
X319072D01*
X317250Y190861D02*
X319050D01*
X315862Y148381D02*
X319049D01*
X315862Y183661D02*
X319005D01*
X314671Y146221D02*
X319004D01*
X297391Y128941D02*
X318987D01*
X315862Y156301D02*
X318987D01*
X315862Y166381D02*
X318970D01*
X315862Y176461D02*
X318956D01*
X315862Y177901D02*
X318945D01*
X315862Y167821D02*
X318933D01*
X315862Y157741D02*
X318923D01*
X315743Y147661D02*
X318914D01*
X315363Y146941D02*
X318899D01*
X315862Y157021D02*
X318895D01*
X315862Y167101D02*
X318892D01*
X315862Y177181D02*
X318891D01*
X316530Y190141D02*
X318891D01*
X315878Y189421D02*
X318891D01*
X315862Y188701D02*
X318891D01*
X315862Y187981D02*
X318891D01*
X315862Y187261D02*
X318891D01*
X315862Y186541D02*
X318891D01*
X315862Y185821D02*
X318891D01*
X315862Y185101D02*
X318891D01*
X315862Y184381D02*
X318891D01*
X296671Y128221D02*
X318267D01*
X295951Y127501D02*
X317547D01*
X295231Y126781D02*
X316827D01*
X141270Y196621D02*
X316252D01*
X294511Y126061D02*
X316107D01*
X141270Y195901D02*
X315502D01*
X293791Y125341D02*
X315387D01*
X141270Y195181D02*
X314782D01*
X293071Y124621D02*
X314667D01*
X141270Y194461D02*
X314062D01*
X292416Y123901D02*
X313947D01*
X141270Y193741D02*
X313342D01*
X296171Y123181D02*
X313227D01*
X298099Y233341D02*
X312745D01*
X141270Y193021D02*
X312622D01*
X297238Y122461D02*
X312507D01*
X141270Y192301D02*
X311902D01*
X297871Y121741D02*
X311787D01*
X298608Y232621D02*
X311486D01*
X141270Y191581D02*
X311336D01*
X141270Y190861D02*
X311094D01*
X298281Y121021D02*
X311067D01*
X141270Y190141D02*
X311062D01*
X141270Y189421D02*
X311062D01*
X141270Y188701D02*
X311062D01*
X141270Y187981D02*
X311062D01*
X141270Y187261D02*
X311062D01*
X141270Y186541D02*
X311062D01*
X141270Y185821D02*
X311062D01*
X141270Y185101D02*
X311062D01*
X141270Y184381D02*
X311062D01*
X141270Y183661D02*
X311062D01*
X170157Y182941D02*
X311062D01*
X171047Y182221D02*
X311062D01*
X171602Y181501D02*
X311062D01*
X171960Y180781D02*
X311062D01*
X172171Y180061D02*
X311062D01*
X172256Y179341D02*
X311062D01*
X172221Y178621D02*
X311062D01*
X172065Y177901D02*
X311062D01*
X256103Y177181D02*
X311062D01*
X256795Y176461D02*
X311062D01*
X257137Y175741D02*
X311062D01*
X257261Y175021D02*
X311062D01*
X257196Y174301D02*
X311062D01*
X256927Y173581D02*
X311062D01*
X256370Y172861D02*
X311062D01*
X254870Y172141D02*
X311062D01*
X253801Y171421D02*
X311062D01*
X253081Y170701D02*
X311062D01*
X252361Y169981D02*
X311062D01*
X251641Y169261D02*
X311062D01*
X250762Y168541D02*
X311062D01*
X231624Y167821D02*
X311062D01*
X230904Y167101D02*
X311062D01*
X230184Y166381D02*
X311062D01*
X229464Y165661D02*
X311062D01*
X228744Y164941D02*
X311062D01*
X228024Y164221D02*
X311062D01*
X227304Y163501D02*
X311062D01*
X226584Y162781D02*
X311062D01*
X225864Y162061D02*
X311062D01*
X225144Y161341D02*
X311062D01*
X224424Y160621D02*
X311062D01*
X223704Y159901D02*
X311062D01*
X222984Y159181D02*
X311062D01*
X222264Y158461D02*
X311062D01*
X221544Y157741D02*
X311062D01*
X220824Y157021D02*
X311062D01*
X220104Y156301D02*
X311062D01*
X219384Y155581D02*
X311062D01*
X218664Y154861D02*
X311062D01*
X217944Y154141D02*
X311062D01*
X217224Y153421D02*
X311062D01*
X216504Y152701D02*
X311062D01*
X215784Y151981D02*
X311062D01*
X215064Y151261D02*
X311062D01*
X214344Y150541D02*
X311062D01*
X213624Y149821D02*
X311062D01*
X298669Y231901D02*
X310785D01*
X212904Y149101D02*
X310763D01*
X298532Y120301D02*
X310347D01*
X298669Y231181D02*
X310333D01*
X298669Y230461D02*
X310050D01*
X212184Y148381D02*
X310043D01*
X298669Y228301D02*
X309909D01*
X298669Y229741D02*
X309901D01*
X298669Y229021D02*
X309873D01*
X298654Y119581D02*
X309627D01*
X211464Y147661D02*
X309323D01*
X298669Y227581D02*
X309243D01*
X298655Y118861D02*
X308907D01*
X210744Y146941D02*
X308603D01*
X298669Y226861D02*
X308523D01*
X298536Y118141D02*
X308187D01*
X210024Y146221D02*
X307883D01*
X298667Y226141D02*
X307803D01*
X298287Y117421D02*
X307467D01*
X209304Y145501D02*
X307163D01*
X298423Y225421D02*
X307083D01*
X297881Y116701D02*
X306747D01*
X208584Y144781D02*
X306443D01*
X192693Y224701D02*
X306363D01*
X297254Y115981D02*
X306027D01*
X207864Y144061D02*
X305723D01*
X193413Y223981D02*
X305643D01*
X296203Y115261D02*
X305307D01*
X207144Y143341D02*
X305003D01*
X295994Y223261D02*
X304923D01*
X141270Y114541D02*
X304587D01*
X206424Y142621D02*
X304283D01*
X297148Y222541D02*
X304203D01*
X141270Y113821D02*
X303867D01*
X205704Y141901D02*
X303563D01*
X297813Y221821D02*
X303483D01*
X296330Y113101D02*
X303147D01*
X204984Y141181D02*
X302843D01*
X298244Y221101D02*
X302763D01*
X297323Y112381D02*
X302427D01*
X204264Y140461D02*
X302123D01*
X298511Y220381D02*
X302043D01*
X297925Y111661D02*
X301707D01*
X203544Y139741D02*
X301403D01*
X298646Y219661D02*
X301323D01*
X298316Y110941D02*
X300987D01*
X202824Y139021D02*
X300683D01*
X298661Y218941D02*
X300603D01*
X298552Y110221D02*
X300267D01*
X202104Y138301D02*
X299963D01*
X298556Y218221D02*
X299883D01*
X298662Y109501D02*
X299547D01*
X201384Y137581D02*
X299243D01*
X298519Y217501D02*
X299163D01*
X200664Y136861D02*
X298523D01*
X199944Y136141D02*
X297803D01*
X199224Y135421D02*
X297083D01*
X198504Y134701D02*
X296363D01*
X203108Y214621D02*
X296139D01*
X197784Y133981D02*
X295643D01*
X203493Y213901D02*
X295563D01*
X197064Y133261D02*
X294923D01*
X204213Y213181D02*
X294843D01*
X196350Y132541D02*
X294203D01*
X204933Y212461D02*
X294123D01*
X196191Y131821D02*
X293483D01*
X205653Y211741D02*
X293403D01*
X195900Y131101D02*
X292763D01*
X206373Y211021D02*
X292683D01*
X285994Y223261D02*
X292544D01*
X286203Y115261D02*
X292335D01*
X286330Y113101D02*
X292208D01*
X286358Y215341D02*
X292180D01*
X195305Y130381D02*
X292043D01*
X287148Y222541D02*
X291390D01*
X141270Y129661D02*
X291323D01*
X287254Y115981D02*
X291284D01*
X287323Y112381D02*
X291215D01*
X287325Y105901D02*
X291213D01*
X287339Y216061D02*
X291199D01*
X287813Y221821D02*
X290725D01*
X287824Y106621D02*
X290714D01*
X287881Y116701D02*
X290657D01*
X287925Y111661D02*
X290613D01*
X141270Y128941D02*
X290603D01*
X287936Y216781D02*
X290602D01*
X285793Y233341D02*
X290439D01*
X288244Y221101D02*
X290294D01*
X288251Y107341D02*
X290287D01*
X288287Y117421D02*
X290251D01*
X288316Y110941D02*
X290222D01*
X288322Y217501D02*
X290216D01*
X286500Y225421D02*
X290115D01*
X288511Y220381D02*
X290027D01*
X288515Y108061D02*
X290023D01*
X288751Y120301D02*
X290006D01*
X288536Y118141D02*
X290002D01*
X288552Y110221D02*
X289986D01*
X288556Y218221D02*
X289982D01*
X287052Y232621D02*
X289930D01*
X289484Y121021D02*
X289916D01*
X288646Y219661D02*
X289892D01*
X288648Y108781D02*
X289890D01*
X288654Y119581D02*
X289884D01*
X288655Y118861D02*
X289883D01*
X141270Y128221D02*
X289883D01*
X288660Y109501D02*
X289878D01*
X288661Y218941D02*
X289877D01*
X287419Y226141D02*
X289871D01*
X287753Y231901D02*
X289869D01*
X288205Y231181D02*
X289869D01*
X288488Y230461D02*
X289869D01*
X288637Y229741D02*
X289869D01*
X288665Y229021D02*
X289869D01*
X288573Y228301D02*
X289869D01*
X288355Y227581D02*
X289869D01*
X287987Y226861D02*
X289869D01*
X141270Y127501D02*
X289163D01*
X141270Y126781D02*
X288443D01*
X141270Y126061D02*
X287723D01*
X141270Y125341D02*
X287003D01*
X141270Y124621D02*
X286283D01*
X141270Y123901D02*
X285563D01*
X275793Y233341D02*
X282745D01*
X275994Y223261D02*
X282544D01*
X276171Y123181D02*
X282367D01*
X276203Y115261D02*
X282335D01*
X276330Y113101D02*
X282208D01*
X276358Y215341D02*
X282180D01*
X276500Y225421D02*
X282038D01*
X277052Y232621D02*
X281486D01*
X277148Y222541D02*
X281390D01*
X277238Y122461D02*
X281300D01*
X277254Y115981D02*
X281284D01*
X277323Y112381D02*
X281215D01*
X279986Y105901D02*
X281213D01*
X277339Y216061D02*
X281199D01*
X277419Y226141D02*
X281119D01*
X277753Y231901D02*
X280785D01*
X277813Y221821D02*
X280725D01*
X279266Y106621D02*
X280714D01*
X277871Y121741D02*
X280667D01*
X277881Y116701D02*
X280657D01*
X277925Y111661D02*
X280613D01*
X277936Y216781D02*
X280602D01*
X277987Y226861D02*
X280551D01*
X278205Y231181D02*
X280333D01*
X278244Y221101D02*
X280294D01*
X278546Y107341D02*
X280287D01*
X278281Y121021D02*
X280257D01*
X278287Y117421D02*
X280251D01*
X278316Y110941D02*
X280222D01*
X278322Y217501D02*
X280216D01*
X278355Y227581D02*
X280183D01*
X278488Y230461D02*
X280050D01*
X278511Y220381D02*
X280027D01*
X278515Y108061D02*
X280023D01*
X278532Y120301D02*
X280006D01*
X278536Y118141D02*
X280002D01*
X278552Y110221D02*
X279986D01*
X278556Y218221D02*
X279982D01*
X278573Y228301D02*
X279965D01*
X278637Y229741D02*
X279901D01*
X278646Y219661D02*
X279892D01*
X278648Y108781D02*
X279890D01*
X278654Y119581D02*
X279884D01*
X278655Y118861D02*
X279883D01*
X278660Y109501D02*
X279878D01*
X278661Y218941D02*
X279877D01*
X278665Y229021D02*
X279873D01*
X255517Y104461D02*
X273021D01*
X265793Y233341D02*
X272745D01*
X265994Y223261D02*
X272544D01*
X256030Y105181D02*
X272508D01*
X256171Y123181D02*
X272367D01*
X256203Y115261D02*
X272335D01*
X256330Y113101D02*
X272208D01*
X266358Y215341D02*
X272180D01*
X266500Y225421D02*
X272038D01*
X267052Y232621D02*
X271486D01*
X267148Y222541D02*
X271390D01*
X257165Y105901D02*
X271373D01*
X257238Y122461D02*
X271300D01*
X257254Y115981D02*
X271284D01*
X257323Y112381D02*
X271215D01*
X267339Y216061D02*
X271199D01*
X267419Y226141D02*
X271119D01*
X267753Y231901D02*
X270785D01*
X267813Y221821D02*
X270725D01*
X257824Y106621D02*
X270714D01*
X257871Y121741D02*
X270667D01*
X257881Y116701D02*
X270657D01*
X257925Y111661D02*
X270613D01*
X267936Y216781D02*
X270602D01*
X267987Y226861D02*
X270551D01*
X268205Y231181D02*
X270333D01*
X268244Y221101D02*
X270294D01*
X258251Y107341D02*
X270287D01*
X258281Y121021D02*
X270257D01*
X258287Y117421D02*
X270251D01*
X258316Y110941D02*
X270222D01*
X268322Y217501D02*
X270216D01*
X268355Y227581D02*
X270183D01*
X268488Y230461D02*
X270050D01*
X268511Y220381D02*
X270027D01*
X258515Y108061D02*
X270023D01*
X258532Y120301D02*
X270006D01*
X258536Y118141D02*
X270002D01*
X258552Y110221D02*
X269986D01*
X268556Y218221D02*
X269982D01*
X268573Y228301D02*
X269965D01*
X268637Y229741D02*
X269901D01*
X268646Y219661D02*
X269892D01*
X258648Y108781D02*
X269890D01*
X258654Y119581D02*
X269884D01*
X258655Y118861D02*
X269883D01*
X258660Y109501D02*
X269878D01*
X268661Y218941D02*
X269877D01*
X268665Y229021D02*
X269873D01*
X255793Y233341D02*
X262745D01*
X255994Y223261D02*
X262544D01*
X256358Y215341D02*
X262180D01*
X256500Y225421D02*
X262038D01*
X257052Y232621D02*
X261486D01*
X257148Y222541D02*
X261390D01*
X257339Y216061D02*
X261199D01*
X257419Y226141D02*
X261119D01*
X257753Y231901D02*
X260785D01*
X257813Y221821D02*
X260725D01*
X257936Y216781D02*
X260602D01*
X257987Y226861D02*
X260551D01*
X258205Y231181D02*
X260333D01*
X258244Y221101D02*
X260294D01*
X258322Y217501D02*
X260216D01*
X258355Y227581D02*
X260183D01*
X258488Y230461D02*
X260050D01*
X258511Y220381D02*
X260027D01*
X258556Y218221D02*
X259982D01*
X258573Y228301D02*
X259965D01*
X258637Y229741D02*
X259901D01*
X258646Y219661D02*
X259892D01*
X258661Y218941D02*
X259877D01*
X258665Y229021D02*
X259873D01*
X245517Y104461D02*
X253021D01*
X171773Y177181D02*
X252823D01*
X245793Y233341D02*
X252745D01*
X245994Y223261D02*
X252544D01*
X246030Y105181D02*
X252508D01*
X246171Y123181D02*
X252367D01*
X246203Y115261D02*
X252335D01*
X246330Y113101D02*
X252208D01*
X246358Y215341D02*
X252180D01*
X171310Y176461D02*
X252131D01*
X246500Y225421D02*
X252038D01*
X170591Y175741D02*
X251789D01*
X169267Y175021D02*
X251659D01*
X247052Y232621D02*
X251486D01*
X247148Y222541D02*
X251390D01*
X247165Y105901D02*
X251373D01*
X247238Y122461D02*
X251300D01*
X247254Y115981D02*
X251284D01*
X247323Y112381D02*
X251215D01*
X247339Y216061D02*
X251199D01*
X247419Y226141D02*
X251119D01*
X141270Y174301D02*
X251024D01*
X247753Y231901D02*
X250785D01*
X247813Y221821D02*
X250725D01*
X247824Y106621D02*
X250714D01*
X247871Y121741D02*
X250667D01*
X247881Y116701D02*
X250657D01*
X247925Y111661D02*
X250613D01*
X247936Y216781D02*
X250602D01*
X247987Y226861D02*
X250551D01*
X248205Y231181D02*
X250333D01*
X141270Y173581D02*
X250304D01*
X248244Y221101D02*
X250294D01*
X248251Y107341D02*
X250287D01*
X248281Y121021D02*
X250257D01*
X248287Y117421D02*
X250251D01*
X248316Y110941D02*
X250222D01*
X248322Y217501D02*
X250216D01*
X248355Y227581D02*
X250183D01*
X248488Y230461D02*
X250050D01*
X248511Y220381D02*
X250027D01*
X248515Y108061D02*
X250023D01*
X248532Y120301D02*
X250006D01*
X248536Y118141D02*
X250002D01*
X248552Y110221D02*
X249986D01*
X248556Y218221D02*
X249982D01*
X248573Y228301D02*
X249965D01*
X248637Y229741D02*
X249901D01*
X248646Y219661D02*
X249892D01*
X248648Y108781D02*
X249890D01*
X248654Y119581D02*
X249884D01*
X248655Y118861D02*
X249883D01*
X248660Y109501D02*
X249878D01*
X248661Y218941D02*
X249877D01*
X248665Y229021D02*
X249873D01*
X141270Y172861D02*
X249584D01*
X241426Y104461D02*
X243021D01*
X235793Y233341D02*
X242745D01*
X235994Y223261D02*
X242544D01*
X240706Y105181D02*
X242508D01*
X236171Y123181D02*
X242367D01*
X236203Y115261D02*
X242335D01*
X236330Y113101D02*
X242208D01*
X236358Y215341D02*
X242180D01*
X236500Y225421D02*
X242038D01*
X237052Y232621D02*
X241486D01*
X237148Y222541D02*
X241390D01*
X239986Y105901D02*
X241373D01*
X237238Y122461D02*
X241300D01*
X237254Y115981D02*
X241284D01*
X237323Y112381D02*
X241215D01*
X237339Y216061D02*
X241199D01*
X237419Y226141D02*
X241119D01*
X237753Y231901D02*
X240785D01*
X237813Y221821D02*
X240725D01*
X239266Y106621D02*
X240714D01*
X237871Y121741D02*
X240667D01*
X237881Y116701D02*
X240657D01*
X143117Y100861D02*
X240640D01*
X237925Y111661D02*
X240613D01*
X237936Y216781D02*
X240602D01*
X237987Y226861D02*
X240551D01*
X238205Y231181D02*
X240333D01*
X238244Y221101D02*
X240294D01*
X238546Y107341D02*
X240287D01*
X238281Y121021D02*
X240257D01*
X238287Y117421D02*
X240251D01*
X238316Y110941D02*
X240222D01*
X238322Y217501D02*
X240216D01*
X238355Y227581D02*
X240183D01*
X238488Y230461D02*
X240050D01*
X238511Y220381D02*
X240027D01*
X238515Y108061D02*
X240023D01*
X238532Y120301D02*
X240006D01*
X238536Y118141D02*
X240002D01*
X238552Y110221D02*
X239986D01*
X238556Y218221D02*
X239982D01*
X238573Y228301D02*
X239965D01*
X238637Y229741D02*
X239901D01*
X238646Y219661D02*
X239892D01*
X238648Y108781D02*
X239890D01*
X238654Y119581D02*
X239884D01*
X238655Y118861D02*
X239883D01*
X238660Y109501D02*
X239878D01*
X238661Y218941D02*
X239877D01*
X238665Y229021D02*
X239873D01*
X142397Y101581D02*
X239497D01*
X141677Y102301D02*
X238777D01*
X141270Y103021D02*
X238057D01*
X141270Y103741D02*
X237337D01*
X141270Y104461D02*
X236617D01*
X225793Y233341D02*
X232745D01*
X225994Y223261D02*
X232544D01*
X226030Y105181D02*
X232508D01*
X226171Y123181D02*
X232367D01*
X226203Y115261D02*
X232335D01*
X226330Y113101D02*
X232208D01*
X226358Y215341D02*
X232180D01*
X226500Y225421D02*
X232038D01*
X227052Y232621D02*
X231486D01*
X227148Y222541D02*
X231390D01*
X227165Y105901D02*
X231373D01*
X227238Y122461D02*
X231300D01*
X227254Y115981D02*
X231284D01*
X227323Y112381D02*
X231215D01*
X227339Y216061D02*
X231199D01*
X227419Y226141D02*
X231119D01*
X227753Y231901D02*
X230785D01*
X227813Y221821D02*
X230725D01*
X227824Y106621D02*
X230714D01*
X227871Y121741D02*
X230667D01*
X227881Y116701D02*
X230657D01*
X227925Y111661D02*
X230613D01*
X227936Y216781D02*
X230602D01*
X227987Y226861D02*
X230551D01*
X141270Y172141D02*
X230441D01*
X228205Y231181D02*
X230333D01*
X228244Y221101D02*
X230294D01*
X228251Y107341D02*
X230287D01*
X228281Y121021D02*
X230257D01*
X228287Y117421D02*
X230251D01*
X228316Y110941D02*
X230222D01*
X228322Y217501D02*
X230216D01*
X228355Y227581D02*
X230183D01*
X228488Y230461D02*
X230050D01*
X228511Y220381D02*
X230027D01*
X228515Y108061D02*
X230023D01*
X228532Y120301D02*
X230006D01*
X228536Y118141D02*
X230002D01*
X228552Y110221D02*
X229986D01*
X228556Y218221D02*
X229982D01*
X228573Y228301D02*
X229965D01*
X228637Y229741D02*
X229901D01*
X228646Y219661D02*
X229892D01*
X228648Y108781D02*
X229890D01*
X228654Y119581D02*
X229884D01*
X228655Y118861D02*
X229883D01*
X228660Y109501D02*
X229878D01*
X228661Y218941D02*
X229877D01*
X228665Y229021D02*
X229873D01*
X141270Y171421D02*
X229567D01*
X141270Y170701D02*
X228847D01*
X141270Y169981D02*
X228127D01*
X141270Y169261D02*
X227407D01*
X141270Y168541D02*
X226687D01*
X141270Y167821D02*
X225967D01*
X141270Y167101D02*
X225247D01*
X141270Y166381D02*
X224527D01*
X141270Y165661D02*
X223807D01*
X141270Y164941D02*
X223087D01*
X215793Y233341D02*
X222745D01*
X215994Y223261D02*
X222544D01*
X216030Y105181D02*
X222508D01*
X141270Y164221D02*
X222367D01*
X216171Y123181D02*
X222367D01*
X216203Y115261D02*
X222335D01*
X216330Y113101D02*
X222208D01*
X216358Y215341D02*
X222180D01*
X216500Y225421D02*
X222038D01*
X141270Y163501D02*
X221647D01*
X217052Y232621D02*
X221486D01*
X217148Y222541D02*
X221390D01*
X217165Y105901D02*
X221373D01*
X217238Y122461D02*
X221300D01*
X217254Y115981D02*
X221284D01*
X217323Y112381D02*
X221215D01*
X217339Y216061D02*
X221199D01*
X217419Y226141D02*
X221119D01*
X141270Y162781D02*
X220927D01*
X217753Y231901D02*
X220785D01*
X217813Y221821D02*
X220725D01*
X217824Y106621D02*
X220714D01*
X217871Y121741D02*
X220667D01*
X217881Y116701D02*
X220657D01*
X217925Y111661D02*
X220613D01*
X217936Y216781D02*
X220602D01*
X217987Y226861D02*
X220551D01*
X218205Y231181D02*
X220333D01*
X218244Y221101D02*
X220294D01*
X218251Y107341D02*
X220287D01*
X218281Y121021D02*
X220257D01*
X218287Y117421D02*
X220251D01*
X218316Y110941D02*
X220222D01*
X218322Y217501D02*
X220216D01*
X141270Y162061D02*
X220207D01*
X218355Y227581D02*
X220183D01*
X218488Y230461D02*
X220050D01*
X218511Y220381D02*
X220027D01*
X218515Y108061D02*
X220023D01*
X218532Y120301D02*
X220006D01*
X218536Y118141D02*
X220002D01*
X218552Y110221D02*
X219986D01*
X218556Y218221D02*
X219982D01*
X218573Y228301D02*
X219965D01*
X218637Y229741D02*
X219901D01*
X218646Y219661D02*
X219892D01*
X218648Y108781D02*
X219890D01*
X218654Y119581D02*
X219884D01*
X218655Y118861D02*
X219883D01*
X218660Y109501D02*
X219878D01*
X218661Y218941D02*
X219877D01*
X218665Y229021D02*
X219873D01*
X141270Y161341D02*
X219487D01*
X141270Y160621D02*
X218767D01*
X141270Y159901D02*
X218047D01*
X141270Y159181D02*
X217327D01*
X141270Y158461D02*
X216607D01*
X141270Y157741D02*
X215887D01*
X141270Y157021D02*
X215167D01*
X141270Y156301D02*
X214447D01*
X141270Y155581D02*
X213727D01*
X141270Y154861D02*
X213007D01*
X205793Y233341D02*
X212745D01*
X205994Y223261D02*
X212544D01*
X208215Y105181D02*
X212508D01*
X206171Y123181D02*
X212367D01*
X206203Y115261D02*
X212335D01*
X141270Y154141D02*
X212287D01*
X208352Y113101D02*
X212208D01*
X206358Y215341D02*
X212180D01*
X206500Y225421D02*
X212038D01*
X141270Y153421D02*
X211567D01*
X207052Y232621D02*
X211486D01*
X207148Y222541D02*
X211390D01*
X208634Y105901D02*
X211373D01*
X207238Y122461D02*
X211300D01*
X207254Y115981D02*
X211284D01*
X208659Y112381D02*
X211215D01*
X207339Y216061D02*
X211199D01*
X207419Y226141D02*
X211119D01*
X141270Y152701D02*
X210847D01*
X207753Y231901D02*
X210785D01*
X207813Y221821D02*
X210725D01*
X208669Y106621D02*
X210714D01*
X207871Y121741D02*
X210667D01*
X207881Y116701D02*
X210657D01*
X208669Y111661D02*
X210613D01*
X207936Y216781D02*
X210602D01*
X207987Y226861D02*
X210551D01*
X208205Y231181D02*
X210333D01*
X208244Y221101D02*
X210294D01*
X208669Y107341D02*
X210287D01*
X208281Y121021D02*
X210257D01*
X208287Y117421D02*
X210251D01*
X208669Y110941D02*
X210222D01*
X208322Y217501D02*
X210216D01*
X208355Y227581D02*
X210183D01*
X141270Y151981D02*
X210127D01*
X208488Y230461D02*
X210050D01*
X208511Y220381D02*
X210027D01*
X208669Y108061D02*
X210023D01*
X208532Y120301D02*
X210006D01*
X208536Y118141D02*
X210002D01*
X208669Y110221D02*
X209986D01*
X208556Y218221D02*
X209982D01*
X208573Y228301D02*
X209965D01*
X208637Y229741D02*
X209901D01*
X208646Y219661D02*
X209892D01*
X208669Y108781D02*
X209890D01*
X208654Y119581D02*
X209884D01*
X208655Y118861D02*
X209883D01*
X208669Y109501D02*
X209878D01*
X208661Y218941D02*
X209877D01*
X208665Y229021D02*
X209873D01*
X141270Y151261D02*
X209407D01*
X141270Y150541D02*
X208687D01*
X141270Y149821D02*
X207967D01*
X141270Y149101D02*
X207247D01*
X141270Y148381D02*
X206527D01*
X141270Y147661D02*
X205807D01*
X141270Y146941D02*
X205087D01*
X170910Y205981D02*
X204703D01*
X141270Y146221D02*
X204367D01*
X169915Y206701D02*
X203905D01*
X141270Y145501D02*
X203647D01*
X141270Y207421D02*
X203185D01*
X141270Y144781D02*
X202927D01*
X191524Y233341D02*
X202745D01*
X194133Y223261D02*
X202544D01*
X141270Y208141D02*
X202465D01*
X141270Y123181D02*
X202367D01*
X141270Y115261D02*
X202335D01*
X141270Y144061D02*
X202207D01*
X192414Y225421D02*
X202038D01*
X141270Y208861D02*
X201745D01*
X141270Y143341D02*
X201487D01*
X192783Y232621D02*
X201486D01*
X194853Y222541D02*
X201390D01*
X141270Y122461D02*
X201300D01*
X141270Y115981D02*
X201284D01*
X193150Y226141D02*
X201119D01*
X141270Y209581D02*
X201025D01*
X193484Y231901D02*
X200785D01*
X141270Y142621D02*
X200767D01*
X195573Y221821D02*
X200725D01*
X141270Y121741D02*
X200667D01*
X141270Y116701D02*
X200657D01*
X193718Y226861D02*
X200551D01*
X193936Y231181D02*
X200333D01*
X141270Y105181D02*
X200323D01*
X141270Y210301D02*
X200305D01*
X196293Y221101D02*
X200294D01*
X141270Y121021D02*
X200257D01*
X141270Y117421D02*
X200251D01*
X141270Y113101D02*
X200186D01*
X194086Y227581D02*
X200183D01*
X194219Y230461D02*
X200050D01*
X141270Y141901D02*
X200047D01*
X197013Y220381D02*
X200027D01*
X141270Y120301D02*
X200006D01*
X141270Y118141D02*
X200002D01*
X194304Y228301D02*
X199965D01*
X141270Y105901D02*
X199904D01*
X194368Y229741D02*
X199901D01*
X197733Y219661D02*
X199892D01*
X141270Y119581D02*
X199884D01*
X141270Y118861D02*
X199883D01*
X141270Y112381D02*
X199879D01*
X198453Y218941D02*
X199877D01*
X199173Y218221D02*
X199877D01*
X194396Y229021D02*
X199873D01*
X141270Y111661D02*
X199869D01*
X141270Y110941D02*
X199869D01*
X141270Y110221D02*
X199869D01*
X141270Y109501D02*
X199869D01*
X141270Y108781D02*
X199869D01*
X141270Y108061D02*
X199869D01*
X141270Y107341D02*
X199869D01*
X141270Y106621D02*
X199869D01*
X141270Y211021D02*
X199585D01*
X141270Y141181D02*
X199327D01*
X141270Y211741D02*
X198865D01*
X141270Y140461D02*
X198607D01*
X141270Y212461D02*
X198145D01*
X141270Y139741D02*
X197887D01*
X141270Y213181D02*
X197425D01*
X141270Y139021D02*
X197167D01*
X141270Y213901D02*
X196705D01*
X141270Y138301D02*
X196447D01*
X141270Y214621D02*
X195985D01*
X141270Y137581D02*
X195727D01*
X141270Y215341D02*
X195265D01*
X141270Y136861D02*
X195007D01*
X141270Y216061D02*
X194545D01*
X141270Y136141D02*
X194287D01*
X141270Y216781D02*
X193825D01*
X141270Y135421D02*
X193567D01*
X141270Y217501D02*
X193105D01*
X141270Y218221D02*
X192385D01*
X141270Y134701D02*
X191744D01*
X141270Y218941D02*
X191665D01*
X141270Y130381D02*
X191645D01*
X141270Y133981D02*
X191099D01*
X141270Y131101D02*
X191050D01*
X141270Y219661D02*
X190945D01*
X141270Y133261D02*
X190780D01*
X141270Y131821D02*
X190759D01*
X141270Y132541D02*
X190675D01*
X141270Y220381D02*
X190225D01*
X141270Y221101D02*
X189505D01*
X141270Y221821D02*
X188785D01*
X181524Y233341D02*
X188476D01*
X141270Y222541D02*
X188095D01*
X141270Y223261D02*
X187717D01*
X141270Y223981D02*
X187600D01*
X141270Y224701D02*
X187600D01*
X182231Y225421D02*
X187586D01*
X182783Y232621D02*
X187217D01*
X183150Y226141D02*
X186850D01*
X183484Y231901D02*
X186516D01*
X171524Y233341D02*
X178476D01*
X172231Y225421D02*
X177769D01*
X172783Y232621D02*
X177217D01*
X173150Y226141D02*
X176850D01*
X173484Y231901D02*
X176516D01*
X161524Y233341D02*
X168476D01*
X162231Y225421D02*
X167769D01*
X162783Y232621D02*
X167217D01*
X163150Y226141D02*
X166850D01*
X163484Y231901D02*
X166516D01*
X141270Y175021D02*
X166449D01*
X151907Y198781D02*
X166093D01*
X152199Y206701D02*
X165801D01*
X141270Y182941D02*
X165559D01*
X141270Y175741D02*
X165125D01*
X153040Y199501D02*
X164960D01*
X153194Y205981D02*
X164806D01*
X141270Y182221D02*
X164669D01*
X141270Y176461D02*
X164406D01*
X153698Y200221D02*
X164302D01*
X153797Y205261D02*
X164203D01*
X141270Y181501D02*
X164114D01*
X141270Y177181D02*
X163943D01*
X154124Y200941D02*
X163876D01*
X154188Y204541D02*
X163812D01*
X141270Y180781D02*
X163756D01*
X141270Y177901D02*
X163651D01*
X154389Y201661D02*
X163611D01*
X154424Y203821D02*
X163576D01*
X141270Y180061D02*
X163545D01*
X141270Y178621D02*
X163495D01*
X154521Y202381D02*
X163479D01*
X154532Y203101D02*
X163468D01*
X141270Y179341D02*
X163461D01*
X153830Y233341D02*
X158476D01*
X154154Y225421D02*
X157769D01*
X154339Y232621D02*
X157217D01*
X154398Y226141D02*
X156850D01*
X154416Y231901D02*
X156516D01*
X141270Y198781D02*
X148376D01*
X141270Y206701D02*
X148085D01*
X141270Y199501D02*
X147243D01*
X141270Y205981D02*
X147090D01*
X141270Y200221D02*
X146585D01*
X141270Y205261D02*
X146487D01*
X141270Y233341D02*
X146170D01*
X141270Y200941D02*
X146159D01*
X141270Y204541D02*
X146096D01*
X141270Y201661D02*
X145895D01*
X141270Y203821D02*
X145859D01*
X141270Y225421D02*
X145846D01*
X141270Y202381D02*
X145763D01*
X141270Y203101D02*
X145751D01*
X141270Y232621D02*
X145661D01*
X141270Y226141D02*
X145602D01*
X141270Y231901D02*
X145600D01*
X141270Y231181D02*
X145600D01*
X141270Y230461D02*
X145600D01*
X141270Y229741D02*
X145600D01*
X141270Y229021D02*
X145600D01*
X141270Y228301D02*
X145600D01*
X141270Y227581D02*
X145600D01*
X141270Y226861D02*
X145600D01*
X337009Y154861D02*
X338769D01*
X336441Y154141D02*
X338769D01*
X335522Y153421D02*
X338769D01*
X331183Y152701D02*
X338769D01*
X330886Y151981D02*
X338769D01*
X330886Y151261D02*
X338769D01*
X330886Y150541D02*
X338769D01*
X330886Y149821D02*
X338769D01*
X330886Y149101D02*
X338769D01*
X330886Y148381D02*
X338769D01*
X330886Y147661D02*
X338769D01*
X330886Y146941D02*
X338769D01*
X330886Y146221D02*
X338769D01*
X330886Y145501D02*
X338769D01*
X330886Y144781D02*
X338769D01*
X330886Y144061D02*
X338769D01*
X330886Y143341D02*
X338769D01*
X330886Y142621D02*
X338769D01*
X330886Y141901D02*
X338769D01*
X330886Y141181D02*
X338769D01*
X330886Y140461D02*
X338769D01*
X330886Y139741D02*
X338769D01*
X330886Y139021D02*
X338769D01*
X330886Y138301D02*
X338769D01*
X330886Y137581D02*
X338769D01*
X330886Y136861D02*
X338769D01*
X330886Y136141D02*
X338769D01*
X330886Y135421D02*
X338769D01*
X330862Y134701D02*
X338769D01*
X330558Y133981D02*
X338769D01*
X329866Y133261D02*
X338769D01*
X329146Y132541D02*
X338769D01*
X328426Y131821D02*
X338769D01*
X327706Y131101D02*
X338769D01*
X326986Y130381D02*
X338769D01*
X326266Y129661D02*
X338769D01*
X325546Y128941D02*
X338769D01*
X324826Y128221D02*
X338769D01*
X324106Y127501D02*
X338769D01*
X323386Y126781D02*
X338769D01*
X322666Y126061D02*
X338769D01*
X321946Y125341D02*
X338769D01*
X321226Y124621D02*
X338769D01*
X320506Y123901D02*
X338769D01*
X319786Y123181D02*
X338769D01*
X319066Y122461D02*
X338769D01*
X318346Y121741D02*
X338769D01*
X317626Y121021D02*
X338769D01*
X316906Y120301D02*
X338769D01*
X316186Y119581D02*
X338769D01*
X315466Y118861D02*
X338769D01*
X314746Y118141D02*
X338769D01*
X314026Y117421D02*
X338769D01*
X313306Y116701D02*
X338769D01*
X312586Y115981D02*
X338769D01*
X311866Y115261D02*
X338769D01*
X311146Y114541D02*
X338769D01*
X310426Y113821D02*
X338769D01*
X309706Y113101D02*
X338769D01*
X308986Y112381D02*
X338769D01*
X308266Y111661D02*
X338769D01*
X307546Y110941D02*
X338769D01*
X306826Y110221D02*
X338769D01*
X306106Y109501D02*
X338769D01*
X305386Y108781D02*
X338769D01*
X304666Y108061D02*
X338769D01*
X303946Y107341D02*
X338769D01*
X303226Y106621D02*
X338769D01*
X302506Y105901D02*
X338769D01*
X301786Y105181D02*
X338769D01*
X301066Y104461D02*
X338769D01*
X300346Y103741D02*
X338769D01*
X299626Y103021D02*
X338769D01*
X298906Y102301D02*
X338362D01*
X298186Y101581D02*
X337642D01*
X297043Y100861D02*
X336922D01*
G54D22*
X296782Y102581D02*
X240901D01*
X234269Y109213*
X296782Y102581D02*
X329186Y134985D01*
Y153108*
X333291Y157213*
X296232Y103781D02*
X279701D01*
X274269Y109213*
X296232Y103781D02*
X327986Y135535D01*
Y171908*
X333291Y177213*
Y157213D02*
X351291D01*
X355335Y161257*
X420757*
X423500Y164000*
X355991Y162513D02*
X417469D01*
X422169Y167213*
X425369*
X425369*
X430769*
X355991Y162513D02*
X351291Y167213D01*
X438169Y171113D02*
X357391D01*
X351291Y177213*
X430269Y183413D02*
Y198213D01*
X430246Y198236*
Y214713*
G54D32*
X333291Y187213D03*
X323291Y177213D03*
X333291D03*
X323291Y167213D03*
X333291D03*
X323291Y157213D03*
X333291D03*
X323291Y147213D03*
X333291D03*
X150142Y179189D03*
X167858D03*
X150142Y202811D03*
X167858D03*
X361291Y187213D03*
X351291Y177213D03*
X361291D03*
X351291Y167213D03*
X361291D03*
X351291Y157213D03*
X361291D03*
X351291Y147213D03*
X361291D03*
X475369Y158713D03*
Y168713D03*
Y178713D03*
X450246Y214713D03*
X440246D03*
X430246D03*
X420246D03*
X314269Y109213D03*
Y229213D03*
X160000D03*
X170000D03*
X180000D03*
X190000D03*
X160000Y109213D03*
X170000D03*
X180000D03*
X190000D03*
X204269Y119213D03*
X214269Y109213D03*
Y119213D03*
X224269Y109213D03*
Y119213D03*
X234269Y109213D03*
Y119213D03*
X244269Y109213D03*
Y119213D03*
X254269Y109213D03*
Y119213D03*
X264269Y109213D03*
Y119213D03*
X274269Y109213D03*
Y119213D03*
X284269Y109213D03*
Y119213D03*
X294269Y109213D03*
Y119213D03*
Y219213D03*
X284269Y229213D03*
Y219213D03*
X274269Y229213D03*
Y219213D03*
X264269Y229213D03*
Y219213D03*
X254269Y229213D03*
Y219213D03*
X244269Y229213D03*
Y219213D03*
X234269Y229213D03*
Y219213D03*
X224269Y229213D03*
Y219213D03*
X214269Y229213D03*
Y219213D03*
X204269Y229213D03*
Y219213D03*
G54D33*
X323291Y187213D03*
X351291D03*
X475369Y148713D03*
X460246Y214713D03*
X324269Y109213D03*
Y229213D03*
X150000D03*
Y109213D03*
X204269D03*
X294269Y229213D03*
G54D36*
X284269Y119213D02*
X313462Y148406D01*
Y190467*
X317708Y194713*
X325791*
X400969Y150713D02*
X390469D01*
X389869Y151313*
X379369*
X333291Y187213D02*
X325791Y194713D01*
X170000Y229213D02*
X160000D01*
X150000*
X190000D02*
X180000D01*
X170000*
X206000Y208000D02*
X293056D01*
X314269Y229213*
X206000Y208000D02*
X190000Y224000D01*
Y229213*
X421969Y199513D02*
X409769Y211713D01*
X386169*
X472069Y199213D02*
X467169Y204113D01*
Y207790*
X460246Y214713*
G54D76*
X269278Y113547D03*
X259627Y114212D03*
X319132Y117600D03*
X300386Y112941D03*
X304046Y104621D03*
X309371Y104843D03*
X357591Y105441D03*
X332680Y104792D03*
Y117326D03*
X330000Y109213D03*
X389392Y104997D03*
X372973Y105293D03*
X403892Y104637D03*
X435266Y113782D03*
X439869Y117200D03*
X454462Y103218D03*
X515469Y109906D03*
X160337Y120307D03*
X145458Y120485D03*
X144729Y155121D03*
X193475Y132500D03*
X193208Y147298D03*
X177500Y147000D03*
X177000Y137500D03*
X169924Y151701D03*
X190000Y120000D03*
X175276Y120159D03*
X222090Y152497D03*
X232090D03*
X222123Y144100D03*
X232123D03*
X203466Y134535D03*
X232185Y132086D03*
X203832Y150432D03*
X222185Y132086D03*
X214281Y145556D03*
X275339Y157289D03*
X265339D03*
X252050Y144299D03*
X297207Y125993D03*
X303640Y131983D03*
X311516Y138416D03*
X320501Y132205D03*
X314733Y126214D03*
X307865Y119822D03*
X284017Y148961D03*
X293188Y149062D03*
X292984Y157358D03*
X283984D03*
X293721Y139852D03*
X283721D03*
X288691Y132510D03*
X301199Y145018D03*
X309511Y153880D03*
X300833Y152434D03*
X361223Y136834D03*
X350790Y126932D03*
X348207Y140524D03*
X361269Y128713D03*
X324495Y138416D03*
X336335Y141718D03*
X326000Y125000D03*
X333000Y132000D03*
X372882Y147200D03*
X377263Y119197D03*
X390669Y133913D03*
X398269Y155113D03*
X393569Y140913D03*
X379369Y151313D03*
X400969Y150713D03*
X438551Y156320D03*
X411969Y155508D03*
X464448Y120200D03*
X445341Y123283D03*
X454346Y122213D03*
X469474Y157418D03*
X476929Y123320D03*
X475343Y137179D03*
X447672Y150037D03*
X478404Y134352D03*
X479180Y142245D03*
X466741Y145076D03*
X460052Y145359D03*
X469369Y120100D03*
X470069Y153313D03*
X463269Y142300D03*
X478769Y138268D03*
X497000Y135000D03*
X497227Y122878D03*
X497700Y153400D03*
X149380Y192288D03*
X155998Y180968D03*
X145195Y175144D03*
X183044Y171984D03*
X193044D03*
X169582Y191940D03*
X169924Y160757D03*
X193106Y159971D03*
X176890Y166330D03*
X183106Y159971D03*
X183120Y183170D03*
X193120D03*
X183058Y195184D03*
X193058D03*
X235275Y166354D03*
X223000Y172000D03*
X231930Y195480D03*
X203805Y160165D03*
X222758Y195378D03*
X213805Y160165D03*
X203758Y195378D03*
X222820Y183365D03*
X213743Y172179D03*
X213820Y183365D03*
X203743Y172179D03*
X228065Y160142D03*
X235275Y173897D03*
X231820Y183365D03*
X213758Y195378D03*
X203820Y183365D03*
X254463Y174911D03*
X251915Y167913D03*
X262116Y175103D03*
X282000Y175000D03*
X272000D03*
X281938Y187014D03*
X271938D03*
X281906Y195411D03*
X271906D03*
X264666Y192372D03*
X291000Y175000D03*
X300000D03*
X310000D03*
Y187000D03*
X300110Y187115D03*
X290938Y187014D03*
X309906Y195411D03*
X299906D03*
X290906D03*
X304776Y160455D03*
X371666Y166454D03*
X371261Y182061D03*
X393958Y191132D03*
X423500Y164000D03*
X430769Y167213D03*
X438169Y171113D03*
X416661Y179629D03*
X429228Y175778D03*
X430269Y183413D03*
X461269Y188913D03*
X463569Y192013D03*
X477641Y173853D03*
X476753Y184059D03*
X462183Y181986D03*
X481501Y173600D03*
X481469Y186213D03*
X482329Y181486D03*
X498500Y175500D03*
X507564Y193208D03*
X499480Y196550D03*
X155649Y215277D03*
X148857Y209356D03*
X155998Y202563D03*
X148820Y215667D03*
X163835Y215451D03*
X173326Y215625D03*
X183253D03*
X193000Y216000D03*
X183026Y203581D03*
X193026D03*
X213726Y203776D03*
X203726D03*
X231726D03*
X222726D03*
X264633Y200769D03*
X304000Y231000D03*
X315000Y222000D03*
X315566Y206227D03*
X305566D03*
X315353Y214979D03*
X306353D03*
X357153Y228402D03*
X349371Y212463D03*
X334118Y234640D03*
Y226280D03*
X336423Y204913D03*
X324500Y222000D03*
Y215000D03*
X324566Y206227D03*
X370643Y228037D03*
X401132Y216404D03*
X383768Y228037D03*
X393726Y203904D03*
X367410Y201316D03*
X386169Y211713D03*
X403456Y231683D03*
X422050Y231318D03*
X441008D03*
X410741Y203968D03*
X421969Y199513D03*
X460878Y230589D03*
X480336Y202303D03*
X472069Y199213D03*
X495504Y221899D03*
X500436Y232048D03*
X482207Y232412D03*
X491729Y216591D03*
X488169Y212113D03*
G54D118*
G74*
X0Y0D02*
M02*
