*
*
G04 PADS 9.5 Build Number: 522968 generated Gerber (RS-274-X) file*
G04 PC Version=2.1*
*
%IN "NuTiny-SDK-N76E003 V2.0"*%
*
%MOIN*%
*
%FSLAX35Y35*%
*
*
*
*
G04 PC Standard Apertures*
*
*
G04 Thermal Relief Aperture macro.*
%AMTER*
1,1,$1,0,0*
1,0,$1-$2,0,0*
21,0,$3,$4,0,0,45*
21,0,$3,$4,0,0,135*
%
*
*
G04 Annular Aperture macro.*
%AMANN*
1,1,$1,0,0*
1,0,$2,0,0*
%
*
*
G04 Odd Aperture macro.*
%AMODD*
1,1,$1,0,0*
1,0,$1-0.005,0,0*
%
*
*
G04 PC Custom Aperture Macros*
*
*
*
*
*
*
G04 PC Aperture Table*
*
%ADD016C,0.01*%
%ADD049C,0.001*%
%ADD118C,0.0001*%
*
*
*
*
G04 PC Circuitry*
G04 Layer Name NuTiny-SDK-N76E003 V2.0 - circuitry*
%LPD*%
*
*
G04 PC Custom Flashes*
G04 Layer Name NuTiny-SDK-N76E003 V2.0 - flashes*
%LPD*%
*
*
G04 PC Circuitry*
G04 Layer Name NuTiny-SDK-N76E003 V2.0 - circuitry*
%LPD*%
*
G54D16*
G01X319291Y187213D02*
X327291D01*
X323291Y183213D02*
Y191213D01*
X329291Y187213D02*
X337291D01*
X333291Y183213D02*
Y191213D01*
X319291Y177213D02*
X327291D01*
X323291Y173213D02*
Y181213D01*
X329291Y177213D02*
X337291D01*
X333291Y173213D02*
Y181213D01*
X319291Y167213D02*
X327291D01*
X323291Y163213D02*
Y171213D01*
X329291Y167213D02*
X337291D01*
X333291Y163213D02*
Y171213D01*
X319291Y157213D02*
X327291D01*
X323291Y153213D02*
Y161213D01*
X329291Y157213D02*
X337291D01*
X333291Y153213D02*
Y161213D01*
X319291Y147213D02*
X327291D01*
X323291Y143213D02*
Y151213D01*
X329291Y147213D02*
X337291D01*
X333291Y143213D02*
Y151213D01*
X146142Y179189D02*
X154142D01*
X150142Y175189D02*
Y183189D01*
X163858Y179189D02*
X171858D01*
X167858Y175189D02*
Y183189D01*
X146142Y202811D02*
X154142D01*
X150142Y198811D02*
Y206811D01*
X163858Y202811D02*
X171858D01*
X167858Y198811D02*
Y206811D01*
X347291Y187213D02*
X355291D01*
X351291Y183213D02*
Y191213D01*
X357291Y187213D02*
X365291D01*
X361291Y183213D02*
Y191213D01*
X347291Y177213D02*
X355291D01*
X351291Y173213D02*
Y181213D01*
X357291Y177213D02*
X365291D01*
X361291Y173213D02*
Y181213D01*
X347291Y167213D02*
X355291D01*
X351291Y163213D02*
Y171213D01*
X357291Y167213D02*
X365291D01*
X361291Y163213D02*
Y171213D01*
X347291Y157213D02*
X355291D01*
X351291Y153213D02*
Y161213D01*
X357291Y157213D02*
X365291D01*
X361291Y153213D02*
Y161213D01*
X347291Y147213D02*
X355291D01*
X351291Y143213D02*
Y151213D01*
X357291Y147213D02*
X365291D01*
X361291Y143213D02*
Y151213D01*
X471369Y144713D02*
X479369Y152713D01*
X471369D02*
X479369Y144713D01*
X471369Y154713D02*
X479369Y162713D01*
X471369D02*
X479369Y154713D01*
X471369Y164713D02*
X479369Y172713D01*
X471369D02*
X479369Y164713D01*
X471369Y174713D02*
X479369Y182713D01*
X471369D02*
X479369Y174713D01*
X456246Y210713D02*
X464246Y218713D01*
X456246D02*
X464246Y210713D01*
X446246D02*
X454246Y218713D01*
X446246D02*
X454246Y210713D01*
X436246D02*
X444246Y218713D01*
X436246D02*
X444246Y210713D01*
X426246D02*
X434246Y218713D01*
X426246D02*
X434246Y210713D01*
X416246D02*
X424246Y218713D01*
X416246D02*
X424246Y210713D01*
X320269Y105213D02*
X328269Y113213D01*
X320269D02*
X328269Y105213D01*
X310269D02*
X318269Y113213D01*
X310269D02*
X318269Y105213D01*
X320269Y225213D02*
X328269Y233213D01*
X320269D02*
X328269Y225213D01*
X310269D02*
X318269Y233213D01*
X310269D02*
X318269Y225213D01*
X146000D02*
X154000Y233213D01*
X146000D02*
X154000Y225213D01*
X156000D02*
X164000Y233213D01*
X156000D02*
X164000Y225213D01*
X166000D02*
X174000Y233213D01*
X166000D02*
X174000Y225213D01*
X176000D02*
X184000Y233213D01*
X176000D02*
X184000Y225213D01*
X186000D02*
X194000Y233213D01*
X186000D02*
X194000Y225213D01*
X146000Y105213D02*
X154000Y113213D01*
X146000D02*
X154000Y105213D01*
X156000D02*
X164000Y113213D01*
X156000D02*
X164000Y105213D01*
X166000D02*
X174000Y113213D01*
X166000D02*
X174000Y105213D01*
X176000D02*
X184000Y113213D01*
X176000D02*
X184000Y105213D01*
X186000D02*
X194000Y113213D01*
X186000D02*
X194000Y105213D01*
X200269Y109213D02*
X208269D01*
X204269Y105213D02*
Y113213D01*
X200269Y119213D02*
X208269D01*
X204269Y115213D02*
Y123213D01*
X210269Y109213D02*
X218269D01*
X214269Y105213D02*
Y113213D01*
X210269Y119213D02*
X218269D01*
X214269Y115213D02*
Y123213D01*
X220269Y109213D02*
X228269D01*
X224269Y105213D02*
Y113213D01*
X220269Y119213D02*
X228269D01*
X224269Y115213D02*
Y123213D01*
X230269Y109213D02*
X238269D01*
X234269Y105213D02*
Y113213D01*
X230269Y119213D02*
X238269D01*
X234269Y115213D02*
Y123213D01*
X240269Y109213D02*
X248269D01*
X244269Y105213D02*
Y113213D01*
X240269Y119213D02*
X248269D01*
X244269Y115213D02*
Y123213D01*
X250269Y109213D02*
X258269D01*
X254269Y105213D02*
Y113213D01*
X250269Y119213D02*
X258269D01*
X254269Y115213D02*
Y123213D01*
X260269Y109213D02*
X268269D01*
X264269Y105213D02*
Y113213D01*
X260269Y119213D02*
X268269D01*
X264269Y115213D02*
Y123213D01*
X270269Y109213D02*
X278269D01*
X274269Y105213D02*
Y113213D01*
X270269Y119213D02*
X278269D01*
X274269Y115213D02*
Y123213D01*
X280269Y109213D02*
X288269D01*
X284269Y105213D02*
Y113213D01*
X280269Y119213D02*
X288269D01*
X284269Y115213D02*
Y123213D01*
X290269Y109213D02*
X298269D01*
X294269Y105213D02*
Y113213D01*
X290269Y119213D02*
X298269D01*
X294269Y115213D02*
Y123213D01*
X290269Y229213D02*
X298269D01*
X294269Y225213D02*
Y233213D01*
X290269Y219213D02*
X298269D01*
X294269Y215213D02*
Y223213D01*
X280269Y229213D02*
X288269D01*
X284269Y225213D02*
Y233213D01*
X280269Y219213D02*
X288269D01*
X284269Y215213D02*
Y223213D01*
X270269Y229213D02*
X278269D01*
X274269Y225213D02*
Y233213D01*
X270269Y219213D02*
X278269D01*
X274269Y215213D02*
Y223213D01*
X260269Y229213D02*
X268269D01*
X264269Y225213D02*
Y233213D01*
X260269Y219213D02*
X268269D01*
X264269Y215213D02*
Y223213D01*
X250269Y229213D02*
X258269D01*
X254269Y225213D02*
Y233213D01*
X250269Y219213D02*
X258269D01*
X254269Y215213D02*
Y223213D01*
X240269Y229213D02*
X248269D01*
X244269Y225213D02*
Y233213D01*
X240269Y219213D02*
X248269D01*
X244269Y215213D02*
Y223213D01*
X230269Y229213D02*
X238269D01*
X234269Y225213D02*
Y233213D01*
X230269Y219213D02*
X238269D01*
X234269Y215213D02*
Y223213D01*
X220269Y229213D02*
X228269D01*
X224269Y225213D02*
Y233213D01*
X220269Y219213D02*
X228269D01*
X224269Y215213D02*
Y223213D01*
X210269Y229213D02*
X218269D01*
X214269Y225213D02*
Y233213D01*
X210269Y219213D02*
X218269D01*
X214269Y215213D02*
Y223213D01*
X200269Y229213D02*
X208269D01*
X204269Y225213D02*
Y233213D01*
X200269Y219213D02*
X208269D01*
X204269Y215213D02*
Y223213D01*
X265278Y109547D02*
X273278D01*
Y117547*
X265278*
Y109547*
X269278Y113547D02*
Y117547D01*
X255627Y110212D02*
X263627D01*
Y118212*
X255627*
Y110212*
X259627Y114212D02*
Y118212D01*
X315132Y113600D02*
X323132D01*
Y121600*
X315132*
Y113600*
X319132Y117600D02*
Y121600D01*
X296386Y108941D02*
X304386D01*
Y116941*
X296386*
Y108941*
X300386Y112941D02*
Y116941D01*
X300046Y100621D02*
X308046D01*
Y108621*
X300046*
Y100621*
X304046Y104621D02*
Y108621D01*
X305371Y100843D02*
X313371D01*
Y108843*
X305371*
Y100843*
X309371Y104843D02*
Y108843D01*
X353591Y101441D02*
X361591D01*
Y109441*
X353591*
Y101441*
X357591Y105441D02*
Y109441D01*
X328680Y100792D02*
X336680D01*
Y108792*
X328680*
Y100792*
X332680Y104792D02*
Y108792D01*
X328680Y113326D02*
X336680D01*
Y121326*
X328680*
Y113326*
X332680Y117326D02*
Y121326D01*
X326000Y105213D02*
X334000D01*
Y113213*
X326000*
Y105213*
X330000Y109213D02*
Y113213D01*
X385392Y100997D02*
X393392D01*
Y108997*
X385392*
Y100997*
X389392Y104997D02*
Y108997D01*
X368973Y101293D02*
X376973D01*
Y109293*
X368973*
Y101293*
X372973Y105293D02*
Y109293D01*
X399892Y100637D02*
X407892D01*
Y108637*
X399892*
Y100637*
X403892Y104637D02*
Y108637D01*
X431266Y109782D02*
X439266D01*
X439266D02*
Y117782D01*
X439266D02*
X431266D01*
X431266D02*
Y109782D01*
X435266Y113782D02*
Y117782D01*
X435869Y113200D02*
X443869D01*
Y121200*
X435869*
Y113200*
X439869Y117200D02*
Y121200D01*
X450462Y99218D02*
X458462D01*
Y107218*
X450462*
Y99218*
X454462Y103218D02*
Y107218D01*
X511469Y105906D02*
X519469D01*
Y113906*
X511469*
Y105906*
X515469Y109906D02*
Y113906D01*
X156337Y116307D02*
X164337D01*
Y124307*
X156337*
Y116307*
X160337Y120307D02*
Y124307D01*
X141458Y116485D02*
X149458D01*
Y124485*
X141458*
Y116485*
X145458Y120485D02*
Y124485D01*
X140729Y151121D02*
X148729D01*
Y159121*
X140729*
Y151121*
X144729Y155121D02*
Y159121D01*
X189475Y128500D02*
X197475D01*
Y136500*
X189475*
Y128500*
X193475Y132500D02*
Y136500D01*
X189208Y143298D02*
X197208D01*
Y151298*
X189208*
Y143298*
X193208Y147298D02*
Y151298D01*
X173500Y143000D02*
X181500D01*
Y151000*
X173500*
Y143000*
X177500Y147000D02*
Y151000D01*
X173000Y133500D02*
X181000D01*
Y141500*
X173000*
Y133500*
X177000Y137500D02*
Y141500D01*
X165924Y147701D02*
X173924D01*
Y155701*
X165924*
Y147701*
X169924Y151701D02*
Y155701D01*
X186000Y116000D02*
X194000D01*
Y124000*
X186000*
Y116000*
X190000Y120000D02*
Y124000D01*
X171276Y116159D02*
X179276D01*
Y124159*
X171276*
Y116159*
X175276Y120159D02*
Y124159D01*
X218090Y148497D02*
X226090D01*
Y156497*
X218090*
Y148497*
X222090Y152497D02*
Y156497D01*
X228090Y148497D02*
X236090D01*
Y156497*
X228090*
Y148497*
X232090Y152497D02*
Y156497D01*
X218123Y140100D02*
X226123D01*
Y148100*
X218123*
Y140100*
X222123Y144100D02*
Y148100D01*
X228123Y140100D02*
X236123D01*
Y148100*
X228123*
Y140100*
X232123Y144100D02*
Y148100D01*
X199466Y130535D02*
X207466D01*
Y138535*
X199466*
Y130535*
X203466Y134535D02*
Y138535D01*
X228185Y128086D02*
X236185D01*
Y136086*
X228185*
Y128086*
X232185Y132086D02*
Y136086D01*
X199832Y146432D02*
X207832D01*
Y154432*
X199832*
Y146432*
X203832Y150432D02*
Y154432D01*
X218185Y128086D02*
X226185D01*
Y136086*
X218185*
Y128086*
X222185Y132086D02*
Y136086D01*
X210281Y141556D02*
X218281D01*
Y149556*
X210281*
Y141556*
X214281Y145556D02*
Y149556D01*
X271339Y153289D02*
X279339D01*
Y161289*
X271339*
Y153289*
X275339Y157289D02*
Y161289D01*
X261339Y153289D02*
X269339D01*
Y161289*
X261339*
Y153289*
X265339Y157289D02*
Y161289D01*
X248050Y140299D02*
X256050D01*
Y148299*
X248050*
Y140299*
X252050Y144299D02*
Y148299D01*
X293207Y121993D02*
X301207D01*
Y129993*
X293207*
Y121993*
X297207Y125993D02*
Y129993D01*
X299640Y127983D02*
X307640D01*
Y135983*
X299640*
Y127983*
X303640Y131983D02*
Y135983D01*
X307516Y134416D02*
X315516D01*
Y142416*
X307516*
Y134416*
X311516Y138416D02*
Y142416D01*
X316501Y128205D02*
X324501D01*
X324501D02*
Y136205D01*
X324501D02*
X316501D01*
X316501D02*
Y128205D01*
X320501Y132205D02*
Y136205D01*
X310733Y122214D02*
X318733D01*
Y130214*
X310733*
Y122214*
X314733Y126214D02*
Y130214D01*
X303865Y115822D02*
X311865D01*
Y123822*
X303865*
Y115822*
X307865Y119822D02*
Y123822D01*
X280017Y144961D02*
X288017D01*
Y152961*
X280017*
Y144961*
X284017Y148961D02*
Y152961D01*
X289188Y145062D02*
X297188D01*
Y153062*
X289188*
Y145062*
X293188Y149062D02*
Y153062D01*
X288984Y153358D02*
X296984D01*
Y161358*
X288984*
Y153358*
X292984Y157358D02*
Y161358D01*
X279984Y153358D02*
X287984D01*
Y161358*
X279984*
Y153358*
X283984Y157358D02*
Y161358D01*
X289721Y135852D02*
X297721D01*
Y143852*
X289721*
Y135852*
X293721Y139852D02*
Y143852D01*
X279721Y135852D02*
X287721D01*
Y143852*
X279721*
Y135852*
X283721Y139852D02*
Y143852D01*
X284691Y128510D02*
X292691D01*
Y136510*
X284691*
Y128510*
X288691Y132510D02*
Y136510D01*
X297199Y141018D02*
X305199D01*
Y149018*
X297199*
Y141018*
X301199Y145018D02*
Y149018D01*
X305511Y149880D02*
X313511D01*
Y157880*
X305511*
Y149880*
X309511Y153880D02*
Y157880D01*
X296833Y148434D02*
X304833D01*
Y156434*
X296833*
Y148434*
X300833Y152434D02*
Y156434D01*
X357223Y132834D02*
X365223D01*
Y140834*
X357223*
Y132834*
X361223Y136834D02*
Y140834D01*
X346790Y122932D02*
X354790D01*
Y130932*
X346790*
Y122932*
X350790Y126932D02*
Y130932D01*
X344207Y136524D02*
X352207D01*
Y144524*
X344207*
Y136524*
X348207Y140524D02*
Y144524D01*
X357269Y124713D02*
X365269D01*
Y132713*
X357269*
Y124713*
X361269Y128713D02*
Y132713D01*
X320495Y134416D02*
X328495D01*
Y142416*
X320495*
Y134416*
X324495Y138416D02*
Y142416D01*
X332335Y137718D02*
X340335D01*
Y145718*
X332335*
Y137718*
X336335Y141718D02*
Y145718D01*
X322000Y121000D02*
X330000D01*
Y129000*
X322000*
Y121000*
X326000Y125000D02*
Y129000D01*
X329000Y128000D02*
X337000D01*
Y136000*
X329000*
Y128000*
X333000Y132000D02*
Y136000D01*
X368882Y143200D02*
X376882D01*
Y151200*
X368882*
Y143200*
X372882Y147200D02*
Y151200D01*
X373263Y115197D02*
X381263D01*
Y123197*
X373263*
Y115197*
X377263Y119197D02*
Y123197D01*
X386669Y129913D02*
X394669D01*
Y137913*
X386669*
Y129913*
X390669Y133913D02*
Y137913D01*
X394269Y151113D02*
X402269D01*
Y159113*
X394269*
Y151113*
X398269Y155113D02*
Y159113D01*
X389569Y136913D02*
X397569D01*
Y144913*
X389569*
Y136913*
X393569Y140913D02*
Y144913D01*
X375369Y147313D02*
X383369D01*
Y155313*
X375369*
Y147313*
X379369Y151313D02*
Y155313D01*
X396969Y146713D02*
X404969D01*
Y154713*
X396969*
Y146713*
X400969Y150713D02*
Y154713D01*
X434551Y152320D02*
X442551D01*
Y160320*
X434551*
Y152320*
X438551Y156320D02*
Y160320D01*
X407969Y151508D02*
X415969D01*
Y159508*
X407969*
Y151508*
X411969Y155508D02*
Y159508D01*
X460448Y116200D02*
X468448D01*
Y124200*
X460448*
Y116200*
X464448Y120200D02*
Y124200D01*
X441341Y119283D02*
X449341D01*
Y127283*
X441341*
Y119283*
X445341Y123283D02*
Y127283D01*
X450346Y118213D02*
X458346D01*
Y126213*
X450346*
Y118213*
X454346Y122213D02*
Y126213D01*
X465474Y153418D02*
X473474D01*
Y161418*
X465474*
Y153418*
X469474Y157418D02*
Y161418D01*
X472929Y119320D02*
X480929D01*
Y127320*
X472929*
Y119320*
X476929Y123320D02*
Y127320D01*
X471343Y133179D02*
X479343D01*
Y141179*
X471343*
Y133179*
X475343Y137179D02*
Y141179D01*
X443672Y146037D02*
X451672D01*
Y154037*
X443672*
Y146037*
X447672Y150037D02*
Y154037D01*
X474404Y130352D02*
X482404D01*
Y138352*
X474404*
Y130352*
X478404Y134352D02*
Y138352D01*
X475180Y138245D02*
X483180D01*
Y146245*
X475180*
Y138245*
X479180Y142245D02*
Y146245D01*
X462741Y141076D02*
X470741D01*
Y149076*
X462741*
Y141076*
X466741Y145076D02*
Y149076D01*
X456052Y141359D02*
X464052D01*
Y149359*
X456052*
Y141359*
X460052Y145359D02*
Y149359D01*
X465369Y116100D02*
X473369D01*
Y124100*
X465369*
Y116100*
X469369Y120100D02*
Y124100D01*
X466069Y149313D02*
X474069D01*
Y157313*
X466069*
Y149313*
X470069Y153313D02*
Y157313D01*
X459269Y138300D02*
X467269D01*
Y146300*
X459269*
Y138300*
X463269Y142300D02*
Y146300D01*
X474769Y134268D02*
X482769D01*
Y142268*
X474769*
Y134268*
X478769Y138268D02*
Y142268D01*
X493000Y131000D02*
X501000D01*
Y139000*
X493000*
Y131000*
X497000Y135000D02*
Y139000D01*
X493227Y118878D02*
X501227D01*
Y126878*
X493227*
Y118878*
X497227Y122878D02*
Y126878D01*
X493700Y149400D02*
X501700D01*
Y157400*
X493700*
Y149400*
X497700Y153400D02*
Y157400D01*
X145380Y188288D02*
X153380D01*
Y196288*
X145380*
Y188288*
X149380Y192288D02*
Y196288D01*
X151998Y176968D02*
X159998D01*
Y184968*
X151998*
Y176968*
X155998Y180968D02*
Y184968D01*
X141195Y171144D02*
X149195D01*
Y179144*
X141195*
Y171144*
X145195Y175144D02*
Y179144D01*
X179044Y167984D02*
X187044D01*
Y175984*
X179044*
Y167984*
X183044Y171984D02*
Y175984D01*
X189044Y167984D02*
X197044D01*
Y175984*
X189044*
Y167984*
X193044Y171984D02*
Y175984D01*
X165582Y187940D02*
X173582D01*
Y195940*
X165582*
Y187940*
X169582Y191940D02*
Y195940D01*
X165924Y156757D02*
X173924D01*
Y164757*
X165924*
Y156757*
X169924Y160757D02*
Y164757D01*
X189106Y155971D02*
X197106D01*
Y163971*
X189106*
Y155971*
X193106Y159971D02*
Y163971D01*
X172890Y162330D02*
X180890D01*
Y170330*
X172890*
Y162330*
X176890Y166330D02*
Y170330D01*
X179106Y155971D02*
X187106D01*
Y163971*
X179106*
Y155971*
X183106Y159971D02*
Y163971D01*
X179120Y179170D02*
X187120D01*
Y187170*
X179120*
Y179170*
X183120Y183170D02*
Y187170D01*
X189120Y179170D02*
X197120D01*
Y187170*
X189120*
Y179170*
X193120Y183170D02*
Y187170D01*
X179058Y191184D02*
X187058D01*
Y199184*
X179058*
Y191184*
X183058Y195184D02*
Y199184D01*
X189058Y191184D02*
X197058D01*
Y199184*
X189058*
Y191184*
X193058Y195184D02*
Y199184D01*
X231275Y162354D02*
X239275D01*
Y170354*
X231275*
Y162354*
X235275Y166354D02*
Y170354D01*
X219000Y168000D02*
X227000D01*
Y176000*
X219000*
Y168000*
X223000Y172000D02*
Y176000D01*
X227930Y191480D02*
X235930D01*
Y199480*
X227930*
Y191480*
X231930Y195480D02*
Y199480D01*
X199805Y156165D02*
X207805D01*
Y164165*
X199805*
Y156165*
X203805Y160165D02*
Y164165D01*
X218758Y191378D02*
X226758D01*
Y199378*
X218758*
Y191378*
X222758Y195378D02*
Y199378D01*
X209805Y156165D02*
X217805D01*
Y164165*
X209805*
Y156165*
X213805Y160165D02*
Y164165D01*
X199758Y191378D02*
X207758D01*
Y199378*
X199758*
Y191378*
X203758Y195378D02*
Y199378D01*
X218820Y179365D02*
X226820D01*
Y187365*
X218820*
Y179365*
X222820Y183365D02*
Y187365D01*
X209743Y168179D02*
X217743D01*
Y176179*
X209743*
Y168179*
X213743Y172179D02*
Y176179D01*
X209820Y179365D02*
X217820D01*
Y187365*
X209820*
Y179365*
X213820Y183365D02*
Y187365D01*
X199743Y168179D02*
X207743D01*
Y176179*
X199743*
Y168179*
X203743Y172179D02*
Y176179D01*
X224065Y156142D02*
X232065D01*
Y164142*
X224065*
Y156142*
X228065Y160142D02*
Y164142D01*
X231275Y169897D02*
X239275D01*
Y177897*
X231275*
Y169897*
X235275Y173897D02*
Y177897D01*
X227820Y179365D02*
X235820D01*
Y187365*
X227820*
Y179365*
X231820Y183365D02*
Y187365D01*
X209758Y191378D02*
X217758D01*
Y199378*
X209758*
Y191378*
X213758Y195378D02*
Y199378D01*
X199820Y179365D02*
X207820D01*
Y187365*
X199820*
Y179365*
X203820Y183365D02*
Y187365D01*
X250463Y170911D02*
X258463D01*
Y178911*
X250463*
Y170911*
X254463Y174911D02*
Y178911D01*
X247915Y163913D02*
X255915D01*
Y171913*
X247915*
Y163913*
X251915Y167913D02*
Y171913D01*
X258116Y171103D02*
X266116D01*
Y179103*
X258116*
Y171103*
X262116Y175103D02*
Y179103D01*
X278000Y171000D02*
X286000D01*
Y179000*
X278000*
Y171000*
X282000Y175000D02*
Y179000D01*
X268000Y171000D02*
X276000D01*
Y179000*
X268000*
Y171000*
X272000Y175000D02*
Y179000D01*
X277938Y183014D02*
X285938D01*
Y191014*
X277938*
Y183014*
X281938Y187014D02*
Y191014D01*
X267938Y183014D02*
X275938D01*
Y191014*
X267938*
Y183014*
X271938Y187014D02*
Y191014D01*
X277906Y191411D02*
X285906D01*
Y199411*
X277906*
Y191411*
X281906Y195411D02*
Y199411D01*
X267906Y191411D02*
X275906D01*
Y199411*
X267906*
Y191411*
X271906Y195411D02*
Y199411D01*
X260666Y188372D02*
X268666D01*
Y196372*
X260666*
Y188372*
X264666Y192372D02*
Y196372D01*
X287000Y171000D02*
X295000D01*
Y179000*
X287000*
Y171000*
X291000Y175000D02*
Y179000D01*
X296000Y171000D02*
X304000D01*
Y179000*
X296000*
Y171000*
X300000Y175000D02*
Y179000D01*
X306000Y171000D02*
X314000D01*
Y179000*
X306000*
Y171000*
X310000Y175000D02*
Y179000D01*
X306000Y183000D02*
X314000D01*
Y191000*
X306000*
Y183000*
X310000Y187000D02*
Y191000D01*
X296110Y183115D02*
X304110D01*
Y191115*
X296110*
Y183115*
X300110Y187115D02*
Y191115D01*
X286938Y183014D02*
X294938D01*
Y191014*
X286938*
Y183014*
X290938Y187014D02*
Y191014D01*
X305906Y191411D02*
X313906D01*
Y199411*
X305906*
Y191411*
X309906Y195411D02*
Y199411D01*
X295906Y191411D02*
X303906D01*
Y199411*
X295906*
Y191411*
X299906Y195411D02*
Y199411D01*
X286906Y191411D02*
X294906D01*
Y199411*
X286906*
Y191411*
X290906Y195411D02*
Y199411D01*
X300776Y156455D02*
X308776D01*
Y164455*
X300776*
Y156455*
X304776Y160455D02*
Y164455D01*
X367666Y162454D02*
X375666D01*
Y170454*
X367666*
Y162454*
X371666Y166454D02*
Y170454D01*
X367261Y178061D02*
X375261D01*
Y186061*
X367261*
Y178061*
X371261Y182061D02*
Y186061D01*
X389958Y187132D02*
X397958D01*
Y195132*
X389958*
Y187132*
X393958Y191132D02*
Y195132D01*
X419500Y160000D02*
X427500D01*
Y168000*
X419500*
Y160000*
X423500Y164000D02*
Y168000D01*
X426769Y163213D02*
X434769D01*
Y171213*
X426769*
Y163213*
X430769Y167213D02*
Y171213D01*
X434169Y167113D02*
X442169D01*
Y175113*
X434169*
Y167113*
X438169Y171113D02*
Y175113D01*
X412661Y175629D02*
X420661D01*
Y183629*
X412661*
Y175629*
X416661Y179629D02*
Y183629D01*
X425228Y171778D02*
X433228D01*
Y179778*
X425228*
Y171778*
X429228Y175778D02*
Y179778D01*
X426269Y179413D02*
X434269D01*
Y187413*
X426269*
Y179413*
X430269Y183413D02*
Y187413D01*
X457269Y184913D02*
X465269D01*
Y192913*
X457269*
Y184913*
X461269Y188913D02*
Y192913D01*
X459569Y188013D02*
X467569D01*
Y196013*
X459569*
Y188013*
X463569Y192013D02*
Y196013D01*
X473641Y169853D02*
X481641D01*
Y177853*
X473641*
Y169853*
X477641Y173853D02*
Y177853D01*
X472753Y180059D02*
X480753D01*
Y188059*
X472753*
Y180059*
X476753Y184059D02*
Y188059D01*
X458183Y177986D02*
X466183D01*
Y185986*
X458183*
Y177986*
X462183Y181986D02*
Y185986D01*
X477501Y169600D02*
X485501D01*
Y177600*
X477501*
Y169600*
X481501Y173600D02*
Y177600D01*
X477469Y182213D02*
X485469D01*
Y190213*
X477469*
Y182213*
X481469Y186213D02*
Y190213D01*
X478329Y177486D02*
X486329D01*
Y185486*
X478329*
Y177486*
X482329Y181486D02*
Y185486D01*
X494500Y171500D02*
X502500D01*
Y179500*
X494500*
Y171500*
X498500Y175500D02*
Y179500D01*
X503564Y189208D02*
X511564D01*
Y197208*
X503564*
Y189208*
X507564Y193208D02*
Y197208D01*
X495480Y192550D02*
X503480D01*
Y200550*
X495480*
Y192550*
X499480Y196550D02*
Y200550D01*
X151649Y211277D02*
X159649D01*
Y219277*
X151649*
Y211277*
X155649Y215277D02*
Y219277D01*
X144857Y205356D02*
X152857D01*
Y213356*
X144857*
Y205356*
X148857Y209356D02*
Y213356D01*
X151998Y198563D02*
X159998D01*
Y206563*
X151998*
Y198563*
X155998Y202563D02*
Y206563D01*
X144820Y211667D02*
X152820D01*
Y219667*
X144820*
Y211667*
X148820Y215667D02*
Y219667D01*
X159835Y211451D02*
X167835D01*
Y219451*
X159835*
Y211451*
X163835Y215451D02*
Y219451D01*
X169326Y211625D02*
X177326D01*
Y219625*
X169326*
Y211625*
X173326Y215625D02*
Y219625D01*
X179253Y211625D02*
X187253D01*
Y219625*
X179253*
Y211625*
X183253Y215625D02*
Y219625D01*
X189000Y212000D02*
X197000D01*
Y220000*
X189000*
Y212000*
X193000Y216000D02*
Y220000D01*
X179026Y199581D02*
X187026D01*
Y207581*
X179026*
Y199581*
X183026Y203581D02*
Y207581D01*
X189026Y199581D02*
X197026D01*
Y207581*
X189026*
Y199581*
X193026Y203581D02*
Y207581D01*
X209726Y199776D02*
X217726D01*
Y207776*
X209726*
Y199776*
X213726Y203776D02*
Y207776D01*
X199726Y199776D02*
X207726D01*
Y207776*
X199726*
Y199776*
X203726Y203776D02*
Y207776D01*
X227726Y199776D02*
X235726D01*
Y207776*
X227726*
Y199776*
X231726Y203776D02*
Y207776D01*
X218726Y199776D02*
X226726D01*
Y207776*
X218726*
Y199776*
X222726Y203776D02*
Y207776D01*
X260633Y196769D02*
X268633D01*
Y204769*
X260633*
Y196769*
X264633Y200769D02*
Y204769D01*
X300000Y227000D02*
X308000D01*
Y235000*
X300000*
Y227000*
X304000Y231000D02*
Y235000D01*
X311000Y218000D02*
X319000D01*
Y226000*
X311000*
Y218000*
X315000Y222000D02*
Y226000D01*
X311566Y202227D02*
X319566D01*
Y210227*
X311566*
Y202227*
X315566Y206227D02*
Y210227D01*
X301566Y202227D02*
X309566D01*
Y210227*
X301566*
Y202227*
X305566Y206227D02*
Y210227D01*
X311353Y210979D02*
X319353D01*
Y218979*
X311353*
Y210979*
X315353Y214979D02*
Y218979D01*
X302353Y210979D02*
X310353D01*
Y218979*
X302353*
Y210979*
X306353Y214979D02*
Y218979D01*
X353153Y224402D02*
X361153D01*
Y232402*
X353153*
Y224402*
X357153Y228402D02*
Y232402D01*
X345371Y208463D02*
X353371D01*
Y216463*
X345371*
Y208463*
X349371Y212463D02*
Y216463D01*
X330118Y230640D02*
X338118D01*
Y238640*
X330118*
Y230640*
X334118Y234640D02*
Y238640D01*
X330118Y222280D02*
X338118D01*
Y230280*
X330118*
Y222280*
X334118Y226280D02*
Y230280D01*
X332423Y200913D02*
X340423D01*
Y208913*
X332423*
Y200913*
X336423Y204913D02*
Y208913D01*
X320500Y218000D02*
X328500D01*
Y226000*
X320500*
Y218000*
X324500Y222000D02*
Y226000D01*
X320500Y211000D02*
X328500D01*
Y219000*
X320500*
Y211000*
X324500Y215000D02*
Y219000D01*
X320566Y202227D02*
X328566D01*
Y210227*
X320566*
Y202227*
X324566Y206227D02*
Y210227D01*
X366643Y224037D02*
X374643D01*
X374643D02*
Y232037D01*
X374643D02*
X366643D01*
X366643D02*
Y224037D01*
X370643Y228037D02*
Y232037D01*
X397132Y212404D02*
X405132D01*
Y220404*
X397132*
Y212404*
X401132Y216404D02*
Y220404D01*
X379768Y224037D02*
X387768D01*
Y232037*
X379768*
Y224037*
X383768Y228037D02*
Y232037D01*
X389726Y199904D02*
X397726D01*
Y207904*
X389726*
Y199904*
X393726Y203904D02*
Y207904D01*
X363410Y197316D02*
X371410D01*
Y205316*
X363410*
Y197316*
X367410Y201316D02*
Y205316D01*
X382169Y207713D02*
X390169D01*
Y215713*
X382169*
Y207713*
X386169Y211713D02*
Y215713D01*
X399456Y227683D02*
X407456D01*
Y235683*
X399456*
Y227683*
X403456Y231683D02*
Y235683D01*
X418050Y227318D02*
X426050D01*
Y235318*
X418050*
Y227318*
X422050Y231318D02*
Y235318D01*
X437008Y227318D02*
X445008D01*
Y235318*
X437008*
Y227318*
X441008Y231318D02*
Y235318D01*
X406741Y199968D02*
X414741D01*
Y207968*
X406741*
Y199968*
X410741Y203968D02*
Y207968D01*
X417969Y195513D02*
X425969D01*
Y203513*
X417969*
Y195513*
X421969Y199513D02*
Y203513D01*
X456878Y226589D02*
X464878D01*
Y234589*
X456878*
Y226589*
X460878Y230589D02*
Y234589D01*
X476336Y198303D02*
X484336D01*
Y206303*
X476336*
Y198303*
X480336Y202303D02*
Y206303D01*
X468069Y195213D02*
X476069D01*
Y203213*
X468069*
Y195213*
X472069Y199213D02*
Y203213D01*
X491504Y217899D02*
X499504D01*
Y225899*
X491504*
Y217899*
X495504Y221899D02*
Y225899D01*
X496436Y228048D02*
X504436D01*
Y236048*
X496436*
Y228048*
X500436Y232048D02*
Y236048D01*
X478207Y228412D02*
X486207D01*
Y236412*
X478207*
Y228412*
X482207Y232412D02*
Y236412D01*
X487729Y212591D02*
X495729D01*
Y220591*
X487729*
Y212591*
X491729Y216591D02*
Y220591D01*
X484169Y208113D02*
X492169D01*
Y216113*
X484169*
Y208113*
X488169Y212113D02*
Y216113D01*
X139500Y239000D02*
Y99000D01*
X520500*
Y239000*
X139500*
X340175Y130274D02*
Y100213D01*
X344112*
Y130274*
X340175*
Y144146D02*
Y135868D01*
X344269*
Y144146*
X340175*
X344269Y155413D02*
X340175D01*
Y150513*
X344269*
Y155413*
X340175Y237213D02*
Y191811D01*
X344269*
Y237213*
X340175*
Y174213D02*
Y170213D01*
X344269*
Y174213*
X340175*
Y164513D02*
Y160713D01*
X344269*
Y164513*
X340175*
Y184213D02*
X344269D01*
Y180213*
X340175*
Y184213*
X515000Y179100D02*
X519900D01*
Y150000*
X515000*
Y179100*
X520500Y249500D02*
X348077D01*
X520500D02*
X510500Y247000D01*
Y252000*
X520500Y249500*
X139200D02*
X311623D01*
X139200D02*
X149200Y252000D01*
Y247000*
X139200Y249500*
X520500Y251500D02*
Y264200D01*
X139200Y238700D02*
Y262200D01*
X317577Y250125D02*
X317350Y249188D01*
X317350D02*
X316895Y248563D01*
X316895D02*
X316214Y248250D01*
X315986*
X315305Y248563*
X315305D02*
X314850Y249188D01*
X314850D02*
X314623Y250125D01*
Y250438*
X314623D02*
X314850Y251375D01*
X315305Y252000*
X315986Y252313*
X315986D02*
X316214D01*
X316214D02*
X316895Y252000D01*
X317350Y251375*
X317577Y250125*
Y248563*
X317577D02*
X317350Y247000D01*
X316895Y246063*
X316895D02*
X316214Y245750D01*
X315759*
X315077Y246063*
X315077D02*
X314850Y246688D01*
X322350Y251375D02*
X322123Y252000D01*
X321441Y252313*
X321441D02*
X320986D01*
X320986D02*
X320305Y252000D01*
X319850Y251063*
X319850D02*
X319623Y249500D01*
Y247938*
X319623D02*
X319850Y246688D01*
X319850D02*
X320305Y246063D01*
X320305D02*
X320986Y245750D01*
X321214*
X321895Y246063*
X321895D02*
X322350Y246688D01*
X322350D02*
X322577Y247625D01*
Y247938*
X322577D02*
X322350Y248875D01*
X321895Y249500*
X321214Y249813*
X321214D02*
X320986D01*
X320986D02*
X320305Y249500D01*
X319850Y248875*
X319623Y247938*
X324850Y246375D02*
X324623Y246063D01*
X324623D02*
X324850Y245750D01*
X325077Y246063*
X325077D02*
X324850Y246375D01*
X330077Y250125D02*
X329850Y249188D01*
X329850D02*
X329395Y248563D01*
X329395D02*
X328714Y248250D01*
X328486*
X327805Y248563*
X327805D02*
X327350Y249188D01*
X327350D02*
X327123Y250125D01*
Y250438*
X327123D02*
X327350Y251375D01*
X327805Y252000*
X328486Y252313*
X328486D02*
X328714D01*
X328714D02*
X329395Y252000D01*
X329850Y251375*
X330077Y250125*
Y248563*
X330077D02*
X329850Y247000D01*
X329395Y246063*
X329395D02*
X328714Y245750D01*
X328259*
X327577Y246063*
X327577D02*
X327350Y246688D01*
X332123Y250125D02*
Y245750D01*
Y248875D02*
X332805Y249813D01*
X332805D02*
X333259Y250125D01*
X333941*
X334395Y249813*
X334395D02*
X334623Y248875D01*
Y245750*
Y248875D02*
X335305Y249813D01*
X335305D02*
X335759Y250125D01*
X336441*
X336895Y249813*
X336895D02*
X337123Y248875D01*
Y245750*
X339168Y250125D02*
Y245750D01*
Y248875D02*
X339850Y249813D01*
X339850D02*
X340305Y250125D01*
X340986*
X341441Y249813*
X341441D02*
X341668Y248875D01*
Y245750*
Y248875D02*
X342350Y249813D01*
X342350D02*
X342805Y250125D01*
X343486*
X343941Y249813*
X343941D02*
X344168Y248875D01*
Y245750*
X581000Y99000D02*
Y162250D01*
Y99000D02*
X578500Y109000D01*
X583500*
X581000Y99000*
Y239000D02*
Y175750D01*
Y239000D02*
X583500Y229000D01*
X578500*
X581000Y239000*
X341000Y99000D02*
X586000D01*
X448000Y239000D02*
X586000D01*
X565886Y171813D02*
X568386D01*
X568386D02*
X567023Y169313D01*
X567023D02*
X567705D01*
X567705D02*
X568159Y169000D01*
X568386Y168688*
X568386D02*
X568614Y167750D01*
Y167125*
X568386Y166188*
X568386D02*
X567932Y165563D01*
X567932D02*
X567250Y165250D01*
X566568*
X565886Y165563*
X565886D02*
X565659Y165875D01*
X565432Y166500*
X573614Y171813D02*
X571341D01*
X571341D02*
X571114Y169000D01*
X571341Y169313*
X571341D02*
X572023Y169625D01*
X572705*
X573386Y169313*
X573386D02*
X573841Y168688D01*
X573841D02*
X574068Y167750D01*
X573841Y167125*
X573614Y166188*
X573614D02*
X573159Y165563D01*
X573159D02*
X572477Y165250D01*
X571795*
X571114Y165563*
X571114D02*
X570886Y165875D01*
X570659Y166500*
X576341Y165875D02*
X576114Y165563D01*
X576114D02*
X576341Y165250D01*
X576568Y165563*
X576568D02*
X576341Y165875D01*
X581341Y170875D02*
X581114Y171500D01*
X580432Y171813*
X580432D02*
X579977D01*
X579977D02*
X579295Y171500D01*
X578841Y170563*
X578841D02*
X578614Y169000D01*
Y167438*
X578614D02*
X578841Y166188D01*
X578841D02*
X579295Y165563D01*
X579295D02*
X579977Y165250D01*
X580205*
X580886Y165563*
X580886D02*
X581341Y166188D01*
X581341D02*
X581568Y167125D01*
Y167438*
X581568D02*
X581341Y168375D01*
X580886Y169000*
X580205Y169313*
X580205D02*
X579977D01*
X579977D02*
X579295Y169000D01*
X578841Y168375*
X578614Y167438*
X583614Y169625D02*
Y165250D01*
Y168375D02*
X584295Y169313D01*
X584295D02*
X584750Y169625D01*
X585432*
X585886Y169313*
X585886D02*
X586114Y168375D01*
Y165250*
Y168375D02*
X586795Y169313D01*
X586795D02*
X587250Y169625D01*
X587932*
X588386Y169313*
X588386D02*
X588614Y168375D01*
Y165250*
X590659Y169625D02*
Y165250D01*
Y168375D02*
X591341Y169313D01*
X591341D02*
X591795Y169625D01*
X592477*
X592932Y169313*
X592932D02*
X593159Y168375D01*
Y165250*
Y168375D02*
X593841Y169313D01*
X593841D02*
X594295Y169625D01*
X594977*
X595432Y169313*
X595432D02*
X595659Y168375D01*
Y165250*
X100000Y516000D02*
X358000D01*
X100000Y492000D02*
X358000D01*
X100000Y468000D02*
X358000D01*
X100000Y444000D02*
X358000D01*
X100000Y420000D02*
X358000D01*
X100000Y516000D02*
Y420000D01*
X184000Y516000D02*
Y420000D01*
X220000Y516000D02*
Y420000D01*
X256000Y516000D02*
Y420000D01*
X310000Y516000D02*
Y420000D01*
X358000Y516000D02*
Y420000D01*
X135500Y504750D02*
X134955Y505500D01*
X134136Y505875*
X133045*
X132227Y505500*
X131682Y504750*
Y504000*
X131955Y503250*
X132227Y502875*
X132773Y502500*
X134409Y501750*
X134955Y501375*
X135227Y501000*
X135500Y500250*
Y499125*
X134955Y498375*
X134136Y498000*
X133045*
X132227Y498375*
X131682Y499125*
X137955Y505875D02*
Y498000D01*
X144227Y505875D02*
X140409Y498000D01*
Y505875D02*
X144227D01*
X140409Y498000D02*
X144227D01*
X146682Y505875D02*
Y498000D01*
Y505875D02*
X150227D01*
X146682Y502125D02*
X148864D01*
X146682Y498000D02*
X150227D01*
X193864Y505875D02*
X193318Y505500D01*
X192773Y504750*
X192500Y504000*
X192227Y502875*
Y501000*
X192500Y499875*
X192773Y499125*
X193318Y498375*
X193864Y498000*
X194955*
X195500Y498375*
X196045Y499125*
X196318Y499875*
X196591Y501000*
Y502875*
X196318Y504000*
X196045Y504750*
X195500Y505500*
X194955Y505875*
X193864*
X194682Y499500D02*
X196318Y497250D01*
X200955Y505875D02*
Y498000D01*
X199045Y505875D02*
X202864D01*
X205318D02*
X207500Y502125D01*
Y498000*
X209682Y505875D02*
X207500Y502125D01*
X232045Y504750D02*
X231500Y505500D01*
X230682Y505875*
X229591*
X228773Y505500*
X228227Y504750*
Y504000*
X228500Y503250*
X228773Y502875*
X229318Y502500*
X230955Y501750*
X231500Y501375*
X231773Y501000*
X232045Y500250*
Y499125*
X231500Y498375*
X230682Y498000*
X229591*
X228773Y498375*
X228227Y499125*
X234500Y505875D02*
X236682Y502125D01*
Y498000*
X238864Y505875D02*
X236682Y502125D01*
X241318Y505875D02*
Y498000D01*
Y505875D02*
X243500Y498000D01*
X245682Y505875D02*
X243500Y498000D01*
X245682Y505875D02*
Y498000D01*
X267500Y505875D02*
Y498000D01*
Y505875D02*
X269955D01*
X270773Y505500*
X271045Y505125*
X271318Y504375*
Y503250*
X271045Y502500*
X270773Y502125*
X269955Y501750*
X267500*
X273773Y505875D02*
Y498000D01*
X277045*
X281682Y505875D02*
X279500Y498000D01*
X281682Y505875D02*
X283864Y498000D01*
X280318Y500625D02*
X283045D01*
X288227Y505875D02*
Y498000D01*
X286318Y505875D02*
X290136D01*
X292591D02*
Y498000D01*
Y505875D02*
X296136D01*
X292591Y502125D02*
X294773D01*
X292591Y498000D02*
X296136D01*
X298591Y505875D02*
Y498000D01*
Y505875D02*
X300500D01*
X301318Y505500*
X301864Y504750*
X302136Y504000*
X302409Y502875*
Y501000*
X302136Y499875*
X301864Y499125*
X301318Y498375*
X300500Y498000*
X298591*
X326682Y505875D02*
Y498000D01*
X324773Y505875D02*
X328591D01*
X332682D02*
X332136Y505500D01*
X331591Y504750*
X331318Y504000*
X331045Y502875*
Y501000*
X331318Y499875*
X331591Y499125*
X332136Y498375*
X332682Y498000*
X333773*
X334318Y498375*
X334864Y499125*
X335136Y499875*
X335409Y501000*
Y502875*
X335136Y504000*
X334864Y504750*
X334318Y505500*
X333773Y505875*
X332682*
X337864D02*
Y498000D01*
X341136*
X108727Y481875D02*
X106000Y476625D01*
X110091*
X108727Y481875D02*
Y474000D01*
X114182Y481875D02*
X113364Y481500D01*
X112818Y480375*
X112545Y478500*
Y477375*
X112818Y475500*
X113364Y474375*
X114182Y474000*
X114727*
X115545Y474375*
X116091Y475500*
X116364Y477375*
Y478500*
X116091Y480375*
X115545Y481500*
X114727Y481875*
X114182*
X199182Y480750D02*
X198909Y481500D01*
X198091Y481875*
X197545*
X196727Y481500*
X196182Y480375*
X195909Y478500*
Y476625*
X196182Y475125*
X196727Y474375*
X197545Y474000*
X197818*
X198636Y474375*
X199182Y475125*
X199455Y476250*
Y476625*
X199182Y477750*
X198636Y478500*
X197818Y478875*
X197545*
X196727Y478500*
X196182Y477750*
X195909Y476625*
X204636Y481875D02*
X201909Y476625D01*
X206000*
X204636Y481875D02*
Y474000D01*
X232000Y480000D02*
X244000D01*
X238000Y474000D02*
Y486000D01*
X264636Y481875D02*
X266818Y478125D01*
Y474000*
X269000Y481875D02*
X266818Y478125D01*
X271455Y481875D02*
Y474000D01*
Y481875D02*
X275000D01*
X271455Y478125D02*
X273636D01*
X271455Y474000D02*
X275000D01*
X281273Y480750D02*
X280727Y481500D01*
X279909Y481875*
X278818*
X278000Y481500*
X277455Y480750*
Y480000*
X277727Y479250*
X278000Y478875*
X278545Y478500*
X280182Y477750*
X280727Y477375*
X281000Y477000*
X281273Y476250*
Y475125*
X280727Y474375*
X279909Y474000*
X278818*
X278000Y474375*
X277455Y475125*
X317818Y480750D02*
Y474000D01*
X315364Y477375D02*
X320273D01*
X327636Y483375D02*
X322727Y471375D01*
X330091Y477375D02*
X335000D01*
X339091Y481875D02*
X338273Y481500D01*
X337727Y480375*
X337455Y478500*
Y477375*
X337727Y475500*
X338273Y474375*
X339091Y474000*
X339636*
X340455Y474375*
X341000Y475500*
X341273Y477375*
Y478500*
X341000Y480375*
X340455Y481500*
X339636Y481875*
X339091*
X344000Y474750D02*
X343727Y474375D01*
X344000Y474000*
X344273Y474375*
X344000Y474750*
X348364Y481875D02*
X347545Y481500D01*
X347000Y480375*
X346727Y478500*
Y477375*
X347000Y475500*
X347545Y474375*
X348364Y474000*
X348909*
X349727Y474375*
X350273Y475500*
X350545Y477375*
Y478500*
X350273Y480375*
X349727Y481500*
X348909Y481875*
X348364*
X106545Y457875D02*
X109545D01*
X107909Y454875*
X108727*
X109273Y454500*
X109545Y454125*
X109818Y453000*
Y452250*
X109545Y451125*
X109000Y450375*
X108182Y450000*
X107364*
X106545Y450375*
X106273Y450750*
X106000Y451500*
X115818Y457875D02*
X113091D01*
X112818Y454500*
X113091Y454875*
X113909Y455250*
X114727*
X115545Y454875*
X116091Y454125*
X116364Y453000*
X116091Y452250*
X115818Y451125*
X115273Y450375*
X114455Y450000*
X113636*
X112818Y450375*
X112545Y450750*
X112273Y451500*
X196182Y456000D02*
Y456375D01*
X196455Y457125*
X196727Y457500*
X197273Y457875*
X198364*
X198909Y457500*
X199182Y457125*
X199455Y456375*
Y455625*
X199182Y454875*
X198636Y453750*
X195909Y450000*
X199727*
X202727Y457875D02*
X205727D01*
X204091Y454875*
X204909*
X205455Y454500*
X205727Y454125*
X206000Y453000*
Y452250*
X205727Y451125*
X205182Y450375*
X204364Y450000*
X203545*
X202727Y450375*
X202455Y450750*
X202182Y451500*
X232000Y450000D02*
X244000Y462000D01*
X232000D02*
X244000Y450000D01*
X264636Y457875D02*
X266818Y454125D01*
Y450000*
X269000Y457875D02*
X266818Y454125D01*
X271455Y457875D02*
Y450000D01*
Y457875D02*
X275000D01*
X271455Y454125D02*
X273636D01*
X271455Y450000D02*
X275000D01*
X281273Y456750D02*
X280727Y457500D01*
X279909Y457875*
X278818*
X278000Y457500*
X277455Y456750*
Y456000*
X277727Y455250*
X278000Y454875*
X278545Y454500*
X280182Y453750*
X280727Y453375*
X281000Y453000*
X281273Y452250*
Y451125*
X280727Y450375*
X279909Y450000*
X278818*
X278000Y450375*
X277455Y451125*
X317818Y456750D02*
Y450000D01*
X315364Y453375D02*
X320273D01*
X327636Y459375D02*
X322727Y447375D01*
X330091Y453375D02*
X335000D01*
X339091Y457875D02*
X338273Y457500D01*
X337727Y456375*
X337455Y454500*
Y453375*
X337727Y451500*
X338273Y450375*
X339091Y450000*
X339636*
X340455Y450375*
X341000Y451500*
X341273Y453375*
Y454500*
X341000Y456375*
X340455Y457500*
X339636Y457875*
X339091*
X344000Y450750D02*
X343727Y450375D01*
X344000Y450000*
X344273Y450375*
X344000Y450750*
X348364Y457875D02*
X347545Y457500D01*
X347000Y456375*
X346727Y454500*
Y453375*
X347000Y451500*
X347545Y450375*
X348364Y450000*
X348909*
X349727Y450375*
X350273Y451500*
X350545Y453375*
Y454500*
X350273Y456375*
X349727Y457500*
X348909Y457875*
X348364*
X106000Y432375D02*
X106545Y432750D01*
X107364Y433875*
Y426000*
X112545Y433875D02*
X109818Y428625D01*
X113909*
X112545Y433875D02*
Y426000D01*
X193045Y432000D02*
Y432375D01*
X193318Y433125*
X193591Y433500*
X194136Y433875*
X195227*
X195773Y433500*
X196045Y433125*
X196318Y432375*
Y431625*
X196045Y430875*
X195500Y429750*
X192773Y426000*
X196591*
X200682Y433875D02*
X199864Y433500D01*
X199318Y432375*
X199045Y430500*
Y429375*
X199318Y427500*
X199864Y426375*
X200682Y426000*
X201227*
X202045Y426375*
X202591Y427500*
X202864Y429375*
Y430500*
X202591Y432375*
X202045Y433500*
X201227Y433875*
X200682*
X206682D02*
X205864Y433500D01*
X205591Y432750*
Y432000*
X205864Y431250*
X206409Y430875*
X207500Y430500*
X208318Y430125*
X208864Y429375*
X209136Y428625*
Y427500*
X208864Y426750*
X208591Y426375*
X207773Y426000*
X206682*
X205864Y426375*
X205591Y426750*
X205318Y427500*
Y428625*
X205591Y429375*
X206136Y430125*
X206955Y430500*
X208045Y430875*
X208591Y431250*
X208864Y432000*
Y432750*
X208591Y433500*
X207773Y433875*
X206682*
X232000Y426000D02*
X244000D01*
Y438000*
X232000*
Y426000*
X238000Y432000D02*
Y438000D01*
X264636Y433875D02*
X266818Y430125D01*
Y426000*
X269000Y433875D02*
X266818Y430125D01*
X271455Y433875D02*
Y426000D01*
Y433875D02*
X275000D01*
X271455Y430125D02*
X273636D01*
X271455Y426000D02*
X275000D01*
X281273Y432750D02*
X280727Y433500D01*
X279909Y433875*
X278818*
X278000Y433500*
X277455Y432750*
Y432000*
X277727Y431250*
X278000Y430875*
X278545Y430500*
X280182Y429750*
X280727Y429375*
X281000Y429000*
X281273Y428250*
Y427125*
X280727Y426375*
X279909Y426000*
X278818*
X278000Y426375*
X277455Y427125*
X317818Y432750D02*
Y426000D01*
X315364Y429375D02*
X320273D01*
X327636Y435375D02*
X322727Y423375D01*
X330091Y429375D02*
X335000D01*
X339091Y433875D02*
X338273Y433500D01*
X337727Y432375*
X337455Y430500*
Y429375*
X337727Y427500*
X338273Y426375*
X339091Y426000*
X339636*
X340455Y426375*
X341000Y427500*
X341273Y429375*
Y430500*
X341000Y432375*
X340455Y433500*
X339636Y433875*
X339091*
X344000Y426750D02*
X343727Y426375D01*
X344000Y426000*
X344273Y426375*
X344000Y426750*
X348364Y433875D02*
X347545Y433500D01*
X347000Y432375*
X346727Y430500*
Y429375*
X347000Y427500*
X347545Y426375*
X348364Y426000*
X348909*
X349727Y426375*
X350273Y427500*
X350545Y429375*
Y430500*
X350273Y432375*
X349727Y433500*
X348909Y433875*
X348364*
G54D49*
X520500Y246500D02*
X520503D01*
X139200Y233700D02*
X139203D01*
X336000Y99000D02*
X336003D01*
X443000Y239000D02*
X443003D01*
G54D118*
X0Y0D02*
M02*
