%
T1C.014F095S3
X016034Y012031
X014546Y012048
X014473Y015512
X014519Y017514
X0156Y018097
X016958Y019194
X014938Y019229
X0156Y020256
X014886Y020936
X015565Y021528
X016383Y021545
X014882Y021567
X0193Y0216
X017333Y021563
X018325Y021563
X018303Y020358
X019303Y020358
X018306Y019518
X019306Y019518
X018312Y018317
X019312Y018317
X018304Y017198
X019304Y017198
X017689Y016633
X016992Y016076
X018311Y015997
X019311Y015997
X016992Y01517
X019321Y01473
X01775Y0147
X0177Y01375
X019348Y01325
X017528Y012016
X019Y012
X020347Y013453
X021428Y014556
X020383Y015043
X020381Y016017
X021381Y016017
X020374Y017218
X021374Y017218
X020382Y018336
X021382Y018336
X020376Y019538
X021376Y019538
X021373Y020378
X020373Y020378
X023173Y020378
X022273Y020378
X023193Y019548
X022276Y019538
X022282Y018336
X023182Y018336
X023528Y01739
X0223Y0172
X023528Y016635
X022807Y016014
X022209Y01525
X023209Y01525
X023212Y01441
X022212Y01441
X022218Y013209
X023218Y013209
X026928Y011355
X025963Y011421
X025205Y01443
X026534Y015729
X025192Y016791
X025446Y017491
X026212Y01751
X026467Y019237
X026463Y020077
X028191Y019541
X027191Y019541
X029091Y019541
X028194Y018701
X027194Y018701
X029094Y018701
X0282Y0175
X0272Y0175
X0291Y0175
X029298Y015736
X028398Y015736
X027534Y015729
X029319Y014906
X028402Y014896
X029372Y013985
X028372Y013985
X028869Y013251
X030405Y010462
X030937Y010484
X030039Y011294
X031913Y01176
X030787Y011982
X029721Y012599
X031473Y012621
X030364Y013198
X031152Y013842
X03012Y014502
X030083Y015243
X030951Y015388
X030478Y016045
X03Y0175
X031Y0175
X031Y0187
X030011Y018711
X029991Y019541
X030991Y019541
X031557Y020623
X030557Y020623
X031535Y021498
X030635Y021498
X0315Y0222
X0304Y0231
X033412Y023464
X033412Y022628
X03245Y0222
X03245Y0215
X032457Y020623
X033642Y020491
X033633Y014172
X032449Y013842
X03205Y01322
X0333Y0132
X0326Y0125
X033268Y011733
X033Y010921
X033268Y010479
X035759Y010544
X035079Y012693
X036127Y012871
X036122Y013683
X034821Y014052
X036741Y020132
X034937Y021246
X035715Y02284
X037064Y022804
X038377Y022804
X038617Y021171
X039373Y02039
X039396Y019113
X037126Y018206
X037167Y016645
X037937Y015131
X037288Y01472
X039357Y014091
X039067Y013391
X037726Y01192
X037297Y010529
X038939Y0105
X040389Y010464
X040097Y015071
X039827Y015511
X041197Y015551
X041666Y017963
X041074Y020397
X040113Y02164
X040346Y023168
X042205Y023132
X044101Y023132
X042197Y019951
X043027Y018341
X042923Y017578
X043817Y017111
X043077Y016721
X04235Y0164
X043855Y015632
X043987Y01172
X043527Y011378
X045446Y010322
X046937Y01201
X046445Y01202
X045435Y012221
X044534Y012328
X046327Y01423
X046674Y014508
X046005Y014536
X044767Y015004
X046947Y015742
X046218Y018199
X046127Y018891
X046357Y019201
X046088Y023059
X048221Y023241
X049173Y021659
X048817Y021211
X048034Y02023
X047207Y019921
X048147Y018621
X047675Y018406
X048233Y018149
X047764Y017385
X04815Y01736
X047007Y015331
X047918Y014225
X047877Y013827
X047534Y013718
X04784Y013435
X047693Y012332
X051547Y010991
X049723Y012288
X0497Y0135
X04977Y01534
X04985Y01755
X050756Y019321
X049948Y019655
X04955Y02219
X050044Y023205
T2C.035F197S55
X015Y010921
X016Y010921
X017Y010921
X018Y010921
X019Y010921
X018Y022921
X019Y022921
X015Y022921
X016Y022921
X017Y022921
X031427Y022921
X031427Y010921
X032427Y010921
X032427Y022921
X044025Y021471
X043025Y021471
X042025Y021471
X047537Y014871
X047537Y015871
X047537Y016871
X047537Y017871
X045025Y021471
X046025Y021471
T3C.04F139S55
X015014Y017919
X016786Y017919
X015014Y020281
X016786Y020281
X021427Y022921
X020427Y022921
X021427Y021921
X020427Y021921
X020427Y011921
X021427Y011921
X020427Y010921
X021427Y010921
X022427Y010921
X023427Y010921
X024427Y010921
X023427Y011921
X022427Y011921
X024427Y011921
X024427Y021921
X023427Y021921
X022427Y021921
X024427Y022921
X022427Y022921
X023427Y022921
X026427Y022921
X025427Y022921
X026427Y021921
X025427Y021921
X025427Y011921
X026427Y011921
X025427Y010921
X026427Y010921
X027427Y010921
X028427Y010921
X029427Y010921
X028427Y011921
X027427Y011921
X029427Y011921
X029427Y021921
X028427Y021921
X027427Y021921
X029427Y022921
X027427Y022921
X028427Y022921
X032329Y018721
X033329Y018721
X032329Y017721
X033329Y017721
X032329Y016721
X033329Y016721
X032329Y015721
X033329Y015721
X032329Y014721
X033329Y014721
X035129Y014721
X036129Y014721
X035129Y015721
X036129Y015721
X035129Y016721
X036129Y016721
X035129Y017721
X036129Y017721
X035129Y018721
X036129Y018721
M30
