*
*
G04 PADS 9.5 Build Number: 522968 generated Gerber (RS-274-X) file*
G04 PC Version=2.1*
*
%IN "NuTiny-SDK-N76E003 V2.0"*%
*
%MOIN*%
*
%FSLAX35Y35*%
*
*
*
*
G04 PC Standard Apertures*
*
*
G04 Thermal Relief Aperture macro.*
%AMTER*
1,1,$1,0,0*
1,0,$1-$2,0,0*
21,0,$3,$4,0,0,45*
21,0,$3,$4,0,0,135*
%
*
*
G04 Annular Aperture macro.*
%AMANN*
1,1,$1,0,0*
1,0,$2,0,0*
%
*
*
G04 Odd Aperture macro.*
%AMODD*
1,1,$1,0,0*
1,0,$1-0.005,0,0*
%
*
*
G04 PC Custom Aperture Macros*
*
*
*
*
*
*
G04 PC Aperture Table*
*
%ADD040C,0.07*%
%ADD041R,0.07X0.07*%
%ADD118C,0.0001*%
*
*
*
*
G04 PC Circuitry*
G04 Layer Name NuTiny-SDK-N76E003 V2.0 - circuitry*
%LPD*%
*
*
G04 PC Custom Flashes*
G04 Layer Name NuTiny-SDK-N76E003 V2.0 - flashes*
%LPD*%
*
*
G04 PC Circuitry*
G04 Layer Name NuTiny-SDK-N76E003 V2.0 - circuitry*
%LPD*%
*
G54D40*
G01X475369Y158713D03*
Y168713D03*
Y178713D03*
X450246Y214713D03*
X440246D03*
X430246D03*
X420246D03*
X314269Y109213D03*
Y229213D03*
X160000D03*
X170000D03*
X180000D03*
X190000D03*
X160000Y109213D03*
X170000D03*
X180000D03*
X190000D03*
X204269Y119213D03*
X214269Y109213D03*
Y119213D03*
X224269Y109213D03*
Y119213D03*
X234269Y109213D03*
Y119213D03*
X244269Y109213D03*
Y119213D03*
X254269Y109213D03*
Y119213D03*
X264269Y109213D03*
Y119213D03*
X274269Y109213D03*
Y119213D03*
X284269Y109213D03*
Y119213D03*
X294269Y109213D03*
Y119213D03*
Y219213D03*
X284269Y229213D03*
Y219213D03*
X274269Y229213D03*
Y219213D03*
X264269Y229213D03*
Y219213D03*
X254269Y229213D03*
Y219213D03*
X244269Y229213D03*
Y219213D03*
X234269Y229213D03*
Y219213D03*
X224269Y229213D03*
Y219213D03*
X214269Y229213D03*
Y219213D03*
X204269Y229213D03*
Y219213D03*
X333291Y187213D03*
X323291Y177213D03*
X333291D03*
X323291Y167213D03*
X333291D03*
X323291Y157213D03*
X333291D03*
X323291Y147213D03*
X333291D03*
X150142Y179189D03*
X167858D03*
X150142Y202811D03*
X167858D03*
X361291Y187213D03*
X351291Y177213D03*
X361291D03*
X351291Y167213D03*
X361291D03*
X351291Y157213D03*
X361291D03*
X351291Y147213D03*
X361291D03*
G54D41*
X475369Y148713D03*
X460246Y214713D03*
X324269Y109213D03*
Y229213D03*
X150000D03*
Y109213D03*
X204269D03*
X294269Y229213D03*
X323291Y187213D03*
X351291D03*
G54D118*
X0Y0D02*
M02*
