%TF.GenerationSoftware,KiCad,Pcbnew,(6.0.7)*%
%TF.CreationDate,2022-08-08T03:33:59+08:00*%
%TF.ProjectId,Solar Charger,536f6c61-7220-4436-9861-726765722e6b,rev?*%
%TF.SameCoordinates,Original*%
%TF.FileFunction,Copper,L2,Bot*%
%TF.FilePolarity,Positive*%
%FSLAX46Y46*%
G04 Gerber Fmt 4.6, Leading zero omitted, Abs format (unit mm)*
G04 Created by KiCad (PCBNEW (6.0.7)) date 2022-08-08 03:33:59*
%MOMM*%
%LPD*%
G01*
G04 APERTURE LIST*
%TA.AperFunction,ComponentPad*%
%ADD10O,2.100000X1.000000*%
%TD*%
%TA.AperFunction,ComponentPad*%
%ADD11O,1.600000X1.000000*%
%TD*%
%TA.AperFunction,ComponentPad*%
%ADD12C,0.500000*%
%TD*%
%TA.AperFunction,SMDPad,CuDef*%
%ADD13R,1.800000X2.500000*%
%TD*%
%TA.AperFunction,ComponentPad*%
%ADD14R,2.400000X2.400000*%
%TD*%
%TA.AperFunction,ComponentPad*%
%ADD15C,2.400000*%
%TD*%
%TA.AperFunction,ComponentPad*%
%ADD16R,3.000000X3.000000*%
%TD*%
%TA.AperFunction,ComponentPad*%
%ADD17C,3.000000*%
%TD*%
%TA.AperFunction,ComponentPad*%
%ADD18R,1.600000X1.600000*%
%TD*%
%TA.AperFunction,ComponentPad*%
%ADD19C,1.600000*%
%TD*%
%TA.AperFunction,ViaPad*%
%ADD20C,1.000000*%
%TD*%
%TA.AperFunction,ViaPad*%
%ADD21C,0.600000*%
%TD*%
%TA.AperFunction,ViaPad*%
%ADD22C,0.400000*%
%TD*%
%TA.AperFunction,ViaPad*%
%ADD23C,1.600000*%
%TD*%
%TA.AperFunction,ViaPad*%
%ADD24C,0.800000*%
%TD*%
%TA.AperFunction,Conductor*%
%ADD25C,0.300000*%
%TD*%
%TA.AperFunction,Conductor*%
%ADD26C,0.600000*%
%TD*%
%TA.AperFunction,Conductor*%
%ADD27C,0.400000*%
%TD*%
%TA.AperFunction,Conductor*%
%ADD28C,0.800000*%
%TD*%
G04 APERTURE END LIST*
D10*
%TO.P,P1,S1,SHIELD*%
%TO.N,GND*%
X80130000Y-96930000D03*
D11*
X75950000Y-96930000D03*
D10*
X80130000Y-105570000D03*
D11*
X75950000Y-105570000D03*
%TD*%
D12*
%TO.P,U6,9,GND*%
%TO.N,GND*%
X88175000Y-103135000D03*
X86875000Y-101135000D03*
D13*
X87525000Y-102135000D03*
D12*
X88175000Y-101135000D03*
X86875000Y-103135000D03*
X88175000Y-102135000D03*
X86875000Y-102135000D03*
%TD*%
D14*
%TO.P,C10,1*%
%TO.N,Net-(C10-Pad1)*%
X160750000Y-99500000D03*
D15*
%TO.P,C10,2*%
%TO.N,Net-(C10-Pad2)*%
X153250000Y-99500000D03*
%TD*%
D16*
%TO.P,J2,1,Pin_1*%
%TO.N,/CN3795 MPPT/BAT*%
X78000000Y-76500000D03*
D17*
%TO.P,J2,2,Pin_2*%
%TO.N,/IP6510 USB/Power Input*%
X78000000Y-81580000D03*
%TD*%
D14*
%TO.P,C11,1*%
%TO.N,Net-(C10-Pad2)*%
X140750000Y-99500000D03*
D15*
%TO.P,C11,2*%
%TO.N,Net-(C11-Pad2)*%
X133250000Y-99500000D03*
%TD*%
D16*
%TO.P,S1,1*%
%TO.N,Net-(J1-Pad1)*%
X86960000Y-60500000D03*
D17*
%TO.P,S1,2*%
%TO.N,GND*%
X92040000Y-60500000D03*
%TD*%
D14*
%TO.P,C9,1*%
%TO.N,/IP6510 USB/Power Input*%
X180750000Y-99500000D03*
D15*
%TO.P,C9,2*%
%TO.N,Net-(C10-Pad1)*%
X173250000Y-99500000D03*
%TD*%
D18*
%TO.P,C21,1*%
%TO.N,/IP6510 USB/Power Output*%
X89000000Y-93500000D03*
D19*
%TO.P,C21,2*%
%TO.N,GND*%
X91500000Y-93500000D03*
%TD*%
D16*
%TO.P,J3,1,Pin_1*%
%TO.N,/IP6510 USB/Power Output*%
X78000000Y-88000000D03*
D17*
%TO.P,J3,2,Pin_2*%
%TO.N,Net-(J3-Pad2)*%
X78000000Y-93080000D03*
%TD*%
D16*
%TO.P,J1,1,Pin_1*%
%TO.N,Net-(J1-Pad1)*%
X78000000Y-59500000D03*
D17*
%TO.P,J1,2,Pin_2*%
%TO.N,GND*%
X78000000Y-64580000D03*
%TO.P,J1,3,Pin_3*%
%TO.N,VCC*%
X78000000Y-69660000D03*
%TD*%
D14*
%TO.P,C12,1*%
%TO.N,Net-(C11-Pad2)*%
X120750000Y-99500000D03*
D15*
%TO.P,C12,2*%
%TO.N,GND*%
X113250000Y-99500000D03*
%TD*%
D20*
%TO.N,/IP6510 USB/Power Input*%
X109100000Y-86050000D03*
X109100000Y-87200000D03*
X109100000Y-84900000D03*
D21*
%TO.N,/IP6510 USB/Power Output*%
X96050000Y-100000000D03*
X89950000Y-104050000D03*
D22*
%TO.N,/IP6510 USB/DM*%
X82200000Y-101750000D03*
%TO.N,/IP6510 USB/CC1*%
X83600000Y-100800000D03*
D21*
X85000000Y-104050000D03*
%TO.N,/IP6510 USB/DM*%
X85000000Y-100250000D03*
%TO.N,GND*%
X97900000Y-101650000D03*
X95100000Y-105600000D03*
X92550000Y-105550000D03*
X81450000Y-98000000D03*
X81450000Y-104500000D03*
X85200000Y-97450000D03*
X85000000Y-94000000D03*
D23*
%TO.N,/IP6510 USB/Power Input*%
X172000000Y-58550000D03*
X152000000Y-58550000D03*
X132000000Y-58550000D03*
X112000000Y-58550000D03*
D20*
X94550000Y-87250000D03*
X94550000Y-86100000D03*
X94550000Y-84950000D03*
D22*
%TO.N,/CN3795 MPPT/FB*%
X101000000Y-83000000D03*
X92550000Y-81500000D03*
D24*
%TO.N,GND*%
X85850000Y-80350000D03*
%TO.N,VCC*%
X83900000Y-72500000D03*
X83900000Y-78400000D03*
D22*
%TO.N,GND*%
X87450000Y-78500000D03*
%TO.N,Net-(D1-Pad1)*%
X86050000Y-66000000D03*
X87450000Y-79500000D03*
%TO.N,/CN3795 MPPT/MPPT*%
X101500000Y-59087500D03*
%TO.N,Net-(AP1-Pad4)*%
X96750000Y-66900000D03*
%TO.N,/CN3795 MPPT/MPPT*%
X87450000Y-80500000D03*
%TO.N,Net-(AP1-Pad4)*%
X92550000Y-77500000D03*
D24*
%TO.N,GND*%
X94500000Y-76050000D03*
X106000000Y-82000000D03*
X103500000Y-82000000D03*
X101000000Y-81150000D03*
X96450000Y-58000000D03*
X98950000Y-59050000D03*
X105500000Y-59000000D03*
X85550000Y-69000000D03*
D20*
X90400000Y-71000000D03*
%TD*%
D25*
%TO.N,/IP6510 USB/DM*%
X82750000Y-100650000D02*
X83150000Y-100250000D01*
X83150000Y-100250000D02*
X85000000Y-100250000D01*
X82750000Y-101200000D02*
X82750000Y-100650000D01*
X82200000Y-101750000D02*
X82750000Y-101200000D01*
D26*
%TO.N,/IP6510 USB/Power Output*%
X92000000Y-104050000D02*
X96050000Y-100000000D01*
X89950000Y-104050000D02*
X92000000Y-104050000D01*
D25*
%TO.N,/IP6510 USB/CC1*%
X83600000Y-100800000D02*
X83600000Y-102650000D01*
X83600000Y-102650000D02*
X85000000Y-104050000D01*
D27*
%TO.N,/CN3795 MPPT/FB*%
X100600000Y-82600000D02*
X101000000Y-83000000D01*
X93650000Y-82600000D02*
X100600000Y-82600000D01*
X92550000Y-81500000D02*
X93650000Y-82600000D01*
D28*
%TO.N,VCC*%
X83900000Y-78400000D02*
X83900000Y-72500000D01*
D27*
%TO.N,Net-(D1-Pad1)*%
X89250000Y-69200000D02*
X86050000Y-66000000D01*
X89250000Y-77700000D02*
X89250000Y-69200000D01*
X87450000Y-79500000D02*
X89250000Y-77700000D01*
%TO.N,/CN3795 MPPT/MPPT*%
X96180000Y-66692183D02*
X96180000Y-64407500D01*
X89800000Y-73072183D02*
X96180000Y-66692183D01*
X96180000Y-64407500D02*
X101500000Y-59087500D01*
X89800000Y-78150000D02*
X89800000Y-73072183D01*
X87450000Y-80500000D02*
X89800000Y-78150000D01*
%TO.N,Net-(AP1-Pad4)*%
X92550000Y-71100000D02*
X96750000Y-66900000D01*
X92550000Y-77500000D02*
X92550000Y-71100000D01*
%TD*%
%TA.AperFunction,Conductor*%
%TO.N,GND*%
G36*
X108012874Y-56453721D02*
G01*
X108048860Y-56503205D01*
X108050733Y-56550731D01*
X108052110Y-56550949D01*
X108044500Y-56599000D01*
X108044500Y-84095500D01*
X108025593Y-84153691D01*
X107976093Y-84189655D01*
X107945500Y-84194500D01*
X93899000Y-84194500D01*
X93883067Y-84195754D01*
X93876608Y-84196262D01*
X93876607Y-84196262D01*
X93874677Y-84196414D01*
X93844084Y-84201259D01*
X93777006Y-84229043D01*
X93772281Y-84232476D01*
X93728535Y-84264259D01*
X93728526Y-84264266D01*
X93727506Y-84265007D01*
X93714856Y-84275251D01*
X93671017Y-84342758D01*
X93652110Y-84400949D01*
X93644500Y-84449000D01*
X93644500Y-87701000D01*
X93646414Y-87725323D01*
X93651259Y-87755916D01*
X93679043Y-87822994D01*
X93715007Y-87872494D01*
X93725251Y-87885144D01*
X93792758Y-87928983D01*
X93850949Y-87947890D01*
X93854793Y-87948499D01*
X93854798Y-87948500D01*
X93895152Y-87954891D01*
X93895157Y-87954891D01*
X93899000Y-87955500D01*
X95516676Y-87955500D01*
X95574867Y-87974407D01*
X95610831Y-88023907D01*
X95610831Y-88085093D01*
X95603235Y-88100000D01*
X95600000Y-88100000D01*
X95600000Y-98950000D01*
X106400000Y-98950000D01*
X106400000Y-88100000D01*
X106394905Y-88100000D01*
X106390061Y-88085093D01*
X106390061Y-88023908D01*
X106426025Y-87974407D01*
X106484216Y-87955500D01*
X116945500Y-87955500D01*
X117003691Y-87974407D01*
X117039655Y-88023907D01*
X117044500Y-88054500D01*
X117044500Y-101136371D01*
X117046446Y-101160894D01*
X117046754Y-101162825D01*
X117046755Y-101162830D01*
X117049397Y-101179370D01*
X117051370Y-101191726D01*
X117053620Y-101197130D01*
X117053621Y-101197132D01*
X117061035Y-101214934D01*
X117079354Y-101258923D01*
X117115443Y-101308331D01*
X117125718Y-101320953D01*
X117193336Y-101364622D01*
X117199512Y-101366611D01*
X117199511Y-101366611D01*
X117247874Y-101382190D01*
X117247876Y-101382190D01*
X117251575Y-101383382D01*
X117299648Y-101390870D01*
X136520476Y-101341963D01*
X136578715Y-101360723D01*
X136614804Y-101410131D01*
X136619728Y-101441042D01*
X136619724Y-101445844D01*
X136620564Y-101462100D01*
X136623352Y-101469378D01*
X136623352Y-101469379D01*
X136626105Y-101476566D01*
X136649356Y-101537268D01*
X136685284Y-101586794D01*
X136686098Y-101587800D01*
X136686099Y-101587802D01*
X136690621Y-101593395D01*
X136690623Y-101593397D01*
X136695517Y-101599449D01*
X136762991Y-101643338D01*
X136821168Y-101662288D01*
X136869216Y-101669934D01*
X136873101Y-101669937D01*
X136873103Y-101669937D01*
X137085359Y-101670091D01*
X137085360Y-101670091D01*
X137089595Y-101670094D01*
X137093764Y-101669377D01*
X137093767Y-101669377D01*
X137137576Y-101661845D01*
X137137577Y-101661845D01*
X137141746Y-101661128D01*
X137204315Y-101638908D01*
X137208131Y-101637261D01*
X137215749Y-101633973D01*
X137215751Y-101633972D01*
X137223222Y-101630747D01*
X137282904Y-101576736D01*
X137316098Y-101525338D01*
X137318405Y-101521319D01*
X137320320Y-101517983D01*
X137320321Y-101517980D01*
X137324200Y-101511222D01*
X137333022Y-101469199D01*
X137363482Y-101416134D01*
X137419315Y-101391108D01*
X137429658Y-101390539D01*
X156481293Y-101342063D01*
X156539532Y-101360823D01*
X156575621Y-101410231D01*
X156580545Y-101441135D01*
X156580531Y-101460310D01*
X156581371Y-101476566D01*
X156610163Y-101551734D01*
X156646091Y-101601260D01*
X156646892Y-101602251D01*
X156646900Y-101602261D01*
X156651425Y-101607857D01*
X156651427Y-101607859D01*
X156656325Y-101613916D01*
X156662856Y-101618164D01*
X156662857Y-101618165D01*
X156718358Y-101654266D01*
X156718362Y-101654268D01*
X156723800Y-101657805D01*
X156781976Y-101676754D01*
X156830023Y-101684399D01*
X156833908Y-101684402D01*
X156833910Y-101684402D01*
X157107829Y-101684600D01*
X157107830Y-101684600D01*
X157112062Y-101684603D01*
X157164212Y-101675637D01*
X157226781Y-101653417D01*
X157230597Y-101651770D01*
X157238215Y-101648482D01*
X157238217Y-101648481D01*
X157245688Y-101645256D01*
X157291614Y-101603694D01*
X157300558Y-101595600D01*
X157300559Y-101595599D01*
X157305370Y-101591245D01*
X157338564Y-101539847D01*
X157339215Y-101538713D01*
X157342788Y-101532489D01*
X157342789Y-101532486D01*
X157346666Y-101525732D01*
X157352340Y-101498706D01*
X157358547Y-101469135D01*
X157389006Y-101416070D01*
X157444838Y-101391043D01*
X157455181Y-101390474D01*
X164537530Y-101372453D01*
X175191605Y-101345344D01*
X175249844Y-101364104D01*
X175285933Y-101413512D01*
X175290857Y-101444416D01*
X175290835Y-101473867D01*
X175291675Y-101490123D01*
X175294463Y-101497401D01*
X175294463Y-101497402D01*
X175296835Y-101503595D01*
X175320467Y-101565291D01*
X175356395Y-101614817D01*
X175357209Y-101615823D01*
X175357210Y-101615825D01*
X175361732Y-101621418D01*
X175361734Y-101621420D01*
X175366628Y-101627472D01*
X175434102Y-101671361D01*
X175492279Y-101690311D01*
X175540327Y-101697957D01*
X175544212Y-101697960D01*
X175544214Y-101697960D01*
X185848742Y-101705427D01*
X185848753Y-101705427D01*
X185850705Y-101705428D01*
X185852650Y-101705275D01*
X185852661Y-101705275D01*
X185873214Y-101703663D01*
X185873227Y-101703662D01*
X185875171Y-101703509D01*
X185877109Y-101703202D01*
X185877115Y-101703201D01*
X185900160Y-101699547D01*
X185900164Y-101699546D01*
X185905940Y-101698630D01*
X185963055Y-101674929D01*
X186024049Y-101670089D01*
X186076239Y-101702025D01*
X186099690Y-101758538D01*
X186100000Y-101766369D01*
X186100000Y-106300500D01*
X186081093Y-106358691D01*
X186031593Y-106394655D01*
X186001000Y-106399500D01*
X74299500Y-106399500D01*
X74241309Y-106380593D01*
X74205345Y-106331093D01*
X74200500Y-106300500D01*
X74200500Y-104140000D01*
X79019534Y-104140000D01*
X79039313Y-104290236D01*
X79041797Y-104296233D01*
X79094819Y-104424240D01*
X79094821Y-104424244D01*
X79097302Y-104430233D01*
X79101248Y-104435375D01*
X79101250Y-104435379D01*
X79154285Y-104504494D01*
X79189549Y-104550451D01*
X79194698Y-104554402D01*
X79304621Y-104638750D01*
X79304625Y-104638752D01*
X79309767Y-104642698D01*
X79315756Y-104645179D01*
X79315760Y-104645181D01*
X79443767Y-104698203D01*
X79449764Y-104700687D01*
X79562280Y-104715500D01*
X79637720Y-104715500D01*
X79750236Y-104700687D01*
X79756233Y-104698203D01*
X79884240Y-104645181D01*
X79884244Y-104645179D01*
X79890233Y-104642698D01*
X79895375Y-104638752D01*
X79895379Y-104638750D01*
X80005302Y-104554402D01*
X80010451Y-104550451D01*
X80045715Y-104504494D01*
X80098750Y-104435379D01*
X80098752Y-104435375D01*
X80102698Y-104430233D01*
X80105179Y-104424244D01*
X80105181Y-104424240D01*
X80158203Y-104296233D01*
X80160687Y-104290236D01*
X80180466Y-104140000D01*
X80160687Y-103989764D01*
X80148738Y-103960916D01*
X80105181Y-103855760D01*
X80105179Y-103855756D01*
X80102698Y-103849767D01*
X80098752Y-103844625D01*
X80098750Y-103844621D01*
X80014402Y-103734698D01*
X80010451Y-103729549D01*
X79971463Y-103699632D01*
X79895379Y-103641250D01*
X79895375Y-103641248D01*
X79890233Y-103637302D01*
X79884244Y-103634821D01*
X79884240Y-103634819D01*
X79756233Y-103581797D01*
X79750236Y-103579313D01*
X79637720Y-103564500D01*
X79562280Y-103564500D01*
X79449764Y-103579313D01*
X79443767Y-103581797D01*
X79315760Y-103634819D01*
X79315756Y-103634821D01*
X79309767Y-103637302D01*
X79304625Y-103641248D01*
X79304621Y-103641250D01*
X79228537Y-103699632D01*
X79189549Y-103729549D01*
X79185598Y-103734698D01*
X79101250Y-103844621D01*
X79101248Y-103844625D01*
X79097302Y-103849767D01*
X79094821Y-103855756D01*
X79094819Y-103855760D01*
X79051262Y-103960916D01*
X79039313Y-103989764D01*
X79019534Y-104140000D01*
X74200500Y-104140000D01*
X74200500Y-101750000D01*
X81824882Y-101750000D01*
X81843242Y-101865918D01*
X81846777Y-101872856D01*
X81846778Y-101872859D01*
X81846779Y-101872860D01*
X81896523Y-101970489D01*
X81979511Y-102053477D01*
X81986448Y-102057012D01*
X81986450Y-102057013D01*
X82077141Y-102103222D01*
X82077144Y-102103223D01*
X82084082Y-102106758D01*
X82091776Y-102107977D01*
X82091777Y-102107977D01*
X82192304Y-102123899D01*
X82200000Y-102125118D01*
X82207696Y-102123899D01*
X82308223Y-102107977D01*
X82308224Y-102107977D01*
X82315918Y-102106758D01*
X82322856Y-102103223D01*
X82322859Y-102103222D01*
X82413550Y-102057013D01*
X82413552Y-102057012D01*
X82420489Y-102053477D01*
X82503477Y-101970489D01*
X82556758Y-101865918D01*
X82560704Y-101841006D01*
X82588481Y-101786490D01*
X82924651Y-101450320D01*
X82927780Y-101447620D01*
X82932269Y-101445425D01*
X82965893Y-101409178D01*
X82968469Y-101406502D01*
X82982247Y-101392724D01*
X82984792Y-101389013D01*
X82988220Y-101385108D01*
X83008401Y-101363354D01*
X83012666Y-101352664D01*
X83022980Y-101333348D01*
X83024321Y-101331393D01*
X83024322Y-101331390D01*
X83029492Y-101323854D01*
X83035641Y-101297941D01*
X83040014Y-101284116D01*
X83047294Y-101265868D01*
X83047294Y-101265866D01*
X83049883Y-101259378D01*
X83050500Y-101253085D01*
X83050500Y-101246916D01*
X83053175Y-101224057D01*
X83053230Y-101223827D01*
X83053230Y-101223825D01*
X83055340Y-101214934D01*
X83051404Y-101186012D01*
X83050500Y-101172663D01*
X83050500Y-100943836D01*
X83069407Y-100885645D01*
X83118907Y-100849681D01*
X83180093Y-100849681D01*
X83229593Y-100885645D01*
X83242441Y-100910863D01*
X83243242Y-100915918D01*
X83246777Y-100922856D01*
X83246778Y-100922859D01*
X83288710Y-101005155D01*
X83299500Y-101050100D01*
X83299500Y-102596492D01*
X83299197Y-102600617D01*
X83297575Y-102605342D01*
X83297918Y-102614476D01*
X83299430Y-102654761D01*
X83299500Y-102658474D01*
X83299500Y-102677948D01*
X83300325Y-102682378D01*
X83300661Y-102687571D01*
X83301774Y-102717208D01*
X83305380Y-102725602D01*
X83305381Y-102725605D01*
X83306317Y-102727783D01*
X83312683Y-102748734D01*
X83314791Y-102760053D01*
X83319588Y-102767835D01*
X83328768Y-102782728D01*
X83335451Y-102795595D01*
X83345964Y-102820063D01*
X83349978Y-102824949D01*
X83354342Y-102829313D01*
X83368613Y-102847368D01*
X83373532Y-102855348D01*
X83396769Y-102873018D01*
X83406839Y-102881810D01*
X84517409Y-103992380D01*
X84545569Y-104049548D01*
X84561633Y-104172394D01*
X84564471Y-104178845D01*
X84564472Y-104178847D01*
X84610686Y-104283876D01*
X84613605Y-104290510D01*
X84644248Y-104326964D01*
X84692100Y-104383892D01*
X84692103Y-104383894D01*
X84696639Y-104389291D01*
X84804060Y-104460796D01*
X84810788Y-104462898D01*
X84810790Y-104462899D01*
X84857891Y-104477614D01*
X84927233Y-104499278D01*
X84991744Y-104500461D01*
X85049202Y-104501514D01*
X85049204Y-104501514D01*
X85056255Y-104501643D01*
X85063058Y-104499788D01*
X85063060Y-104499788D01*
X85115653Y-104485449D01*
X85180755Y-104467700D01*
X85290724Y-104400179D01*
X85301941Y-104387787D01*
X85372590Y-104309735D01*
X85372590Y-104309734D01*
X85377322Y-104304507D01*
X85433588Y-104188375D01*
X85454997Y-104061120D01*
X85455133Y-104050000D01*
X85454337Y-104044440D01*
X89494901Y-104044440D01*
X89500834Y-104089805D01*
X89501174Y-104092408D01*
X89501763Y-104098253D01*
X89504719Y-104140000D01*
X89505383Y-104149384D01*
X89508055Y-104156290D01*
X89508432Y-104157977D01*
X89509779Y-104162033D01*
X89510718Y-104165396D01*
X89511633Y-104172394D01*
X89532692Y-104220254D01*
X89534403Y-104224397D01*
X89554261Y-104275726D01*
X89558841Y-104281535D01*
X89559651Y-104282956D01*
X89561339Y-104285360D01*
X89563605Y-104290510D01*
X89599803Y-104333572D01*
X89601715Y-104335921D01*
X89638128Y-104382110D01*
X89644034Y-104386192D01*
X89646639Y-104389291D01*
X89696923Y-104422762D01*
X89698293Y-104423692D01*
X89699086Y-104424240D01*
X89741859Y-104453802D01*
X89749569Y-104459131D01*
X89753360Y-104460330D01*
X89754060Y-104460796D01*
X89782093Y-104469554D01*
X89817647Y-104480662D01*
X89817972Y-104480764D01*
X89878730Y-104499980D01*
X89885337Y-104500500D01*
X89943012Y-104500500D01*
X89944826Y-104500517D01*
X89999198Y-104501514D01*
X89999200Y-104501514D01*
X90006255Y-104501643D01*
X90009554Y-104500743D01*
X90013480Y-104500500D01*
X91967373Y-104500500D01*
X91979009Y-104501186D01*
X92014310Y-104505364D01*
X92021586Y-104504035D01*
X92021589Y-104504035D01*
X92059148Y-104497175D01*
X92072430Y-104494749D01*
X92075476Y-104494242D01*
X92133962Y-104485449D01*
X92140475Y-104482321D01*
X92147573Y-104481025D01*
X92199982Y-104453801D01*
X92202762Y-104452412D01*
X92249408Y-104430013D01*
X92249411Y-104430011D01*
X92256079Y-104426809D01*
X92260521Y-104422703D01*
X92262781Y-104421180D01*
X92267788Y-104418579D01*
X92272828Y-104414275D01*
X92310460Y-104376643D01*
X92313263Y-104373949D01*
X92350124Y-104339876D01*
X92350126Y-104339873D01*
X92355556Y-104334854D01*
X92359078Y-104328790D01*
X92365638Y-104321465D01*
X96322758Y-100364345D01*
X96329523Y-100358179D01*
X96334714Y-100353869D01*
X96340724Y-100350179D01*
X96375329Y-100311948D01*
X96378722Y-100308381D01*
X96392487Y-100294616D01*
X96394677Y-100291651D01*
X96394685Y-100291642D01*
X96396080Y-100289753D01*
X96402309Y-100282142D01*
X96422590Y-100259735D01*
X96427322Y-100254507D01*
X96433254Y-100242264D01*
X96442708Y-100226622D01*
X96452634Y-100213183D01*
X96455085Y-100206204D01*
X96455087Y-100206200D01*
X96464707Y-100178805D01*
X96469021Y-100168441D01*
X96480512Y-100144724D01*
X96480512Y-100144723D01*
X96483588Y-100138375D01*
X96486487Y-100121144D01*
X96490707Y-100104770D01*
X96495068Y-100092352D01*
X96495070Y-100092344D01*
X96497519Y-100085369D01*
X96498799Y-100052791D01*
X96500095Y-100040256D01*
X96504363Y-100014890D01*
X96504363Y-100014887D01*
X96504997Y-100011120D01*
X96505133Y-100000000D01*
X96503068Y-99985576D01*
X96502144Y-99967667D01*
X96502838Y-99950006D01*
X96500942Y-99942857D01*
X96500942Y-99942853D01*
X96493745Y-99915709D01*
X96491438Y-99904371D01*
X96487839Y-99879240D01*
X96487839Y-99879239D01*
X96486839Y-99872259D01*
X96479207Y-99855472D01*
X96473637Y-99839874D01*
X96472222Y-99834539D01*
X96468119Y-99819063D01*
X96451372Y-99792210D01*
X96445260Y-99780811D01*
X96433428Y-99754788D01*
X96418869Y-99737891D01*
X96409867Y-99725659D01*
X96396433Y-99704118D01*
X96390842Y-99699266D01*
X96390840Y-99699264D01*
X96375442Y-99685902D01*
X96365331Y-99675756D01*
X96353799Y-99662373D01*
X96353798Y-99662372D01*
X96349193Y-99657028D01*
X96343273Y-99653191D01*
X96343271Y-99653189D01*
X96327234Y-99642794D01*
X96316199Y-99634494D01*
X96299709Y-99620185D01*
X96299707Y-99620184D01*
X96294117Y-99615333D01*
X96272217Y-99605651D01*
X96258406Y-99598184D01*
X96240906Y-99586841D01*
X96234151Y-99584821D01*
X96234143Y-99584817D01*
X96212135Y-99578235D01*
X96200476Y-99573934D01*
X96176984Y-99563549D01*
X96176981Y-99563548D01*
X96170217Y-99560558D01*
X96162873Y-99559689D01*
X96162867Y-99559687D01*
X96150272Y-99558196D01*
X96133550Y-99554733D01*
X96125539Y-99552338D01*
X96117273Y-99549866D01*
X96083378Y-99549659D01*
X96072356Y-99548975D01*
X96035690Y-99544636D01*
X96028408Y-99545966D01*
X96019738Y-99547549D01*
X96001348Y-99549158D01*
X95995284Y-99549121D01*
X95995283Y-99549121D01*
X95988231Y-99549078D01*
X95968444Y-99554733D01*
X95951924Y-99559454D01*
X95942509Y-99561654D01*
X95932135Y-99563549D01*
X95902427Y-99568975D01*
X95891475Y-99574664D01*
X95873051Y-99581996D01*
X95871172Y-99582533D01*
X95864155Y-99584539D01*
X95842529Y-99598184D01*
X95828960Y-99606745D01*
X95821770Y-99610872D01*
X95782212Y-99631421D01*
X95777172Y-99635725D01*
X95774975Y-99637922D01*
X95774471Y-99638324D01*
X95774356Y-99638431D01*
X95774348Y-99638423D01*
X95766225Y-99644913D01*
X95766354Y-99645065D01*
X95760984Y-99649635D01*
X95755019Y-99653399D01*
X95726313Y-99685902D01*
X95723194Y-99689434D01*
X95718994Y-99693903D01*
X91842393Y-103570504D01*
X91787876Y-103598281D01*
X91772389Y-103599500D01*
X89957614Y-103599500D01*
X89957009Y-103599498D01*
X89895284Y-103599121D01*
X89888231Y-103599078D01*
X89881451Y-103601016D01*
X89881448Y-103601016D01*
X89860285Y-103607064D01*
X89847803Y-103609774D01*
X89823358Y-103613450D01*
X89823355Y-103613451D01*
X89816038Y-103614551D01*
X89809370Y-103617753D01*
X89797067Y-103623661D01*
X89781417Y-103629606D01*
X89764155Y-103634539D01*
X89754427Y-103640677D01*
X89736307Y-103652110D01*
X89726333Y-103657627D01*
X89693921Y-103673191D01*
X89688490Y-103678211D01*
X89688486Y-103678214D01*
X89681296Y-103684860D01*
X89666927Y-103695885D01*
X89660988Y-103699632D01*
X89660984Y-103699635D01*
X89655019Y-103703399D01*
X89650353Y-103708683D01*
X89650350Y-103708685D01*
X89630667Y-103730973D01*
X89623662Y-103738138D01*
X89594444Y-103765146D01*
X89590726Y-103771548D01*
X89587759Y-103776656D01*
X89576351Y-103792474D01*
X89569596Y-103800122D01*
X89552309Y-103836942D01*
X89548323Y-103844550D01*
X89526404Y-103882287D01*
X89524733Y-103889497D01*
X89524274Y-103891478D01*
X89518361Y-103908555D01*
X89517752Y-103910546D01*
X89514754Y-103916932D01*
X89513669Y-103923899D01*
X89513668Y-103923903D01*
X89507905Y-103960916D01*
X89506527Y-103968037D01*
X89500885Y-103992380D01*
X89495815Y-104014255D01*
X89496338Y-104021640D01*
X89495896Y-104027251D01*
X89495763Y-104030414D01*
X89496072Y-104030418D01*
X89495986Y-104037469D01*
X89494901Y-104044440D01*
X85454337Y-104044440D01*
X85436839Y-103922259D01*
X85401539Y-103844621D01*
X85386349Y-103811212D01*
X85386348Y-103811211D01*
X85383428Y-103804788D01*
X85299193Y-103707028D01*
X85293276Y-103703193D01*
X85293274Y-103703191D01*
X85219161Y-103655155D01*
X85190906Y-103636841D01*
X85184150Y-103634821D01*
X85184149Y-103634820D01*
X85141335Y-103622016D01*
X85067273Y-103599866D01*
X85048344Y-103599750D01*
X85014922Y-103599546D01*
X84956848Y-103580283D01*
X84945523Y-103570552D01*
X83929496Y-102554525D01*
X83901719Y-102500008D01*
X83900500Y-102484521D01*
X83900500Y-101050100D01*
X83911290Y-101005155D01*
X83953222Y-100922859D01*
X83953223Y-100922856D01*
X83956758Y-100915918D01*
X83975118Y-100800000D01*
X83970922Y-100773511D01*
X83957977Y-100691777D01*
X83957977Y-100691776D01*
X83956758Y-100684082D01*
X83954180Y-100679022D01*
X83954181Y-100618906D01*
X83990146Y-100569406D01*
X84048335Y-100550500D01*
X84617920Y-100550500D01*
X84676111Y-100569407D01*
X84686738Y-100579309D01*
X84686843Y-100579191D01*
X84692100Y-100583891D01*
X84696639Y-100589291D01*
X84804060Y-100660796D01*
X84810788Y-100662898D01*
X84810790Y-100662899D01*
X84857004Y-100677337D01*
X84927233Y-100699278D01*
X84991744Y-100700461D01*
X85049202Y-100701514D01*
X85049204Y-100701514D01*
X85056255Y-100701643D01*
X85063058Y-100699788D01*
X85063060Y-100699788D01*
X85120667Y-100684082D01*
X85180755Y-100667700D01*
X85290724Y-100600179D01*
X85309615Y-100579309D01*
X85372590Y-100509735D01*
X85372590Y-100509734D01*
X85377322Y-100504507D01*
X85411718Y-100433515D01*
X85430512Y-100394724D01*
X85430512Y-100394723D01*
X85433588Y-100388375D01*
X85450180Y-100289753D01*
X85454363Y-100264891D01*
X85454363Y-100264886D01*
X85454997Y-100261120D01*
X85455133Y-100250000D01*
X85436839Y-100122259D01*
X85418464Y-100081846D01*
X85386349Y-100011212D01*
X85386348Y-100011211D01*
X85383428Y-100004788D01*
X85299193Y-99907028D01*
X85293276Y-99903193D01*
X85293274Y-99903191D01*
X85196824Y-99840677D01*
X85190906Y-99836841D01*
X85184150Y-99834821D01*
X85184149Y-99834820D01*
X85110473Y-99812786D01*
X85067273Y-99799866D01*
X84990644Y-99799398D01*
X84945282Y-99799121D01*
X84938231Y-99799078D01*
X84931454Y-99801015D01*
X84931453Y-99801015D01*
X84820935Y-99832601D01*
X84820933Y-99832602D01*
X84814155Y-99834539D01*
X84705019Y-99903399D01*
X84700351Y-99908685D01*
X84700347Y-99908688D01*
X84693858Y-99916035D01*
X84641166Y-99947135D01*
X84619655Y-99949500D01*
X83203508Y-99949500D01*
X83199383Y-99949197D01*
X83194658Y-99947575D01*
X83145238Y-99949430D01*
X83141525Y-99949500D01*
X83122052Y-99949500D01*
X83117622Y-99950325D01*
X83112429Y-99950661D01*
X83093298Y-99951379D01*
X83091926Y-99951431D01*
X83082791Y-99951774D01*
X83074394Y-99955382D01*
X83074393Y-99955382D01*
X83072212Y-99956319D01*
X83051263Y-99962683D01*
X83048936Y-99963116D01*
X83048931Y-99963118D01*
X83039947Y-99964791D01*
X83020690Y-99976661D01*
X83017272Y-99978768D01*
X83004404Y-99985452D01*
X82986358Y-99993205D01*
X82986357Y-99993206D01*
X82979937Y-99995964D01*
X82975051Y-99999978D01*
X82970687Y-100004342D01*
X82952632Y-100018613D01*
X82944652Y-100023532D01*
X82926982Y-100046769D01*
X82918190Y-100056839D01*
X82575349Y-100399680D01*
X82572220Y-100402380D01*
X82567731Y-100404575D01*
X82561513Y-100411278D01*
X82534107Y-100440822D01*
X82531531Y-100443498D01*
X82517752Y-100457277D01*
X82515207Y-100460987D01*
X82511771Y-100464900D01*
X82491599Y-100486646D01*
X82488212Y-100495134D01*
X82488212Y-100495135D01*
X82487334Y-100497336D01*
X82477020Y-100516652D01*
X82475679Y-100518607D01*
X82475678Y-100518610D01*
X82470508Y-100526146D01*
X82468398Y-100535038D01*
X82464359Y-100552058D01*
X82459986Y-100565884D01*
X82454630Y-100579309D01*
X82450117Y-100590622D01*
X82449500Y-100596915D01*
X82449500Y-100603084D01*
X82446825Y-100625943D01*
X82444660Y-100635066D01*
X82447630Y-100656888D01*
X82448596Y-100663987D01*
X82449500Y-100677337D01*
X82449500Y-101034521D01*
X82430593Y-101092712D01*
X82420504Y-101104525D01*
X82163510Y-101361519D01*
X82108994Y-101389296D01*
X82097965Y-101391043D01*
X82084082Y-101393242D01*
X82077140Y-101396779D01*
X81986450Y-101442987D01*
X81986448Y-101442988D01*
X81979511Y-101446523D01*
X81896523Y-101529511D01*
X81892988Y-101536448D01*
X81892987Y-101536450D01*
X81846778Y-101627141D01*
X81846777Y-101627144D01*
X81843242Y-101634082D01*
X81842023Y-101641776D01*
X81842023Y-101641777D01*
X81833018Y-101698630D01*
X81824882Y-101750000D01*
X74200500Y-101750000D01*
X74200500Y-98360000D01*
X79019534Y-98360000D01*
X79039313Y-98510236D01*
X79041797Y-98516233D01*
X79094819Y-98644240D01*
X79094821Y-98644244D01*
X79097302Y-98650233D01*
X79101248Y-98655375D01*
X79101250Y-98655379D01*
X79185598Y-98765302D01*
X79189549Y-98770451D01*
X79194698Y-98774402D01*
X79304621Y-98858750D01*
X79304625Y-98858752D01*
X79309767Y-98862698D01*
X79315756Y-98865179D01*
X79315760Y-98865181D01*
X79443767Y-98918203D01*
X79449764Y-98920687D01*
X79562280Y-98935500D01*
X79637720Y-98935500D01*
X79750236Y-98920687D01*
X79756233Y-98918203D01*
X79884240Y-98865181D01*
X79884244Y-98865179D01*
X79890233Y-98862698D01*
X79895375Y-98858752D01*
X79895379Y-98858750D01*
X80005302Y-98774402D01*
X80010451Y-98770451D01*
X80014402Y-98765302D01*
X80098750Y-98655379D01*
X80098752Y-98655375D01*
X80102698Y-98650233D01*
X80105179Y-98644244D01*
X80105181Y-98644240D01*
X80158203Y-98516233D01*
X80160687Y-98510236D01*
X80180466Y-98360000D01*
X80160687Y-98209764D01*
X80158203Y-98203767D01*
X80105181Y-98075760D01*
X80105179Y-98075756D01*
X80102698Y-98069767D01*
X80098752Y-98064625D01*
X80098750Y-98064621D01*
X80014402Y-97954698D01*
X80010451Y-97949549D01*
X80005302Y-97945598D01*
X79895379Y-97861250D01*
X79895375Y-97861248D01*
X79890233Y-97857302D01*
X79884244Y-97854821D01*
X79884240Y-97854819D01*
X79756233Y-97801797D01*
X79750236Y-97799313D01*
X79637720Y-97784500D01*
X79562280Y-97784500D01*
X79449764Y-97799313D01*
X79443767Y-97801797D01*
X79315760Y-97854819D01*
X79315756Y-97854821D01*
X79309767Y-97857302D01*
X79304625Y-97861248D01*
X79304621Y-97861250D01*
X79194698Y-97945598D01*
X79189549Y-97949549D01*
X79185598Y-97954698D01*
X79101250Y-98064621D01*
X79101248Y-98064625D01*
X79097302Y-98069767D01*
X79094821Y-98075756D01*
X79094819Y-98075760D01*
X79041797Y-98203767D01*
X79039313Y-98209764D01*
X79019534Y-98360000D01*
X74200500Y-98360000D01*
X74200500Y-93080000D01*
X76344396Y-93080000D01*
X76364779Y-93338994D01*
X76425427Y-93591610D01*
X76524846Y-93831628D01*
X76660588Y-94053140D01*
X76829311Y-94250689D01*
X77026860Y-94419412D01*
X77248372Y-94555154D01*
X77488390Y-94654573D01*
X77492164Y-94655479D01*
X77492167Y-94655480D01*
X77626933Y-94687834D01*
X77741006Y-94715221D01*
X77744871Y-94715525D01*
X77744876Y-94715526D01*
X77996125Y-94735299D01*
X78000000Y-94735604D01*
X78003875Y-94735299D01*
X78255124Y-94715526D01*
X78255129Y-94715525D01*
X78258994Y-94715221D01*
X78373067Y-94687834D01*
X78507833Y-94655480D01*
X78507836Y-94655479D01*
X78511610Y-94654573D01*
X78751628Y-94555154D01*
X78973140Y-94419412D01*
X79095601Y-94314820D01*
X88049500Y-94314820D01*
X88058233Y-94358722D01*
X88091496Y-94408504D01*
X88099606Y-94413923D01*
X88104038Y-94416884D01*
X88141278Y-94441767D01*
X88150838Y-94443669D01*
X88150839Y-94443669D01*
X88180417Y-94449553D01*
X88180422Y-94449553D01*
X88185180Y-94450500D01*
X89814820Y-94450500D01*
X89819578Y-94449553D01*
X89819583Y-94449553D01*
X89849161Y-94443669D01*
X89849162Y-94443669D01*
X89858722Y-94441767D01*
X89895963Y-94416884D01*
X89900394Y-94413923D01*
X89908504Y-94408504D01*
X89941767Y-94358722D01*
X89950500Y-94314820D01*
X89950500Y-92685180D01*
X89941767Y-92641278D01*
X89908504Y-92591496D01*
X89873923Y-92568390D01*
X89866828Y-92563649D01*
X89866827Y-92563649D01*
X89858722Y-92558233D01*
X89849162Y-92556331D01*
X89849161Y-92556331D01*
X89819583Y-92550447D01*
X89819578Y-92550447D01*
X89814820Y-92549500D01*
X88185180Y-92549500D01*
X88180422Y-92550447D01*
X88180417Y-92550447D01*
X88150839Y-92556331D01*
X88150838Y-92556331D01*
X88141278Y-92558233D01*
X88133173Y-92563649D01*
X88133172Y-92563649D01*
X88126077Y-92568390D01*
X88091496Y-92591496D01*
X88058233Y-92641278D01*
X88049500Y-92685180D01*
X88049500Y-94314820D01*
X79095601Y-94314820D01*
X79170689Y-94250689D01*
X79339412Y-94053140D01*
X79475154Y-93831628D01*
X79574573Y-93591610D01*
X79635221Y-93338994D01*
X79655604Y-93080000D01*
X79635221Y-92821006D01*
X79590126Y-92633172D01*
X79575480Y-92572167D01*
X79575479Y-92572164D01*
X79574573Y-92568390D01*
X79475154Y-92328372D01*
X79339412Y-92106860D01*
X79170689Y-91909311D01*
X78973140Y-91740588D01*
X78751628Y-91604846D01*
X78511610Y-91505427D01*
X78507836Y-91504521D01*
X78507833Y-91504520D01*
X78373067Y-91472166D01*
X78258994Y-91444779D01*
X78255129Y-91444475D01*
X78255124Y-91444474D01*
X78003875Y-91424701D01*
X78000000Y-91424396D01*
X77996125Y-91424701D01*
X77744876Y-91444474D01*
X77744871Y-91444475D01*
X77741006Y-91444779D01*
X77626933Y-91472166D01*
X77492167Y-91504520D01*
X77492164Y-91504521D01*
X77488390Y-91505427D01*
X77248372Y-91604846D01*
X77026860Y-91740588D01*
X76829311Y-91909311D01*
X76660588Y-92106860D01*
X76524846Y-92328372D01*
X76425427Y-92568390D01*
X76424521Y-92572164D01*
X76424520Y-92572167D01*
X76409874Y-92633172D01*
X76364779Y-92821006D01*
X76344396Y-93080000D01*
X74200500Y-93080000D01*
X74200500Y-89514820D01*
X76349500Y-89514820D01*
X76358233Y-89558722D01*
X76391496Y-89608504D01*
X76441278Y-89641767D01*
X76450838Y-89643669D01*
X76450839Y-89643669D01*
X76480417Y-89649553D01*
X76480422Y-89649553D01*
X76485180Y-89650500D01*
X79514820Y-89650500D01*
X79519578Y-89649553D01*
X79519583Y-89649553D01*
X79549161Y-89643669D01*
X79549162Y-89643669D01*
X79558722Y-89641767D01*
X79608504Y-89608504D01*
X79641767Y-89558722D01*
X79650500Y-89514820D01*
X79650500Y-86485180D01*
X79641767Y-86441278D01*
X79608504Y-86391496D01*
X79558722Y-86358233D01*
X79549162Y-86356331D01*
X79549161Y-86356331D01*
X79519583Y-86350447D01*
X79519578Y-86350447D01*
X79514820Y-86349500D01*
X76485180Y-86349500D01*
X76480422Y-86350447D01*
X76480417Y-86350447D01*
X76450839Y-86356331D01*
X76450838Y-86356331D01*
X76441278Y-86358233D01*
X76391496Y-86391496D01*
X76358233Y-86441278D01*
X76349500Y-86485180D01*
X76349500Y-89514820D01*
X74200500Y-89514820D01*
X74200500Y-81580000D01*
X76344396Y-81580000D01*
X76344701Y-81583875D01*
X76363736Y-81825740D01*
X76364779Y-81838994D01*
X76425427Y-82091610D01*
X76524846Y-82331628D01*
X76660588Y-82553140D01*
X76829311Y-82750689D01*
X76863057Y-82779511D01*
X77017715Y-82911601D01*
X77026860Y-82919412D01*
X77248372Y-83055154D01*
X77488390Y-83154573D01*
X77492164Y-83155479D01*
X77492167Y-83155480D01*
X77580951Y-83176795D01*
X77741006Y-83215221D01*
X77744871Y-83215525D01*
X77744876Y-83215526D01*
X77996125Y-83235299D01*
X78000000Y-83235604D01*
X78003875Y-83235299D01*
X78255124Y-83215526D01*
X78255129Y-83215525D01*
X78258994Y-83215221D01*
X78419049Y-83176795D01*
X78507833Y-83155480D01*
X78507836Y-83155479D01*
X78511610Y-83154573D01*
X78751628Y-83055154D01*
X78973140Y-82919412D01*
X78982286Y-82911601D01*
X79136943Y-82779511D01*
X79170689Y-82750689D01*
X79339412Y-82553140D01*
X79475154Y-82331628D01*
X79574573Y-82091610D01*
X79635221Y-81838994D01*
X79636265Y-81825740D01*
X79655299Y-81583875D01*
X79655604Y-81580000D01*
X79649308Y-81500000D01*
X92174882Y-81500000D01*
X92193242Y-81615918D01*
X92196777Y-81622856D01*
X92196778Y-81622859D01*
X92242987Y-81713550D01*
X92246523Y-81720489D01*
X92329511Y-81803477D01*
X92336448Y-81807012D01*
X92336450Y-81807013D01*
X92373205Y-81825740D01*
X92398264Y-81843946D01*
X93368253Y-82813934D01*
X93381418Y-82830236D01*
X93387175Y-82839152D01*
X93393604Y-82844220D01*
X93412328Y-82858981D01*
X93416737Y-82862898D01*
X93416738Y-82862897D01*
X93419867Y-82865548D01*
X93422747Y-82868428D01*
X93426065Y-82870799D01*
X93426066Y-82870800D01*
X93437584Y-82879031D01*
X93441313Y-82881831D01*
X93478811Y-82911392D01*
X93486116Y-82913957D01*
X93487366Y-82914607D01*
X93493669Y-82919111D01*
X93525458Y-82928618D01*
X93539415Y-82932792D01*
X93543851Y-82934233D01*
X93583033Y-82947993D01*
X93583036Y-82947994D01*
X93588906Y-82950055D01*
X93594044Y-82950500D01*
X93596182Y-82950500D01*
X93597901Y-82950574D01*
X93599262Y-82950689D01*
X93605464Y-82952544D01*
X93613635Y-82952223D01*
X93655554Y-82950576D01*
X93659441Y-82950500D01*
X100413810Y-82950500D01*
X100472001Y-82969407D01*
X100483814Y-82979496D01*
X100656054Y-83151736D01*
X100674260Y-83176795D01*
X100696523Y-83220489D01*
X100779511Y-83303477D01*
X100786448Y-83307012D01*
X100786450Y-83307013D01*
X100877141Y-83353222D01*
X100877144Y-83353223D01*
X100884082Y-83356758D01*
X100891776Y-83357977D01*
X100891777Y-83357977D01*
X100992304Y-83373899D01*
X101000000Y-83375118D01*
X101007696Y-83373899D01*
X101108223Y-83357977D01*
X101108224Y-83357977D01*
X101115918Y-83356758D01*
X101122856Y-83353223D01*
X101122859Y-83353222D01*
X101213550Y-83307013D01*
X101213552Y-83307012D01*
X101220489Y-83303477D01*
X101303477Y-83220489D01*
X101332859Y-83162823D01*
X101353222Y-83122859D01*
X101353223Y-83122856D01*
X101356758Y-83115918D01*
X101366705Y-83053120D01*
X101373899Y-83007696D01*
X101375118Y-83000000D01*
X101364473Y-82932792D01*
X101357977Y-82891777D01*
X101357977Y-82891776D01*
X101356758Y-82884082D01*
X101353223Y-82877144D01*
X101353222Y-82877141D01*
X101307013Y-82786450D01*
X101307012Y-82786448D01*
X101303477Y-82779511D01*
X101220489Y-82696523D01*
X101213551Y-82692988D01*
X101213547Y-82692985D01*
X101176793Y-82674258D01*
X101151735Y-82656053D01*
X100881745Y-82386063D01*
X100868580Y-82369760D01*
X100867267Y-82367726D01*
X100867264Y-82367722D01*
X100862825Y-82360848D01*
X100837668Y-82341015D01*
X100833263Y-82337101D01*
X100833262Y-82337102D01*
X100830131Y-82334449D01*
X100827254Y-82331572D01*
X100822305Y-82328035D01*
X100820203Y-82326533D01*
X100812399Y-82320956D01*
X100808681Y-82318165D01*
X100777614Y-82293673D01*
X100777613Y-82293673D01*
X100771189Y-82288608D01*
X100763882Y-82286042D01*
X100762637Y-82285395D01*
X100756331Y-82280889D01*
X100724542Y-82271382D01*
X100710585Y-82267208D01*
X100706149Y-82265767D01*
X100666967Y-82252007D01*
X100666964Y-82252006D01*
X100661094Y-82249945D01*
X100655956Y-82249500D01*
X100653818Y-82249500D01*
X100652099Y-82249426D01*
X100650738Y-82249311D01*
X100644536Y-82247456D01*
X100636365Y-82247777D01*
X100594446Y-82249424D01*
X100590559Y-82249500D01*
X93836190Y-82249500D01*
X93777999Y-82230593D01*
X93766186Y-82220504D01*
X92893946Y-81348264D01*
X92875740Y-81323205D01*
X92857013Y-81286450D01*
X92857012Y-81286448D01*
X92853477Y-81279511D01*
X92770489Y-81196523D01*
X92763552Y-81192988D01*
X92763550Y-81192987D01*
X92672859Y-81146778D01*
X92672856Y-81146777D01*
X92665918Y-81143242D01*
X92658224Y-81142023D01*
X92658223Y-81142023D01*
X92557696Y-81126101D01*
X92550000Y-81124882D01*
X92542304Y-81126101D01*
X92441777Y-81142023D01*
X92441776Y-81142023D01*
X92434082Y-81143242D01*
X92427144Y-81146777D01*
X92427141Y-81146778D01*
X92336450Y-81192987D01*
X92336448Y-81192988D01*
X92329511Y-81196523D01*
X92246523Y-81279511D01*
X92242988Y-81286448D01*
X92242987Y-81286450D01*
X92196778Y-81377141D01*
X92196777Y-81377144D01*
X92193242Y-81384082D01*
X92174882Y-81500000D01*
X79649308Y-81500000D01*
X79639639Y-81377141D01*
X79635526Y-81324876D01*
X79635525Y-81324871D01*
X79635221Y-81321006D01*
X79593392Y-81146778D01*
X79575480Y-81072167D01*
X79575479Y-81072164D01*
X79574573Y-81068390D01*
X79475154Y-80828372D01*
X79339412Y-80606860D01*
X79170689Y-80409311D01*
X78973140Y-80240588D01*
X78751628Y-80104846D01*
X78511610Y-80005427D01*
X78507836Y-80004521D01*
X78507833Y-80004520D01*
X78373067Y-79972166D01*
X78258994Y-79944779D01*
X78255129Y-79944475D01*
X78255124Y-79944474D01*
X78003875Y-79924701D01*
X78000000Y-79924396D01*
X77996125Y-79924701D01*
X77744876Y-79944474D01*
X77744871Y-79944475D01*
X77741006Y-79944779D01*
X77626933Y-79972166D01*
X77492167Y-80004520D01*
X77492164Y-80004521D01*
X77488390Y-80005427D01*
X77248372Y-80104846D01*
X77026860Y-80240588D01*
X76829311Y-80409311D01*
X76660588Y-80606860D01*
X76524846Y-80828372D01*
X76425427Y-81068390D01*
X76424521Y-81072164D01*
X76424520Y-81072167D01*
X76406608Y-81146778D01*
X76364779Y-81321006D01*
X76364475Y-81324871D01*
X76364474Y-81324876D01*
X76360361Y-81377141D01*
X76344396Y-81580000D01*
X74200500Y-81580000D01*
X74200500Y-78400000D01*
X83344750Y-78400000D01*
X83345597Y-78406433D01*
X83345597Y-78406434D01*
X83349329Y-78434781D01*
X83349500Y-78436493D01*
X83349500Y-78437785D01*
X83349958Y-78441128D01*
X83355241Y-78479692D01*
X83355310Y-78480207D01*
X83363245Y-78540482D01*
X83363670Y-78543709D01*
X83364178Y-78544936D01*
X83364794Y-78549432D01*
X83393634Y-78616078D01*
X83394193Y-78617399D01*
X83419139Y-78677625D01*
X83421179Y-78680285D01*
X83422017Y-78681668D01*
X83424695Y-78687855D01*
X83457634Y-78728532D01*
X83467641Y-78740890D01*
X83469225Y-78742900D01*
X83507379Y-78792621D01*
X83511693Y-78795931D01*
X83514278Y-78798803D01*
X83515369Y-78799827D01*
X83519614Y-78805070D01*
X83525112Y-78808977D01*
X83525115Y-78808980D01*
X83572148Y-78842405D01*
X83575065Y-78844560D01*
X83617225Y-78876910D01*
X83617229Y-78876912D01*
X83622375Y-78880861D01*
X83628367Y-78883343D01*
X83631722Y-78885280D01*
X83635610Y-78887776D01*
X83637055Y-78888532D01*
X83642558Y-78892442D01*
X83648906Y-78894727D01*
X83648909Y-78894729D01*
X83699805Y-78913052D01*
X83704156Y-78914735D01*
X83750298Y-78933848D01*
X83750301Y-78933849D01*
X83756291Y-78936330D01*
X83762721Y-78937177D01*
X83768992Y-78938857D01*
X83768916Y-78939141D01*
X83773898Y-78940350D01*
X83778118Y-78941247D01*
X83784468Y-78943533D01*
X83841632Y-78947731D01*
X83847299Y-78948312D01*
X83900000Y-78955250D01*
X83906433Y-78954403D01*
X83909038Y-78954403D01*
X83925878Y-78953918D01*
X83934891Y-78954580D01*
X83941506Y-78953246D01*
X83941509Y-78953246D01*
X83987650Y-78943942D01*
X83994295Y-78942836D01*
X84037277Y-78937177D01*
X84037278Y-78937177D01*
X84043709Y-78936330D01*
X84049701Y-78933848D01*
X84049704Y-78933847D01*
X84052187Y-78932818D01*
X84070512Y-78927233D01*
X84076126Y-78926101D01*
X84076125Y-78926101D01*
X84082743Y-78924767D01*
X84088755Y-78921704D01*
X84088760Y-78921702D01*
X84127600Y-78901912D01*
X84134639Y-78898666D01*
X84177625Y-78880861D01*
X84182769Y-78876914D01*
X84182776Y-78876910D01*
X84187630Y-78873185D01*
X84202948Y-78863520D01*
X84217132Y-78856293D01*
X84251645Y-78824557D01*
X84258386Y-78818891D01*
X84271302Y-78808980D01*
X84292621Y-78792621D01*
X84302376Y-78779909D01*
X84313903Y-78767308D01*
X84323186Y-78758772D01*
X84323189Y-78758769D01*
X84328156Y-78754201D01*
X84331711Y-78748468D01*
X84331713Y-78748465D01*
X84351044Y-78717286D01*
X84356634Y-78709198D01*
X84380861Y-78677625D01*
X84388298Y-78659669D01*
X84395621Y-78645390D01*
X84404080Y-78631748D01*
X84404081Y-78631746D01*
X84407635Y-78626014D01*
X84418791Y-78587615D01*
X84422396Y-78577350D01*
X84433847Y-78549705D01*
X84433848Y-78549701D01*
X84436330Y-78543709D01*
X84439312Y-78521063D01*
X84442395Y-78506372D01*
X84448268Y-78486155D01*
X84449715Y-78481175D01*
X84450500Y-78470485D01*
X84450500Y-78442568D01*
X84451347Y-78429646D01*
X84454403Y-78406434D01*
X84454403Y-78406433D01*
X84455250Y-78400000D01*
X84453047Y-78383263D01*
X84451347Y-78370354D01*
X84450500Y-78357432D01*
X84450500Y-72542568D01*
X84451347Y-72529646D01*
X84454403Y-72506434D01*
X84454403Y-72506433D01*
X84455250Y-72500000D01*
X84450671Y-72465219D01*
X84450500Y-72463507D01*
X84450500Y-72462215D01*
X84446020Y-72429515D01*
X84444759Y-72420308D01*
X84444690Y-72419793D01*
X84436755Y-72359518D01*
X84436755Y-72359517D01*
X84436330Y-72356291D01*
X84435822Y-72355064D01*
X84435206Y-72350568D01*
X84406366Y-72283922D01*
X84405792Y-72282565D01*
X84402239Y-72273986D01*
X84380861Y-72222375D01*
X84378821Y-72219715D01*
X84377983Y-72218332D01*
X84375305Y-72212145D01*
X84332359Y-72159110D01*
X84330756Y-72157077D01*
X84292621Y-72107379D01*
X84288307Y-72104069D01*
X84285722Y-72101197D01*
X84284631Y-72100173D01*
X84280386Y-72094930D01*
X84274888Y-72091023D01*
X84274885Y-72091020D01*
X84227852Y-72057595D01*
X84224935Y-72055440D01*
X84182775Y-72023090D01*
X84182771Y-72023088D01*
X84177625Y-72019139D01*
X84171632Y-72016656D01*
X84168278Y-72014720D01*
X84164390Y-72012224D01*
X84162945Y-72011468D01*
X84157442Y-72007558D01*
X84151094Y-72005273D01*
X84151091Y-72005271D01*
X84100195Y-71986948D01*
X84095844Y-71985265D01*
X84049702Y-71966152D01*
X84049699Y-71966151D01*
X84043709Y-71963670D01*
X84037279Y-71962823D01*
X84031008Y-71961143D01*
X84031084Y-71960859D01*
X84026102Y-71959650D01*
X84021882Y-71958753D01*
X84015532Y-71956467D01*
X83958368Y-71952269D01*
X83952699Y-71951688D01*
X83906434Y-71945597D01*
X83900000Y-71944750D01*
X83893567Y-71945597D01*
X83890962Y-71945597D01*
X83874122Y-71946082D01*
X83865109Y-71945420D01*
X83858494Y-71946754D01*
X83858491Y-71946754D01*
X83812350Y-71956058D01*
X83805705Y-71957164D01*
X83762723Y-71962823D01*
X83762722Y-71962823D01*
X83756291Y-71963670D01*
X83750299Y-71966152D01*
X83750296Y-71966153D01*
X83747813Y-71967182D01*
X83729488Y-71972767D01*
X83717257Y-71975233D01*
X83711245Y-71978296D01*
X83711240Y-71978298D01*
X83672400Y-71998088D01*
X83665361Y-72001334D01*
X83622375Y-72019139D01*
X83617231Y-72023086D01*
X83617224Y-72023090D01*
X83612370Y-72026815D01*
X83597054Y-72036479D01*
X83582868Y-72043707D01*
X83577897Y-72048278D01*
X83548356Y-72075442D01*
X83541615Y-72081108D01*
X83507379Y-72107379D01*
X83497624Y-72120091D01*
X83486097Y-72132692D01*
X83476814Y-72141228D01*
X83476811Y-72141231D01*
X83471844Y-72145799D01*
X83468289Y-72151532D01*
X83468287Y-72151535D01*
X83448956Y-72182714D01*
X83443366Y-72190802D01*
X83419139Y-72222375D01*
X83411702Y-72240331D01*
X83404379Y-72254610D01*
X83392365Y-72273986D01*
X83385936Y-72296117D01*
X83381209Y-72312385D01*
X83377604Y-72322650D01*
X83366153Y-72350295D01*
X83366152Y-72350299D01*
X83363670Y-72356291D01*
X83361152Y-72375413D01*
X83360688Y-72378937D01*
X83357605Y-72393628D01*
X83350285Y-72418825D01*
X83349500Y-72429515D01*
X83349500Y-72457432D01*
X83348653Y-72470354D01*
X83344750Y-72500000D01*
X83345597Y-72506433D01*
X83345597Y-72506434D01*
X83348653Y-72529646D01*
X83349500Y-72542568D01*
X83349500Y-78357432D01*
X83348653Y-78370354D01*
X83346954Y-78383263D01*
X83344750Y-78400000D01*
X74200500Y-78400000D01*
X74200500Y-78014820D01*
X76349500Y-78014820D01*
X76358233Y-78058722D01*
X76391496Y-78108504D01*
X76441278Y-78141767D01*
X76450838Y-78143669D01*
X76450839Y-78143669D01*
X76480417Y-78149553D01*
X76480422Y-78149553D01*
X76485180Y-78150500D01*
X79514820Y-78150500D01*
X79519578Y-78149553D01*
X79519583Y-78149553D01*
X79549161Y-78143669D01*
X79549162Y-78143669D01*
X79558722Y-78141767D01*
X79608504Y-78108504D01*
X79641767Y-78058722D01*
X79650500Y-78014820D01*
X79650500Y-74985180D01*
X79641767Y-74941278D01*
X79608504Y-74891496D01*
X79558722Y-74858233D01*
X79549162Y-74856331D01*
X79549161Y-74856331D01*
X79519583Y-74850447D01*
X79519578Y-74850447D01*
X79514820Y-74849500D01*
X76485180Y-74849500D01*
X76480422Y-74850447D01*
X76480417Y-74850447D01*
X76450839Y-74856331D01*
X76450838Y-74856331D01*
X76441278Y-74858233D01*
X76391496Y-74891496D01*
X76358233Y-74941278D01*
X76349500Y-74985180D01*
X76349500Y-78014820D01*
X74200500Y-78014820D01*
X74200500Y-69660000D01*
X76344396Y-69660000D01*
X76364779Y-69918994D01*
X76425427Y-70171610D01*
X76524846Y-70411628D01*
X76660588Y-70633140D01*
X76829311Y-70830689D01*
X77026860Y-70999412D01*
X77248372Y-71135154D01*
X77488390Y-71234573D01*
X77492164Y-71235479D01*
X77492167Y-71235480D01*
X77532579Y-71245182D01*
X77741006Y-71295221D01*
X77744871Y-71295525D01*
X77744876Y-71295526D01*
X77996125Y-71315299D01*
X78000000Y-71315604D01*
X78003875Y-71315299D01*
X78255124Y-71295526D01*
X78255129Y-71295525D01*
X78258994Y-71295221D01*
X78467421Y-71245182D01*
X78507833Y-71235480D01*
X78507836Y-71235479D01*
X78511610Y-71234573D01*
X78751628Y-71135154D01*
X78973140Y-70999412D01*
X79170689Y-70830689D01*
X79339412Y-70633140D01*
X79475154Y-70411628D01*
X79574573Y-70171610D01*
X79635221Y-69918994D01*
X79655604Y-69660000D01*
X79635221Y-69401006D01*
X79579974Y-69170885D01*
X79575480Y-69152167D01*
X79575479Y-69152164D01*
X79574573Y-69148390D01*
X79475154Y-68908372D01*
X79339412Y-68686860D01*
X79170689Y-68489311D01*
X78973140Y-68320588D01*
X78751628Y-68184846D01*
X78511610Y-68085427D01*
X78507836Y-68084521D01*
X78507833Y-68084520D01*
X78373067Y-68052166D01*
X78258994Y-68024779D01*
X78255129Y-68024475D01*
X78255124Y-68024474D01*
X78003875Y-68004701D01*
X78000000Y-68004396D01*
X77996125Y-68004701D01*
X77744876Y-68024474D01*
X77744871Y-68024475D01*
X77741006Y-68024779D01*
X77626933Y-68052166D01*
X77492167Y-68084520D01*
X77492164Y-68084521D01*
X77488390Y-68085427D01*
X77248372Y-68184846D01*
X77026860Y-68320588D01*
X76829311Y-68489311D01*
X76660588Y-68686860D01*
X76524846Y-68908372D01*
X76425427Y-69148390D01*
X76424521Y-69152164D01*
X76424520Y-69152167D01*
X76420026Y-69170885D01*
X76364779Y-69401006D01*
X76344396Y-69660000D01*
X74200500Y-69660000D01*
X74200500Y-66000000D01*
X85674882Y-66000000D01*
X85693242Y-66115918D01*
X85696777Y-66122856D01*
X85696778Y-66122859D01*
X85742987Y-66213550D01*
X85746523Y-66220489D01*
X85829511Y-66303477D01*
X85836448Y-66307012D01*
X85836450Y-66307013D01*
X85873205Y-66325740D01*
X85898264Y-66343946D01*
X88870504Y-69316186D01*
X88898281Y-69370703D01*
X88899500Y-69386190D01*
X88899500Y-77513810D01*
X88880593Y-77572001D01*
X88870504Y-77583814D01*
X87298264Y-79156054D01*
X87273205Y-79174260D01*
X87236450Y-79192987D01*
X87236448Y-79192988D01*
X87229511Y-79196523D01*
X87146523Y-79279511D01*
X87142988Y-79286448D01*
X87142987Y-79286450D01*
X87096778Y-79377141D01*
X87096777Y-79377144D01*
X87093242Y-79384082D01*
X87092023Y-79391776D01*
X87092023Y-79391777D01*
X87091195Y-79397005D01*
X87074882Y-79500000D01*
X87093242Y-79615918D01*
X87096777Y-79622856D01*
X87096778Y-79622859D01*
X87117141Y-79662823D01*
X87146523Y-79720489D01*
X87229511Y-79803477D01*
X87236448Y-79807012D01*
X87236450Y-79807013D01*
X87327141Y-79853222D01*
X87327144Y-79853223D01*
X87334082Y-79856758D01*
X87341776Y-79857977D01*
X87341777Y-79857977D01*
X87369628Y-79862388D01*
X87424145Y-79890166D01*
X87451922Y-79944682D01*
X87442351Y-80005114D01*
X87424145Y-80030173D01*
X87298264Y-80156054D01*
X87273205Y-80174260D01*
X87236450Y-80192987D01*
X87236448Y-80192988D01*
X87229511Y-80196523D01*
X87146523Y-80279511D01*
X87142988Y-80286448D01*
X87142987Y-80286450D01*
X87096778Y-80377141D01*
X87096777Y-80377144D01*
X87093242Y-80384082D01*
X87074882Y-80500000D01*
X87093242Y-80615918D01*
X87096777Y-80622856D01*
X87096778Y-80622859D01*
X87117141Y-80662823D01*
X87146523Y-80720489D01*
X87229511Y-80803477D01*
X87236448Y-80807012D01*
X87236450Y-80807013D01*
X87327141Y-80853222D01*
X87327144Y-80853223D01*
X87334082Y-80856758D01*
X87341776Y-80857977D01*
X87341777Y-80857977D01*
X87442304Y-80873899D01*
X87450000Y-80875118D01*
X87457696Y-80873899D01*
X87558223Y-80857977D01*
X87558224Y-80857977D01*
X87565918Y-80856758D01*
X87572856Y-80853223D01*
X87572859Y-80853222D01*
X87663550Y-80807013D01*
X87663552Y-80807012D01*
X87670489Y-80803477D01*
X87753477Y-80720489D01*
X87775740Y-80676795D01*
X87793946Y-80651736D01*
X89045681Y-79400000D01*
X96600000Y-79400000D01*
X107400000Y-79400000D01*
X107400000Y-68550000D01*
X96600000Y-68550000D01*
X96600000Y-79400000D01*
X89045681Y-79400000D01*
X90013934Y-78431747D01*
X90030236Y-78418582D01*
X90032276Y-78417265D01*
X90032277Y-78417264D01*
X90039152Y-78412825D01*
X90058981Y-78387672D01*
X90062898Y-78383263D01*
X90062897Y-78383262D01*
X90065548Y-78380133D01*
X90068428Y-78377253D01*
X90079032Y-78362415D01*
X90081831Y-78358687D01*
X90082820Y-78357432D01*
X90111392Y-78321189D01*
X90113957Y-78313884D01*
X90114607Y-78312634D01*
X90119111Y-78306331D01*
X90132792Y-78260585D01*
X90134233Y-78256149D01*
X90147993Y-78216967D01*
X90147994Y-78216964D01*
X90150055Y-78211094D01*
X90150500Y-78205956D01*
X90150500Y-78203818D01*
X90150574Y-78202099D01*
X90150689Y-78200738D01*
X90152544Y-78194536D01*
X90150576Y-78144446D01*
X90150500Y-78140559D01*
X90150500Y-73258373D01*
X90169407Y-73200182D01*
X90179496Y-73188369D01*
X92030496Y-71337369D01*
X92085013Y-71309592D01*
X92145445Y-71319163D01*
X92188710Y-71362428D01*
X92199500Y-71407373D01*
X92199500Y-77353086D01*
X92195199Y-77380240D01*
X92193242Y-77384082D01*
X92174882Y-77500000D01*
X92176101Y-77507696D01*
X92183565Y-77554818D01*
X92193242Y-77615918D01*
X92196777Y-77622856D01*
X92196778Y-77622859D01*
X92242987Y-77713550D01*
X92246523Y-77720489D01*
X92329511Y-77803477D01*
X92336448Y-77807012D01*
X92336450Y-77807013D01*
X92427141Y-77853222D01*
X92427144Y-77853223D01*
X92434082Y-77856758D01*
X92441776Y-77857977D01*
X92441777Y-77857977D01*
X92542304Y-77873899D01*
X92550000Y-77875118D01*
X92557696Y-77873899D01*
X92658223Y-77857977D01*
X92658224Y-77857977D01*
X92665918Y-77856758D01*
X92672856Y-77853223D01*
X92672859Y-77853222D01*
X92763550Y-77807013D01*
X92763552Y-77807012D01*
X92770489Y-77803477D01*
X92853477Y-77720489D01*
X92857013Y-77713550D01*
X92903222Y-77622859D01*
X92903223Y-77622856D01*
X92906758Y-77615918D01*
X92916436Y-77554818D01*
X92923899Y-77507696D01*
X92925118Y-77500000D01*
X92906758Y-77384082D01*
X92904801Y-77380240D01*
X92900500Y-77353086D01*
X92900500Y-71286190D01*
X92919407Y-71227999D01*
X92929496Y-71216186D01*
X96901734Y-67243947D01*
X96926793Y-67225741D01*
X96963550Y-67207013D01*
X96963552Y-67207012D01*
X96970489Y-67203477D01*
X97053477Y-67120489D01*
X97057013Y-67113550D01*
X97103222Y-67022859D01*
X97103223Y-67022856D01*
X97106758Y-67015918D01*
X97125118Y-66900000D01*
X97106758Y-66784082D01*
X97103223Y-66777144D01*
X97103222Y-66777141D01*
X97057013Y-66686450D01*
X97057012Y-66686448D01*
X97053477Y-66679511D01*
X96970489Y-66596523D01*
X96963552Y-66592988D01*
X96963550Y-66592987D01*
X96872859Y-66546778D01*
X96872856Y-66546777D01*
X96865918Y-66543242D01*
X96858224Y-66542023D01*
X96858223Y-66542023D01*
X96757696Y-66526101D01*
X96750000Y-66524882D01*
X96644987Y-66541515D01*
X96584555Y-66531944D01*
X96541291Y-66488680D01*
X96530500Y-66443734D01*
X96530500Y-64593690D01*
X96549407Y-64535499D01*
X96559496Y-64523686D01*
X101651736Y-59431446D01*
X101676795Y-59413240D01*
X101713550Y-59394513D01*
X101713552Y-59394512D01*
X101720489Y-59390977D01*
X101803477Y-59307989D01*
X101807013Y-59301050D01*
X101853222Y-59210359D01*
X101853223Y-59210356D01*
X101856758Y-59203418D01*
X101875118Y-59087500D01*
X101858912Y-58985180D01*
X101857977Y-58979277D01*
X101857977Y-58979276D01*
X101856758Y-58971582D01*
X101853223Y-58964644D01*
X101853222Y-58964641D01*
X101807013Y-58873950D01*
X101807012Y-58873948D01*
X101803477Y-58867011D01*
X101720489Y-58784023D01*
X101713552Y-58780488D01*
X101713550Y-58780487D01*
X101622859Y-58734278D01*
X101622856Y-58734277D01*
X101615918Y-58730742D01*
X101608224Y-58729523D01*
X101608223Y-58729523D01*
X101507696Y-58713601D01*
X101500000Y-58712382D01*
X101492304Y-58713601D01*
X101391777Y-58729523D01*
X101391776Y-58729523D01*
X101384082Y-58730742D01*
X101377144Y-58734277D01*
X101377141Y-58734278D01*
X101286450Y-58780487D01*
X101286448Y-58780488D01*
X101279511Y-58784023D01*
X101196523Y-58867011D01*
X101192988Y-58873948D01*
X101192987Y-58873950D01*
X101174260Y-58910705D01*
X101156054Y-58935764D01*
X95966063Y-64125755D01*
X95949760Y-64138920D01*
X95947726Y-64140233D01*
X95947722Y-64140236D01*
X95940848Y-64144675D01*
X95921015Y-64169832D01*
X95917101Y-64174237D01*
X95917102Y-64174238D01*
X95914449Y-64177369D01*
X95911572Y-64180246D01*
X95900956Y-64195101D01*
X95898170Y-64198812D01*
X95868608Y-64236311D01*
X95866042Y-64243618D01*
X95865395Y-64244863D01*
X95860889Y-64251169D01*
X95858545Y-64259008D01*
X95847208Y-64296915D01*
X95845767Y-64301351D01*
X95829945Y-64346406D01*
X95829500Y-64351544D01*
X95829500Y-64353682D01*
X95829426Y-64355401D01*
X95829311Y-64356762D01*
X95827456Y-64362964D01*
X95827777Y-64371135D01*
X95829424Y-64413054D01*
X95829500Y-64416941D01*
X95829500Y-66505993D01*
X95810593Y-66564184D01*
X95800504Y-66575997D01*
X89769504Y-72606997D01*
X89714987Y-72634774D01*
X89654555Y-72625203D01*
X89611290Y-72581938D01*
X89600500Y-72536993D01*
X89600500Y-69247948D01*
X89602718Y-69227112D01*
X89603228Y-69224741D01*
X89604951Y-69216739D01*
X89601186Y-69184929D01*
X89600839Y-69179037D01*
X89600836Y-69179037D01*
X89600500Y-69174970D01*
X89600500Y-69170885D01*
X89599830Y-69166859D01*
X89599829Y-69166848D01*
X89597504Y-69152881D01*
X89596846Y-69148262D01*
X89592197Y-69108984D01*
X89591236Y-69100861D01*
X89587885Y-69093881D01*
X89587460Y-69092540D01*
X89586188Y-69084897D01*
X89563500Y-69042850D01*
X89561395Y-69038717D01*
X89543425Y-69001293D01*
X89543424Y-69001291D01*
X89540726Y-68995673D01*
X89537408Y-68991726D01*
X89535902Y-68990220D01*
X89534720Y-68988931D01*
X89533851Y-68987902D01*
X89530778Y-68982206D01*
X89524773Y-68976655D01*
X89524769Y-68976650D01*
X89493982Y-68948191D01*
X89491179Y-68945497D01*
X86393946Y-65848264D01*
X86375740Y-65823205D01*
X86357013Y-65786450D01*
X86357012Y-65786448D01*
X86353477Y-65779511D01*
X86270489Y-65696523D01*
X86263552Y-65692988D01*
X86263550Y-65692987D01*
X86172859Y-65646778D01*
X86172856Y-65646777D01*
X86165918Y-65643242D01*
X86158224Y-65642023D01*
X86158223Y-65642023D01*
X86057696Y-65626101D01*
X86050000Y-65624882D01*
X86042304Y-65626101D01*
X85941777Y-65642023D01*
X85941776Y-65642023D01*
X85934082Y-65643242D01*
X85927144Y-65646777D01*
X85927141Y-65646778D01*
X85836450Y-65692987D01*
X85836448Y-65692988D01*
X85829511Y-65696523D01*
X85746523Y-65779511D01*
X85742988Y-65786448D01*
X85742987Y-65786450D01*
X85696778Y-65877141D01*
X85696777Y-65877144D01*
X85693242Y-65884082D01*
X85674882Y-66000000D01*
X74200500Y-66000000D01*
X74200500Y-62014820D01*
X85309500Y-62014820D01*
X85318233Y-62058722D01*
X85351496Y-62108504D01*
X85401278Y-62141767D01*
X85410838Y-62143669D01*
X85410839Y-62143669D01*
X85440417Y-62149553D01*
X85440422Y-62149553D01*
X85445180Y-62150500D01*
X88474820Y-62150500D01*
X88479578Y-62149553D01*
X88479583Y-62149553D01*
X88509161Y-62143669D01*
X88509162Y-62143669D01*
X88518722Y-62141767D01*
X88568504Y-62108504D01*
X88601767Y-62058722D01*
X88610500Y-62014820D01*
X88610500Y-58985180D01*
X88606415Y-58964641D01*
X88603669Y-58950839D01*
X88603669Y-58950838D01*
X88601767Y-58941278D01*
X88568504Y-58891496D01*
X88560394Y-58886077D01*
X88526828Y-58863649D01*
X88526827Y-58863649D01*
X88518722Y-58858233D01*
X88509162Y-58856331D01*
X88509161Y-58856331D01*
X88479583Y-58850447D01*
X88479578Y-58850447D01*
X88474820Y-58849500D01*
X85445180Y-58849500D01*
X85440422Y-58850447D01*
X85440417Y-58850447D01*
X85410839Y-58856331D01*
X85410838Y-58856331D01*
X85401278Y-58858233D01*
X85393173Y-58863649D01*
X85393172Y-58863649D01*
X85359606Y-58886077D01*
X85351496Y-58891496D01*
X85318233Y-58941278D01*
X85316331Y-58950838D01*
X85316331Y-58950839D01*
X85313586Y-58964641D01*
X85309500Y-58985180D01*
X85309500Y-62014820D01*
X74200500Y-62014820D01*
X74200500Y-61014820D01*
X76349500Y-61014820D01*
X76358233Y-61058722D01*
X76391496Y-61108504D01*
X76441278Y-61141767D01*
X76450838Y-61143669D01*
X76450839Y-61143669D01*
X76480417Y-61149553D01*
X76480422Y-61149553D01*
X76485180Y-61150500D01*
X79514820Y-61150500D01*
X79519578Y-61149553D01*
X79519583Y-61149553D01*
X79549161Y-61143669D01*
X79549162Y-61143669D01*
X79558722Y-61141767D01*
X79608504Y-61108504D01*
X79641767Y-61058722D01*
X79650500Y-61014820D01*
X79650500Y-57985180D01*
X79641767Y-57941278D01*
X79608504Y-57891496D01*
X79558722Y-57858233D01*
X79549162Y-57856331D01*
X79549161Y-57856331D01*
X79519583Y-57850447D01*
X79519578Y-57850447D01*
X79514820Y-57849500D01*
X76485180Y-57849500D01*
X76480422Y-57850447D01*
X76480417Y-57850447D01*
X76450839Y-57856331D01*
X76450838Y-57856331D01*
X76441278Y-57858233D01*
X76391496Y-57891496D01*
X76358233Y-57941278D01*
X76349500Y-57985180D01*
X76349500Y-61014820D01*
X74200500Y-61014820D01*
X74200500Y-56548844D01*
X74219407Y-56490653D01*
X74268907Y-56454689D01*
X74299456Y-56449844D01*
X107954675Y-56434840D01*
X108012874Y-56453721D01*
G37*
%TD.AperFunction*%
%TD*%
%TA.AperFunction,Conductor*%
%TO.N,/IP6510 USB/Power Input*%
G36*
X185859301Y-56518907D02*
G01*
X185895265Y-56568407D01*
X185900110Y-56598888D01*
X185949772Y-101344457D01*
X185949890Y-101450818D01*
X185931047Y-101509030D01*
X185881587Y-101545049D01*
X185850818Y-101549928D01*
X181239644Y-101546587D01*
X175540440Y-101542457D01*
X175482263Y-101523507D01*
X175446335Y-101473981D01*
X175446380Y-101412796D01*
X175482379Y-101363322D01*
X175540260Y-101344457D01*
X176749500Y-101341380D01*
X176749502Y-101341380D01*
X176751439Y-101341375D01*
X176775727Y-101339404D01*
X176777621Y-101339099D01*
X176777625Y-101339099D01*
X176786613Y-101337654D01*
X176806266Y-101334494D01*
X176873249Y-101306574D01*
X176922673Y-101270505D01*
X176935301Y-101260235D01*
X176950423Y-101236841D01*
X176975476Y-101198083D01*
X176975477Y-101198080D01*
X176978997Y-101192635D01*
X176997781Y-101134404D01*
X177005290Y-101086337D01*
X177004802Y-100855659D01*
X176963717Y-81463670D01*
X176955709Y-77684085D01*
X176953769Y-77659927D01*
X176948924Y-77629544D01*
X176946695Y-77624171D01*
X176946694Y-77624167D01*
X176923398Y-77568009D01*
X176923396Y-77568005D01*
X176921166Y-77562630D01*
X176888311Y-77517409D01*
X176885950Y-77514159D01*
X176885943Y-77514150D01*
X176885202Y-77513130D01*
X176874958Y-77500480D01*
X176807451Y-77456641D01*
X176749260Y-77437734D01*
X176745416Y-77437125D01*
X176745411Y-77437124D01*
X176705057Y-77430733D01*
X176705052Y-77430733D01*
X176701209Y-77430124D01*
X157299000Y-77430124D01*
X157283067Y-77431378D01*
X157276608Y-77431886D01*
X157276607Y-77431886D01*
X157274677Y-77432038D01*
X157244084Y-77436883D01*
X157177006Y-77464667D01*
X157172281Y-77468100D01*
X157128535Y-77499883D01*
X157128526Y-77499890D01*
X157127506Y-77500631D01*
X157114856Y-77510875D01*
X157110615Y-77517406D01*
X157110612Y-77517409D01*
X157084147Y-77558163D01*
X157036598Y-77596669D01*
X156975496Y-77599872D01*
X156921025Y-77562436D01*
X156885950Y-77514159D01*
X156885943Y-77514150D01*
X156885202Y-77513130D01*
X156874958Y-77500480D01*
X156807451Y-77456641D01*
X156749260Y-77437734D01*
X156745416Y-77437125D01*
X156745411Y-77437124D01*
X156705057Y-77430733D01*
X156705052Y-77430733D01*
X156701209Y-77430124D01*
X137299000Y-77430124D01*
X137283067Y-77431378D01*
X137276608Y-77431886D01*
X137276607Y-77431886D01*
X137274677Y-77432038D01*
X137244084Y-77436883D01*
X137177006Y-77464667D01*
X137172281Y-77468100D01*
X137128535Y-77499883D01*
X137128526Y-77499890D01*
X137127506Y-77500631D01*
X137114856Y-77510875D01*
X137110615Y-77517406D01*
X137110612Y-77517409D01*
X137084147Y-77558163D01*
X137036598Y-77596669D01*
X136975496Y-77599872D01*
X136921025Y-77562436D01*
X136885950Y-77514159D01*
X136885943Y-77514150D01*
X136885202Y-77513130D01*
X136874958Y-77500480D01*
X136807451Y-77456641D01*
X136749260Y-77437734D01*
X136745416Y-77437125D01*
X136745411Y-77437124D01*
X136705057Y-77430733D01*
X136705052Y-77430733D01*
X136701209Y-77430124D01*
X117299000Y-77430124D01*
X117283067Y-77431378D01*
X117276608Y-77431886D01*
X117276607Y-77431886D01*
X117274677Y-77432038D01*
X117244084Y-77436883D01*
X117177006Y-77464667D01*
X117172281Y-77468100D01*
X117128535Y-77499883D01*
X117128526Y-77499890D01*
X117127506Y-77500631D01*
X117114856Y-77510875D01*
X117071017Y-77578382D01*
X117052110Y-77636573D01*
X117051501Y-77640417D01*
X117051500Y-77640422D01*
X117048713Y-77658024D01*
X117044500Y-77684624D01*
X117044500Y-87701000D01*
X117025593Y-87759191D01*
X116976093Y-87795155D01*
X116945500Y-87800000D01*
X93899000Y-87800000D01*
X93840809Y-87781093D01*
X93804845Y-87731593D01*
X93800000Y-87701000D01*
X93800000Y-84449000D01*
X93818907Y-84390809D01*
X93868407Y-84354845D01*
X93899000Y-84350000D01*
X108200000Y-84350000D01*
X108200000Y-56599000D01*
X108218907Y-56540809D01*
X108268407Y-56504845D01*
X108299000Y-56500000D01*
X185801110Y-56500000D01*
X185859301Y-56518907D01*
G37*
%TD.AperFunction*%
%TD*%
%TA.AperFunction,Conductor*%
%TO.N,Net-(C10-Pad1)*%
G36*
X176759400Y-77604531D02*
G01*
X176795364Y-77654031D01*
X176800209Y-77684414D01*
X176849790Y-101086666D01*
X176831006Y-101144897D01*
X176781582Y-101180966D01*
X176751043Y-101185876D01*
X170801082Y-101201016D01*
X157299252Y-101235371D01*
X157241013Y-101216611D01*
X157204924Y-101167203D01*
X157200000Y-101136371D01*
X157200000Y-77684624D01*
X157218907Y-77626433D01*
X157268407Y-77590469D01*
X157299000Y-77585624D01*
X176701209Y-77585624D01*
X176759400Y-77604531D01*
G37*
%TD.AperFunction*%
%TD*%
%TA.AperFunction,Conductor*%
%TO.N,Net-(C10-Pad2)*%
G36*
X156759400Y-77604531D02*
G01*
X156795364Y-77654031D01*
X156800209Y-77684414D01*
X156849790Y-101086666D01*
X156831006Y-101144897D01*
X156781582Y-101180966D01*
X156751043Y-101185876D01*
X150801082Y-101201016D01*
X137299252Y-101235371D01*
X137241013Y-101216611D01*
X137204924Y-101167203D01*
X137200000Y-101136371D01*
X137200000Y-77684624D01*
X137218907Y-77626433D01*
X137268407Y-77590469D01*
X137299000Y-77585624D01*
X156701209Y-77585624D01*
X156759400Y-77604531D01*
G37*
%TD.AperFunction*%
%TD*%
%TA.AperFunction,Conductor*%
%TO.N,Net-(C11-Pad2)*%
G36*
X136759400Y-77604531D02*
G01*
X136795364Y-77654031D01*
X136800209Y-77684414D01*
X136849790Y-101086666D01*
X136831006Y-101144897D01*
X136781582Y-101180966D01*
X136751043Y-101185876D01*
X130801082Y-101201016D01*
X117299252Y-101235371D01*
X117241013Y-101216611D01*
X117204924Y-101167203D01*
X117200000Y-101136371D01*
X117200000Y-77684624D01*
X117218907Y-77626433D01*
X117268407Y-77590469D01*
X117299000Y-77585624D01*
X136701209Y-77585624D01*
X136759400Y-77604531D01*
G37*
%TD.AperFunction*%
%TD*%
M02*
