M48
; DRILL file {KiCad (6.0.7)} date Mon Aug  8 03:34:01 2022
; FORMAT={-:-/ absolute / inch / decimal}
; #@! TF.CreationDate,2022-08-08T03:34:01+08:00
; #@! TF.GenerationSoftware,Kicad,Pcbnew,(6.0.7)
; #@! TF.FileFunction,Plated,1,2,PTH
FMAT,2
INCH
; #@! TA.AperFunction,Plated,PTH,ViaDrill
T1C0.0079
; #@! TA.AperFunction,Plated,PTH,ComponentDrill
T2C0.0079
; #@! TA.AperFunction,Plated,PTH,ViaDrill
T3C0.0118
; #@! TA.AperFunction,Plated,PTH,ViaDrill
T4C0.0157
; #@! TA.AperFunction,Plated,PTH,ViaDrill
T5C0.0197
; #@! TA.AperFunction,Plated,PTH,ComponentDrill
T6C0.0236
; #@! TA.AperFunction,Plated,PTH,ViaDrill
T7C0.0315
; #@! TA.AperFunction,Plated,PTH,ComponentDrill
T8C0.0315
; #@! TA.AperFunction,Plated,PTH,ComponentDrill
T9C0.0472
; #@! TA.AperFunction,Plated,PTH,ComponentDrill
T10C0.0598
%
G90
G05
T1
X3.2362Y-4.0059
X3.2913Y-3.9685
X3.3878Y-2.5984
X3.4429Y-3.0906
X3.4429Y-3.1299
X3.4429Y-3.1693
X3.6437Y-3.0512
X3.6437Y-3.2087
X3.8091Y-2.6339
X3.9764Y-3.2677
X3.9961Y-2.3263
T2
X3.4203Y-3.9817
X3.4203Y-4.0211
X3.4203Y-4.0604
X3.4715Y-3.9817
X3.4715Y-4.0211
X3.4715Y-4.0604
T3
X3.2067Y-3.8583
X3.2067Y-4.1142
X3.3465Y-3.7008
X3.3465Y-3.9469
X3.3465Y-4.0965
X3.3543Y-3.8366
X3.5413Y-4.0965
X3.6437Y-4.1555
X3.7441Y-4.1575
X3.7815Y-3.937
X3.8543Y-4.002
T4
X3.3031Y-2.8543
X3.3031Y-3.0866
X3.3681Y-2.7165
X3.3799Y-3.1634
X3.7205Y-2.9941
X3.7972Y-2.2835
X3.8957Y-2.3248
X3.9764Y-3.1949
X4.0748Y-3.2283
X4.1535Y-2.3228
X4.1732Y-3.2283
T5
X3.5591Y-2.7953
X3.7224Y-3.3445
X3.7224Y-3.3898
X3.7224Y-3.435
X4.2953Y-3.3425
X4.2953Y-3.3878
X4.2953Y-3.4331
T7
X4.4094Y-2.3051
X5.1969Y-2.3051
X5.9843Y-2.3051
X6.7717Y-2.3051
T8
X3.5039Y-3.6811
X3.6024Y-3.6811
T9
X4.4587Y-3.9173
X4.7539Y-3.9173
X5.2461Y-3.9173
X5.5413Y-3.9173
X6.0335Y-3.9173
X6.3287Y-3.9173
X6.8209Y-3.9173
X7.1161Y-3.9173
T10
X3.0709Y-2.3425
X3.0709Y-2.5425
X3.0709Y-2.7425
X3.0709Y-3.0118
X3.0709Y-3.2118
X3.0709Y-3.4646
X3.0709Y-3.6646
X3.4236Y-2.3819
X3.6236Y-2.3819
T6
G00X3.002Y-3.8161
M15
G01X2.9783Y-3.8161
M16
G05
G00X3.002Y-4.1563
M15
G01X2.9783Y-4.1563
M16
G05
G00X3.1764Y-3.8161
M15
G01X3.1331Y-3.8161
M16
G05
G00X3.1764Y-4.1563
M15
G01X3.1331Y-4.1563
M16
G05
T0
M30
