%TF.GenerationSoftware,KiCad,Pcbnew,(6.0.7)*%
%TF.CreationDate,2022-08-08T03:52:41+08:00*%
%TF.ProjectId,Solar Charger,536f6c61-7220-4436-9861-726765722e6b,rev?*%
%TF.SameCoordinates,Original*%
%TF.FileFunction,Legend,Top*%
%TF.FilePolarity,Positive*%
%FSLAX46Y46*%
G04 Gerber Fmt 4.6, Leading zero omitted, Abs format (unit mm)*
G04 Created by KiCad (PCBNEW (6.0.7)) date 2022-08-08 03:52:41*
%MOMM*%
%LPD*%
G01*
G04 APERTURE LIST*
%ADD10C,0.150000*%
%ADD11C,0.120000*%
%ADD12C,0.200000*%
G04 APERTURE END LIST*
D10*
X84757142Y-86248285D02*
X84928571Y-86305428D01*
X84985714Y-86362571D01*
X85042857Y-86476857D01*
X85042857Y-86648285D01*
X84985714Y-86762571D01*
X84928571Y-86819714D01*
X84814285Y-86876857D01*
X84357142Y-86876857D01*
X84357142Y-85676857D01*
X84757142Y-85676857D01*
X84871428Y-85734000D01*
X84928571Y-85791142D01*
X84985714Y-85905428D01*
X84985714Y-86019714D01*
X84928571Y-86134000D01*
X84871428Y-86191142D01*
X84757142Y-86248285D01*
X84357142Y-86248285D01*
X85442857Y-86076857D02*
X85728571Y-86876857D01*
X86014285Y-86076857D02*
X85728571Y-86876857D01*
X85614285Y-87162571D01*
X85557142Y-87219714D01*
X85442857Y-87276857D01*
X87328571Y-86534000D02*
X87900000Y-86534000D01*
X87214285Y-86876857D02*
X87614285Y-85676857D01*
X88014285Y-86876857D01*
X88414285Y-86076857D02*
X88414285Y-86876857D01*
X88414285Y-86191142D02*
X88471428Y-86134000D01*
X88585714Y-86076857D01*
X88757142Y-86076857D01*
X88871428Y-86134000D01*
X88928571Y-86248285D01*
X88928571Y-86876857D01*
X90014285Y-86876857D02*
X90014285Y-85676857D01*
X90014285Y-86819714D02*
X89900000Y-86876857D01*
X89671428Y-86876857D01*
X89557142Y-86819714D01*
X89500000Y-86762571D01*
X89442857Y-86648285D01*
X89442857Y-86305428D01*
X89500000Y-86191142D01*
X89557142Y-86134000D01*
X89671428Y-86076857D01*
X89900000Y-86076857D01*
X90014285Y-86134000D01*
X90471428Y-86076857D02*
X90757142Y-86876857D01*
X91042857Y-86076857D02*
X90757142Y-86876857D01*
X90642857Y-87162571D01*
X90585714Y-87219714D01*
X90471428Y-87276857D01*
X82500000Y-87723142D02*
X82557142Y-87666000D01*
X82671428Y-87608857D01*
X82957142Y-87608857D01*
X83071428Y-87666000D01*
X83128571Y-87723142D01*
X83185714Y-87837428D01*
X83185714Y-87951714D01*
X83128571Y-88123142D01*
X82442857Y-88808857D01*
X83185714Y-88808857D01*
X83928571Y-87608857D02*
X84042857Y-87608857D01*
X84157142Y-87666000D01*
X84214285Y-87723142D01*
X84271428Y-87837428D01*
X84328571Y-88066000D01*
X84328571Y-88351714D01*
X84271428Y-88580285D01*
X84214285Y-88694571D01*
X84157142Y-88751714D01*
X84042857Y-88808857D01*
X83928571Y-88808857D01*
X83814285Y-88751714D01*
X83757142Y-88694571D01*
X83700000Y-88580285D01*
X83642857Y-88351714D01*
X83642857Y-88066000D01*
X83700000Y-87837428D01*
X83757142Y-87723142D01*
X83814285Y-87666000D01*
X83928571Y-87608857D01*
X84785714Y-87723142D02*
X84842857Y-87666000D01*
X84957142Y-87608857D01*
X85242857Y-87608857D01*
X85357142Y-87666000D01*
X85414285Y-87723142D01*
X85471428Y-87837428D01*
X85471428Y-87951714D01*
X85414285Y-88123142D01*
X84728571Y-88808857D01*
X85471428Y-88808857D01*
X85928571Y-87723142D02*
X85985714Y-87666000D01*
X86100000Y-87608857D01*
X86385714Y-87608857D01*
X86500000Y-87666000D01*
X86557142Y-87723142D01*
X86614285Y-87837428D01*
X86614285Y-87951714D01*
X86557142Y-88123142D01*
X85871428Y-88808857D01*
X86614285Y-88808857D01*
X87985714Y-87551714D02*
X86957142Y-89094571D01*
X88614285Y-87608857D02*
X88728571Y-87608857D01*
X88842857Y-87666000D01*
X88900000Y-87723142D01*
X88957142Y-87837428D01*
X89014285Y-88066000D01*
X89014285Y-88351714D01*
X88957142Y-88580285D01*
X88900000Y-88694571D01*
X88842857Y-88751714D01*
X88728571Y-88808857D01*
X88614285Y-88808857D01*
X88500000Y-88751714D01*
X88442857Y-88694571D01*
X88385714Y-88580285D01*
X88328571Y-88351714D01*
X88328571Y-88066000D01*
X88385714Y-87837428D01*
X88442857Y-87723142D01*
X88500000Y-87666000D01*
X88614285Y-87608857D01*
X89700000Y-88123142D02*
X89585714Y-88066000D01*
X89528571Y-88008857D01*
X89471428Y-87894571D01*
X89471428Y-87837428D01*
X89528571Y-87723142D01*
X89585714Y-87666000D01*
X89700000Y-87608857D01*
X89928571Y-87608857D01*
X90042857Y-87666000D01*
X90100000Y-87723142D01*
X90157142Y-87837428D01*
X90157142Y-87894571D01*
X90100000Y-88008857D01*
X90042857Y-88066000D01*
X89928571Y-88123142D01*
X89700000Y-88123142D01*
X89585714Y-88180285D01*
X89528571Y-88237428D01*
X89471428Y-88351714D01*
X89471428Y-88580285D01*
X89528571Y-88694571D01*
X89585714Y-88751714D01*
X89700000Y-88808857D01*
X89928571Y-88808857D01*
X90042857Y-88751714D01*
X90100000Y-88694571D01*
X90157142Y-88580285D01*
X90157142Y-88351714D01*
X90100000Y-88237428D01*
X90042857Y-88180285D01*
X89928571Y-88123142D01*
X91528571Y-87551714D02*
X90500000Y-89094571D01*
X92157142Y-87608857D02*
X92271428Y-87608857D01*
X92385714Y-87666000D01*
X92442857Y-87723142D01*
X92500000Y-87837428D01*
X92557142Y-88066000D01*
X92557142Y-88351714D01*
X92500000Y-88580285D01*
X92442857Y-88694571D01*
X92385714Y-88751714D01*
X92271428Y-88808857D01*
X92157142Y-88808857D01*
X92042857Y-88751714D01*
X91985714Y-88694571D01*
X91928571Y-88580285D01*
X91871428Y-88351714D01*
X91871428Y-88066000D01*
X91928571Y-87837428D01*
X91985714Y-87723142D01*
X92042857Y-87666000D01*
X92157142Y-87608857D01*
X93242857Y-88123142D02*
X93128571Y-88066000D01*
X93071428Y-88008857D01*
X93014285Y-87894571D01*
X93014285Y-87837428D01*
X93071428Y-87723142D01*
X93128571Y-87666000D01*
X93242857Y-87608857D01*
X93471428Y-87608857D01*
X93585714Y-87666000D01*
X93642857Y-87723142D01*
X93700000Y-87837428D01*
X93700000Y-87894571D01*
X93642857Y-88008857D01*
X93585714Y-88066000D01*
X93471428Y-88123142D01*
X93242857Y-88123142D01*
X93128571Y-88180285D01*
X93071428Y-88237428D01*
X93014285Y-88351714D01*
X93014285Y-88580285D01*
X93071428Y-88694571D01*
X93128571Y-88751714D01*
X93242857Y-88808857D01*
X93471428Y-88808857D01*
X93585714Y-88751714D01*
X93642857Y-88694571D01*
X93700000Y-88580285D01*
X93700000Y-88351714D01*
X93642857Y-88237428D01*
X93585714Y-88180285D01*
X93471428Y-88123142D01*
%TO.C,R13*%
X97007142Y-100302380D02*
X96673809Y-99826190D01*
X96435714Y-100302380D02*
X96435714Y-99302380D01*
X96816666Y-99302380D01*
X96911904Y-99350000D01*
X96959523Y-99397619D01*
X97007142Y-99492857D01*
X97007142Y-99635714D01*
X96959523Y-99730952D01*
X96911904Y-99778571D01*
X96816666Y-99826190D01*
X96435714Y-99826190D01*
X97959523Y-100302380D02*
X97388095Y-100302380D01*
X97673809Y-100302380D02*
X97673809Y-99302380D01*
X97578571Y-99445238D01*
X97483333Y-99540476D01*
X97388095Y-99588095D01*
X98292857Y-99302380D02*
X98911904Y-99302380D01*
X98578571Y-99683333D01*
X98721428Y-99683333D01*
X98816666Y-99730952D01*
X98864285Y-99778571D01*
X98911904Y-99873809D01*
X98911904Y-100111904D01*
X98864285Y-100207142D01*
X98816666Y-100254761D01*
X98721428Y-100302380D01*
X98435714Y-100302380D01*
X98340476Y-100254761D01*
X98292857Y-100207142D01*
%TO.C,C14*%
X162449642Y-104542857D02*
X162497261Y-104590476D01*
X162544880Y-104733333D01*
X162544880Y-104828571D01*
X162497261Y-104971428D01*
X162402023Y-105066666D01*
X162306785Y-105114285D01*
X162116309Y-105161904D01*
X161973452Y-105161904D01*
X161782976Y-105114285D01*
X161687738Y-105066666D01*
X161592500Y-104971428D01*
X161544880Y-104828571D01*
X161544880Y-104733333D01*
X161592500Y-104590476D01*
X161640119Y-104542857D01*
X162544880Y-103590476D02*
X162544880Y-104161904D01*
X162544880Y-103876190D02*
X161544880Y-103876190D01*
X161687738Y-103971428D01*
X161782976Y-104066666D01*
X161830595Y-104161904D01*
X161878214Y-102733333D02*
X162544880Y-102733333D01*
X161497261Y-102971428D02*
X162211547Y-103209523D01*
X162211547Y-102590476D01*
%TO.C,C15*%
X142449642Y-104542857D02*
X142497261Y-104590476D01*
X142544880Y-104733333D01*
X142544880Y-104828571D01*
X142497261Y-104971428D01*
X142402023Y-105066666D01*
X142306785Y-105114285D01*
X142116309Y-105161904D01*
X141973452Y-105161904D01*
X141782976Y-105114285D01*
X141687738Y-105066666D01*
X141592500Y-104971428D01*
X141544880Y-104828571D01*
X141544880Y-104733333D01*
X141592500Y-104590476D01*
X141640119Y-104542857D01*
X142544880Y-103590476D02*
X142544880Y-104161904D01*
X142544880Y-103876190D02*
X141544880Y-103876190D01*
X141687738Y-103971428D01*
X141782976Y-104066666D01*
X141830595Y-104161904D01*
X141544880Y-102685714D02*
X141544880Y-103161904D01*
X142021071Y-103209523D01*
X141973452Y-103161904D01*
X141925833Y-103066666D01*
X141925833Y-102828571D01*
X141973452Y-102733333D01*
X142021071Y-102685714D01*
X142116309Y-102638095D01*
X142354404Y-102638095D01*
X142449642Y-102685714D01*
X142497261Y-102733333D01*
X142544880Y-102828571D01*
X142544880Y-103066666D01*
X142497261Y-103161904D01*
X142449642Y-103209523D01*
%TO.C,U6*%
X86238095Y-105152380D02*
X86238095Y-105961904D01*
X86285714Y-106057142D01*
X86333333Y-106104761D01*
X86428571Y-106152380D01*
X86619047Y-106152380D01*
X86714285Y-106104761D01*
X86761904Y-106057142D01*
X86809523Y-105961904D01*
X86809523Y-105152380D01*
X87714285Y-105152380D02*
X87523809Y-105152380D01*
X87428571Y-105200000D01*
X87380952Y-105247619D01*
X87285714Y-105390476D01*
X87238095Y-105580952D01*
X87238095Y-105961904D01*
X87285714Y-106057142D01*
X87333333Y-106104761D01*
X87428571Y-106152380D01*
X87619047Y-106152380D01*
X87714285Y-106104761D01*
X87761904Y-106057142D01*
X87809523Y-105961904D01*
X87809523Y-105723809D01*
X87761904Y-105628571D01*
X87714285Y-105580952D01*
X87619047Y-105533333D01*
X87428571Y-105533333D01*
X87333333Y-105580952D01*
X87285714Y-105628571D01*
X87238095Y-105723809D01*
%TO.C,R2*%
X103152380Y-80566666D02*
X102676190Y-80900000D01*
X103152380Y-81138095D02*
X102152380Y-81138095D01*
X102152380Y-80757142D01*
X102200000Y-80661904D01*
X102247619Y-80614285D01*
X102342857Y-80566666D01*
X102485714Y-80566666D01*
X102580952Y-80614285D01*
X102628571Y-80661904D01*
X102676190Y-80757142D01*
X102676190Y-81138095D01*
X102247619Y-80185714D02*
X102200000Y-80138095D01*
X102152380Y-80042857D01*
X102152380Y-79804761D01*
X102200000Y-79709523D01*
X102247619Y-79661904D01*
X102342857Y-79614285D01*
X102438095Y-79614285D01*
X102580952Y-79661904D01*
X103152380Y-80233333D01*
X103152380Y-79614285D01*
%TO.C,C10*%
X161392857Y-85642857D02*
X161440476Y-85595238D01*
X161583333Y-85547619D01*
X161678571Y-85547619D01*
X161821428Y-85595238D01*
X161916666Y-85690476D01*
X161964285Y-85785714D01*
X162011904Y-85976190D01*
X162011904Y-86119047D01*
X161964285Y-86309523D01*
X161916666Y-86404761D01*
X161821428Y-86500000D01*
X161678571Y-86547619D01*
X161583333Y-86547619D01*
X161440476Y-86500000D01*
X161392857Y-86452380D01*
X160440476Y-85547619D02*
X161011904Y-85547619D01*
X160726190Y-85547619D02*
X160726190Y-86547619D01*
X160821428Y-86404761D01*
X160916666Y-86309523D01*
X161011904Y-86261904D01*
X159821428Y-86547619D02*
X159726190Y-86547619D01*
X159630952Y-86500000D01*
X159583333Y-86452380D01*
X159535714Y-86357142D01*
X159488095Y-86166666D01*
X159488095Y-85928571D01*
X159535714Y-85738095D01*
X159583333Y-85642857D01*
X159630952Y-85595238D01*
X159726190Y-85547619D01*
X159821428Y-85547619D01*
X159916666Y-85595238D01*
X159964285Y-85642857D01*
X160011904Y-85738095D01*
X160059523Y-85928571D01*
X160059523Y-86166666D01*
X160011904Y-86357142D01*
X159964285Y-86452380D01*
X159916666Y-86500000D01*
X159821428Y-86547619D01*
%TO.C,J2*%
X80152380Y-79533333D02*
X80866666Y-79533333D01*
X81009523Y-79580952D01*
X81104761Y-79676190D01*
X81152380Y-79819047D01*
X81152380Y-79914285D01*
X80247619Y-79104761D02*
X80200000Y-79057142D01*
X80152380Y-78961904D01*
X80152380Y-78723809D01*
X80200000Y-78628571D01*
X80247619Y-78580952D01*
X80342857Y-78533333D01*
X80438095Y-78533333D01*
X80580952Y-78580952D01*
X81152380Y-79152380D01*
X81152380Y-78533333D01*
%TO.C,C11*%
X141392857Y-85642857D02*
X141440476Y-85595238D01*
X141583333Y-85547619D01*
X141678571Y-85547619D01*
X141821428Y-85595238D01*
X141916666Y-85690476D01*
X141964285Y-85785714D01*
X142011904Y-85976190D01*
X142011904Y-86119047D01*
X141964285Y-86309523D01*
X141916666Y-86404761D01*
X141821428Y-86500000D01*
X141678571Y-86547619D01*
X141583333Y-86547619D01*
X141440476Y-86500000D01*
X141392857Y-86452380D01*
X140440476Y-85547619D02*
X141011904Y-85547619D01*
X140726190Y-85547619D02*
X140726190Y-86547619D01*
X140821428Y-86404761D01*
X140916666Y-86309523D01*
X141011904Y-86261904D01*
X139488095Y-85547619D02*
X140059523Y-85547619D01*
X139773809Y-85547619D02*
X139773809Y-86547619D01*
X139869047Y-86404761D01*
X139964285Y-86309523D01*
X140059523Y-86261904D01*
%TO.C,R3*%
X98002380Y-83816666D02*
X97526190Y-84150000D01*
X98002380Y-84388095D02*
X97002380Y-84388095D01*
X97002380Y-84007142D01*
X97050000Y-83911904D01*
X97097619Y-83864285D01*
X97192857Y-83816666D01*
X97335714Y-83816666D01*
X97430952Y-83864285D01*
X97478571Y-83911904D01*
X97526190Y-84007142D01*
X97526190Y-84388095D01*
X97002380Y-83483333D02*
X97002380Y-82864285D01*
X97383333Y-83197619D01*
X97383333Y-83054761D01*
X97430952Y-82959523D01*
X97478571Y-82911904D01*
X97573809Y-82864285D01*
X97811904Y-82864285D01*
X97907142Y-82911904D01*
X97954761Y-82959523D01*
X98002380Y-83054761D01*
X98002380Y-83340476D01*
X97954761Y-83435714D01*
X97907142Y-83483333D01*
%TO.C,U2*%
X175388095Y-103452380D02*
X175388095Y-104261904D01*
X175435714Y-104357142D01*
X175483333Y-104404761D01*
X175578571Y-104452380D01*
X175769047Y-104452380D01*
X175864285Y-104404761D01*
X175911904Y-104357142D01*
X175959523Y-104261904D01*
X175959523Y-103452380D01*
X176388095Y-103547619D02*
X176435714Y-103500000D01*
X176530952Y-103452380D01*
X176769047Y-103452380D01*
X176864285Y-103500000D01*
X176911904Y-103547619D01*
X176959523Y-103642857D01*
X176959523Y-103738095D01*
X176911904Y-103880952D01*
X176340476Y-104452380D01*
X176959523Y-104452380D01*
%TO.C,U3*%
X155488095Y-103452380D02*
X155488095Y-104261904D01*
X155535714Y-104357142D01*
X155583333Y-104404761D01*
X155678571Y-104452380D01*
X155869047Y-104452380D01*
X155964285Y-104404761D01*
X156011904Y-104357142D01*
X156059523Y-104261904D01*
X156059523Y-103452380D01*
X156440476Y-103452380D02*
X157059523Y-103452380D01*
X156726190Y-103833333D01*
X156869047Y-103833333D01*
X156964285Y-103880952D01*
X157011904Y-103928571D01*
X157059523Y-104023809D01*
X157059523Y-104261904D01*
X157011904Y-104357142D01*
X156964285Y-104404761D01*
X156869047Y-104452380D01*
X156583333Y-104452380D01*
X156488095Y-104404761D01*
X156440476Y-104357142D01*
%TO.C,C19*%
X99607142Y-101807142D02*
X99559523Y-101854761D01*
X99416666Y-101902380D01*
X99321428Y-101902380D01*
X99178571Y-101854761D01*
X99083333Y-101759523D01*
X99035714Y-101664285D01*
X98988095Y-101473809D01*
X98988095Y-101330952D01*
X99035714Y-101140476D01*
X99083333Y-101045238D01*
X99178571Y-100950000D01*
X99321428Y-100902380D01*
X99416666Y-100902380D01*
X99559523Y-100950000D01*
X99607142Y-100997619D01*
X100559523Y-101902380D02*
X99988095Y-101902380D01*
X100273809Y-101902380D02*
X100273809Y-100902380D01*
X100178571Y-101045238D01*
X100083333Y-101140476D01*
X99988095Y-101188095D01*
X101035714Y-101902380D02*
X101226190Y-101902380D01*
X101321428Y-101854761D01*
X101369047Y-101807142D01*
X101464285Y-101664285D01*
X101511904Y-101473809D01*
X101511904Y-101092857D01*
X101464285Y-100997619D01*
X101416666Y-100950000D01*
X101321428Y-100902380D01*
X101130952Y-100902380D01*
X101035714Y-100950000D01*
X100988095Y-100997619D01*
X100940476Y-101092857D01*
X100940476Y-101330952D01*
X100988095Y-101426190D01*
X101035714Y-101473809D01*
X101130952Y-101521428D01*
X101321428Y-101521428D01*
X101416666Y-101473809D01*
X101464285Y-101426190D01*
X101511904Y-101330952D01*
%TO.C,R6*%
X83152380Y-80616666D02*
X82676190Y-80950000D01*
X83152380Y-81188095D02*
X82152380Y-81188095D01*
X82152380Y-80807142D01*
X82200000Y-80711904D01*
X82247619Y-80664285D01*
X82342857Y-80616666D01*
X82485714Y-80616666D01*
X82580952Y-80664285D01*
X82628571Y-80711904D01*
X82676190Y-80807142D01*
X82676190Y-81188095D01*
X82152380Y-79759523D02*
X82152380Y-79950000D01*
X82200000Y-80045238D01*
X82247619Y-80092857D01*
X82390476Y-80188095D01*
X82580952Y-80235714D01*
X82961904Y-80235714D01*
X83057142Y-80188095D01*
X83104761Y-80140476D01*
X83152380Y-80045238D01*
X83152380Y-79854761D01*
X83104761Y-79759523D01*
X83057142Y-79711904D01*
X82961904Y-79664285D01*
X82723809Y-79664285D01*
X82628571Y-79711904D01*
X82580952Y-79759523D01*
X82533333Y-79854761D01*
X82533333Y-80045238D01*
X82580952Y-80140476D01*
X82628571Y-80188095D01*
X82723809Y-80235714D01*
%TO.C,R10*%
X152914880Y-104492857D02*
X152438690Y-104826190D01*
X152914880Y-105064285D02*
X151914880Y-105064285D01*
X151914880Y-104683333D01*
X151962500Y-104588095D01*
X152010119Y-104540476D01*
X152105357Y-104492857D01*
X152248214Y-104492857D01*
X152343452Y-104540476D01*
X152391071Y-104588095D01*
X152438690Y-104683333D01*
X152438690Y-105064285D01*
X152914880Y-103540476D02*
X152914880Y-104111904D01*
X152914880Y-103826190D02*
X151914880Y-103826190D01*
X152057738Y-103921428D01*
X152152976Y-104016666D01*
X152200595Y-104111904D01*
X151914880Y-102921428D02*
X151914880Y-102826190D01*
X151962500Y-102730952D01*
X152010119Y-102683333D01*
X152105357Y-102635714D01*
X152295833Y-102588095D01*
X152533928Y-102588095D01*
X152724404Y-102635714D01*
X152819642Y-102683333D01*
X152867261Y-102730952D01*
X152914880Y-102826190D01*
X152914880Y-102921428D01*
X152867261Y-103016666D01*
X152819642Y-103064285D01*
X152724404Y-103111904D01*
X152533928Y-103159523D01*
X152295833Y-103159523D01*
X152105357Y-103111904D01*
X152010119Y-103064285D01*
X151962500Y-103016666D01*
X151914880Y-102921428D01*
%TO.C,D2*%
X91761904Y-73952380D02*
X91761904Y-72952380D01*
X92000000Y-72952380D01*
X92142857Y-73000000D01*
X92238095Y-73095238D01*
X92285714Y-73190476D01*
X92333333Y-73380952D01*
X92333333Y-73523809D01*
X92285714Y-73714285D01*
X92238095Y-73809523D01*
X92142857Y-73904761D01*
X92000000Y-73952380D01*
X91761904Y-73952380D01*
X92714285Y-73047619D02*
X92761904Y-73000000D01*
X92857142Y-72952380D01*
X93095238Y-72952380D01*
X93190476Y-73000000D01*
X93238095Y-73047619D01*
X93285714Y-73142857D01*
X93285714Y-73238095D01*
X93238095Y-73380952D01*
X92666666Y-73952380D01*
X93285714Y-73952380D01*
%TO.C,L1*%
X96102380Y-74166666D02*
X96102380Y-74642857D01*
X95102380Y-74642857D01*
X96102380Y-73309523D02*
X96102380Y-73880952D01*
X96102380Y-73595238D02*
X95102380Y-73595238D01*
X95245238Y-73690476D01*
X95340476Y-73785714D01*
X95388095Y-73880952D01*
%TO.C,R12*%
X112914880Y-104492857D02*
X112438690Y-104826190D01*
X112914880Y-105064285D02*
X111914880Y-105064285D01*
X111914880Y-104683333D01*
X111962500Y-104588095D01*
X112010119Y-104540476D01*
X112105357Y-104492857D01*
X112248214Y-104492857D01*
X112343452Y-104540476D01*
X112391071Y-104588095D01*
X112438690Y-104683333D01*
X112438690Y-105064285D01*
X112914880Y-103540476D02*
X112914880Y-104111904D01*
X112914880Y-103826190D02*
X111914880Y-103826190D01*
X112057738Y-103921428D01*
X112152976Y-104016666D01*
X112200595Y-104111904D01*
X112010119Y-103159523D02*
X111962500Y-103111904D01*
X111914880Y-103016666D01*
X111914880Y-102778571D01*
X111962500Y-102683333D01*
X112010119Y-102635714D01*
X112105357Y-102588095D01*
X112200595Y-102588095D01*
X112343452Y-102635714D01*
X112914880Y-103207142D01*
X112914880Y-102588095D01*
%TO.C,C8*%
X98807142Y-57666666D02*
X98854761Y-57714285D01*
X98902380Y-57857142D01*
X98902380Y-57952380D01*
X98854761Y-58095238D01*
X98759523Y-58190476D01*
X98664285Y-58238095D01*
X98473809Y-58285714D01*
X98330952Y-58285714D01*
X98140476Y-58238095D01*
X98045238Y-58190476D01*
X97950000Y-58095238D01*
X97902380Y-57952380D01*
X97902380Y-57857142D01*
X97950000Y-57714285D01*
X97997619Y-57666666D01*
X98330952Y-57095238D02*
X98283333Y-57190476D01*
X98235714Y-57238095D01*
X98140476Y-57285714D01*
X98092857Y-57285714D01*
X97997619Y-57238095D01*
X97950000Y-57190476D01*
X97902380Y-57095238D01*
X97902380Y-56904761D01*
X97950000Y-56809523D01*
X97997619Y-56761904D01*
X98092857Y-56714285D01*
X98140476Y-56714285D01*
X98235714Y-56761904D01*
X98283333Y-56809523D01*
X98330952Y-56904761D01*
X98330952Y-57095238D01*
X98378571Y-57190476D01*
X98426190Y-57238095D01*
X98521428Y-57285714D01*
X98711904Y-57285714D01*
X98807142Y-57238095D01*
X98854761Y-57190476D01*
X98902380Y-57095238D01*
X98902380Y-56904761D01*
X98854761Y-56809523D01*
X98807142Y-56761904D01*
X98711904Y-56714285D01*
X98521428Y-56714285D01*
X98426190Y-56761904D01*
X98378571Y-56809523D01*
X98330952Y-56904761D01*
%TO.C,S1*%
X88938095Y-58404761D02*
X89080952Y-58452380D01*
X89319047Y-58452380D01*
X89414285Y-58404761D01*
X89461904Y-58357142D01*
X89509523Y-58261904D01*
X89509523Y-58166666D01*
X89461904Y-58071428D01*
X89414285Y-58023809D01*
X89319047Y-57976190D01*
X89128571Y-57928571D01*
X89033333Y-57880952D01*
X88985714Y-57833333D01*
X88938095Y-57738095D01*
X88938095Y-57642857D01*
X88985714Y-57547619D01*
X89033333Y-57500000D01*
X89128571Y-57452380D01*
X89366666Y-57452380D01*
X89509523Y-57500000D01*
X90461904Y-58452380D02*
X89890476Y-58452380D01*
X90176190Y-58452380D02*
X90176190Y-57452380D01*
X90080952Y-57595238D01*
X89985714Y-57690476D01*
X89890476Y-57738095D01*
%TO.C,C9*%
X180916666Y-85642857D02*
X180964285Y-85595238D01*
X181107142Y-85547619D01*
X181202380Y-85547619D01*
X181345238Y-85595238D01*
X181440476Y-85690476D01*
X181488095Y-85785714D01*
X181535714Y-85976190D01*
X181535714Y-86119047D01*
X181488095Y-86309523D01*
X181440476Y-86404761D01*
X181345238Y-86500000D01*
X181202380Y-86547619D01*
X181107142Y-86547619D01*
X180964285Y-86500000D01*
X180916666Y-86452380D01*
X180440476Y-85547619D02*
X180250000Y-85547619D01*
X180154761Y-85595238D01*
X180107142Y-85642857D01*
X180011904Y-85785714D01*
X179964285Y-85976190D01*
X179964285Y-86357142D01*
X180011904Y-86452380D01*
X180059523Y-86500000D01*
X180154761Y-86547619D01*
X180345238Y-86547619D01*
X180440476Y-86500000D01*
X180488095Y-86452380D01*
X180535714Y-86357142D01*
X180535714Y-86119047D01*
X180488095Y-86023809D01*
X180440476Y-85976190D01*
X180345238Y-85928571D01*
X180154761Y-85928571D01*
X180059523Y-85976190D01*
X180011904Y-86023809D01*
X179964285Y-86119047D01*
%TO.C,C5*%
X84633333Y-84457142D02*
X84585714Y-84504761D01*
X84442857Y-84552380D01*
X84347619Y-84552380D01*
X84204761Y-84504761D01*
X84109523Y-84409523D01*
X84061904Y-84314285D01*
X84014285Y-84123809D01*
X84014285Y-83980952D01*
X84061904Y-83790476D01*
X84109523Y-83695238D01*
X84204761Y-83600000D01*
X84347619Y-83552380D01*
X84442857Y-83552380D01*
X84585714Y-83600000D01*
X84633333Y-83647619D01*
X85538095Y-83552380D02*
X85061904Y-83552380D01*
X85014285Y-84028571D01*
X85061904Y-83980952D01*
X85157142Y-83933333D01*
X85395238Y-83933333D01*
X85490476Y-83980952D01*
X85538095Y-84028571D01*
X85585714Y-84123809D01*
X85585714Y-84361904D01*
X85538095Y-84457142D01*
X85490476Y-84504761D01*
X85395238Y-84552380D01*
X85157142Y-84552380D01*
X85061904Y-84504761D01*
X85014285Y-84457142D01*
%TO.C,C7*%
X100257142Y-57716666D02*
X100304761Y-57764285D01*
X100352380Y-57907142D01*
X100352380Y-58002380D01*
X100304761Y-58145238D01*
X100209523Y-58240476D01*
X100114285Y-58288095D01*
X99923809Y-58335714D01*
X99780952Y-58335714D01*
X99590476Y-58288095D01*
X99495238Y-58240476D01*
X99400000Y-58145238D01*
X99352380Y-58002380D01*
X99352380Y-57907142D01*
X99400000Y-57764285D01*
X99447619Y-57716666D01*
X99352380Y-57383333D02*
X99352380Y-56716666D01*
X100352380Y-57145238D01*
%TO.C,L2*%
X95102380Y-93666666D02*
X95102380Y-94142857D01*
X94102380Y-94142857D01*
X94197619Y-93380952D02*
X94150000Y-93333333D01*
X94102380Y-93238095D01*
X94102380Y-93000000D01*
X94150000Y-92904761D01*
X94197619Y-92857142D01*
X94292857Y-92809523D01*
X94388095Y-92809523D01*
X94530952Y-92857142D01*
X95102380Y-93428571D01*
X95102380Y-92809523D01*
%TO.C,C18*%
X89457142Y-106057142D02*
X89409523Y-106104761D01*
X89266666Y-106152380D01*
X89171428Y-106152380D01*
X89028571Y-106104761D01*
X88933333Y-106009523D01*
X88885714Y-105914285D01*
X88838095Y-105723809D01*
X88838095Y-105580952D01*
X88885714Y-105390476D01*
X88933333Y-105295238D01*
X89028571Y-105200000D01*
X89171428Y-105152380D01*
X89266666Y-105152380D01*
X89409523Y-105200000D01*
X89457142Y-105247619D01*
X90409523Y-106152380D02*
X89838095Y-106152380D01*
X90123809Y-106152380D02*
X90123809Y-105152380D01*
X90028571Y-105295238D01*
X89933333Y-105390476D01*
X89838095Y-105438095D01*
X90980952Y-105580952D02*
X90885714Y-105533333D01*
X90838095Y-105485714D01*
X90790476Y-105390476D01*
X90790476Y-105342857D01*
X90838095Y-105247619D01*
X90885714Y-105200000D01*
X90980952Y-105152380D01*
X91171428Y-105152380D01*
X91266666Y-105200000D01*
X91314285Y-105247619D01*
X91361904Y-105342857D01*
X91361904Y-105390476D01*
X91314285Y-105485714D01*
X91266666Y-105533333D01*
X91171428Y-105580952D01*
X90980952Y-105580952D01*
X90885714Y-105628571D01*
X90838095Y-105676190D01*
X90790476Y-105771428D01*
X90790476Y-105961904D01*
X90838095Y-106057142D01*
X90885714Y-106104761D01*
X90980952Y-106152380D01*
X91171428Y-106152380D01*
X91266666Y-106104761D01*
X91314285Y-106057142D01*
X91361904Y-105961904D01*
X91361904Y-105771428D01*
X91314285Y-105676190D01*
X91266666Y-105628571D01*
X91171428Y-105580952D01*
%TO.C,C1*%
X104657142Y-86916666D02*
X104704761Y-86964285D01*
X104752380Y-87107142D01*
X104752380Y-87202380D01*
X104704761Y-87345238D01*
X104609523Y-87440476D01*
X104514285Y-87488095D01*
X104323809Y-87535714D01*
X104180952Y-87535714D01*
X103990476Y-87488095D01*
X103895238Y-87440476D01*
X103800000Y-87345238D01*
X103752380Y-87202380D01*
X103752380Y-87107142D01*
X103800000Y-86964285D01*
X103847619Y-86916666D01*
X104752380Y-85964285D02*
X104752380Y-86535714D01*
X104752380Y-86250000D02*
X103752380Y-86250000D01*
X103895238Y-86345238D01*
X103990476Y-86440476D01*
X104038095Y-86535714D01*
%TO.C,U4*%
X135438095Y-103402380D02*
X135438095Y-104211904D01*
X135485714Y-104307142D01*
X135533333Y-104354761D01*
X135628571Y-104402380D01*
X135819047Y-104402380D01*
X135914285Y-104354761D01*
X135961904Y-104307142D01*
X136009523Y-104211904D01*
X136009523Y-103402380D01*
X136914285Y-103735714D02*
X136914285Y-104402380D01*
X136676190Y-103354761D02*
X136438095Y-104069047D01*
X137057142Y-104069047D01*
%TO.C,AP1*%
X98285714Y-64016666D02*
X98761904Y-64016666D01*
X98190476Y-64302380D02*
X98523809Y-63302380D01*
X98857142Y-64302380D01*
X99190476Y-64302380D02*
X99190476Y-63302380D01*
X99571428Y-63302380D01*
X99666666Y-63350000D01*
X99714285Y-63397619D01*
X99761904Y-63492857D01*
X99761904Y-63635714D01*
X99714285Y-63730952D01*
X99666666Y-63778571D01*
X99571428Y-63826190D01*
X99190476Y-63826190D01*
X100714285Y-64302380D02*
X100142857Y-64302380D01*
X100428571Y-64302380D02*
X100428571Y-63302380D01*
X100333333Y-63445238D01*
X100238095Y-63540476D01*
X100142857Y-63588095D01*
%TO.C,C21*%
X93257142Y-90607142D02*
X93209523Y-90654761D01*
X93066666Y-90702380D01*
X92971428Y-90702380D01*
X92828571Y-90654761D01*
X92733333Y-90559523D01*
X92685714Y-90464285D01*
X92638095Y-90273809D01*
X92638095Y-90130952D01*
X92685714Y-89940476D01*
X92733333Y-89845238D01*
X92828571Y-89750000D01*
X92971428Y-89702380D01*
X93066666Y-89702380D01*
X93209523Y-89750000D01*
X93257142Y-89797619D01*
X93638095Y-89797619D02*
X93685714Y-89750000D01*
X93780952Y-89702380D01*
X94019047Y-89702380D01*
X94114285Y-89750000D01*
X94161904Y-89797619D01*
X94209523Y-89892857D01*
X94209523Y-89988095D01*
X94161904Y-90130952D01*
X93590476Y-90702380D01*
X94209523Y-90702380D01*
X95161904Y-90702380D02*
X94590476Y-90702380D01*
X94876190Y-90702380D02*
X94876190Y-89702380D01*
X94780952Y-89845238D01*
X94685714Y-89940476D01*
X94590476Y-89988095D01*
%TO.C,C20*%
X94807142Y-97642857D02*
X94854761Y-97690476D01*
X94902380Y-97833333D01*
X94902380Y-97928571D01*
X94854761Y-98071428D01*
X94759523Y-98166666D01*
X94664285Y-98214285D01*
X94473809Y-98261904D01*
X94330952Y-98261904D01*
X94140476Y-98214285D01*
X94045238Y-98166666D01*
X93950000Y-98071428D01*
X93902380Y-97928571D01*
X93902380Y-97833333D01*
X93950000Y-97690476D01*
X93997619Y-97642857D01*
X93997619Y-97261904D02*
X93950000Y-97214285D01*
X93902380Y-97119047D01*
X93902380Y-96880952D01*
X93950000Y-96785714D01*
X93997619Y-96738095D01*
X94092857Y-96690476D01*
X94188095Y-96690476D01*
X94330952Y-96738095D01*
X94902380Y-97309523D01*
X94902380Y-96690476D01*
X93902380Y-96071428D02*
X93902380Y-95976190D01*
X93950000Y-95880952D01*
X93997619Y-95833333D01*
X94092857Y-95785714D01*
X94283333Y-95738095D01*
X94521428Y-95738095D01*
X94711904Y-95785714D01*
X94807142Y-95833333D01*
X94854761Y-95880952D01*
X94902380Y-95976190D01*
X94902380Y-96071428D01*
X94854761Y-96166666D01*
X94807142Y-96214285D01*
X94711904Y-96261904D01*
X94521428Y-96309523D01*
X94283333Y-96309523D01*
X94092857Y-96261904D01*
X93997619Y-96214285D01*
X93950000Y-96166666D01*
X93902380Y-96071428D01*
%TO.C,C16*%
X122449642Y-104542857D02*
X122497261Y-104590476D01*
X122544880Y-104733333D01*
X122544880Y-104828571D01*
X122497261Y-104971428D01*
X122402023Y-105066666D01*
X122306785Y-105114285D01*
X122116309Y-105161904D01*
X121973452Y-105161904D01*
X121782976Y-105114285D01*
X121687738Y-105066666D01*
X121592500Y-104971428D01*
X121544880Y-104828571D01*
X121544880Y-104733333D01*
X121592500Y-104590476D01*
X121640119Y-104542857D01*
X122544880Y-103590476D02*
X122544880Y-104161904D01*
X122544880Y-103876190D02*
X121544880Y-103876190D01*
X121687738Y-103971428D01*
X121782976Y-104066666D01*
X121830595Y-104161904D01*
X121544880Y-102733333D02*
X121544880Y-102923809D01*
X121592500Y-103019047D01*
X121640119Y-103066666D01*
X121782976Y-103161904D01*
X121973452Y-103209523D01*
X122354404Y-103209523D01*
X122449642Y-103161904D01*
X122497261Y-103114285D01*
X122544880Y-103019047D01*
X122544880Y-102828571D01*
X122497261Y-102733333D01*
X122449642Y-102685714D01*
X122354404Y-102638095D01*
X122116309Y-102638095D01*
X122021071Y-102685714D01*
X121973452Y-102733333D01*
X121925833Y-102828571D01*
X121925833Y-103019047D01*
X121973452Y-103114285D01*
X122021071Y-103161904D01*
X122116309Y-103209523D01*
%TO.C,R4*%
X89633333Y-66552380D02*
X89300000Y-66076190D01*
X89061904Y-66552380D02*
X89061904Y-65552380D01*
X89442857Y-65552380D01*
X89538095Y-65600000D01*
X89585714Y-65647619D01*
X89633333Y-65742857D01*
X89633333Y-65885714D01*
X89585714Y-65980952D01*
X89538095Y-66028571D01*
X89442857Y-66076190D01*
X89061904Y-66076190D01*
X90490476Y-65885714D02*
X90490476Y-66552380D01*
X90252380Y-65504761D02*
X90014285Y-66219047D01*
X90633333Y-66219047D01*
%TO.C,C2*%
X106307142Y-86966666D02*
X106354761Y-87014285D01*
X106402380Y-87157142D01*
X106402380Y-87252380D01*
X106354761Y-87395238D01*
X106259523Y-87490476D01*
X106164285Y-87538095D01*
X105973809Y-87585714D01*
X105830952Y-87585714D01*
X105640476Y-87538095D01*
X105545238Y-87490476D01*
X105450000Y-87395238D01*
X105402380Y-87252380D01*
X105402380Y-87157142D01*
X105450000Y-87014285D01*
X105497619Y-86966666D01*
X105497619Y-86585714D02*
X105450000Y-86538095D01*
X105402380Y-86442857D01*
X105402380Y-86204761D01*
X105450000Y-86109523D01*
X105497619Y-86061904D01*
X105592857Y-86014285D01*
X105688095Y-86014285D01*
X105830952Y-86061904D01*
X106402380Y-86633333D01*
X106402380Y-86014285D01*
%TO.C,P1*%
X77902380Y-101988095D02*
X76902380Y-101988095D01*
X76902380Y-101607142D01*
X76950000Y-101511904D01*
X76997619Y-101464285D01*
X77092857Y-101416666D01*
X77235714Y-101416666D01*
X77330952Y-101464285D01*
X77378571Y-101511904D01*
X77426190Y-101607142D01*
X77426190Y-101988095D01*
X77902380Y-100464285D02*
X77902380Y-101035714D01*
X77902380Y-100750000D02*
X76902380Y-100750000D01*
X77045238Y-100845238D01*
X77140476Y-100940476D01*
X77188095Y-101035714D01*
%TO.C,J3*%
X80302380Y-90873333D02*
X81016666Y-90873333D01*
X81159523Y-90920952D01*
X81254761Y-91016190D01*
X81302380Y-91159047D01*
X81302380Y-91254285D01*
X80302380Y-90492380D02*
X80302380Y-89873333D01*
X80683333Y-90206666D01*
X80683333Y-90063809D01*
X80730952Y-89968571D01*
X80778571Y-89920952D01*
X80873809Y-89873333D01*
X81111904Y-89873333D01*
X81207142Y-89920952D01*
X81254761Y-89968571D01*
X81302380Y-90063809D01*
X81302380Y-90349523D01*
X81254761Y-90444761D01*
X81207142Y-90492380D01*
%TO.C,C4*%
X84683333Y-77027142D02*
X84635714Y-77074761D01*
X84492857Y-77122380D01*
X84397619Y-77122380D01*
X84254761Y-77074761D01*
X84159523Y-76979523D01*
X84111904Y-76884285D01*
X84064285Y-76693809D01*
X84064285Y-76550952D01*
X84111904Y-76360476D01*
X84159523Y-76265238D01*
X84254761Y-76170000D01*
X84397619Y-76122380D01*
X84492857Y-76122380D01*
X84635714Y-76170000D01*
X84683333Y-76217619D01*
X85540476Y-76455714D02*
X85540476Y-77122380D01*
X85302380Y-76074761D02*
X85064285Y-76789047D01*
X85683333Y-76789047D01*
%TO.C,R5*%
X89633333Y-68452380D02*
X89300000Y-67976190D01*
X89061904Y-68452380D02*
X89061904Y-67452380D01*
X89442857Y-67452380D01*
X89538095Y-67500000D01*
X89585714Y-67547619D01*
X89633333Y-67642857D01*
X89633333Y-67785714D01*
X89585714Y-67880952D01*
X89538095Y-67928571D01*
X89442857Y-67976190D01*
X89061904Y-67976190D01*
X90538095Y-67452380D02*
X90061904Y-67452380D01*
X90014285Y-67928571D01*
X90061904Y-67880952D01*
X90157142Y-67833333D01*
X90395238Y-67833333D01*
X90490476Y-67880952D01*
X90538095Y-67928571D01*
X90585714Y-68023809D01*
X90585714Y-68261904D01*
X90538095Y-68357142D01*
X90490476Y-68404761D01*
X90395238Y-68452380D01*
X90157142Y-68452380D01*
X90061904Y-68404761D01*
X90014285Y-68357142D01*
%TO.C,U5*%
X115488095Y-103452380D02*
X115488095Y-104261904D01*
X115535714Y-104357142D01*
X115583333Y-104404761D01*
X115678571Y-104452380D01*
X115869047Y-104452380D01*
X115964285Y-104404761D01*
X116011904Y-104357142D01*
X116059523Y-104261904D01*
X116059523Y-103452380D01*
X117011904Y-103452380D02*
X116535714Y-103452380D01*
X116488095Y-103928571D01*
X116535714Y-103880952D01*
X116630952Y-103833333D01*
X116869047Y-103833333D01*
X116964285Y-103880952D01*
X117011904Y-103928571D01*
X117059523Y-104023809D01*
X117059523Y-104261904D01*
X117011904Y-104357142D01*
X116964285Y-104404761D01*
X116869047Y-104452380D01*
X116630952Y-104452380D01*
X116535714Y-104404761D01*
X116488095Y-104357142D01*
%TO.C,R11*%
X132914880Y-104492857D02*
X132438690Y-104826190D01*
X132914880Y-105064285D02*
X131914880Y-105064285D01*
X131914880Y-104683333D01*
X131962500Y-104588095D01*
X132010119Y-104540476D01*
X132105357Y-104492857D01*
X132248214Y-104492857D01*
X132343452Y-104540476D01*
X132391071Y-104588095D01*
X132438690Y-104683333D01*
X132438690Y-105064285D01*
X132914880Y-103540476D02*
X132914880Y-104111904D01*
X132914880Y-103826190D02*
X131914880Y-103826190D01*
X132057738Y-103921428D01*
X132152976Y-104016666D01*
X132200595Y-104111904D01*
X132914880Y-102588095D02*
X132914880Y-103159523D01*
X132914880Y-102873809D02*
X131914880Y-102873809D01*
X132057738Y-102969047D01*
X132152976Y-103064285D01*
X132200595Y-103159523D01*
%TO.C,D3*%
X107852380Y-61638095D02*
X106852380Y-61638095D01*
X106852380Y-61400000D01*
X106900000Y-61257142D01*
X106995238Y-61161904D01*
X107090476Y-61114285D01*
X107280952Y-61066666D01*
X107423809Y-61066666D01*
X107614285Y-61114285D01*
X107709523Y-61161904D01*
X107804761Y-61257142D01*
X107852380Y-61400000D01*
X107852380Y-61638095D01*
X106852380Y-60733333D02*
X106852380Y-60114285D01*
X107233333Y-60447619D01*
X107233333Y-60304761D01*
X107280952Y-60209523D01*
X107328571Y-60161904D01*
X107423809Y-60114285D01*
X107661904Y-60114285D01*
X107757142Y-60161904D01*
X107804761Y-60209523D01*
X107852380Y-60304761D01*
X107852380Y-60590476D01*
X107804761Y-60685714D01*
X107757142Y-60733333D01*
%TO.C,R7*%
X101952380Y-57666666D02*
X101476190Y-58000000D01*
X101952380Y-58238095D02*
X100952380Y-58238095D01*
X100952380Y-57857142D01*
X101000000Y-57761904D01*
X101047619Y-57714285D01*
X101142857Y-57666666D01*
X101285714Y-57666666D01*
X101380952Y-57714285D01*
X101428571Y-57761904D01*
X101476190Y-57857142D01*
X101476190Y-58238095D01*
X100952380Y-57333333D02*
X100952380Y-56666666D01*
X101952380Y-57095238D01*
%TO.C,C6*%
X93057142Y-76016666D02*
X93104761Y-76064285D01*
X93152380Y-76207142D01*
X93152380Y-76302380D01*
X93104761Y-76445238D01*
X93009523Y-76540476D01*
X92914285Y-76588095D01*
X92723809Y-76635714D01*
X92580952Y-76635714D01*
X92390476Y-76588095D01*
X92295238Y-76540476D01*
X92200000Y-76445238D01*
X92152380Y-76302380D01*
X92152380Y-76207142D01*
X92200000Y-76064285D01*
X92247619Y-76016666D01*
X92152380Y-75159523D02*
X92152380Y-75350000D01*
X92200000Y-75445238D01*
X92247619Y-75492857D01*
X92390476Y-75588095D01*
X92580952Y-75635714D01*
X92961904Y-75635714D01*
X93057142Y-75588095D01*
X93104761Y-75540476D01*
X93152380Y-75445238D01*
X93152380Y-75254761D01*
X93104761Y-75159523D01*
X93057142Y-75111904D01*
X92961904Y-75064285D01*
X92723809Y-75064285D01*
X92628571Y-75111904D01*
X92580952Y-75159523D01*
X92533333Y-75254761D01*
X92533333Y-75445238D01*
X92580952Y-75540476D01*
X92628571Y-75588095D01*
X92723809Y-75635714D01*
%TO.C,D1*%
X83511904Y-66502380D02*
X83511904Y-65502380D01*
X83750000Y-65502380D01*
X83892857Y-65550000D01*
X83988095Y-65645238D01*
X84035714Y-65740476D01*
X84083333Y-65930952D01*
X84083333Y-66073809D01*
X84035714Y-66264285D01*
X83988095Y-66359523D01*
X83892857Y-66454761D01*
X83750000Y-66502380D01*
X83511904Y-66502380D01*
X85035714Y-66502380D02*
X84464285Y-66502380D01*
X84750000Y-66502380D02*
X84750000Y-65502380D01*
X84654761Y-65645238D01*
X84559523Y-65740476D01*
X84464285Y-65788095D01*
%TO.C,J1*%
X80302380Y-64833333D02*
X81016666Y-64833333D01*
X81159523Y-64880952D01*
X81254761Y-64976190D01*
X81302380Y-65119047D01*
X81302380Y-65214285D01*
X81302380Y-63833333D02*
X81302380Y-64404761D01*
X81302380Y-64119047D02*
X80302380Y-64119047D01*
X80445238Y-64214285D01*
X80540476Y-64309523D01*
X80588095Y-64404761D01*
%TO.C,R14*%
X85307142Y-96252380D02*
X84973809Y-95776190D01*
X84735714Y-96252380D02*
X84735714Y-95252380D01*
X85116666Y-95252380D01*
X85211904Y-95300000D01*
X85259523Y-95347619D01*
X85307142Y-95442857D01*
X85307142Y-95585714D01*
X85259523Y-95680952D01*
X85211904Y-95728571D01*
X85116666Y-95776190D01*
X84735714Y-95776190D01*
X86259523Y-96252380D02*
X85688095Y-96252380D01*
X85973809Y-96252380D02*
X85973809Y-95252380D01*
X85878571Y-95395238D01*
X85783333Y-95490476D01*
X85688095Y-95538095D01*
X87116666Y-95585714D02*
X87116666Y-96252380D01*
X86878571Y-95204761D02*
X86640476Y-95919047D01*
X87259523Y-95919047D01*
%TO.C,C22*%
X83557142Y-93642857D02*
X83604761Y-93690476D01*
X83652380Y-93833333D01*
X83652380Y-93928571D01*
X83604761Y-94071428D01*
X83509523Y-94166666D01*
X83414285Y-94214285D01*
X83223809Y-94261904D01*
X83080952Y-94261904D01*
X82890476Y-94214285D01*
X82795238Y-94166666D01*
X82700000Y-94071428D01*
X82652380Y-93928571D01*
X82652380Y-93833333D01*
X82700000Y-93690476D01*
X82747619Y-93642857D01*
X82747619Y-93261904D02*
X82700000Y-93214285D01*
X82652380Y-93119047D01*
X82652380Y-92880952D01*
X82700000Y-92785714D01*
X82747619Y-92738095D01*
X82842857Y-92690476D01*
X82938095Y-92690476D01*
X83080952Y-92738095D01*
X83652380Y-93309523D01*
X83652380Y-92690476D01*
X82747619Y-92309523D02*
X82700000Y-92261904D01*
X82652380Y-92166666D01*
X82652380Y-91928571D01*
X82700000Y-91833333D01*
X82747619Y-91785714D01*
X82842857Y-91738095D01*
X82938095Y-91738095D01*
X83080952Y-91785714D01*
X83652380Y-92357142D01*
X83652380Y-91738095D01*
%TO.C,C3*%
X86333333Y-71037142D02*
X86285714Y-71084761D01*
X86142857Y-71132380D01*
X86047619Y-71132380D01*
X85904761Y-71084761D01*
X85809523Y-70989523D01*
X85761904Y-70894285D01*
X85714285Y-70703809D01*
X85714285Y-70560952D01*
X85761904Y-70370476D01*
X85809523Y-70275238D01*
X85904761Y-70180000D01*
X86047619Y-70132380D01*
X86142857Y-70132380D01*
X86285714Y-70180000D01*
X86333333Y-70227619D01*
X86666666Y-70132380D02*
X87285714Y-70132380D01*
X86952380Y-70513333D01*
X87095238Y-70513333D01*
X87190476Y-70560952D01*
X87238095Y-70608571D01*
X87285714Y-70703809D01*
X87285714Y-70941904D01*
X87238095Y-71037142D01*
X87190476Y-71084761D01*
X87095238Y-71132380D01*
X86809523Y-71132380D01*
X86714285Y-71084761D01*
X86666666Y-71037142D01*
%TO.C,C12*%
X121392857Y-85642857D02*
X121440476Y-85595238D01*
X121583333Y-85547619D01*
X121678571Y-85547619D01*
X121821428Y-85595238D01*
X121916666Y-85690476D01*
X121964285Y-85785714D01*
X122011904Y-85976190D01*
X122011904Y-86119047D01*
X121964285Y-86309523D01*
X121916666Y-86404761D01*
X121821428Y-86500000D01*
X121678571Y-86547619D01*
X121583333Y-86547619D01*
X121440476Y-86500000D01*
X121392857Y-86452380D01*
X120440476Y-85547619D02*
X121011904Y-85547619D01*
X120726190Y-85547619D02*
X120726190Y-86547619D01*
X120821428Y-86404761D01*
X120916666Y-86309523D01*
X121011904Y-86261904D01*
X120059523Y-86452380D02*
X120011904Y-86500000D01*
X119916666Y-86547619D01*
X119678571Y-86547619D01*
X119583333Y-86500000D01*
X119535714Y-86452380D01*
X119488095Y-86357142D01*
X119488095Y-86261904D01*
X119535714Y-86119047D01*
X120107142Y-85547619D01*
X119488095Y-85547619D01*
%TO.C,R9*%
X172914880Y-104016666D02*
X172438690Y-104350000D01*
X172914880Y-104588095D02*
X171914880Y-104588095D01*
X171914880Y-104207142D01*
X171962500Y-104111904D01*
X172010119Y-104064285D01*
X172105357Y-104016666D01*
X172248214Y-104016666D01*
X172343452Y-104064285D01*
X172391071Y-104111904D01*
X172438690Y-104207142D01*
X172438690Y-104588095D01*
X172914880Y-103540476D02*
X172914880Y-103350000D01*
X172867261Y-103254761D01*
X172819642Y-103207142D01*
X172676785Y-103111904D01*
X172486309Y-103064285D01*
X172105357Y-103064285D01*
X172010119Y-103111904D01*
X171962500Y-103159523D01*
X171914880Y-103254761D01*
X171914880Y-103445238D01*
X171962500Y-103540476D01*
X172010119Y-103588095D01*
X172105357Y-103635714D01*
X172343452Y-103635714D01*
X172438690Y-103588095D01*
X172486309Y-103540476D01*
X172533928Y-103445238D01*
X172533928Y-103254761D01*
X172486309Y-103159523D01*
X172438690Y-103111904D01*
X172343452Y-103064285D01*
%TO.C,C17*%
X97062142Y-105277857D02*
X97109761Y-105325476D01*
X97157380Y-105468333D01*
X97157380Y-105563571D01*
X97109761Y-105706428D01*
X97014523Y-105801666D01*
X96919285Y-105849285D01*
X96728809Y-105896904D01*
X96585952Y-105896904D01*
X96395476Y-105849285D01*
X96300238Y-105801666D01*
X96205000Y-105706428D01*
X96157380Y-105563571D01*
X96157380Y-105468333D01*
X96205000Y-105325476D01*
X96252619Y-105277857D01*
X97157380Y-104325476D02*
X97157380Y-104896904D01*
X97157380Y-104611190D02*
X96157380Y-104611190D01*
X96300238Y-104706428D01*
X96395476Y-104801666D01*
X96443095Y-104896904D01*
X96157380Y-103992142D02*
X96157380Y-103325476D01*
X97157380Y-103754047D01*
%TO.C,R1*%
X103352380Y-86966666D02*
X102876190Y-87300000D01*
X103352380Y-87538095D02*
X102352380Y-87538095D01*
X102352380Y-87157142D01*
X102400000Y-87061904D01*
X102447619Y-87014285D01*
X102542857Y-86966666D01*
X102685714Y-86966666D01*
X102780952Y-87014285D01*
X102828571Y-87061904D01*
X102876190Y-87157142D01*
X102876190Y-87538095D01*
X103352380Y-86014285D02*
X103352380Y-86585714D01*
X103352380Y-86300000D02*
X102352380Y-86300000D01*
X102495238Y-86395238D01*
X102590476Y-86490476D01*
X102638095Y-86585714D01*
%TO.C,U1*%
X89238095Y-75452380D02*
X89238095Y-76261904D01*
X89285714Y-76357142D01*
X89333333Y-76404761D01*
X89428571Y-76452380D01*
X89619047Y-76452380D01*
X89714285Y-76404761D01*
X89761904Y-76357142D01*
X89809523Y-76261904D01*
X89809523Y-75452380D01*
X90809523Y-76452380D02*
X90238095Y-76452380D01*
X90523809Y-76452380D02*
X90523809Y-75452380D01*
X90428571Y-75595238D01*
X90333333Y-75690476D01*
X90238095Y-75738095D01*
%TO.C,R8*%
X104420833Y-57852380D02*
X104087500Y-57376190D01*
X103849404Y-57852380D02*
X103849404Y-56852380D01*
X104230357Y-56852380D01*
X104325595Y-56900000D01*
X104373214Y-56947619D01*
X104420833Y-57042857D01*
X104420833Y-57185714D01*
X104373214Y-57280952D01*
X104325595Y-57328571D01*
X104230357Y-57376190D01*
X103849404Y-57376190D01*
X104992261Y-57280952D02*
X104897023Y-57233333D01*
X104849404Y-57185714D01*
X104801785Y-57090476D01*
X104801785Y-57042857D01*
X104849404Y-56947619D01*
X104897023Y-56900000D01*
X104992261Y-56852380D01*
X105182738Y-56852380D01*
X105277976Y-56900000D01*
X105325595Y-56947619D01*
X105373214Y-57042857D01*
X105373214Y-57090476D01*
X105325595Y-57185714D01*
X105277976Y-57233333D01*
X105182738Y-57280952D01*
X104992261Y-57280952D01*
X104897023Y-57328571D01*
X104849404Y-57376190D01*
X104801785Y-57471428D01*
X104801785Y-57661904D01*
X104849404Y-57757142D01*
X104897023Y-57804761D01*
X104992261Y-57852380D01*
X105182738Y-57852380D01*
X105277976Y-57804761D01*
X105325595Y-57757142D01*
X105373214Y-57661904D01*
X105373214Y-57471428D01*
X105325595Y-57376190D01*
X105277976Y-57328571D01*
X105182738Y-57280952D01*
%TO.C,C13*%
X182449642Y-104542857D02*
X182497261Y-104590476D01*
X182544880Y-104733333D01*
X182544880Y-104828571D01*
X182497261Y-104971428D01*
X182402023Y-105066666D01*
X182306785Y-105114285D01*
X182116309Y-105161904D01*
X181973452Y-105161904D01*
X181782976Y-105114285D01*
X181687738Y-105066666D01*
X181592500Y-104971428D01*
X181544880Y-104828571D01*
X181544880Y-104733333D01*
X181592500Y-104590476D01*
X181640119Y-104542857D01*
X182544880Y-103590476D02*
X182544880Y-104161904D01*
X182544880Y-103876190D02*
X181544880Y-103876190D01*
X181687738Y-103971428D01*
X181782976Y-104066666D01*
X181830595Y-104161904D01*
X181544880Y-103257142D02*
X181544880Y-102638095D01*
X181925833Y-102971428D01*
X181925833Y-102828571D01*
X181973452Y-102733333D01*
X182021071Y-102685714D01*
X182116309Y-102638095D01*
X182354404Y-102638095D01*
X182449642Y-102685714D01*
X182497261Y-102733333D01*
X182544880Y-102828571D01*
X182544880Y-103114285D01*
X182497261Y-103209523D01*
X182449642Y-103257142D01*
D11*
%TO.C,R13*%
X92797936Y-100900000D02*
X93252064Y-100900000D01*
X92797936Y-102370000D02*
X93252064Y-102370000D01*
%TO.C,C14*%
X159677500Y-103638748D02*
X159677500Y-104161252D01*
X161147500Y-103638748D02*
X161147500Y-104161252D01*
%TO.C,C15*%
X139677500Y-103638748D02*
X139677500Y-104161252D01*
X141147500Y-103638748D02*
X141147500Y-104161252D01*
%TO.C,U6*%
X87525000Y-99575000D02*
X89475000Y-99575000D01*
X87525000Y-104695000D02*
X90975000Y-104695000D01*
X87525000Y-104695000D02*
X85575000Y-104695000D01*
X87525000Y-99575000D02*
X85575000Y-99575000D01*
%TO.C,R2*%
X101735000Y-81860436D02*
X101735000Y-82314564D01*
X100265000Y-81860436D02*
X100265000Y-82314564D01*
D12*
%TO.C,C10*%
X160750000Y-95000000D02*
X160750000Y-91000000D01*
X162750000Y-93000000D02*
X158750000Y-93000000D01*
D11*
X157000000Y-98000000D02*
X148000000Y-98000000D01*
X148000000Y-98000000D02*
X148000000Y-56500000D01*
X148000000Y-56500000D02*
X157000000Y-56500000D01*
X157000000Y-56500000D02*
X157000000Y-98000000D01*
G36*
X157000000Y-98000000D02*
G01*
X148000000Y-98000000D01*
X148000000Y-56500000D01*
X157000000Y-56500000D01*
X157000000Y-98000000D01*
G37*
X166000000Y-101500000D02*
X148000000Y-101500000D01*
X148000000Y-101500000D02*
X148000000Y-56500000D01*
X148000000Y-56500000D02*
X166000000Y-56500000D01*
X166000000Y-56500000D02*
X166000000Y-101500000D01*
%TO.C,J2*%
X74190000Y-73960000D02*
X74190000Y-84120000D01*
X74190000Y-84120000D02*
X81810000Y-84120000D01*
X75460000Y-84120000D02*
X75460000Y-73960000D01*
X81810000Y-84120000D02*
X81810000Y-73960000D01*
X81810000Y-73960000D02*
X74190000Y-73960000D01*
D12*
%TO.C,C11*%
X142750000Y-93000000D02*
X138750000Y-93000000D01*
X140750000Y-95000000D02*
X140750000Y-91000000D01*
D11*
X146000000Y-101500000D02*
X128000000Y-101500000D01*
X128000000Y-101500000D02*
X128000000Y-56500000D01*
X128000000Y-56500000D02*
X146000000Y-56500000D01*
X146000000Y-56500000D02*
X146000000Y-101500000D01*
X137000000Y-98000000D02*
X128000000Y-98000000D01*
X128000000Y-98000000D02*
X128000000Y-56500000D01*
X128000000Y-56500000D02*
X137000000Y-56500000D01*
X137000000Y-56500000D02*
X137000000Y-98000000D01*
G36*
X137000000Y-98000000D02*
G01*
X128000000Y-98000000D01*
X128000000Y-56500000D01*
X137000000Y-56500000D01*
X137000000Y-98000000D01*
G37*
%TO.C,R3*%
X99210000Y-85927064D02*
X99210000Y-81572936D01*
X95790000Y-85927064D02*
X95790000Y-81572936D01*
%TO.C,U2*%
X177262500Y-102340000D02*
X178062500Y-102340000D01*
X177262500Y-105460000D02*
X176462500Y-105460000D01*
X177262500Y-105460000D02*
X179062500Y-105460000D01*
X177262500Y-102340000D02*
X176462500Y-102340000D01*
%TO.C,U3*%
X157262500Y-105460000D02*
X156462500Y-105460000D01*
X157262500Y-105460000D02*
X159062500Y-105460000D01*
X157262500Y-102340000D02*
X156462500Y-102340000D01*
X157262500Y-102340000D02*
X158062500Y-102340000D01*
%TO.C,C19*%
X96713748Y-100900000D02*
X97236252Y-100900000D01*
X96713748Y-102370000D02*
X97236252Y-102370000D01*
%TO.C,R6*%
X84622936Y-81665000D02*
X85077064Y-81665000D01*
X84622936Y-83135000D02*
X85077064Y-83135000D01*
%TO.C,R10*%
X154847500Y-104077064D02*
X154847500Y-103622936D01*
X153377500Y-104077064D02*
X153377500Y-103622936D01*
%TO.C,D2*%
X95900000Y-69350000D02*
X90500000Y-69350000D01*
X95900000Y-72650000D02*
X90500000Y-72650000D01*
X95900000Y-72650000D02*
X95900000Y-69350000D01*
%TO.C,L1*%
X99900000Y-79300000D02*
X96700000Y-79300000D01*
X107300000Y-68700000D02*
X107300000Y-79300000D01*
X107300000Y-79300000D02*
X104100000Y-79300000D01*
X104100000Y-68700000D02*
X107300000Y-68700000D01*
X96700000Y-68700000D02*
X99900000Y-68700000D01*
X96700000Y-79300000D02*
X96700000Y-68700000D01*
%TO.C,R12*%
X113377500Y-104077064D02*
X113377500Y-103622936D01*
X114847500Y-104077064D02*
X114847500Y-103622936D01*
%TO.C,C8*%
X97410000Y-60211252D02*
X97410000Y-58788748D01*
X95590000Y-60211252D02*
X95590000Y-58788748D01*
%TO.C,S1*%
X94580000Y-64310000D02*
X94580000Y-56690000D01*
X84420000Y-64310000D02*
X94580000Y-64310000D01*
X84420000Y-56690000D02*
X84420000Y-64310000D01*
X94580000Y-63040000D02*
X84420000Y-63040000D01*
X94580000Y-56690000D02*
X84420000Y-56690000D01*
D12*
%TO.C,C9*%
X180750000Y-95000000D02*
X180750000Y-91000000D01*
X182750000Y-93000000D02*
X178750000Y-93000000D01*
D11*
X177000000Y-98000000D02*
X168000000Y-98000000D01*
X168000000Y-98000000D02*
X168000000Y-56500000D01*
X168000000Y-56500000D02*
X177000000Y-56500000D01*
X177000000Y-56500000D02*
X177000000Y-98000000D01*
G36*
X177000000Y-98000000D02*
G01*
X168000000Y-98000000D01*
X168000000Y-56500000D01*
X177000000Y-56500000D01*
X177000000Y-98000000D01*
G37*
X186000000Y-101500000D02*
X168000000Y-101500000D01*
X168000000Y-101500000D02*
X168000000Y-56500000D01*
X168000000Y-56500000D02*
X186000000Y-56500000D01*
X186000000Y-56500000D02*
X186000000Y-101500000D01*
%TO.C,C5*%
X85123752Y-79665000D02*
X84601248Y-79665000D01*
X85123752Y-81135000D02*
X84601248Y-81135000D01*
%TO.C,C7*%
X98265000Y-60261252D02*
X98265000Y-59738748D01*
X99735000Y-60261252D02*
X99735000Y-59738748D01*
%TO.C,L2*%
X95700000Y-88200000D02*
X98900000Y-88200000D01*
X106300000Y-98800000D02*
X103100000Y-98800000D01*
X106300000Y-88200000D02*
X106300000Y-98800000D01*
X103100000Y-88200000D02*
X106300000Y-88200000D01*
X95700000Y-98800000D02*
X95700000Y-88200000D01*
X98900000Y-98800000D02*
X95700000Y-98800000D01*
%TO.C,C18*%
X93260000Y-104373748D02*
X93260000Y-104896252D01*
X91790000Y-104373748D02*
X91790000Y-104896252D01*
%TO.C,C1*%
X104410000Y-84211252D02*
X104410000Y-82788748D01*
X102590000Y-84211252D02*
X102590000Y-82788748D01*
%TO.C,U4*%
X137262500Y-105460000D02*
X136462500Y-105460000D01*
X137262500Y-102340000D02*
X136462500Y-102340000D01*
X137262500Y-105460000D02*
X139062500Y-105460000D01*
X137262500Y-102340000D02*
X138062500Y-102340000D01*
D10*
%TO.C,AP1*%
X101575000Y-67575000D02*
X101575000Y-67430000D01*
X97425000Y-67575000D02*
X97425000Y-67430000D01*
X97425000Y-62475000D02*
X96025000Y-62475000D01*
X97425000Y-62425000D02*
X97425000Y-62475000D01*
X97425000Y-62425000D02*
X101575000Y-62425000D01*
X97425000Y-67575000D02*
X101575000Y-67575000D01*
X101575000Y-62425000D02*
X101575000Y-62570000D01*
D11*
%TO.C,C21*%
X92931000Y-91666000D02*
X92931000Y-95334000D01*
X92051000Y-90810000D02*
X92051000Y-92460000D01*
X92651000Y-91318000D02*
X92651000Y-95682000D01*
X90930000Y-90341000D02*
X90930000Y-92460000D01*
X90370000Y-90272000D02*
X90370000Y-96728000D01*
X91491000Y-94540000D02*
X91491000Y-96486000D01*
X91411000Y-90482000D02*
X91411000Y-92460000D01*
X93411000Y-92698000D02*
X93411000Y-94302000D01*
X90810000Y-94540000D02*
X90810000Y-96682000D01*
X91331000Y-94540000D02*
X91331000Y-96547000D01*
X90850000Y-94540000D02*
X90850000Y-96675000D01*
X91091000Y-94540000D02*
X91091000Y-96621000D01*
X93051000Y-91850000D02*
X93051000Y-95150000D01*
X92891000Y-91610000D02*
X92891000Y-95390000D01*
X90650000Y-94540000D02*
X90650000Y-96706000D01*
X91131000Y-94540000D02*
X91131000Y-96610000D01*
X90770000Y-90311000D02*
X90770000Y-92460000D01*
X92971000Y-91724000D02*
X92971000Y-95276000D01*
X91451000Y-90498000D02*
X91451000Y-92460000D01*
X92771000Y-91456000D02*
X92771000Y-95544000D01*
X92851000Y-91556000D02*
X92851000Y-95444000D01*
X92131000Y-90864000D02*
X92131000Y-92460000D01*
X91651000Y-90584000D02*
X91651000Y-92460000D01*
X91851000Y-90688000D02*
X91851000Y-92460000D01*
X91171000Y-94540000D02*
X91171000Y-96598000D01*
X92171000Y-94540000D02*
X92171000Y-96107000D01*
X91611000Y-94540000D02*
X91611000Y-96434000D01*
X92491000Y-94540000D02*
X92491000Y-95843000D01*
X90530000Y-90282000D02*
X90530000Y-92460000D01*
X91371000Y-94540000D02*
X91371000Y-96533000D01*
X93171000Y-92068000D02*
X93171000Y-94932000D01*
X91891000Y-90710000D02*
X91891000Y-92460000D01*
X90610000Y-90289000D02*
X90610000Y-92460000D01*
X93291000Y-92335000D02*
X93291000Y-94665000D01*
X92211000Y-94540000D02*
X92211000Y-96078000D01*
X90730000Y-90305000D02*
X90730000Y-92460000D01*
X92451000Y-94540000D02*
X92451000Y-95880000D01*
X91691000Y-90604000D02*
X91691000Y-92460000D01*
X91291000Y-90439000D02*
X91291000Y-92460000D01*
X92411000Y-91084000D02*
X92411000Y-92460000D01*
X91011000Y-90359000D02*
X91011000Y-92460000D01*
X90570000Y-94540000D02*
X90570000Y-96715000D01*
X91571000Y-94540000D02*
X91571000Y-96452000D01*
X93211000Y-92150000D02*
X93211000Y-94850000D01*
X91131000Y-90390000D02*
X91131000Y-92460000D01*
X91411000Y-94540000D02*
X91411000Y-96518000D01*
X92531000Y-91195000D02*
X92531000Y-92460000D01*
X91371000Y-90467000D02*
X91371000Y-92460000D01*
X93371000Y-92560000D02*
X93371000Y-94440000D01*
X92731000Y-91408000D02*
X92731000Y-95592000D01*
X92611000Y-91276000D02*
X92611000Y-95724000D01*
X90610000Y-94540000D02*
X90610000Y-96711000D01*
X91331000Y-90453000D02*
X91331000Y-92460000D01*
X91251000Y-90426000D02*
X91251000Y-92460000D01*
X91731000Y-94540000D02*
X91731000Y-96376000D01*
X91211000Y-94540000D02*
X91211000Y-96586000D01*
X93331000Y-92441000D02*
X93331000Y-94559000D01*
X92011000Y-94540000D02*
X92011000Y-96216000D01*
X90250000Y-90270000D02*
X90250000Y-96730000D01*
X92171000Y-90893000D02*
X92171000Y-92460000D01*
X91851000Y-94540000D02*
X91851000Y-96312000D01*
X90530000Y-94540000D02*
X90530000Y-96718000D01*
X91971000Y-90758000D02*
X91971000Y-92460000D01*
X91691000Y-94540000D02*
X91691000Y-96396000D01*
X93251000Y-92238000D02*
X93251000Y-94762000D01*
X92091000Y-94540000D02*
X92091000Y-96164000D01*
X92091000Y-90836000D02*
X92091000Y-92460000D01*
X92131000Y-94540000D02*
X92131000Y-96136000D01*
X92331000Y-91016000D02*
X92331000Y-92460000D01*
X92331000Y-94540000D02*
X92331000Y-95984000D01*
X91931000Y-94540000D02*
X91931000Y-96266000D01*
X92571000Y-91235000D02*
X92571000Y-95765000D01*
X90690000Y-94540000D02*
X90690000Y-96701000D01*
X91051000Y-94540000D02*
X91051000Y-96631000D01*
X91931000Y-90734000D02*
X91931000Y-92460000D01*
X92491000Y-91157000D02*
X92491000Y-92460000D01*
X91731000Y-90624000D02*
X91731000Y-92460000D01*
X92211000Y-90922000D02*
X92211000Y-92460000D01*
X91771000Y-94540000D02*
X91771000Y-96356000D01*
X92011000Y-90784000D02*
X92011000Y-92460000D01*
X92291000Y-90984000D02*
X92291000Y-92460000D01*
X91171000Y-90402000D02*
X91171000Y-92460000D01*
X90650000Y-90294000D02*
X90650000Y-92460000D01*
X91011000Y-94540000D02*
X91011000Y-96641000D01*
X92371000Y-91050000D02*
X92371000Y-92460000D01*
X91971000Y-94540000D02*
X91971000Y-96242000D01*
X91291000Y-94540000D02*
X91291000Y-96561000D01*
X91051000Y-90369000D02*
X91051000Y-92460000D01*
X92251000Y-94540000D02*
X92251000Y-96048000D01*
X90971000Y-90350000D02*
X90971000Y-92460000D01*
X91811000Y-94540000D02*
X91811000Y-96334000D01*
X92251000Y-90952000D02*
X92251000Y-92460000D01*
X91531000Y-94540000D02*
X91531000Y-96470000D01*
X90971000Y-94540000D02*
X90971000Y-96650000D01*
X90890000Y-94540000D02*
X90890000Y-96667000D01*
X92691000Y-91363000D02*
X92691000Y-95637000D01*
X90890000Y-90333000D02*
X90890000Y-92460000D01*
X90450000Y-90276000D02*
X90450000Y-96724000D01*
X93011000Y-91786000D02*
X93011000Y-95214000D01*
X87064759Y-91346000D02*
X87064759Y-91976000D01*
X92451000Y-91120000D02*
X92451000Y-92460000D01*
X93491000Y-93098000D02*
X93491000Y-93902000D01*
X90850000Y-90325000D02*
X90850000Y-92460000D01*
X91211000Y-90414000D02*
X91211000Y-92460000D01*
X91491000Y-90514000D02*
X91491000Y-92460000D01*
X90330000Y-90270000D02*
X90330000Y-96730000D01*
X93451000Y-92867000D02*
X93451000Y-94133000D01*
X90410000Y-90273000D02*
X90410000Y-96727000D01*
X91531000Y-90530000D02*
X91531000Y-92460000D01*
X91611000Y-90566000D02*
X91611000Y-92460000D01*
X93131000Y-91991000D02*
X93131000Y-95009000D01*
X93091000Y-91919000D02*
X93091000Y-95081000D01*
X90810000Y-90318000D02*
X90810000Y-92460000D01*
X91571000Y-90548000D02*
X91571000Y-92460000D01*
X92371000Y-94540000D02*
X92371000Y-95950000D01*
X91251000Y-94540000D02*
X91251000Y-96574000D01*
X90690000Y-90299000D02*
X90690000Y-92460000D01*
X90290000Y-90270000D02*
X90290000Y-96730000D01*
X92531000Y-94540000D02*
X92531000Y-95805000D01*
X90570000Y-90285000D02*
X90570000Y-92460000D01*
X91811000Y-90666000D02*
X91811000Y-92460000D01*
X91091000Y-90379000D02*
X91091000Y-92460000D01*
X90730000Y-94540000D02*
X90730000Y-96695000D01*
X86749759Y-91661000D02*
X87379759Y-91661000D01*
X91451000Y-94540000D02*
X91451000Y-96502000D01*
X90490000Y-94540000D02*
X90490000Y-96722000D01*
X90490000Y-90278000D02*
X90490000Y-92460000D01*
X90770000Y-94540000D02*
X90770000Y-96689000D01*
X92811000Y-91505000D02*
X92811000Y-95495000D01*
X92051000Y-94540000D02*
X92051000Y-96190000D01*
X90930000Y-94540000D02*
X90930000Y-96659000D01*
X92411000Y-94540000D02*
X92411000Y-95916000D01*
X91651000Y-94540000D02*
X91651000Y-96416000D01*
X92291000Y-94540000D02*
X92291000Y-96016000D01*
X91771000Y-90644000D02*
X91771000Y-92460000D01*
X91891000Y-94540000D02*
X91891000Y-96290000D01*
X93520000Y-93500000D02*
G75*
G03*
X93520000Y-93500000I-3270000J0D01*
G01*
%TO.C,C20*%
X93260000Y-98896252D02*
X93260000Y-98373748D01*
X91790000Y-98896252D02*
X91790000Y-98373748D01*
%TO.C,C16*%
X119677500Y-103638748D02*
X119677500Y-104161252D01*
X121147500Y-103638748D02*
X121147500Y-104161252D01*
%TO.C,R4*%
X92272936Y-66735000D02*
X92727064Y-66735000D01*
X92272936Y-65265000D02*
X92727064Y-65265000D01*
%TO.C,C2*%
X106910000Y-84211252D02*
X106910000Y-82788748D01*
X105090000Y-84211252D02*
X105090000Y-82788748D01*
%TO.C,P1*%
X78900000Y-96550000D02*
X76900000Y-96550000D01*
X78900000Y-105950000D02*
X76900000Y-105950000D01*
%TO.C,J3*%
X81810000Y-95620000D02*
X81810000Y-85460000D01*
X75460000Y-95620000D02*
X75460000Y-85460000D01*
X74190000Y-85460000D02*
X74190000Y-95620000D01*
X74190000Y-95620000D02*
X81810000Y-95620000D01*
X81810000Y-85460000D02*
X74190000Y-85460000D01*
%TO.C,C4*%
X84588748Y-79085000D02*
X85111252Y-79085000D01*
X84588748Y-77615000D02*
X85111252Y-77615000D01*
%TO.C,R5*%
X92272936Y-68735000D02*
X92727064Y-68735000D01*
X92272936Y-67265000D02*
X92727064Y-67265000D01*
%TO.C,U5*%
X117262500Y-102340000D02*
X118062500Y-102340000D01*
X117262500Y-102340000D02*
X116462500Y-102340000D01*
X117262500Y-105460000D02*
X116462500Y-105460000D01*
X117262500Y-105460000D02*
X119062500Y-105460000D01*
%TO.C,R11*%
X134847500Y-104077064D02*
X134847500Y-103622936D01*
X133377500Y-104077064D02*
X133377500Y-103622936D01*
%TO.C,D3*%
X107150000Y-67400000D02*
X107150000Y-62000000D01*
X103850000Y-67400000D02*
X107150000Y-67400000D01*
X103850000Y-67400000D02*
X103850000Y-62000000D01*
%TO.C,R7*%
X100765000Y-59772936D02*
X100765000Y-60227064D01*
X102235000Y-59772936D02*
X102235000Y-60227064D01*
%TO.C,C6*%
X95235000Y-77261252D02*
X95235000Y-76738748D01*
X93765000Y-77261252D02*
X93765000Y-76738748D01*
%TO.C,D1*%
X88000000Y-65040000D02*
X85315000Y-65040000D01*
X85315000Y-66960000D02*
X88000000Y-66960000D01*
X85315000Y-65040000D02*
X85315000Y-66960000D01*
%TO.C,J1*%
X74190000Y-72200000D02*
X81810000Y-72200000D01*
X74190000Y-56960000D02*
X81810000Y-56960000D01*
X74190000Y-56960000D02*
X74190000Y-72200000D01*
X75460000Y-56960000D02*
X75460000Y-72200000D01*
X81810000Y-56960000D02*
X81810000Y-72200000D01*
%TO.C,R14*%
X86314564Y-98235000D02*
X85860436Y-98235000D01*
X86314564Y-96765000D02*
X85860436Y-96765000D01*
%TO.C,C22*%
X84265000Y-92788748D02*
X84265000Y-93311252D01*
X85735000Y-92788748D02*
X85735000Y-93311252D01*
%TO.C,C3*%
X86761252Y-68265000D02*
X86238748Y-68265000D01*
X86761252Y-69735000D02*
X86238748Y-69735000D01*
D12*
%TO.C,C12*%
X120750000Y-95000000D02*
X120750000Y-91000000D01*
X122750000Y-93000000D02*
X118750000Y-93000000D01*
D11*
X126000000Y-101500000D02*
X108000000Y-101500000D01*
X108000000Y-101500000D02*
X108000000Y-56500000D01*
X108000000Y-56500000D02*
X126000000Y-56500000D01*
X126000000Y-56500000D02*
X126000000Y-101500000D01*
X117000000Y-98000000D02*
X108000000Y-98000000D01*
X108000000Y-98000000D02*
X108000000Y-56500000D01*
X108000000Y-56500000D02*
X117000000Y-56500000D01*
X117000000Y-56500000D02*
X117000000Y-98000000D01*
G36*
X117000000Y-98000000D02*
G01*
X108000000Y-98000000D01*
X108000000Y-56500000D01*
X117000000Y-56500000D01*
X117000000Y-98000000D01*
G37*
%TO.C,R9*%
X173377500Y-104077064D02*
X173377500Y-103622936D01*
X174847500Y-104077064D02*
X174847500Y-103622936D01*
%TO.C,C17*%
X94290000Y-104373748D02*
X94290000Y-104896252D01*
X95760000Y-104373748D02*
X95760000Y-104896252D01*
%TO.C,R1*%
X100265000Y-85272936D02*
X100265000Y-85727064D01*
X101735000Y-85272936D02*
X101735000Y-85727064D01*
D10*
%TO.C,U1*%
X87930000Y-82070000D02*
X92070000Y-82070000D01*
X87000000Y-76930000D02*
X92070000Y-76930000D01*
D11*
%TO.C,R8*%
X104814564Y-59735000D02*
X104360436Y-59735000D01*
X104814564Y-58265000D02*
X104360436Y-58265000D01*
%TO.C,C13*%
X181147500Y-103638748D02*
X181147500Y-104161252D01*
X179677500Y-103638748D02*
X179677500Y-104161252D01*
%TD*%
M02*
