%TF.GenerationSoftware,KiCad,Pcbnew,(6.0.7)*%
%TF.CreationDate,2022-08-08T03:33:59+08:00*%
%TF.ProjectId,Solar Charger,536f6c61-7220-4436-9861-726765722e6b,rev?*%
%TF.SameCoordinates,Original*%
%TF.FileFunction,Soldermask,Top*%
%TF.FilePolarity,Negative*%
%FSLAX46Y46*%
G04 Gerber Fmt 4.6, Leading zero omitted, Abs format (unit mm)*
G04 Created by KiCad (PCBNEW (6.0.7)) date 2022-08-08 03:33:59*
%MOMM*%
%LPD*%
G01*
G04 APERTURE LIST*
G04 Aperture macros list*
%AMRoundRect*
0 Rectangle with rounded corners*
0 $1 Rounding radius*
0 $2 $3 $4 $5 $6 $7 $8 $9 X,Y pos of 4 corners*
0 Add a 4 corners polygon primitive as box body*
4,1,4,$2,$3,$4,$5,$6,$7,$8,$9,$2,$3,0*
0 Add four circle primitives for the rounded corners*
1,1,$1+$1,$2,$3*
1,1,$1+$1,$4,$5*
1,1,$1+$1,$6,$7*
1,1,$1+$1,$8,$9*
0 Add four rect primitives between the rounded corners*
20,1,$1+$1,$2,$3,$4,$5,0*
20,1,$1+$1,$4,$5,$6,$7,0*
20,1,$1+$1,$6,$7,$8,$9,0*
20,1,$1+$1,$8,$9,$2,$3,0*%
G04 Aperture macros list end*
%ADD10C,0.650000*%
%ADD11R,1.450000X0.600000*%
%ADD12R,1.450000X0.300000*%
%ADD13O,2.100000X1.000000*%
%ADD14O,1.600000X1.000000*%
%ADD15RoundRect,0.250000X-0.262500X-0.450000X0.262500X-0.450000X0.262500X0.450000X-0.262500X0.450000X0*%
%ADD16RoundRect,0.250000X-0.475000X0.250000X-0.475000X-0.250000X0.475000X-0.250000X0.475000X0.250000X0*%
%ADD17RoundRect,0.150000X0.825000X0.150000X-0.825000X0.150000X-0.825000X-0.150000X0.825000X-0.150000X0*%
%ADD18R,2.290000X3.000000*%
%ADD19RoundRect,0.250000X-0.450000X0.262500X-0.450000X-0.262500X0.450000X-0.262500X0.450000X0.262500X0*%
%ADD20R,2.400000X2.400000*%
%ADD21C,2.400000*%
%ADD22R,3.000000X3.000000*%
%ADD23C,3.000000*%
%ADD24RoundRect,0.250000X1.425000X-0.362500X1.425000X0.362500X-1.425000X0.362500X-1.425000X-0.362500X0*%
%ADD25RoundRect,0.150000X0.512500X0.150000X-0.512500X0.150000X-0.512500X-0.150000X0.512500X-0.150000X0*%
%ADD26RoundRect,0.250000X-0.250000X-0.475000X0.250000X-0.475000X0.250000X0.475000X-0.250000X0.475000X0*%
%ADD27RoundRect,0.250000X0.450000X-0.262500X0.450000X0.262500X-0.450000X0.262500X-0.450000X-0.262500X0*%
%ADD28R,2.500000X1.800000*%
%ADD29R,3.600000X2.700000*%
%ADD30RoundRect,0.250000X0.650000X-0.325000X0.650000X0.325000X-0.650000X0.325000X-0.650000X-0.325000X0*%
%ADD31RoundRect,0.250000X0.250000X0.475000X-0.250000X0.475000X-0.250000X-0.475000X0.250000X-0.475000X0*%
%ADD32RoundRect,0.250000X0.475000X-0.250000X0.475000X0.250000X-0.475000X0.250000X-0.475000X-0.250000X0*%
%ADD33R,2.000000X0.600000*%
%ADD34R,1.600000X1.600000*%
%ADD35C,1.600000*%
%ADD36R,1.800000X2.500000*%
%ADD37RoundRect,0.243750X-0.243750X-0.456250X0.243750X-0.456250X0.243750X0.456250X-0.243750X0.456250X0*%
%ADD38RoundRect,0.250000X0.262500X0.450000X-0.262500X0.450000X-0.262500X-0.450000X0.262500X-0.450000X0*%
%ADD39R,1.100000X0.510000*%
G04 APERTURE END LIST*
D10*
%TO.C,P1*%
X79600000Y-104140000D03*
X79600000Y-98360000D03*
D11*
X81045000Y-98000000D03*
X81045000Y-98800000D03*
D12*
X81045000Y-100000000D03*
X81045000Y-101000000D03*
X81045000Y-101500000D03*
X81045000Y-102500000D03*
D11*
X81045000Y-103700000D03*
X81045000Y-104500000D03*
X81045000Y-104500000D03*
X81045000Y-103700000D03*
D12*
X81045000Y-103000000D03*
X81045000Y-102000000D03*
X81045000Y-100500000D03*
X81045000Y-99500000D03*
D11*
X81045000Y-98800000D03*
X81045000Y-98000000D03*
D13*
X80130000Y-96930000D03*
D14*
X75950000Y-96930000D03*
D13*
X80130000Y-105570000D03*
D14*
X75950000Y-105570000D03*
%TD*%
D15*
%TO.C,R13*%
X92112500Y-101635000D03*
X93937500Y-101635000D03*
%TD*%
D16*
%TO.C,C14*%
X160412500Y-104850000D03*
X160412500Y-102950000D03*
%TD*%
%TO.C,C15*%
X140412500Y-104850000D03*
X140412500Y-102950000D03*
%TD*%
D17*
%TO.C,U6*%
X90000000Y-104040000D03*
X90000000Y-102770000D03*
X90000000Y-101500000D03*
X90000000Y-100230000D03*
X85050000Y-100230000D03*
X85050000Y-101500000D03*
X85050000Y-102770000D03*
X85050000Y-104040000D03*
D18*
X87525000Y-102135000D03*
%TD*%
D19*
%TO.C,R2*%
X101000000Y-81175000D03*
X101000000Y-83000000D03*
%TD*%
D20*
%TO.C,C10*%
X160750000Y-99500000D03*
D21*
X153250000Y-99500000D03*
%TD*%
D22*
%TO.C,J2*%
X78000000Y-76500000D03*
D23*
X78000000Y-81580000D03*
%TD*%
D20*
%TO.C,C11*%
X140750000Y-99500000D03*
D21*
X133250000Y-99500000D03*
%TD*%
D24*
%TO.C,R3*%
X97500000Y-86712500D03*
X97500000Y-80787500D03*
%TD*%
D25*
%TO.C,U2*%
X176125000Y-104850000D03*
X176125000Y-102950000D03*
X178400000Y-102950000D03*
X178400000Y-103900000D03*
X178400000Y-104850000D03*
%TD*%
%TO.C,U3*%
X156125000Y-104850000D03*
X156125000Y-102950000D03*
X158400000Y-102950000D03*
X158400000Y-103900000D03*
X158400000Y-104850000D03*
%TD*%
D26*
%TO.C,C19*%
X96025000Y-101635000D03*
X97925000Y-101635000D03*
%TD*%
D15*
%TO.C,R6*%
X85762500Y-82400000D03*
X83937500Y-82400000D03*
%TD*%
D27*
%TO.C,R10*%
X154112500Y-102937500D03*
X154112500Y-104762500D03*
%TD*%
D28*
%TO.C,D2*%
X94500000Y-71000000D03*
X90500000Y-71000000D03*
%TD*%
D29*
%TO.C,L1*%
X102000000Y-78150000D03*
X102000000Y-69850000D03*
%TD*%
D27*
%TO.C,R12*%
X114112500Y-104762500D03*
X114112500Y-102937500D03*
%TD*%
D30*
%TO.C,C8*%
X96500000Y-60975000D03*
X96500000Y-58025000D03*
%TD*%
D22*
%TO.C,S1*%
X86960000Y-60500000D03*
D23*
X92040000Y-60500000D03*
%TD*%
D20*
%TO.C,C9*%
X180750000Y-99500000D03*
D21*
X173250000Y-99500000D03*
%TD*%
D31*
%TO.C,C5*%
X85812500Y-80400000D03*
X83912500Y-80400000D03*
%TD*%
D32*
%TO.C,C7*%
X99000000Y-60950000D03*
X99000000Y-59050000D03*
%TD*%
D29*
%TO.C,L2*%
X101000000Y-97650000D03*
X101000000Y-89350000D03*
%TD*%
D16*
%TO.C,C18*%
X92525000Y-103685000D03*
X92525000Y-105585000D03*
%TD*%
D30*
%TO.C,C1*%
X103500000Y-84975000D03*
X103500000Y-82025000D03*
%TD*%
D25*
%TO.C,U4*%
X136125000Y-104850000D03*
X136125000Y-102950000D03*
X138400000Y-102950000D03*
X138400000Y-103900000D03*
X138400000Y-104850000D03*
%TD*%
D33*
%TO.C,AP1*%
X96775000Y-63095000D03*
X96775000Y-64365000D03*
X96775000Y-65635000D03*
X96775000Y-66905000D03*
X102225000Y-66905000D03*
X102225000Y-65635000D03*
X102225000Y-64365000D03*
X102225000Y-63095000D03*
%TD*%
D34*
%TO.C,C21*%
X89000000Y-93500000D03*
D35*
X91500000Y-93500000D03*
%TD*%
D32*
%TO.C,C20*%
X92525000Y-99585000D03*
X92525000Y-97685000D03*
%TD*%
D16*
%TO.C,C16*%
X120412500Y-104850000D03*
X120412500Y-102950000D03*
%TD*%
D15*
%TO.C,R4*%
X91587500Y-66000000D03*
X93412500Y-66000000D03*
%TD*%
D30*
%TO.C,C2*%
X106000000Y-84975000D03*
X106000000Y-82025000D03*
%TD*%
D22*
%TO.C,J3*%
X78000000Y-88000000D03*
D23*
X78000000Y-93080000D03*
%TD*%
D26*
%TO.C,C4*%
X85800000Y-78350000D03*
X83900000Y-78350000D03*
%TD*%
D15*
%TO.C,R5*%
X91587500Y-68000000D03*
X93412500Y-68000000D03*
%TD*%
D25*
%TO.C,U5*%
X118400000Y-104850000D03*
X118400000Y-103900000D03*
X118400000Y-102950000D03*
X116125000Y-102950000D03*
X116125000Y-104850000D03*
%TD*%
D27*
%TO.C,R11*%
X134112500Y-102937500D03*
X134112500Y-104762500D03*
%TD*%
D36*
%TO.C,D3*%
X105500000Y-62000000D03*
X105500000Y-66000000D03*
%TD*%
D19*
%TO.C,R7*%
X101500000Y-59087500D03*
X101500000Y-60912500D03*
%TD*%
D32*
%TO.C,C6*%
X94500000Y-77950000D03*
X94500000Y-76050000D03*
%TD*%
D37*
%TO.C,D1*%
X86062500Y-66000000D03*
X87937500Y-66000000D03*
%TD*%
D22*
%TO.C,J1*%
X78000000Y-59500000D03*
D23*
X78000000Y-64580000D03*
X78000000Y-69660000D03*
%TD*%
D38*
%TO.C,R14*%
X87000000Y-97500000D03*
X85175000Y-97500000D03*
%TD*%
D16*
%TO.C,C22*%
X85000000Y-92100000D03*
X85000000Y-94000000D03*
%TD*%
D31*
%TO.C,C3*%
X87450000Y-69000000D03*
X85550000Y-69000000D03*
%TD*%
D20*
%TO.C,C12*%
X120750000Y-99500000D03*
D21*
X113250000Y-99500000D03*
%TD*%
D27*
%TO.C,R9*%
X174112500Y-102937500D03*
X174112500Y-104762500D03*
%TD*%
D16*
%TO.C,C17*%
X95025000Y-103685000D03*
X95025000Y-105585000D03*
%TD*%
D19*
%TO.C,R1*%
X101000000Y-84587500D03*
X101000000Y-86412500D03*
%TD*%
D39*
%TO.C,U1*%
X87450000Y-77500000D03*
X87450000Y-78500000D03*
X87450000Y-79500000D03*
X87450000Y-80500000D03*
X87450000Y-81500000D03*
X92550000Y-81500000D03*
X92550000Y-80500000D03*
X92550000Y-79500000D03*
X92550000Y-78500000D03*
X92550000Y-77500000D03*
%TD*%
D38*
%TO.C,R8*%
X105500000Y-59000000D03*
X103675000Y-59000000D03*
%TD*%
D16*
%TO.C,C13*%
X180412500Y-104850000D03*
X180412500Y-102950000D03*
%TD*%
M02*
