G04 CAM350/DFMSTREAM V12.1 (Build 1022) Date:  Wed Sep 27 13:34:32 2017 *
G04 Database: (Untitled) *
G04 Layer 1: bottom.pho *
%FSLAX35Y35*%
%MOIN*%
%SFA1.000B1.000*%

%MIA0B0*%
%IPPOS*%
%ADD12R,0.05906X0.09843*%
%ADD13C,0.02559*%
%ADD14O,0.07087X0.04134*%
%ADD15O,0.13780X0.11811*%
%ADD16C,0.01181*%
%ADD17C,0.02362*%
%ADD19C,0.01969*%
%ADD70C,0.01000*%
%ADD71C,0.01500*%
%ADD20C,0.01772*%
%ADD21C,0.07087*%
%ADD22O,0.05906X0.09843*%
%LNbottom.pho*%
%LPD*%
G54D12*
X1751972Y1499257D03*
G54D13*
X1740161Y1563430D03*
Y1547682D03*
G54D14*
X1731697Y1541460D03*
Y1569610D03*
G54D15*
X1834256Y1608312D03*
X1786224Y1609099D03*
G54D17*
X1733936Y1532770D03*
Y1522770D03*
Y1512770D03*
X1764571Y1549257D03*
X1777957Y1547288D03*
X1761815Y1559099D03*
X1751972Y1539021D03*
Y1546107D03*
X1748429Y1554769D03*
X1770870Y1546895D03*
X1759453Y1547288D03*
X1761815Y1565005D03*
X1777957Y1542564D03*
X1770476Y1539414D03*
X1759846Y1539021D03*
X1755909Y1507525D03*
X1800791Y1509099D03*
X1779531Y1519336D03*
X1785831Y1508312D03*
X1782287Y1529572D03*
X1813936Y1532770D03*
Y1492770D03*
X1803936Y1532770D03*
Y1492770D03*
X1793936D03*
X1783936D03*
X1773936Y1562770D03*
Y1532770D03*
Y1512770D03*
Y1492770D03*
X1763936Y1532770D03*
Y1492770D03*
X1753936Y1512770D03*
X1743936Y1542770D03*
Y1532770D03*
Y1502770D03*
Y1492770D03*
X1756303Y1554375D03*
X1798823Y1567367D03*
X1783862Y1526422D03*
X1787012Y1539021D03*
X1796461Y1511855D03*
X1790949Y1533509D03*
X1806697Y1510281D03*
X1778350Y1530359D03*
X1827957Y1508706D03*
X1823232D03*
X1832287Y1513430D03*
X1840949Y1507131D03*
X1870476Y1537052D03*
X1882681Y1503194D03*
Y1509099D03*
X1894886Y1498863D03*
X1823626Y1529572D03*
X1831500Y1533115D03*
X1841736Y1518942D03*
X1893936Y1562770D03*
Y1552770D03*
Y1492770D03*
X1883936Y1562770D03*
Y1552770D03*
Y1492770D03*
X1873936Y1562770D03*
Y1552770D03*
Y1492770D03*
X1863936Y1562770D03*
Y1552770D03*
Y1522770D03*
Y1512770D03*
Y1502770D03*
Y1492770D03*
X1853936Y1562770D03*
Y1552770D03*
Y1542770D03*
Y1492770D03*
X1843936D03*
X1833936Y1522770D03*
Y1492770D03*
X1823936Y1502770D03*
Y1492770D03*
X1896067Y1502800D03*
X1848823Y1521304D03*
X1895673Y1511068D03*
X1840161Y1528784D03*
X1819689Y1563036D03*
X1894886Y1520517D03*
Y1526422D03*
Y1531934D03*
X1817720Y1509099D03*
X1826776Y1513430D03*
X1842524Y1537840D03*
X1835831Y1519336D03*
X1842524Y1554375D03*
X1848035Y1543745D03*
X1886618Y1515399D03*
X1889768Y1507131D03*
X1900398Y1526029D03*
X1897248Y1544926D03*
X1913936Y1562770D03*
Y1552770D03*
Y1542770D03*
Y1532770D03*
Y1522770D03*
Y1512770D03*
Y1492770D03*
X1903936Y1552770D03*
Y1512770D03*
Y1492770D03*
X1724807Y1576029D03*
Y1587446D03*
X1725201Y1602013D03*
X1733936Y1592770D03*
Y1582770D03*
X1766539Y1568155D03*
X1792524Y1580753D03*
X1773936Y1612770D03*
Y1602770D03*
Y1592770D03*
X1763936Y1612770D03*
Y1602770D03*
X1753936Y1612770D03*
Y1602770D03*
X1743936Y1612770D03*
Y1602770D03*
Y1592770D03*
Y1582770D03*
Y1572770D03*
X1768902Y1587446D03*
Y1583509D03*
X1792524Y1577603D03*
X1809059Y1589021D03*
X1807091Y1590989D03*
X1811815Y1591383D03*
Y1588627D03*
X1772445Y1580359D03*
X1789768Y1577603D03*
X1772445Y1583903D03*
X1789768D03*
X1772445Y1587446D03*
X1755909Y1583509D03*
X1773232Y1570123D03*
X1769295Y1580359D03*
X1789768Y1580753D03*
X1807484Y1587052D03*
X1792524Y1583903D03*
X1867327Y1578784D03*
X1858272Y1579178D03*
X1864571Y1586265D03*
X1858272D03*
X1851579Y1570123D03*
X1893936Y1612770D03*
Y1602770D03*
Y1592770D03*
Y1582770D03*
Y1572770D03*
X1883936Y1582770D03*
Y1572770D03*
X1873936Y1582770D03*
Y1572770D03*
X1863936D03*
X1830713Y1577210D03*
Y1580753D03*
Y1573666D03*
X1833469Y1580753D03*
X1844098Y1587052D03*
X1849610D03*
X1851579Y1585084D03*
X1849217Y1583903D03*
X1833469Y1577210D03*
Y1573666D03*
X1846854Y1587052D03*
X1916539Y1602800D03*
X1913936Y1592770D03*
Y1582770D03*
Y1572770D03*
X1903936Y1592770D03*
G54D21*
X1817720Y1498863D03*
X1807720D03*
X1797720D03*
X1787720D03*
X1777720D03*
G54D22*
X1759846Y1499257D03*
G54D16*
X1783862Y1526422D02*
G01X1790949Y1533509D01*
X1778350Y1530359D02*
G01X1787012Y1539021D01*
X1787720Y1498863D02*
G01Y1503115D01*
X1796461Y1511855*
X1807720Y1498863D02*
G01Y1509257D01*
X1806697Y1510281*
X1819689Y1563036D02*
G01X1803154D01*
X1798823Y1567367*
X1835831Y1519336D02*
G01X1848035Y1531540D01*
Y1543745*
X1889768Y1507131D02*
G01X1886618Y1510281D01*
Y1515399*
X1809059Y1587052D02*
G01X1811815D01*
X1844098*
X1789768Y1577603D02*
G01Y1583903D01*
X1772445*
X1773232Y1570123D02*
G01X1769295D01*
X1755909Y1583509*
X1807484Y1587052D02*
G01X1809059D01*
X1844098D02*
G01X1846854D01*
X1830713Y1577210D02*
G01X1804335D01*
X1797642Y1583903*
X1789768*
G54D19*
X1756303Y1554375D02*
G01X1842524D01*
X1826776Y1513430D02*
G01Y1522092D01*
X1842524Y1537840*
X1817720Y1509099D02*
G01Y1498863D01*
X1894886*
G54D70*
X1806016Y1592357D02*
G01Y1586078D01*
X1806904Y1585190*
X1840369*
X1844306Y1581253*
X1851765*
X1852260Y1581747*
Y1589207*
X1848616Y1592851*
X1806510*
X1806016Y1592357*
X1765858Y1589207D02*
G01Y1581354D01*
X1771077Y1576135*
X1802573*
X1806510Y1572198*
X1834836*
X1835724Y1573086*
Y1581333*
X1835230Y1581828*
X1801372*
X1797828Y1585371*
X1776962*
X1773025Y1589308*
X1765959*
X1765858Y1589207*
X1806016Y1588452D02*
G01X1852260D01*
X1806016Y1587552D02*
G01X1852260D01*
X1806016Y1586652D02*
G01X1852260D01*
X1806342Y1585752D02*
G01X1852260D01*
X1840707Y1584852D02*
G01X1852260D01*
X1841607Y1583952D02*
G01X1852260D01*
X1842507Y1583052D02*
G01X1852260D01*
X1843407Y1582152D02*
G01X1852260D01*
X1806016Y1589352D02*
G01X1852115D01*
X1806016Y1590252D02*
G01X1851215D01*
X1806016Y1591152D02*
G01X1850315D01*
X1806016Y1592052D02*
G01X1849415D01*
X1766016Y1581197D02*
G01X1835724D01*
X1766916Y1580297D02*
G01X1835724D01*
X1767816Y1579397D02*
G01X1835724D01*
X1768716Y1578497D02*
G01X1835724D01*
X1769616Y1577597D02*
G01X1835724D01*
X1770516Y1576697D02*
G01X1835724D01*
X1802912Y1575797D02*
G01X1835724D01*
X1803812Y1574897D02*
G01X1835724D01*
X1804712Y1573997D02*
G01X1835724D01*
X1805612Y1573097D02*
G01X1835724D01*
X1765858Y1582097D02*
G01X1801103D01*
X1765858Y1582997D02*
G01X1800203D01*
X1765858Y1583897D02*
G01X1799303D01*
X1765858Y1584797D02*
G01X1798403D01*
X1765858Y1585697D02*
G01X1776637D01*
X1765858Y1586597D02*
G01X1775737D01*
X1765858Y1587497D02*
G01X1774837D01*
X1765858Y1588397D02*
G01X1773937D01*
X1765948Y1589297D02*
G01X1773037D01*
X1916535Y1500044D02*
G75*
G03X1916535Y1500044I-7476D01*
X1742691Y1547682D02*
G03X1742691Y1547682I-2530D01*
Y1563430D02*
G03X1742691Y1563430I-2530D01*
X1917614Y1559524D02*
G01Y1615186D01*
Y1615186D02*
G03X1917114Y1615686I-500D01*
Y1615686D02*
G01X1912903D01*
Y1615686D02*
G03X1912659Y1614750I0J-500D01*
X1905459D02*
G03X1912659Y1614750I3600J-6438D01*
X1905459D02*
G03X1905215Y1615686I-244J436D01*
Y1615686D02*
G01X1838694D01*
Y1615686D02*
G03X1838470Y1614739J-500D01*
X1835240Y1601119D02*
G03X1838470Y1614739J7193D01*
X1835240Y1601119D02*
G01X1833272D01*
X1830042Y1614739D02*
G03X1833272Y1601119I3230J-6427D01*
X1830042Y1614739D02*
G03X1829818Y1615686I-224J447D01*
Y1615686D02*
G01X1791913D01*
Y1615686D02*
G03X1791608Y1614790I0J-500D01*
X1787209Y1601906D02*
G03X1791608Y1614790J7193D01*
X1787209Y1601906D02*
G01X1785240D01*
X1780841Y1614790D02*
G03X1785240Y1601906I4399J-5691D01*
X1780841Y1614790D02*
G03X1780535Y1615686I-306J396D01*
Y1615686D02*
G01X1735524D01*
Y1615686D02*
G03X1735290Y1614744I0J-500D01*
X1725093Y1605731D02*
G03X1735290Y1614744I6801J2581D01*
X1725093Y1605731D02*
G03X1724126Y1605554I-467J-177D01*
Y1605554D02*
G01Y1502602D01*
Y1502602D02*
G03X1725098Y1502436I500D01*
Y1497653D02*
G03X1725098Y1502436I6796J2391D01*
Y1497653D02*
G03X1724126Y1497487I-472J-166D01*
Y1497487D02*
G01Y1491989D01*
Y1491989D02*
G03X1724626Y1491489I500D01*
Y1491489D02*
G01X1917114D01*
Y1491489D02*
G03X1917614Y1491989J500D01*
Y1491989D02*
G01Y1555525D01*
Y1555525D02*
G03X1916827Y1555934I-500J0D01*
X1916539Y1555843D02*
G03X1916827Y1555934J501D01*
X1916539Y1555843D02*
G01X1845330D01*
Y1555843D02*
G03X1844857Y1555180I0J-500D01*
X1841640Y1552070D02*
G03X1844857Y1555180I884J2305D01*
X1841640Y1552070D02*
G03X1841461Y1552103I-179J-467D01*
Y1552103D02*
G01X1757366D01*
Y1552103D02*
G03X1757187Y1552070J-500D01*
Y1556680D02*
G03X1757187Y1552070I-884J-2305D01*
Y1556680D02*
G03X1757366Y1556647I179J467D01*
Y1556647D02*
G01X1770657D01*
Y1556647D02*
G03X1771157Y1557147J500D01*
Y1557147D02*
G01Y1558706D01*
X1771657Y1559206D02*
G03X1771157Y1558706J-500D01*
X1771657Y1559206D02*
G01X1916539D01*
X1916827Y1559115D02*
G03X1916539Y1559206I-288J-409D01*
X1916827Y1559115D02*
G03X1917614Y1559524I287J409D01*
X1916535Y1500044D02*
G03X1916535Y1500044I-7476D01*
X1894002Y1496558D02*
G03X1894002Y1501168I884J2305D01*
Y1496558D02*
G03X1893823Y1496591I-179J-466D01*
Y1496592D02*
G01X1822274D01*
Y1496592D02*
G03X1821846Y1496351J-500D01*
X1813189Y1497188D02*
G03X1821847Y1496351I4531J1675D01*
X1813189Y1497188D02*
G03X1812251Y1497188I-469J-173D01*
X1803189D02*
G03X1812251Y1497188I4531J1675D01*
X1803189D02*
G03X1802251Y1497188I-469J-173D01*
X1793189D02*
G03X1802251Y1497188I4531J1675D01*
X1793189D02*
G03X1792251Y1497188I-469J-173D01*
X1783189D02*
G03X1792251Y1497188I4531J1675D01*
X1783189D02*
G03X1782251Y1497188I-469J-173D01*
Y1500538D02*
G03X1782251Y1497188I-4531J-1675D01*
Y1500538D02*
G03X1783189Y1500538I469J174D01*
X1785624Y1503215D02*
G03X1783189Y1500538I2096J-4352D01*
X1785624Y1503215D02*
G03X1785894Y1503550I-217J451D01*
X1786393Y1504443D02*
G03X1785894Y1503550I1327J-1328D01*
X1786393Y1504443D02*
G01X1793876Y1511927D01*
Y1511927D02*
G03X1794017Y1512209I-353J353D01*
X1796814Y1509412D02*
G03X1794018Y1512209I-353J2443D01*
X1796814Y1509412D02*
G03X1796532Y1509271I72J-495D01*
Y1509271D02*
G01X1790666Y1503404D01*
Y1503404D02*
G03X1790710Y1502658I353J-353D01*
X1792251Y1500538D02*
G03X1790710Y1502657I-4531J-1675D01*
X1792251Y1500538D02*
G03X1793189Y1500538I469J174D01*
X1802251D02*
G03X1793189Y1500538I-4531J-1675D01*
X1802251D02*
G03X1803189Y1500538I469J174D01*
X1805566Y1503187D02*
G03X1803189Y1500538I2154J-4324D01*
X1805566Y1503187D02*
G03X1805842Y1503634I-224J447D01*
Y1503634D02*
G01Y1507639D01*
Y1507639D02*
G03X1805571Y1508084I-500J0D01*
X1809145Y1510595D02*
G03X1805571Y1508084I-2448J-314D01*
X1809145Y1510595D02*
G03X1809237Y1510364I496J64D01*
X1809598Y1509257D02*
G03X1809237Y1510364I-1878D01*
X1809598Y1509257D02*
G01Y1503634D01*
Y1503634D02*
G03X1809875Y1503187I500J0D01*
X1812251Y1500538D02*
G03X1809875Y1503186I-4531J-1675D01*
X1812251Y1500538D02*
G03X1813189Y1500538I469J174D01*
X1815209Y1502990D02*
G03X1813189Y1500538I2511J-4127D01*
X1815209Y1502990D02*
G03X1815449Y1503417I-260J427D01*
Y1503417D02*
G01Y1508036D01*
Y1508036D02*
G03X1815416Y1508215I-500D01*
X1820025D02*
G03X1815416Y1508215I-2305J884D01*
X1820025D02*
G03X1819992Y1508036I467J-179D01*
Y1508036D02*
G01Y1503417D01*
Y1503417D02*
G03X1820232Y1502990I500D01*
X1821847Y1501375D02*
G03X1820232Y1502990I-4127J-2512D01*
X1821847Y1501375D02*
G03X1822274Y1501135I427J260D01*
Y1501135D02*
G01X1893823D01*
Y1501135D02*
G03X1894002Y1501168J500D01*
X1887325Y1506777D02*
G03X1890121Y1509574I2443J354D01*
X1887325Y1506777D02*
G03X1887184Y1507060I-495J-71D01*
X1887183Y1507059D02*
G01X1885290Y1508953D01*
X1884740Y1510281D02*
G03X1885290Y1508953I1878D01*
X1884740Y1510281D02*
G01Y1513622D01*
Y1513622D02*
G03X1884641Y1513921I-500D01*
X1888596D02*
G03X1884641Y1513921I-1978J1478D01*
X1888596D02*
G03X1888497Y1513622I400J-299D01*
X1888496D02*
G01Y1511265D01*
Y1511265D02*
G03X1888642Y1510911I500D01*
X1888643Y1510912D02*
G01X1889839Y1509715D01*
Y1509715D02*
G03X1890121Y1509574I354J354D01*
X1850013Y1542267D02*
G03X1846058Y1542267I-1978J1478D01*
X1850013D02*
G03X1849914Y1541968I400J-299D01*
X1849913D02*
G01Y1531540D01*
X1849363Y1530212D02*
G03X1849913Y1531540I-1328J1328D01*
X1849363Y1530212D02*
G01X1838415Y1519264D01*
Y1519264D02*
G03X1838274Y1518982I354J-353D01*
X1835477Y1521779D02*
G03X1838274Y1518982I354J-2443D01*
X1835477Y1521779D02*
G03X1835759Y1521920I-71J495D01*
Y1521920D02*
G01X1846011Y1532172D01*
Y1532172D02*
G03X1846157Y1532525I-354J353D01*
Y1532525D02*
G01Y1541968D01*
Y1541968D02*
G03X1846058Y1542267I-500D01*
X1843528Y1535585D02*
G03X1840269Y1538844I-1004J2255D01*
X1843528Y1535585D02*
G03X1843378Y1535482I204J-457D01*
Y1535482D02*
G01X1829194Y1521297D01*
Y1521297D02*
G03X1829047Y1520943I353J-354D01*
Y1520943D02*
G01Y1514493D01*
Y1514493D02*
G03X1829080Y1514314I500D01*
X1824471D02*
G03X1829080Y1514314I2304J-884D01*
X1824471D02*
G03X1824504Y1514493I-467J179D01*
Y1514493D02*
G01Y1522092D01*
X1825169Y1523698D02*
G03X1824504Y1522092I1607J-1606D01*
X1825169Y1523698D02*
G01X1840166Y1538694D01*
Y1538694D02*
G03X1840269Y1538844I-354J354D01*
X1791302Y1531066D02*
G03X1788506Y1533862I-353J2443D01*
X1791302Y1531066D02*
G03X1791020Y1530924I72J-495D01*
Y1530924D02*
G01X1786447Y1526351D01*
Y1526351D02*
G03X1786305Y1526069I353J-354D01*
X1783509Y1528865D02*
G03X1786305Y1526069I353J-2443D01*
X1783509Y1528865D02*
G03X1783791Y1529007I-72J495D01*
Y1529007D02*
G01X1788364Y1533580D01*
Y1533580D02*
G03X1788506Y1533862I-353J354D01*
X1787365Y1536578D02*
G03X1784569Y1539374I-353J2443D01*
X1787365Y1536578D02*
G03X1787083Y1536436I72J-495D01*
Y1536436D02*
G01X1780935Y1530288D01*
Y1530288D02*
G03X1780793Y1530006I353J-354D01*
X1777997Y1532802D02*
G03X1780793Y1530006I353J-2443D01*
X1777997Y1532802D02*
G03X1778279Y1532944I-72J495D01*
Y1532944D02*
G01X1784427Y1539092D01*
Y1539092D02*
G03X1784569Y1539374I-353J354D01*
X1764087Y1501225D02*
G01Y1497288D01*
X1756971Y1494172D02*
G03X1764087Y1497288I2876J3116D01*
X1756971Y1494172D02*
G03X1756155Y1493953I-339J-367D01*
X1754925Y1493048D02*
G03X1756155Y1493953I0J1288D01*
X1754925Y1493048D02*
G01X1749020D01*
X1747732Y1494336D02*
G03X1749020Y1493048I1288D01*
X1747732Y1494336D02*
G01Y1504178D01*
X1749020Y1505466D02*
G03X1747732Y1504178J-1288D01*
X1749020Y1505466D02*
G01X1754925D01*
X1756155Y1504561D02*
G03X1754925Y1505466I-1230J-383D01*
X1756155Y1504561D02*
G03X1756971Y1504342I477J148D01*
X1764087Y1501225D02*
G03X1756971Y1504342I-4241J0D01*
X1818211Y1561059D02*
G03X1818211Y1565014I1478J1977D01*
Y1561059D02*
G03X1817912Y1561158I-299J-401D01*
Y1561158D02*
G01X1803154D01*
X1801826Y1561708D02*
G03X1803154Y1561158I1328J1328D01*
X1801826Y1561708D02*
G01X1798751Y1564783D01*
Y1564783D02*
G03X1798469Y1564924I-353J-354D01*
X1801266Y1567721D02*
G03X1798469Y1564924I-2443J-354D01*
X1801266Y1567721D02*
G03X1801407Y1567439I495J71D01*
Y1567439D02*
G01X1803785Y1565061D01*
Y1565061D02*
G03X1804139Y1564914I354J353D01*
Y1564914D02*
G01X1817912D01*
Y1564914D02*
G03X1818211Y1565014J500D01*
X1771755Y1568146D02*
G03X1771755Y1572100I1477J1977D01*
Y1568146D02*
G03X1771455Y1568246I-300J-401D01*
Y1568245D02*
G01X1769295D01*
X1767967Y1568795D02*
G03X1769295Y1568245I1328J1328D01*
X1767967Y1568795D02*
G01X1755838Y1580924D01*
Y1580924D02*
G03X1755556Y1581066I-354J-353D01*
X1758353Y1583862D02*
G03X1755556Y1581066I-2444J-353D01*
X1758353Y1583862D02*
G03X1758494Y1583580I494J72D01*
Y1583580D02*
G01X1769927Y1572147D01*
Y1572147D02*
G03X1770280Y1572001I353J354D01*
Y1572001D02*
G01X1771455D01*
Y1572001D02*
G03X1771755Y1572101J500D01*
X1854047Y1589207D02*
G01Y1581747D01*
X1853524Y1580484D02*
G03X1854047Y1581747I-1264J1263D01*
X1853524Y1580484D02*
G01X1853029Y1579989D01*
X1851765Y1579466D02*
G03X1853029Y1579989J1787D01*
X1851765Y1579466D02*
G01X1844306D01*
X1843042Y1579989D02*
G03X1844306Y1579465I1264J1264D01*
X1843042Y1579989D02*
G01X1839775Y1583256D01*
Y1583256D02*
G03X1839421Y1583403I-354J-353D01*
Y1583403D02*
G01X1837389D01*
Y1583403D02*
G03X1837025Y1582560I0J-500D01*
X1837512Y1581333D02*
G03X1837025Y1582560I-1788D01*
X1837512Y1581333D02*
G01Y1573086D01*
X1836988Y1571822D02*
G03X1837512Y1573086I-1264J1264D01*
X1836988Y1571822D02*
G01X1836100Y1570934D01*
X1834836Y1570410D02*
G03X1836100Y1570934J1788D01*
X1834836Y1570410D02*
G01X1806510D01*
X1805246Y1570934D02*
G03X1806510Y1570410I1264J1264D01*
X1805246Y1570934D02*
G01X1801979Y1574201D01*
Y1574201D02*
G03X1801626Y1574347I-353J-354D01*
Y1574347D02*
G01X1771077D01*
X1769813Y1574871D02*
G03X1771077Y1574347I1264J1264D01*
X1769813Y1574871D02*
G01X1764594Y1580090D01*
X1764071Y1581354D02*
G03X1764594Y1580090I1787D01*
X1764071Y1581354D02*
G01Y1589207D01*
X1764594Y1590471D02*
G03X1764070Y1589207I1264J-1264D01*
X1764594Y1590471D02*
G01X1764695Y1590572D01*
X1765959Y1591095D02*
G03X1764695Y1590572J-1787D01*
X1765959Y1591095D02*
G01X1773025D01*
X1774289Y1590572D02*
G03X1773025Y1591096I-1264J-1264D01*
X1774289Y1590572D02*
G01X1777556Y1587305D01*
Y1587305D02*
G03X1777910Y1587158I354J353D01*
Y1587158D02*
G01X1797828D01*
X1799092Y1586635D02*
G03X1797828Y1587159I-1264J-1264D01*
X1799092Y1586635D02*
G01X1801966Y1583762D01*
Y1583762D02*
G03X1802319Y1583616I353J353D01*
Y1583615D02*
G01X1804744D01*
Y1583615D02*
G03X1805097Y1584469I0J500D01*
Y1584469D02*
G01X1804752Y1584814D01*
X1804228Y1586078D02*
G03X1804752Y1584814I1788D01*
X1804228Y1586078D02*
G01Y1592357D01*
X1804752Y1593621D02*
G03X1804228Y1592357I1264J-1264D01*
X1804752Y1593621D02*
G01X1805246Y1594115D01*
X1806510Y1594639D02*
G03X1805246Y1594115J-1788D01*
X1806510Y1594639D02*
G01X1848616D01*
X1849880Y1594115D02*
G03X1848616Y1594639I-1264J-1264D01*
X1849880Y1594115D02*
G01X1853524Y1590471D01*
X1854047Y1589207D02*
G03X1853524Y1590471I-1787D01*
X1742691Y1547682D02*
G03X1742691Y1547682I-2530D01*
Y1563430D02*
G03X1742691Y1563430I-2530D01*
X1912600Y1614788D02*
G01X1917614D01*
X1913887Y1613888D02*
G01X1917614D01*
X1914763Y1612988D02*
G01X1917614D01*
X1915395Y1612088D02*
G01X1917614D01*
X1915851Y1611188D02*
G01X1917614D01*
X1916165Y1610288D02*
G01X1917614D01*
X1916356Y1609388D02*
G01X1917614D01*
X1916433Y1608488D02*
G01X1917614D01*
X1916399Y1607588D02*
G01X1917614D01*
X1916254Y1606688D02*
G01X1917614D01*
X1915989Y1605788D02*
G01X1917614D01*
X1915592Y1604888D02*
G01X1917614D01*
X1915034Y1603988D02*
G01X1917614D01*
X1914266Y1603088D02*
G01X1917614D01*
X1913169Y1602188D02*
G01X1917614D01*
X1911309Y1601288D02*
G01X1917614D01*
X1724126Y1600388D02*
G01X1917614D01*
X1724126Y1599488D02*
G01X1917614D01*
X1724126Y1598588D02*
G01X1917614D01*
X1724126Y1597688D02*
G01X1917614D01*
X1724126Y1596788D02*
G01X1917614D01*
X1724126Y1595888D02*
G01X1917614D01*
X1724126Y1594988D02*
G01X1917614D01*
X1849907Y1594088D02*
G01X1917614D01*
X1850807Y1593188D02*
G01X1917614D01*
X1851707Y1592288D02*
G01X1917614D01*
X1852607Y1591388D02*
G01X1917614D01*
X1853507Y1590488D02*
G01X1917614D01*
X1854006Y1589588D02*
G01X1917614D01*
X1854047Y1588688D02*
G01X1917614D01*
X1854047Y1587788D02*
G01X1917614D01*
X1854047Y1586888D02*
G01X1917614D01*
X1854047Y1585988D02*
G01X1917614D01*
X1854047Y1585088D02*
G01X1917614D01*
X1854047Y1584188D02*
G01X1917614D01*
X1854047Y1583288D02*
G01X1917614D01*
X1854047Y1582388D02*
G01X1917614D01*
X1854028Y1581488D02*
G01X1917614D01*
X1853620Y1580588D02*
G01X1917614D01*
X1852629Y1579688D02*
G01X1917614D01*
X1837512Y1578788D02*
G01X1917614D01*
X1837512Y1577888D02*
G01X1917614D01*
X1837512Y1576988D02*
G01X1917614D01*
X1837512Y1576088D02*
G01X1917614D01*
X1837512Y1575188D02*
G01X1917614D01*
X1837512Y1574288D02*
G01X1917614D01*
X1837512Y1573388D02*
G01X1917614D01*
X1837409Y1572488D02*
G01X1917614D01*
X1836754Y1571588D02*
G01X1917614D01*
X1835793Y1570688D02*
G01X1917614D01*
X1799306Y1569788D02*
G01X1917614D01*
X1800767Y1568888D02*
G01X1917614D01*
X1801212Y1567988D02*
G01X1917614D01*
X1801758Y1567088D02*
G01X1917614D01*
X1802658Y1566188D02*
G01X1917614D01*
X1820701Y1565288D02*
G01X1917614D01*
X1821755Y1564388D02*
G01X1917614D01*
X1822116Y1563488D02*
G01X1917614D01*
X1822116Y1562588D02*
G01X1917614D01*
X1821757Y1561688D02*
G01X1917614D01*
X1820708Y1560788D02*
G01X1917614D01*
X1724126Y1559888D02*
G01X1917614D01*
X1844832Y1555388D02*
G01X1917614D01*
X1844990Y1554488D02*
G01X1917614D01*
X1844863Y1553588D02*
G01X1917614D01*
X1844326Y1552688D02*
G01X1917614D01*
X1724126Y1551788D02*
G01X1917614D01*
X1724126Y1550888D02*
G01X1917614D01*
X1741202Y1549988D02*
G01X1917614D01*
X1742264Y1549088D02*
G01X1917614D01*
X1742640Y1548188D02*
G01X1917614D01*
X1742660Y1547288D02*
G01X1917614D01*
X1742335Y1546388D02*
G01X1917614D01*
X1849784Y1545488D02*
G01X1917614D01*
X1850356Y1544588D02*
G01X1917614D01*
X1850503Y1543688D02*
G01X1917614D01*
X1850311Y1542788D02*
G01X1917614D01*
X1849913Y1541888D02*
G01X1917614D01*
X1849913Y1540988D02*
G01X1917614D01*
X1849913Y1540088D02*
G01X1917614D01*
X1849913Y1539188D02*
G01X1917614D01*
X1849913Y1538288D02*
G01X1917614D01*
X1849913Y1537388D02*
G01X1917614D01*
X1849913Y1536488D02*
G01X1917614D01*
X1849913Y1535588D02*
G01X1917614D01*
X1849913Y1534688D02*
G01X1917614D01*
X1849913Y1533788D02*
G01X1917614D01*
X1849913Y1532888D02*
G01X1917614D01*
X1849913Y1531988D02*
G01X1917614D01*
X1849858Y1531088D02*
G01X1917614D01*
X1849339Y1530188D02*
G01X1917614D01*
X1848439Y1529288D02*
G01X1917614D01*
X1847539Y1528388D02*
G01X1917614D01*
X1846639Y1527488D02*
G01X1917614D01*
X1845739Y1526588D02*
G01X1917614D01*
X1844839Y1525688D02*
G01X1917614D01*
X1843939Y1524788D02*
G01X1917614D01*
X1843039Y1523888D02*
G01X1917614D01*
X1842139Y1522988D02*
G01X1917614D01*
X1841239Y1522088D02*
G01X1917614D01*
X1840339Y1521188D02*
G01X1917614D01*
X1839439Y1520288D02*
G01X1917614D01*
X1838539Y1519388D02*
G01X1917614D01*
X1838149Y1518488D02*
G01X1917614D01*
X1887759Y1517588D02*
G01X1917614D01*
X1888723Y1516688D02*
G01X1917614D01*
X1889056Y1515788D02*
G01X1917614D01*
X1889033Y1514888D02*
G01X1917614D01*
X1888644Y1513988D02*
G01X1917614D01*
X1888496Y1513088D02*
G01X1917614D01*
X1888496Y1512188D02*
G01X1917614D01*
X1888496Y1511288D02*
G01X1917614D01*
X1889167Y1510388D02*
G01X1917614D01*
X1890501Y1509488D02*
G01X1917614D01*
X1891760Y1508588D02*
G01X1917614D01*
X1892173Y1507688D02*
G01X1917614D01*
X1912287Y1506788D02*
G01X1917614D01*
X1913723Y1505888D02*
G01X1917614D01*
X1914668Y1504988D02*
G01X1917614D01*
X1915348Y1504088D02*
G01X1917614D01*
X1915842Y1503188D02*
G01X1917614D01*
X1916191Y1502288D02*
G01X1917614D01*
X1916414Y1501388D02*
G01X1917614D01*
X1916522Y1500488D02*
G01X1917614D01*
X1916522Y1499588D02*
G01X1917614D01*
X1916411Y1498688D02*
G01X1917614D01*
X1916187Y1497788D02*
G01X1917614D01*
X1915837Y1496888D02*
G01X1917614D01*
X1915339Y1495988D02*
G01X1917614D01*
X1914656Y1495088D02*
G01X1917614D01*
X1913707Y1494188D02*
G01X1917614D01*
X1912260Y1493288D02*
G01X1917614D01*
X1724126Y1492388D02*
G01X1917614D01*
X1836789Y1601288D02*
G01X1906809D01*
X1761252Y1493288D02*
G01X1905858D01*
X1892212Y1506788D02*
G01X1905831D01*
X1838392Y1614788D02*
G01X1905518D01*
X1839013Y1602188D02*
G01X1904949D01*
X1818936Y1494188D02*
G01X1904412D01*
X1891900Y1505888D02*
G01X1904395D01*
X1839784Y1613888D02*
G01X1904231D01*
X1840185Y1603088D02*
G01X1903852D01*
X1820734Y1495088D02*
G01X1903462D01*
X1890993Y1504988D02*
G01X1903450D01*
X1840706Y1612988D02*
G01X1903355D01*
X1840988Y1603988D02*
G01X1903084D01*
X1821602Y1495988D02*
G01X1902779D01*
X1819992Y1504088D02*
G01X1902770D01*
X1841362Y1612088D02*
G01X1902723D01*
X1841566Y1604888D02*
G01X1902526D01*
X1896366Y1496888D02*
G01X1902282D01*
X1820048Y1503188D02*
G01X1902276D01*
X1841833Y1611188D02*
G01X1902267D01*
X1841976Y1605788D02*
G01X1902129D01*
X1842156Y1610288D02*
G01X1901953D01*
X1897108Y1497788D02*
G01X1901931D01*
X1821127Y1502288D02*
G01X1901927D01*
X1842247Y1606688D02*
G01X1901864D01*
X1842352Y1609388D02*
G01X1901762D01*
X1842397Y1607588D02*
G01X1901719D01*
X1897348Y1498688D02*
G01X1901707D01*
X1821839Y1501388D02*
G01X1901704D01*
X1842431Y1608488D02*
G01X1901685D01*
X1897246Y1499588D02*
G01X1901597D01*
X1896744Y1500488D02*
G01X1901596D01*
X1819992Y1504988D02*
G01X1888543D01*
X1819992Y1505888D02*
G01X1887635D01*
X1819992Y1506788D02*
G01X1887323D01*
X1819992Y1507688D02*
G01X1886555D01*
X1820135Y1508588D02*
G01X1885655D01*
X1837574Y1517588D02*
G01X1885478D01*
X1820158Y1509488D02*
G01X1884916D01*
X1829220Y1513088D02*
G01X1884740D01*
X1828909Y1512188D02*
G01X1884740D01*
X1828002Y1511288D02*
G01X1884740D01*
X1819826Y1510388D02*
G01X1884740D01*
X1829180Y1513988D02*
G01X1884592D01*
X1829047Y1516688D02*
G01X1884513D01*
X1829047Y1514888D02*
G01X1884203D01*
X1829047Y1515788D02*
G01X1884180D01*
X1741420Y1545488D02*
G01X1846287D01*
X1724126Y1541888D02*
G01X1846157D01*
X1788503Y1540988D02*
G01X1846157D01*
X1843543Y1540088D02*
G01X1846157D01*
X1844591Y1539188D02*
G01X1846157D01*
X1844951Y1538288D02*
G01X1846157D01*
X1844950Y1537388D02*
G01X1846157D01*
X1844589Y1536488D02*
G01X1846157D01*
X1843535Y1535588D02*
G01X1846157D01*
X1842585Y1534688D02*
G01X1846157D01*
X1841685Y1533788D02*
G01X1846157D01*
X1840785Y1532888D02*
G01X1846157D01*
X1839885Y1531988D02*
G01X1845827D01*
X1724126Y1542788D02*
G01X1845760D01*
X1724126Y1544588D02*
G01X1845715D01*
X1724126Y1543688D02*
G01X1845568D01*
X1838985Y1531088D02*
G01X1844927D01*
X1838085Y1530188D02*
G01X1844027D01*
X1837512Y1579688D02*
G01X1843442D01*
X1837185Y1529288D02*
G01X1843127D01*
X1837512Y1580588D02*
G01X1842443D01*
X1836285Y1528388D02*
G01X1842227D01*
X1837505Y1581488D02*
G01X1841543D01*
X1789238Y1540088D02*
G01X1841504D01*
X1835385Y1527488D02*
G01X1841327D01*
X1837168Y1582388D02*
G01X1840643D01*
X1789475Y1539188D02*
G01X1840456D01*
X1834485Y1526588D02*
G01X1840427D01*
X1789369Y1538288D02*
G01X1839759D01*
X1837070Y1583288D02*
G01X1839740D01*
X1833585Y1525688D02*
G01X1839527D01*
X1788863Y1537388D02*
G01X1838859D01*
X1832685Y1524788D02*
G01X1838627D01*
X1787144Y1536488D02*
G01X1837959D01*
X1831785Y1523888D02*
G01X1837727D01*
X1792280Y1535588D02*
G01X1837059D01*
X1830885Y1522988D02*
G01X1836827D01*
X1793118Y1534688D02*
G01X1836159D01*
X1829985Y1522088D02*
G01X1835927D01*
X1793402Y1533788D02*
G01X1835259D01*
X1793338Y1532888D02*
G01X1834359D01*
X1829111Y1521188D02*
G01X1834199D01*
X1829047Y1517588D02*
G01X1834087D01*
X1829047Y1520288D02*
G01X1833553D01*
X1829047Y1518488D02*
G01X1833512D01*
X1792893Y1531988D02*
G01X1833459D01*
X1829047Y1519388D02*
G01X1833363D01*
X1791431Y1531088D02*
G01X1832559D01*
X1733782Y1601288D02*
G01X1831723D01*
X1790284Y1530188D02*
G01X1831659D01*
X1789384Y1529288D02*
G01X1830759D01*
X1791611Y1614788D02*
G01X1830120D01*
X1788484Y1528388D02*
G01X1829859D01*
X1789201Y1602188D02*
G01X1829499D01*
X1787584Y1527488D02*
G01X1828959D01*
X1792576Y1613888D02*
G01X1828728D01*
X1791158Y1603088D02*
G01X1828327D01*
X1786684Y1526588D02*
G01X1828059D01*
X1793260Y1612988D02*
G01X1827806D01*
X1792269Y1603988D02*
G01X1827524D01*
X1786219Y1525688D02*
G01X1827159D01*
X1793751Y1612088D02*
G01X1827149D01*
X1793040Y1604888D02*
G01X1826946D01*
X1794092Y1611188D02*
G01X1826679D01*
X1793594Y1605788D02*
G01X1826536D01*
X1794303Y1610288D02*
G01X1826355D01*
X1793985Y1606688D02*
G01X1826264D01*
X1785712Y1524788D02*
G01X1826259D01*
X1794396Y1609388D02*
G01X1826160D01*
X1794241Y1607588D02*
G01X1826115D01*
X1794376Y1608488D02*
G01X1826081D01*
X1818863Y1511288D02*
G01X1825549D01*
X1724126Y1523888D02*
G01X1825359D01*
X1724126Y1522988D02*
G01X1824688D01*
X1808264Y1512188D02*
G01X1824642D01*
X1724126Y1522088D02*
G01X1824504D01*
X1724126Y1521188D02*
G01X1824504D01*
X1724126Y1520288D02*
G01X1824504D01*
X1724126Y1519388D02*
G01X1824504D01*
X1724126Y1518488D02*
G01X1824504D01*
X1724126Y1517588D02*
G01X1824504D01*
X1724126Y1516688D02*
G01X1824504D01*
X1724126Y1515788D02*
G01X1824504D01*
X1724126Y1514888D02*
G01X1824504D01*
X1797704Y1513988D02*
G01X1824371D01*
X1798599Y1513088D02*
G01X1824331D01*
X1803558Y1565288D02*
G01X1818677D01*
X1724126Y1560788D02*
G01X1818670D01*
X1808950Y1511288D02*
G01X1816578D01*
X1808936Y1494188D02*
G01X1816505D01*
X1809221Y1510388D02*
G01X1815615D01*
X1809598Y1507688D02*
G01X1815449D01*
X1809598Y1506788D02*
G01X1815449D01*
X1809598Y1505888D02*
G01X1815449D01*
X1809598Y1504988D02*
G01X1815449D01*
X1809598Y1504088D02*
G01X1815449D01*
X1809873Y1503188D02*
G01X1815393D01*
X1809598Y1508588D02*
G01X1815306D01*
X1809584Y1509488D02*
G01X1815283D01*
X1810734Y1495088D02*
G01X1814707D01*
X1811127Y1502288D02*
G01X1814313D01*
X1811602Y1495988D02*
G01X1813839D01*
X1811839Y1501388D02*
G01X1813602D01*
X1812129Y1496888D02*
G01X1813312D01*
X1812273Y1500488D02*
G01X1813168D01*
X1798936Y1494188D02*
G01X1806505D01*
X1794049Y1506788D02*
G01X1805842D01*
X1793149Y1505888D02*
G01X1805842D01*
X1792249Y1504988D02*
G01X1805842D01*
X1791349Y1504088D02*
G01X1805842D01*
X1794949Y1507688D02*
G01X1805840D01*
X1799873Y1503188D02*
G01X1805568D01*
X1775635Y1570688D02*
G01X1805554D01*
X1801539Y1584188D02*
G01X1805239D01*
X1724126Y1594088D02*
G01X1805219D01*
X1798907Y1512188D02*
G01X1805130D01*
X1795849Y1508588D02*
G01X1804900D01*
X1800734Y1495088D02*
G01X1804707D01*
X1775219Y1571588D02*
G01X1804592D01*
X1800639Y1585088D02*
G01X1804528D01*
X1798863Y1511288D02*
G01X1804443D01*
X1724126Y1593188D02*
G01X1804433D01*
X1797160Y1509488D02*
G01X1804359D01*
X1801127Y1502288D02*
G01X1804313D01*
X1798446Y1510388D02*
G01X1804231D01*
X1799739Y1585988D02*
G01X1804231D01*
X1724126Y1592288D02*
G01X1804228D01*
X1724126Y1591388D02*
G01X1804228D01*
X1774373Y1590488D02*
G01X1804228D01*
X1775273Y1589588D02*
G01X1804228D01*
X1776173Y1588688D02*
G01X1804228D01*
X1777073Y1587788D02*
G01X1804228D01*
X1798774Y1586888D02*
G01X1804228D01*
X1801602Y1495988D02*
G01X1803839D01*
X1773940Y1572488D02*
G01X1803692D01*
X1801839Y1501388D02*
G01X1803602D01*
X1802129Y1496888D02*
G01X1803312D01*
X1802273Y1500488D02*
G01X1803168D01*
X1768686Y1573388D02*
G01X1802792D01*
X1767786Y1574288D02*
G01X1801862D01*
X1741995Y1561688D02*
G01X1801847D01*
X1742547Y1562588D02*
G01X1800946D01*
X1742690Y1563488D02*
G01X1800046D01*
X1742503Y1564388D02*
G01X1799146D01*
X1775678Y1569788D02*
G01X1798339D01*
X1741878Y1565288D02*
G01X1797492D01*
X1775370Y1568888D02*
G01X1796878D01*
X1724126Y1566188D02*
G01X1796654D01*
X1788936Y1494188D02*
G01X1796505D01*
X1774471Y1567988D02*
G01X1796434D01*
X1724126Y1567088D02*
G01X1796370D01*
X1790538Y1503188D02*
G01X1795568D01*
X1724126Y1513988D02*
G01X1795217D01*
X1790734Y1495088D02*
G01X1794707D01*
X1724126Y1513088D02*
G01X1794322D01*
X1791127Y1502288D02*
G01X1794313D01*
X1724126Y1512188D02*
G01X1794014D01*
X1791602Y1495988D02*
G01X1793839D01*
X1791839Y1501388D02*
G01X1793602D01*
X1792129Y1496888D02*
G01X1793312D01*
X1724126Y1511288D02*
G01X1793237D01*
X1792273Y1500488D02*
G01X1793168D01*
X1724126Y1510388D02*
G01X1792337D01*
X1724126Y1509488D02*
G01X1791437D01*
X1724126Y1508588D02*
G01X1790537D01*
X1724126Y1507688D02*
G01X1789637D01*
X1786235Y1535588D02*
G01X1789618D01*
X1785335Y1534688D02*
G01X1788780D01*
X1734429Y1506788D02*
G01X1788737D01*
X1784435Y1533788D02*
G01X1788489D01*
X1736108Y1505888D02*
G01X1787837D01*
X1783535Y1532888D02*
G01X1787672D01*
X1761802Y1504988D02*
G01X1786937D01*
X1782635Y1531988D02*
G01X1786772D01*
X1778936Y1494188D02*
G01X1786505D01*
X1762975Y1504088D02*
G01X1786114D01*
X1781735Y1531088D02*
G01X1785872D01*
X1779873Y1503188D02*
G01X1785568D01*
X1724126Y1540988D02*
G01X1785521D01*
X1780857Y1530188D02*
G01X1784972D01*
X1724126Y1540088D02*
G01X1784786D01*
X1780734Y1495088D02*
G01X1784707D01*
X1724126Y1539188D02*
G01X1784502D01*
X1781127Y1502288D02*
G01X1784313D01*
X1780574Y1529288D02*
G01X1784072D01*
X1781602Y1495988D02*
G01X1783839D01*
X1724126Y1538288D02*
G01X1783623D01*
X1781839Y1501388D02*
G01X1783602D01*
X1782129Y1496888D02*
G01X1783312D01*
X1735818Y1602188D02*
G01X1783248D01*
X1782273Y1500488D02*
G01X1783168D01*
X1724126Y1537388D02*
G01X1782723D01*
X1779836Y1528388D02*
G01X1782369D01*
X1724126Y1524788D02*
G01X1782012D01*
X1724126Y1536488D02*
G01X1781823D01*
X1724126Y1527488D02*
G01X1781636D01*
X1724126Y1525688D02*
G01X1781505D01*
X1724126Y1526588D02*
G01X1781399D01*
X1736955Y1603088D02*
G01X1781291D01*
X1724126Y1535588D02*
G01X1780923D01*
X1735221Y1614788D02*
G01X1780838D01*
X1737742Y1603988D02*
G01X1780179D01*
X1724126Y1534688D02*
G01X1780023D01*
X1736564Y1613888D02*
G01X1779873D01*
X1738311Y1604888D02*
G01X1779409D01*
X1737465Y1612988D02*
G01X1779189D01*
X1724126Y1533788D02*
G01X1779123D01*
X1738715Y1605788D02*
G01X1778855D01*
X1738110Y1612088D02*
G01X1778697D01*
X1738984Y1606688D02*
G01X1778464D01*
X1738575Y1611188D02*
G01X1778357D01*
X1724126Y1532888D02*
G01X1778213D01*
X1739131Y1607588D02*
G01X1778208D01*
X1738894Y1610288D02*
G01X1778146D01*
X1739165Y1608488D02*
G01X1778073D01*
X1739087Y1609388D02*
G01X1778053D01*
X1724126Y1528388D02*
G01X1776865D01*
X1762739Y1494188D02*
G01X1776505D01*
X1724126Y1531988D02*
G01X1776495D01*
X1724126Y1529288D02*
G01X1776126D01*
X1724126Y1531088D02*
G01X1775992D01*
X1724126Y1530188D02*
G01X1775888D01*
X1763605Y1503188D02*
G01X1775568D01*
X1763471Y1495088D02*
G01X1774707D01*
X1763951Y1502288D02*
G01X1774313D01*
X1763882Y1495988D02*
G01X1773839D01*
X1764084Y1501388D02*
G01X1773602D01*
X1764068Y1496888D02*
G01X1773312D01*
X1764087Y1500488D02*
G01X1773171D01*
X1764087Y1497788D02*
G01X1773011D01*
X1764087Y1499588D02*
G01X1772944D01*
X1764087Y1498688D02*
G01X1772893D01*
X1769586Y1572488D02*
G01X1772524D01*
X1724126Y1567988D02*
G01X1771993D01*
X1724126Y1558988D02*
G01X1771245D01*
X1724126Y1558088D02*
G01X1771157D01*
X1724126Y1557188D02*
G01X1771157D01*
X1766886Y1575188D02*
G01X1769496D01*
X1765986Y1576088D02*
G01X1768596D01*
X1724126Y1568888D02*
G01X1767875D01*
X1765086Y1576988D02*
G01X1767696D01*
X1724126Y1569788D02*
G01X1766975D01*
X1764186Y1577888D02*
G01X1766796D01*
X1724126Y1570688D02*
G01X1766075D01*
X1763286Y1578788D02*
G01X1765896D01*
X1724126Y1571588D02*
G01X1765175D01*
X1762386Y1579688D02*
G01X1764996D01*
X1724126Y1590488D02*
G01X1764611D01*
X1724126Y1572488D02*
G01X1764275D01*
X1761486Y1580588D02*
G01X1764243D01*
X1724126Y1589588D02*
G01X1764112D01*
X1724126Y1588688D02*
G01X1764071D01*
X1724126Y1587788D02*
G01X1764071D01*
X1724126Y1586888D02*
G01X1764071D01*
X1724126Y1585988D02*
G01X1764071D01*
X1757807Y1585088D02*
G01X1764071D01*
X1758283Y1584188D02*
G01X1764071D01*
X1758786Y1583288D02*
G01X1764071D01*
X1759686Y1582388D02*
G01X1764071D01*
X1760586Y1581488D02*
G01X1764071D01*
X1724126Y1573388D02*
G01X1763375D01*
X1724126Y1574288D02*
G01X1762475D01*
X1724126Y1575188D02*
G01X1761575D01*
X1724126Y1576088D02*
G01X1760675D01*
X1724126Y1576988D02*
G01X1759775D01*
X1724126Y1577888D02*
G01X1758875D01*
X1755673Y1493288D02*
G01X1758441D01*
X1724126Y1578788D02*
G01X1757975D01*
X1755926Y1504988D02*
G01X1757891D01*
X1724126Y1579688D02*
G01X1757075D01*
X1756311Y1494188D02*
G01X1756953D01*
X1724126Y1580588D02*
G01X1756175D01*
X1724126Y1556288D02*
G01X1754743D01*
X1724126Y1552688D02*
G01X1754501D01*
X1724126Y1581488D02*
G01X1754492D01*
X1724126Y1555388D02*
G01X1754052D01*
X1724126Y1585088D02*
G01X1754012D01*
X1724126Y1553588D02*
G01X1753963D01*
X1724126Y1554488D02*
G01X1753837D01*
X1724126Y1582388D02*
G01X1753710D01*
X1724126Y1584188D02*
G01X1753536D01*
X1724126Y1583288D02*
G01X1753451D01*
X1734395Y1493288D02*
G01X1748272D01*
X1737135Y1504988D02*
G01X1748019D01*
X1736090Y1494188D02*
G01X1747741D01*
X1737856Y1504088D02*
G01X1747732D01*
X1738376Y1503188D02*
G01X1747732D01*
X1738740Y1502288D02*
G01X1747732D01*
X1738972Y1501388D02*
G01X1747732D01*
X1739085Y1500488D02*
G01X1747732D01*
X1739084Y1499588D02*
G01X1747732D01*
X1738969Y1498688D02*
G01X1747732D01*
X1738736Y1497788D02*
G01X1747732D01*
X1738370Y1496888D02*
G01X1747732D01*
X1737848Y1495988D02*
G01X1747732D01*
X1737122Y1495088D02*
G01X1747732D01*
X1724126Y1549988D02*
G01X1739121D01*
X1724126Y1545488D02*
G01X1738903D01*
X1724126Y1565288D02*
G01X1738445D01*
X1724126Y1561688D02*
G01X1738328D01*
X1724126Y1549088D02*
G01X1738058D01*
X1724126Y1546388D02*
G01X1737988D01*
X1724126Y1564388D02*
G01X1737820D01*
X1724126Y1562588D02*
G01X1737776D01*
X1724126Y1548188D02*
G01X1737683D01*
X1724126Y1547288D02*
G01X1737663D01*
X1724126Y1563488D02*
G01X1737633D01*
X1724126Y1601288D02*
G01X1730005D01*
X1724126Y1493288D02*
G01X1729393D01*
X1724126Y1506788D02*
G01X1729358D01*
X1724126Y1602188D02*
G01X1727970D01*
X1724126Y1494188D02*
G01X1727698D01*
X1724126Y1505888D02*
G01X1727680D01*
X1724126Y1603088D02*
G01X1726833D01*
X1724126Y1495088D02*
G01X1726665D01*
X1724126Y1504988D02*
G01X1726653D01*
X1724126Y1603988D02*
G01X1726045D01*
X1724126Y1495988D02*
G01X1725940D01*
X1724126Y1504088D02*
G01X1725931D01*
X1724126Y1604888D02*
G01X1725477D01*
X1724126Y1496888D02*
G01X1725417D01*
X1724126Y1503188D02*
G01X1725411D01*
X1724184Y1605788D02*
G01X1725068D01*
X1724227Y1497788D02*
G01X1725025D01*
X1724237Y1502288D02*
G01X1725015D01*
X2543075Y1224375D02*
G01Y1314375D01*
X2113875*
Y1224375*
X2543075*
X2542875Y1274375D02*
G01X2113875D01*
X2542875Y1239375D02*
G01X2113875D01*
X2206875Y1274375D02*
G01Y1239375D01*
X2256875Y1274375D02*
G01Y1239375D01*
X2349875D02*
G01Y1274375D01*
X2399875D02*
G01Y1239375D01*
X2492875Y1274375D02*
G01Y1239375D01*
X2442875D02*
G01Y1224375D01*
X2382875D02*
G01Y1239375D01*
X2332875D02*
G01Y1224375D01*
X2262875D02*
G01Y1239375D01*
X1453075Y1224375D02*
G01X2543075D01*
Y1974375*
X1453075*
Y1224375*
X1463075*
X1433075Y1204375D02*
G01X2563075D01*
Y1994375*
X1433075*
Y1204375*
X1493075*
X1725475Y1224375D02*
G01Y1204375D01*
X1998075Y1224375D02*
G01Y1204375D01*
X2270675Y1224375D02*
G01Y1204375D01*
X1433075Y1411975D02*
G01X1453075D01*
Y1599375D02*
G01X1433075D01*
X1453075Y1786975D02*
G01X1433075D01*
X1725475Y1974375D02*
G01Y1994375D01*
X1998075D02*
G01Y1974375D01*
X2270675D02*
G01Y1994375D01*
X2543075Y1786975D02*
G01X2563075D01*
Y1599375D02*
G01X2543075D01*
Y1411975D02*
G01X2563075D01*
X2113875Y1314375D02*
G01Y1354375D01*
X2543075*
X2451257Y1234000D02*
G01X2450802Y1234625D01*
X2450120Y1234938*
Y1234938D02*
G01X2449211D01*
Y1234938D02*
G01X2448529Y1234625D01*
X2448075Y1234000*
Y1233375*
X2448302Y1232750*
X2448529Y1232438*
Y1232438D02*
G01X2448984Y1232125D01*
X2450348Y1231500*
X2450802Y1231188*
Y1231188D02*
G01X2451029Y1230875D01*
X2451257Y1230250*
Y1229313*
Y1229313D02*
G01X2450802Y1228688D01*
Y1228688D02*
G01X2450120Y1228375D01*
X2449211*
X2448529Y1228688*
Y1228688D02*
G01X2448075Y1229313D01*
X2453302Y1234938D02*
G01Y1228375D01*
X2456484Y1234938D02*
G01Y1228375D01*
X2453302Y1231813D02*
G01X2456484D01*
X2458529Y1234938D02*
G01Y1228375D01*
Y1234938D02*
G01X2461484D01*
X2458529Y1231813D02*
G01X2460348D01*
X2458529Y1228375D02*
G01X2461484D01*
X2463529Y1234938D02*
G01Y1228375D01*
Y1234938D02*
G01X2466484D01*
X2463529Y1231813D02*
G01X2465348D01*
X2463529Y1228375D02*
G01X2466484D01*
X2470120Y1234938D02*
G01Y1228375D01*
X2468529Y1234938D02*
G01X2471711D01*
X2473984Y1232750D02*
G01X2473757Y1232438D01*
Y1232438D02*
G01X2473984Y1232125D01*
X2474211Y1232438*
Y1232438D02*
G01X2473984Y1232750D01*
Y1229000D02*
G01X2473757Y1228688D01*
Y1228688D02*
G01X2473984Y1228375D01*
X2474211Y1228688*
Y1228688D02*
G01X2473984Y1229000D01*
X2481484Y1233688D02*
G01X2481938Y1234000D01*
X2482620Y1234938*
Y1234938D02*
G01Y1228375D01*
X2491257Y1234938D02*
G01X2490802Y1234625D01*
X2490348Y1234000*
X2490120Y1233375*
X2489893Y1232438*
Y1232438D02*
G01Y1230875D01*
X2490120Y1229938*
Y1229938D02*
G01X2490348Y1229313D01*
Y1229313D02*
G01X2490802Y1228688D01*
Y1228688D02*
G01X2491257Y1228375D01*
X2492166*
X2492620Y1228688*
Y1228688D02*
G01X2493075Y1229313D01*
Y1229313D02*
G01X2493302Y1229938D01*
Y1229938D02*
G01X2493529Y1230875D01*
Y1232438*
Y1232438D02*
G01X2493302Y1233375D01*
X2493075Y1234000*
X2492620Y1234625*
X2492166Y1234938*
Y1234938D02*
G01X2491257D01*
X2495575D02*
G01Y1228375D01*
Y1234938D02*
G01X2498529D01*
X2495575Y1231813D02*
G01X2497393D01*
X2505802Y1233688D02*
G01X2506257Y1234000D01*
X2506938Y1234938*
Y1234938D02*
G01Y1228375D01*
X2215257Y1252375D02*
G01Y1252625D01*
X2215438Y1253125*
X2215620Y1253375*
X2215984Y1253625*
X2216711*
X2217075Y1253375*
X2217257Y1253125*
X2217438Y1252625*
Y1252125*
X2217257Y1251625*
X2216893Y1250875*
X2215075Y1248375*
X2217620*
X2220348Y1253625D02*
G01X2219802Y1253375D01*
X2219438Y1252625*
X2219257Y1251375*
Y1250625*
X2219438Y1249375*
X2219802Y1248625*
X2220348Y1248375*
X2220711*
X2221257Y1248625*
X2221620Y1249375*
X2221802Y1250625*
Y1251375*
X2221620Y1252625*
X2221257Y1253375*
X2220711Y1253625*
X2220348*
X2223438Y1252625D02*
G01X2223802Y1252875D01*
X2224348Y1253625*
Y1248375*
X2228529Y1253625D02*
G01X2226711Y1248375D01*
X2225984Y1253625D02*
G01X2228529D01*
X2230348Y1248875D02*
G01X2230166Y1248625D01*
X2230348Y1248375*
X2230529Y1248625*
X2230348Y1248875*
X2233257Y1253625D02*
G01X2232711Y1253375D01*
X2232348Y1252625*
X2232166Y1251375*
Y1250625*
X2232348Y1249375*
X2232711Y1248625*
X2233257Y1248375*
X2233620*
X2234166Y1248625*
X2234529Y1249375*
X2234711Y1250625*
Y1251375*
X2234529Y1252625*
X2234166Y1253375*
X2233620Y1253625*
X2233257*
X2237257D02*
G01X2236711Y1253375D01*
X2236529Y1252875*
Y1252375*
X2236711Y1251875*
X2237075Y1251625*
X2237802Y1251375*
X2238348Y1251125*
X2238711Y1250625*
X2238893Y1250125*
Y1249375*
X2238711Y1248875*
X2238529Y1248625*
X2237984Y1248375*
X2237257*
X2236711Y1248625*
X2236529Y1248875*
X2236348Y1249375*
Y1250125*
X2236529Y1250625*
X2236893Y1251125*
X2237438Y1251375*
X2238166Y1251625*
X2238529Y1251875*
X2238711Y1252375*
Y1252875*
X2238529Y1253375*
X2237984Y1253625*
X2237257*
X2240711Y1248875D02*
G01X2240529Y1248625D01*
X2240711Y1248375*
X2240893Y1248625*
X2240711Y1248875*
X2242529Y1252625D02*
G01X2242893Y1252875D01*
X2243438Y1253625*
Y1248375*
X2247438Y1253625D02*
G01X2245620D01*
X2245438Y1251375*
X2245620Y1251625*
X2246166Y1251875*
X2246711*
X2247257Y1251625*
X2247620Y1251125*
X2247802Y1250375*
X2247620Y1249875*
X2247438Y1249125*
X2247075Y1248625*
X2246529Y1248375*
X2245984*
X2245438Y1248625*
X2245257Y1248875*
X2245075Y1249375*
X2271257Y1234000D02*
G01X2270802Y1234625D01*
X2270120Y1234938*
Y1234938D02*
G01X2269211D01*
Y1234938D02*
G01X2268529Y1234625D01*
X2268075Y1234000*
Y1233375*
X2268302Y1232750*
X2268529Y1232438*
Y1232438D02*
G01X2268984Y1232125D01*
X2270348Y1231500*
X2270802Y1231188*
Y1231188D02*
G01X2271029Y1230875D01*
X2271257Y1230250*
Y1229313*
Y1229313D02*
G01X2270802Y1228688D01*
Y1228688D02*
G01X2270120Y1228375D01*
X2269211*
X2268529Y1228688*
Y1228688D02*
G01X2268075Y1229313D01*
X2276711Y1233375D02*
G01X2276484Y1234000D01*
X2276029Y1234625*
X2275575Y1234938*
Y1234938D02*
G01X2274666D01*
Y1234938D02*
G01X2274211Y1234625D01*
X2273757Y1234000*
X2273529Y1233375*
X2273302Y1232438*
Y1232438D02*
G01Y1230875D01*
X2273529Y1229938*
Y1229938D02*
G01X2273757Y1229313D01*
Y1229313D02*
G01X2274211Y1228688D01*
Y1228688D02*
G01X2274666Y1228375D01*
X2275575*
X2276029Y1228688*
Y1228688D02*
G01X2276484Y1229313D01*
Y1229313D02*
G01X2276711Y1229938D01*
X2280575Y1234938D02*
G01X2278757Y1228375D01*
X2280575Y1234938D02*
G01X2282393Y1228375D01*
X2279438Y1230563D02*
G01X2281711D01*
X2284438Y1234938D02*
G01Y1228375D01*
X2287166*
X2289211Y1234938D02*
G01Y1228375D01*
Y1234938D02*
G01X2292166D01*
X2289211Y1231813D02*
G01X2291029D01*
X2289211Y1228375D02*
G01X2292166D01*
X2294438Y1232750D02*
G01X2294211Y1232438D01*
Y1232438D02*
G01X2294438Y1232125D01*
X2294666Y1232438*
Y1232438D02*
G01X2294438Y1232750D01*
Y1229000D02*
G01X2294211Y1228688D01*
Y1228688D02*
G01X2294438Y1228375D01*
X2294666Y1228688*
Y1228688D02*
G01X2294438Y1229000D01*
X2296711Y1233688D02*
G01X2297166Y1234000D01*
X2297848Y1234938*
Y1234938D02*
G01Y1228375D01*
X2300120Y1232750D02*
G01X2299893Y1232438D01*
Y1232438D02*
G01X2300120Y1232125D01*
X2300348Y1232438*
Y1232438D02*
G01X2300120Y1232750D01*
Y1229000D02*
G01X2299893Y1228688D01*
Y1228688D02*
G01X2300120Y1228375D01*
X2300348Y1228688*
Y1228688D02*
G01X2300120Y1229000D01*
X2302393Y1233688D02*
G01X2302848Y1234000D01*
X2303529Y1234938*
Y1234938D02*
G01Y1228375D01*
X2341257Y1234000D02*
G01X2340802Y1234625D01*
X2340120Y1234938*
Y1234938D02*
G01X2339211D01*
Y1234938D02*
G01X2338529Y1234625D01*
X2338075Y1234000*
Y1233375*
X2338302Y1232750*
X2338529Y1232438*
Y1232438D02*
G01X2338984Y1232125D01*
X2340348Y1231500*
X2340802Y1231188*
Y1231188D02*
G01X2341029Y1230875D01*
X2341257Y1230250*
Y1229313*
Y1229313D02*
G01X2340802Y1228688D01*
Y1228688D02*
G01X2340120Y1228375D01*
X2339211*
X2338529Y1228688*
Y1228688D02*
G01X2338075Y1229313D01*
X2343302Y1234938D02*
G01Y1228375D01*
X2348529Y1234938D02*
G01X2345348Y1228375D01*
Y1234938D02*
G01X2348529D01*
X2345348Y1228375D02*
G01X2348529D01*
X2350575Y1234938D02*
G01Y1228375D01*
Y1234938D02*
G01X2353529D01*
X2350575Y1231813D02*
G01X2352393D01*
X2350575Y1228375D02*
G01X2353529D01*
X2355802Y1232750D02*
G01X2355575Y1232438D01*
Y1232438D02*
G01X2355802Y1232125D01*
X2356029Y1232438*
Y1232438D02*
G01X2355802Y1232750D01*
Y1229000D02*
G01X2355575Y1228688D01*
Y1228688D02*
G01X2355802Y1228375D01*
X2356029Y1228688*
Y1228688D02*
G01X2355802Y1229000D01*
X2359893Y1234938D02*
G01X2358075Y1228375D01*
X2359893Y1234938D02*
G01X2361711Y1228375D01*
X2358757Y1230563D02*
G01X2361029D01*
X2366029Y1234938D02*
G01X2363757Y1230563D01*
Y1230563D02*
G01X2367166D01*
X2366029Y1234938D02*
G01Y1228375D01*
X2120466Y1309938D02*
G01Y1303375D01*
X2118875Y1309938D02*
G01X2122057D01*
X2124102D02*
G01Y1303375D01*
X2127738Y1309938D02*
G01Y1303375D01*
X2126148Y1309938D02*
G01X2129329D01*
X2131375D02*
G01Y1303375D01*
X2134102*
X2136148Y1309938D02*
G01Y1303375D01*
Y1309938D02*
G01X2139102D01*
X2136148Y1306813D02*
G01X2137966D01*
X2136148Y1303375D02*
G01X2139102D01*
X2141375Y1307750D02*
G01X2141148Y1307438D01*
Y1307438D02*
G01X2141375Y1307125D01*
X2141602Y1307438*
Y1307438D02*
G01X2141375Y1307750D01*
Y1304000D02*
G01X2141148Y1303688D01*
Y1303688D02*
G01X2141375Y1303375D01*
X2141602Y1303688*
Y1303688D02*
G01X2141375Y1304000D01*
X2118875Y1269938D02*
G01Y1263375D01*
Y1269938D02*
G01X2120466D01*
Y1269938D02*
G01X2121148Y1269625D01*
X2121602Y1269000*
X2121829Y1268375*
X2122057Y1267438*
Y1267438D02*
G01Y1265875D01*
X2121829Y1264938*
Y1264938D02*
G01X2121602Y1264313D01*
Y1264313D02*
G01X2121148Y1263688D01*
Y1263688D02*
G01X2120466Y1263375D01*
X2118875*
X2124102Y1269938D02*
G01Y1263375D01*
Y1269938D02*
G01X2126148D01*
Y1269938D02*
G01X2126829Y1269625D01*
X2127057Y1269313*
Y1269313D02*
G01X2127284Y1268688D01*
Y1268688D02*
G01Y1268063D01*
Y1268063D02*
G01X2127057Y1267438D01*
Y1267438D02*
G01X2126829Y1267125D01*
X2126148Y1266813*
Y1266813D02*
G01X2124102D01*
X2125693D02*
G01X2127284Y1263375D01*
X2131148Y1269938D02*
G01X2129329Y1263375D01*
X2131148Y1269938D02*
G01X2132966Y1263375D01*
X2130011Y1265563D02*
G01X2132284D01*
X2135011Y1269938D02*
G01X2136148Y1263375D01*
X2137284Y1269938D02*
G01X2136148Y1263375D01*
X2137284Y1269938D02*
G01X2138420Y1263375D01*
X2139557Y1269938D02*
G01X2138420Y1263375D01*
X2141602Y1269938D02*
G01Y1263375D01*
Y1269938D02*
G01X2144784Y1263375D01*
Y1269938D02*
G01Y1263375D01*
X2147057Y1267750D02*
G01X2146829Y1267438D01*
Y1267438D02*
G01X2147057Y1267125D01*
X2147284Y1267438*
Y1267438D02*
G01X2147057Y1267750D01*
Y1264000D02*
G01X2146829Y1263688D01*
Y1263688D02*
G01X2147057Y1263375D01*
X2147284Y1263688*
Y1263688D02*
G01X2147057Y1264000D01*
X2211875Y1269938D02*
G01Y1263375D01*
Y1269938D02*
G01X2213466D01*
Y1269938D02*
G01X2214148Y1269625D01*
X2214602Y1269000*
X2214829Y1268375*
X2215057Y1267438*
Y1267438D02*
G01Y1265875D01*
X2214829Y1264938*
Y1264938D02*
G01X2214602Y1264313D01*
Y1264313D02*
G01X2214148Y1263688D01*
Y1263688D02*
G01X2213466Y1263375D01*
X2211875*
X2218920Y1269938D02*
G01X2217102Y1263375D01*
X2218920Y1269938D02*
G01X2220738Y1263375D01*
X2217784Y1265563D02*
G01X2220057D01*
X2224375Y1269938D02*
G01Y1263375D01*
X2222784Y1269938D02*
G01X2225966D01*
X2228011D02*
G01Y1263375D01*
Y1269938D02*
G01X2230966D01*
X2228011Y1266813D02*
G01X2229829D01*
X2228011Y1263375D02*
G01X2230966D01*
X2233011Y1269938D02*
G01Y1263375D01*
Y1269938D02*
G01X2234602D01*
Y1269938D02*
G01X2235284Y1269625D01*
X2235738Y1269000*
X2235966Y1268375*
X2236193Y1267438*
Y1267438D02*
G01Y1265875D01*
X2235966Y1264938*
Y1264938D02*
G01X2235738Y1264313D01*
Y1264313D02*
G01X2235284Y1263688D01*
Y1263688D02*
G01X2234602Y1263375D01*
X2233011*
X2238466Y1267750D02*
G01X2238238Y1267438D01*
Y1267438D02*
G01X2238466Y1267125D01*
X2238693Y1267438*
Y1267438D02*
G01X2238466Y1267750D01*
Y1264000D02*
G01X2238238Y1263688D01*
Y1263688D02*
G01X2238466Y1263375D01*
X2238693Y1263688*
Y1263688D02*
G01X2238466Y1264000D01*
X2265284Y1268375D02*
G01X2265057Y1269000D01*
X2264602Y1269625*
X2264148Y1269938*
Y1269938D02*
G01X2263238D01*
Y1269938D02*
G01X2262784Y1269625D01*
X2262329Y1269000*
X2262102Y1268375*
X2261875Y1267438*
Y1267438D02*
G01Y1265875D01*
X2262102Y1264938*
Y1264938D02*
G01X2262329Y1264313D01*
Y1264313D02*
G01X2262784Y1263688D01*
Y1263688D02*
G01X2263238Y1263375D01*
X2264148*
X2264602Y1263688*
Y1263688D02*
G01X2265057Y1264313D01*
Y1264313D02*
G01X2265284Y1264938D01*
X2267329Y1269938D02*
G01Y1263375D01*
X2270511Y1269938D02*
G01Y1263375D01*
X2267329Y1266813D02*
G01X2270511D01*
X2272557Y1269938D02*
G01Y1263375D01*
Y1269938D02*
G01X2275511D01*
X2272557Y1266813D02*
G01X2274375D01*
X2272557Y1263375D02*
G01X2275511D01*
X2280966Y1268375D02*
G01X2280738Y1269000D01*
X2280284Y1269625*
X2279829Y1269938*
Y1269938D02*
G01X2278920D01*
Y1269938D02*
G01X2278466Y1269625D01*
X2278011Y1269000*
X2277784Y1268375*
X2277557Y1267438*
Y1267438D02*
G01Y1265875D01*
X2277784Y1264938*
Y1264938D02*
G01X2278011Y1264313D01*
Y1264313D02*
G01X2278466Y1263688D01*
Y1263688D02*
G01X2278920Y1263375D01*
X2279829*
X2280284Y1263688*
Y1263688D02*
G01X2280738Y1264313D01*
Y1264313D02*
G01X2280966Y1264938D01*
X2283011Y1269938D02*
G01Y1263375D01*
X2286193Y1269938D02*
G01X2283011Y1265563D01*
X2284148Y1267125D02*
G01X2286193Y1263375D01*
X2288238Y1269938D02*
G01Y1263375D01*
Y1269938D02*
G01X2291193D01*
X2288238Y1266813D02*
G01X2290057D01*
X2288238Y1263375D02*
G01X2291193D01*
X2293238Y1269938D02*
G01Y1263375D01*
Y1269938D02*
G01X2294829D01*
Y1269938D02*
G01X2295511Y1269625D01*
X2295966Y1269000*
X2296193Y1268375*
X2296420Y1267438*
Y1267438D02*
G01Y1265875D01*
X2296193Y1264938*
Y1264938D02*
G01X2295966Y1264313D01*
Y1264313D02*
G01X2295511Y1263688D01*
Y1263688D02*
G01X2294829Y1263375D01*
X2293238*
X2298693Y1267750D02*
G01X2298466Y1267438D01*
Y1267438D02*
G01X2298693Y1267125D01*
X2298920Y1267438*
Y1267438D02*
G01X2298693Y1267750D01*
Y1264000D02*
G01X2298466Y1263688D01*
Y1263688D02*
G01X2298693Y1263375D01*
X2298920Y1263688*
Y1263688D02*
G01X2298693Y1264000D01*
X2354875Y1269938D02*
G01Y1263375D01*
Y1269938D02*
G01X2356466D01*
Y1269938D02*
G01X2357148Y1269625D01*
X2357602Y1269000*
X2357829Y1268375*
X2358057Y1267438*
Y1267438D02*
G01Y1265875D01*
X2357829Y1264938*
Y1264938D02*
G01X2357602Y1264313D01*
Y1264313D02*
G01X2357148Y1263688D01*
Y1263688D02*
G01X2356466Y1263375D01*
X2354875*
X2361920Y1269938D02*
G01X2360102Y1263375D01*
X2361920Y1269938D02*
G01X2363738Y1263375D01*
X2360784Y1265563D02*
G01X2363057D01*
X2367375Y1269938D02*
G01Y1263375D01*
X2365784Y1269938D02*
G01X2368966D01*
X2371011D02*
G01Y1263375D01*
Y1269938D02*
G01X2373966D01*
X2371011Y1266813D02*
G01X2372829D01*
X2371011Y1263375D02*
G01X2373966D01*
X2376011Y1269938D02*
G01Y1263375D01*
Y1269938D02*
G01X2377602D01*
Y1269938D02*
G01X2378284Y1269625D01*
X2378738Y1269000*
X2378966Y1268375*
X2379193Y1267438*
Y1267438D02*
G01Y1265875D01*
X2378966Y1264938*
Y1264938D02*
G01X2378738Y1264313D01*
Y1264313D02*
G01X2378284Y1263688D01*
Y1263688D02*
G01X2377602Y1263375D01*
X2376011*
X2381466Y1267750D02*
G01X2381238Y1267438D01*
Y1267438D02*
G01X2381466Y1267125D01*
X2381693Y1267438*
Y1267438D02*
G01X2381466Y1267750D01*
Y1264000D02*
G01X2381238Y1263688D01*
Y1263688D02*
G01X2381466Y1263375D01*
X2381693Y1263688*
Y1263688D02*
G01X2381466Y1264000D01*
X2406693Y1269938D02*
G01X2404875Y1263375D01*
X2406693Y1269938D02*
G01X2408511Y1263375D01*
X2405557Y1265563D02*
G01X2407829D01*
X2410557Y1269938D02*
G01Y1263375D01*
Y1269938D02*
G01X2412602D01*
Y1269938D02*
G01X2413284Y1269625D01*
X2413511Y1269313*
Y1269313D02*
G01X2413738Y1268688D01*
Y1268688D02*
G01Y1267750D01*
X2413511Y1267125*
X2413284Y1266813*
Y1266813D02*
G01X2412602Y1266500D01*
X2410557*
X2415784Y1269938D02*
G01Y1263375D01*
Y1269938D02*
G01X2417829D01*
Y1269938D02*
G01X2418511Y1269625D01*
X2418738Y1269313*
Y1269313D02*
G01X2418966Y1268688D01*
Y1268688D02*
G01Y1267750D01*
X2418738Y1267125*
X2418511Y1266813*
Y1266813D02*
G01X2417829Y1266500D01*
X2415784*
X2421011Y1269938D02*
G01Y1263375D01*
Y1269938D02*
G01X2423057D01*
Y1269938D02*
G01X2423738Y1269625D01*
X2423966Y1269313*
Y1269313D02*
G01X2424193Y1268688D01*
Y1268688D02*
G01Y1268063D01*
Y1268063D02*
G01X2423966Y1267438D01*
Y1267438D02*
G01X2423738Y1267125D01*
X2423057Y1266813*
Y1266813D02*
G01X2421011D01*
X2422602D02*
G01X2424193Y1263375D01*
X2427602Y1269938D02*
G01X2427148Y1269625D01*
X2426693Y1269000*
X2426466Y1268375*
X2426238Y1267438*
Y1267438D02*
G01Y1265875D01*
X2426466Y1264938*
Y1264938D02*
G01X2426693Y1264313D01*
Y1264313D02*
G01X2427148Y1263688D01*
Y1263688D02*
G01X2427602Y1263375D01*
X2428511*
X2428966Y1263688*
Y1263688D02*
G01X2429420Y1264313D01*
Y1264313D02*
G01X2429648Y1264938D01*
Y1264938D02*
G01X2429875Y1265875D01*
Y1267438*
Y1267438D02*
G01X2429648Y1268375D01*
X2429420Y1269000*
X2428966Y1269625*
X2428511Y1269938*
Y1269938D02*
G01X2427602D01*
X2431920D02*
G01X2433738Y1263375D01*
X2435557Y1269938D02*
G01X2433738Y1263375D01*
X2437602Y1269938D02*
G01Y1263375D01*
Y1269938D02*
G01X2440557D01*
X2437602Y1266813D02*
G01X2439420D01*
X2437602Y1263375D02*
G01X2440557D01*
X2442602Y1269938D02*
G01Y1263375D01*
Y1269938D02*
G01X2444193D01*
Y1269938D02*
G01X2444875Y1269625D01*
X2445329Y1269000*
X2445557Y1268375*
X2445784Y1267438*
Y1267438D02*
G01Y1265875D01*
X2445557Y1264938*
Y1264938D02*
G01X2445329Y1264313D01*
Y1264313D02*
G01X2444875Y1263688D01*
Y1263688D02*
G01X2444193Y1263375D01*
X2442602*
X2448057Y1267750D02*
G01X2447829Y1267438D01*
Y1267438D02*
G01X2448057Y1267125D01*
X2448284Y1267438*
Y1267438D02*
G01X2448057Y1267750D01*
Y1264000D02*
G01X2447829Y1263688D01*
Y1263688D02*
G01X2448057Y1263375D01*
X2448284Y1263688*
Y1263688D02*
G01X2448057Y1264000D01*
X2497875Y1269938D02*
G01Y1263375D01*
Y1269938D02*
G01X2499466D01*
Y1269938D02*
G01X2500148Y1269625D01*
X2500602Y1269000*
X2500829Y1268375*
X2501057Y1267438*
Y1267438D02*
G01Y1265875D01*
X2500829Y1264938*
Y1264938D02*
G01X2500602Y1264313D01*
Y1264313D02*
G01X2500148Y1263688D01*
Y1263688D02*
G01X2499466Y1263375D01*
X2497875*
X2504920Y1269938D02*
G01X2503102Y1263375D01*
X2504920Y1269938D02*
G01X2506738Y1263375D01*
X2503784Y1265563D02*
G01X2506057D01*
X2510375Y1269938D02*
G01Y1263375D01*
X2508784Y1269938D02*
G01X2511966D01*
X2514011D02*
G01Y1263375D01*
Y1269938D02*
G01X2516966D01*
X2514011Y1266813D02*
G01X2515829D01*
X2514011Y1263375D02*
G01X2516966D01*
X2519011Y1269938D02*
G01Y1263375D01*
Y1269938D02*
G01X2520602D01*
Y1269938D02*
G01X2521284Y1269625D01*
X2521738Y1269000*
X2521966Y1268375*
X2522193Y1267438*
Y1267438D02*
G01Y1265875D01*
X2521966Y1264938*
Y1264938D02*
G01X2521738Y1264313D01*
Y1264313D02*
G01X2521284Y1263688D01*
Y1263688D02*
G01X2520602Y1263375D01*
X2519011*
X2524466Y1267750D02*
G01X2524238Y1267438D01*
Y1267438D02*
G01X2524466Y1267125D01*
X2524693Y1267438*
Y1267438D02*
G01X2524466Y1267750D01*
Y1264000D02*
G01X2524238Y1263688D01*
Y1263688D02*
G01X2524466Y1263375D01*
X2524693Y1263688*
Y1263688D02*
G01X2524466Y1264000D01*
X2388075Y1234938D02*
G01Y1228375D01*
Y1234938D02*
G01X2390120D01*
Y1234938D02*
G01X2390802Y1234625D01*
X2391029Y1234313*
Y1234313D02*
G01X2391257Y1233688D01*
Y1233688D02*
G01Y1233063D01*
Y1233063D02*
G01X2391029Y1232438D01*
Y1232438D02*
G01X2390802Y1232125D01*
X2390120Y1231813*
Y1231813D02*
G01X2388075D01*
X2389666D02*
G01X2391257Y1228375D01*
X2393302Y1234938D02*
G01Y1228375D01*
Y1234938D02*
G01X2396257D01*
X2393302Y1231813D02*
G01X2395120D01*
X2393302Y1228375D02*
G01X2396257D01*
X2398302Y1234938D02*
G01X2400120Y1228375D01*
X2401938Y1234938D02*
G01X2400120Y1228375D01*
X2404211Y1232750D02*
G01X2403984Y1232438D01*
Y1232438D02*
G01X2404211Y1232125D01*
X2404438Y1232438*
Y1232438D02*
G01X2404211Y1232750D01*
Y1229000D02*
G01X2403984Y1228688D01*
Y1228688D02*
G01X2404211Y1228375D01*
X2404438Y1228688*
Y1228688D02*
G01X2404211Y1229000D01*
X2406484Y1233688D02*
G01X2406938Y1234000D01*
X2407620Y1234938*
Y1234938D02*
G01Y1228375D01*
X2409893Y1229000D02*
G01X2409666Y1228688D01*
Y1228688D02*
G01X2409893Y1228375D01*
X2410120Y1228688*
Y1228688D02*
G01X2409893Y1229000D01*
X2413529Y1234938D02*
G01X2412848Y1234625D01*
X2412393Y1233688*
Y1233688D02*
G01X2412166Y1232125D01*
Y1231188*
Y1231188D02*
G01X2412393Y1229625D01*
X2412848Y1228688*
Y1228688D02*
G01X2413529Y1228375D01*
X2413984*
X2414666Y1228688*
Y1228688D02*
G01X2415120Y1229625D01*
X2415348Y1231188*
Y1231188D02*
G01Y1232125D01*
X2415120Y1233688*
Y1233688D02*
G01X2414666Y1234625D01*
X2413984Y1234938*
Y1234938D02*
G01X2413529D01*
X2119075D02*
G01Y1228375D01*
Y1234938D02*
G01X2120666D01*
Y1234938D02*
G01X2121348Y1234625D01*
X2121802Y1234000*
X2122029Y1233375*
X2122257Y1232438*
Y1232438D02*
G01Y1230875D01*
X2122029Y1229938*
Y1229938D02*
G01X2121802Y1229313D01*
Y1229313D02*
G01X2121348Y1228688D01*
Y1228688D02*
G01X2120666Y1228375D01*
X2119075*
X2124302Y1234938D02*
G01X2125438Y1228375D01*
X2126575Y1234938D02*
G01X2125438Y1228375D01*
X2126575Y1234938D02*
G01X2127711Y1228375D01*
X2128848Y1234938D02*
G01X2127711Y1228375D01*
X2134302Y1233375D02*
G01X2134075Y1234000D01*
X2133620Y1234625*
X2133166Y1234938*
Y1234938D02*
G01X2132257D01*
Y1234938D02*
G01X2131802Y1234625D01*
X2131348Y1234000*
X2131120Y1233375*
X2130893Y1232438*
Y1232438D02*
G01Y1230875D01*
X2131120Y1229938*
Y1229938D02*
G01X2131348Y1229313D01*
Y1229313D02*
G01X2131802Y1228688D01*
Y1228688D02*
G01X2132257Y1228375D01*
X2133166*
X2133620Y1228688*
Y1228688D02*
G01X2134075Y1229313D01*
Y1229313D02*
G01X2134302Y1229938D01*
Y1229938D02*
G01Y1230875D01*
X2133166D02*
G01X2134302D01*
X2141575Y1234938D02*
G01Y1228375D01*
Y1234938D02*
G01X2144757Y1228375D01*
Y1234938D02*
G01Y1228375D01*
X2148166Y1234938D02*
G01X2147711Y1234625D01*
X2147257Y1234000*
X2147029Y1233375*
X2146802Y1232438*
Y1232438D02*
G01Y1230875D01*
X2147029Y1229938*
Y1229938D02*
G01X2147257Y1229313D01*
Y1229313D02*
G01X2147711Y1228688D01*
Y1228688D02*
G01X2148166Y1228375D01*
X2149075*
X2149529Y1228688*
Y1228688D02*
G01X2149984Y1229313D01*
Y1229313D02*
G01X2150211Y1229938D01*
Y1229938D02*
G01X2150438Y1230875D01*
Y1232438*
Y1232438D02*
G01X2150211Y1233375D01*
X2149984Y1234000*
X2149529Y1234625*
X2149075Y1234938*
Y1234938D02*
G01X2148166D01*
X2152711Y1229000D02*
G01X2152484Y1228688D01*
Y1228688D02*
G01X2152711Y1228375D01*
X2152938Y1228688*
Y1228688D02*
G01X2152711Y1229000D01*
X2155211Y1232750D02*
G01X2154984Y1232438D01*
Y1232438D02*
G01X2155211Y1232125D01*
X2155438Y1232438*
Y1232438D02*
G01X2155211Y1232750D01*
Y1229000D02*
G01X2154984Y1228688D01*
Y1228688D02*
G01X2155211Y1228375D01*
X2155438Y1228688*
Y1228688D02*
G01X2155211Y1229000D01*
X2162711Y1234938D02*
G01Y1228375D01*
Y1234938D02*
G01X2165893Y1228375D01*
Y1234938D02*
G01Y1228375D01*
X2167938Y1234938D02*
G01X2169757Y1228375D01*
X2171575Y1234938D02*
G01X2169757Y1228375D01*
X2176802Y1234000D02*
G01X2176348Y1234625D01*
X2175666Y1234938*
Y1234938D02*
G01X2174757D01*
Y1234938D02*
G01X2174075Y1234625D01*
X2173620Y1234000*
Y1233375*
X2173848Y1232750*
X2174075Y1232438*
Y1232438D02*
G01X2174529Y1232125D01*
X2175893Y1231500*
X2176348Y1231188*
Y1231188D02*
G01X2176575Y1230875D01*
X2176802Y1230250*
Y1229313*
Y1229313D02*
G01X2176348Y1228688D01*
Y1228688D02*
G01X2175666Y1228375D01*
X2174757*
X2174075Y1228688*
Y1228688D02*
G01X2173620Y1229313D01*
X2178848Y1234938D02*
G01Y1228375D01*
Y1234938D02*
G01X2180893D01*
Y1234938D02*
G01X2181575Y1234625D01*
X2181802Y1234313*
Y1234313D02*
G01X2182029Y1233688D01*
Y1233688D02*
G01Y1232750D01*
X2181802Y1232125*
X2181575Y1231813*
Y1231813D02*
G01X2180893Y1231500D01*
X2178848*
X2185438Y1234938D02*
G01X2184757Y1234625D01*
X2184302Y1233688*
Y1233688D02*
G01X2184075Y1232125D01*
Y1231188*
Y1231188D02*
G01X2184302Y1229625D01*
X2184757Y1228688*
Y1228688D02*
G01X2185438Y1228375D01*
X2185893*
X2186575Y1228688*
Y1228688D02*
G01X2187029Y1229625D01*
X2187257Y1231188*
Y1231188D02*
G01Y1232125D01*
X2187029Y1233688*
Y1233688D02*
G01X2186575Y1234625D01*
X2185893Y1234938*
Y1234938D02*
G01X2185438D01*
X2190666D02*
G01X2189984Y1234625D01*
X2189529Y1233688*
Y1233688D02*
G01X2189302Y1232125D01*
Y1231188*
Y1231188D02*
G01X2189529Y1229625D01*
X2189984Y1228688*
Y1228688D02*
G01X2190666Y1228375D01*
X2191120*
X2191802Y1228688*
Y1228688D02*
G01X2192257Y1229625D01*
X2192484Y1231188*
Y1231188D02*
G01Y1232125D01*
X2192257Y1233688*
Y1233688D02*
G01X2191802Y1234625D01*
X2191120Y1234938*
Y1234938D02*
G01X2190666D01*
X2195893D02*
G01X2195211Y1234625D01*
X2194757Y1233688*
Y1233688D02*
G01X2194529Y1232125D01*
Y1231188*
Y1231188D02*
G01X2194757Y1229625D01*
X2195211Y1228688*
Y1228688D02*
G01X2195893Y1228375D01*
X2196348*
X2197029Y1228688*
Y1228688D02*
G01X2197484Y1229625D01*
X2197711Y1231188*
Y1231188D02*
G01Y1232125D01*
X2197484Y1233688*
Y1233688D02*
G01X2197029Y1234625D01*
X2196348Y1234938*
Y1234938D02*
G01X2195893D01*
X2202484Y1234000D02*
G01X2202257Y1234625D01*
X2201575Y1234938*
Y1234938D02*
G01X2201120D01*
Y1234938D02*
G01X2200438Y1234625D01*
X2199984Y1233688*
Y1233688D02*
G01X2199757Y1232125D01*
Y1230563*
Y1230563D02*
G01X2199984Y1229313D01*
Y1229313D02*
G01X2200438Y1228688D01*
Y1228688D02*
G01X2201120Y1228375D01*
X2201348*
X2202029Y1228688*
Y1228688D02*
G01X2202484Y1229313D01*
Y1229313D02*
G01X2202711Y1230250D01*
Y1230563*
Y1230563D02*
G01X2202484Y1231500D01*
X2202029Y1232125*
X2201348Y1232438*
Y1232438D02*
G01X2201120D01*
Y1232438D02*
G01X2200438Y1232125D01*
X2199984Y1231500*
X2199757Y1230563*
X2204757Y1234938D02*
G01Y1228375D01*
Y1234938D02*
G01X2206802D01*
Y1234938D02*
G01X2207484Y1234625D01*
X2207711Y1234313*
Y1234313D02*
G01X2207938Y1233688D01*
Y1233688D02*
G01Y1233063D01*
Y1233063D02*
G01X2207711Y1232438D01*
Y1232438D02*
G01X2207484Y1232125D01*
X2206802Y1231813*
X2204757D02*
G01X2206802D01*
Y1231813D02*
G01X2207484Y1231500D01*
X2207711Y1231188*
Y1231188D02*
G01X2207938Y1230563D01*
Y1230563D02*
G01Y1229625D01*
X2207711Y1229000*
X2207484Y1228688*
Y1228688D02*
G01X2206802Y1228375D01*
X2204757*
X2209984Y1227125D02*
G01X2214757D01*
X2216120Y1234938D02*
G01X2217938Y1228375D01*
X2219757Y1234938D02*
G01X2217938Y1228375D01*
X2221802Y1233688D02*
G01X2222257Y1234000D01*
X2222938Y1234938*
Y1234938D02*
G01Y1228375D01*
X2225211Y1229000D02*
G01X2224984Y1228688D01*
Y1228688D02*
G01X2225211Y1228375D01*
X2225438Y1228688*
Y1228688D02*
G01X2225211Y1229000D01*
X2228848Y1234938D02*
G01X2228166Y1234625D01*
X2227711Y1233688*
Y1233688D02*
G01X2227484Y1232125D01*
Y1231188*
Y1231188D02*
G01X2227711Y1229625D01*
X2228166Y1228688*
Y1228688D02*
G01X2228848Y1228375D01*
X2229302*
X2229984Y1228688*
Y1228688D02*
G01X2230438Y1229625D01*
X2230666Y1231188*
Y1231188D02*
G01Y1232125D01*
X2230438Y1233688*
Y1233688D02*
G01X2229984Y1234625D01*
X2229302Y1234938*
Y1234938D02*
G01X2228848D01*
X2122084Y1348175D02*
G01X2121857Y1348800D01*
X2121402Y1349425*
X2120948Y1349738*
Y1349738D02*
G01X2120038D01*
Y1349738D02*
G01X2119584Y1349425D01*
X2119129Y1348800*
X2118902Y1348175*
X2118675Y1347238*
Y1347238D02*
G01Y1345675D01*
X2118902Y1344738*
Y1344738D02*
G01X2119129Y1344113D01*
Y1344113D02*
G01X2119584Y1343488D01*
Y1343488D02*
G01X2120038Y1343175D01*
X2120948*
X2121402Y1343488*
Y1343488D02*
G01X2121857Y1344113D01*
Y1344113D02*
G01X2122084Y1344738D01*
X2125493Y1349738D02*
G01X2125038Y1349425D01*
X2124584Y1348800*
X2124357Y1348175*
X2124129Y1347238*
Y1347238D02*
G01Y1345675D01*
X2124357Y1344738*
Y1344738D02*
G01X2124584Y1344113D01*
Y1344113D02*
G01X2125038Y1343488D01*
Y1343488D02*
G01X2125493Y1343175D01*
X2126402*
X2126857Y1343488*
Y1343488D02*
G01X2127311Y1344113D01*
Y1344113D02*
G01X2127538Y1344738D01*
Y1344738D02*
G01X2127766Y1345675D01*
Y1347238*
Y1347238D02*
G01X2127538Y1348175D01*
X2127311Y1348800*
X2126857Y1349425*
X2126402Y1349738*
Y1349738D02*
G01X2125493D01*
X2129811D02*
G01Y1343175D01*
Y1349738D02*
G01X2131629Y1343175D01*
X2133448Y1349738D02*
G01X2131629Y1343175D01*
X2133448Y1349738D02*
G01Y1343175D01*
X2135493Y1349738D02*
G01Y1343175D01*
Y1349738D02*
G01X2137538D01*
Y1349738D02*
G01X2138220Y1349425D01*
X2138448Y1349113*
Y1349113D02*
G01X2138675Y1348488D01*
Y1348488D02*
G01Y1347550D01*
X2138448Y1346925*
X2138220Y1346613*
Y1346613D02*
G01X2137538Y1346300D01*
X2135493*
X2142538Y1349738D02*
G01X2140720Y1343175D01*
X2142538Y1349738D02*
G01X2144357Y1343175D01*
X2141402Y1345363D02*
G01X2143675D01*
X2146402Y1349738D02*
G01Y1343175D01*
Y1349738D02*
G01X2149584Y1343175D01*
Y1349738D02*
G01Y1343175D01*
X2151629Y1349738D02*
G01X2153448Y1346613D01*
Y1346613D02*
G01Y1343175D01*
X2155266Y1349738D02*
G01X2153448Y1346613D01*
X2157538Y1347550D02*
G01X2157311Y1347238D01*
Y1347238D02*
G01X2157538Y1346925D01*
X2157766Y1347238*
Y1347238D02*
G01X2157538Y1347550D01*
Y1343800D02*
G01X2157311Y1343488D01*
Y1343488D02*
G01X2157538Y1343175D01*
X2157766Y1343488*
Y1343488D02*
G01X2157538Y1343800D01*
X1722051Y1490202D02*
G01X1918902D01*
Y1618155*
X1722051*
Y1490202*
X1915358Y1500044D02*
G03X1915358Y1500044I-6299D01*
X1738193D02*
G03X1738193Y1500044I-6299D01*
X1915358Y1608312D02*
G03X1915358Y1608312I-6299D01*
X1738193D02*
G03X1738193Y1608312I-6299D01*
G54D71*
X1774305Y1495447D02*
G01X1775215Y1496358D01*
X1781136Y1495447D02*
G01X1780226Y1496358D01*
X1781136Y1502279D02*
G01X1780226Y1501369D01*
X1774305Y1502279D02*
G01X1775215Y1501369D01*
X2263075Y1298125D02*
G01X2264893Y1289375D01*
X2266711Y1298125D02*
G01X2264893Y1289375D01*
X2266711Y1298125D02*
G01X2268529Y1289375D01*
X2270348Y1298125D02*
G01X2268529Y1289375D01*
X2274438Y1302500D02*
G01X2274893Y1301875D01*
X2275348Y1302500*
X2274893Y1303125*
X2274438Y1302500*
X2274893Y1298125D02*
G01Y1289375D01*
X2279438Y1298125D02*
G01Y1289375D01*
Y1294375D02*
G01X2279893Y1296250D01*
X2280802Y1297500*
X2281711Y1298125*
X2283075*
X2287166Y1294375D02*
G01X2292620D01*
Y1295625*
X2292166Y1296875*
X2291711Y1297500*
X2290802Y1298125*
X2289438*
X2288529Y1297500*
X2287620Y1296250*
X2287166Y1294375*
Y1293125*
X2287620Y1291250*
X2288529Y1290000*
X2289438Y1289375*
X2290802*
X2291711Y1290000*
X2292620Y1291250*
X2296711Y1302500D02*
G01Y1289375D01*
X2300802Y1294375D02*
G01X2306257D01*
Y1295625*
X2305802Y1296875*
X2305348Y1297500*
X2304438Y1298125*
X2303075*
X2302166Y1297500*
X2301257Y1296250*
X2300802Y1294375*
Y1293125*
X2301257Y1291250*
X2302166Y1290000*
X2303075Y1289375*
X2304438*
X2305348Y1290000*
X2306257Y1291250*
X2315348Y1296250D02*
G01X2314893Y1297500D01*
X2313529Y1298125*
X2312166*
X2310802Y1297500*
X2310348Y1296250*
X2310802Y1295000*
X2311711Y1294375*
X2313984Y1293750*
X2314893Y1293125*
X2315348Y1291875*
Y1291250*
X2314893Y1290000*
X2313529Y1289375*
X2312166*
X2310802Y1290000*
X2310348Y1291250*
X2324438Y1296250D02*
G01X2323984Y1297500D01*
X2322620Y1298125*
X2321257*
X2319893Y1297500*
X2319438Y1296250*
X2319893Y1295000*
X2320802Y1294375*
X2323075Y1293750*
X2323984Y1293125*
X2324438Y1291875*
Y1291250*
X2323984Y1290000*
X2322620Y1289375*
X2321257*
X2319893Y1290000*
X2319438Y1291250*
X2338984Y1298125D02*
G01Y1285000D01*
Y1296250D02*
G01X2339893Y1297500D01*
X2340802Y1298125*
X2342166*
X2343075Y1297500*
X2343984Y1296250*
X2344438Y1294375*
Y1293125*
X2343984Y1291250*
X2343075Y1290000*
X2342166Y1289375*
X2340802*
X2339893Y1290000*
X2338984Y1291250*
X2350802Y1298125D02*
G01X2349893Y1297500D01*
X2348984Y1296250*
X2348529Y1294375*
Y1293125*
X2348984Y1291250*
X2349893Y1290000*
X2350802Y1289375*
X2352166*
X2353075Y1290000*
X2353984Y1291250*
X2354438Y1293125*
Y1294375*
X2353984Y1296250*
X2353075Y1297500*
X2352166Y1298125*
X2350802*
X2358529D02*
G01X2360348Y1289375D01*
X2362166Y1298125D02*
G01X2360348Y1289375D01*
X2362166Y1298125D02*
G01X2363984Y1289375D01*
X2365802Y1298125D02*
G01X2363984Y1289375D01*
X2369893Y1294375D02*
G01X2375348D01*
Y1295625*
X2374893Y1296875*
X2374438Y1297500*
X2373529Y1298125*
X2372166*
X2371257Y1297500*
X2370348Y1296250*
X2369893Y1294375*
Y1293125*
X2370348Y1291250*
X2371257Y1290000*
X2372166Y1289375*
X2373529*
X2374438Y1290000*
X2375348Y1291250*
X2379438Y1298125D02*
G01Y1289375D01*
Y1294375D02*
G01X2379893Y1296250D01*
X2380802Y1297500*
X2381711Y1298125*
X2383075*
X2398984Y1302500D02*
G01Y1291875D01*
X2399438Y1290000*
X2400348Y1289375*
X2401257*
X2397620Y1298125D02*
G01X2400802D01*
X2405348D02*
G01Y1289375D01*
Y1294375D02*
G01X2405802Y1296250D01*
X2406711Y1297500*
X2407620Y1298125*
X2408984*
X2418529D02*
G01Y1289375D01*
Y1296250D02*
G01X2417620Y1297500D01*
X2416711Y1298125*
X2415348*
X2414438Y1297500*
X2413529Y1296250*
X2413075Y1294375*
Y1293125*
X2413529Y1291250*
X2414438Y1290000*
X2415348Y1289375*
X2416711*
X2417620Y1290000*
X2418529Y1291250*
X2422620Y1298125D02*
G01Y1289375D01*
Y1295625D02*
G01X2423984Y1297500D01*
X2424893Y1298125*
X2426257*
X2427166Y1297500*
X2427620Y1295625*
Y1289375*
X2436711Y1296250D02*
G01X2436257Y1297500D01*
X2434893Y1298125*
X2433529*
X2432166Y1297500*
X2431711Y1296250*
X2432166Y1295000*
X2433075Y1294375*
X2435348Y1293750*
X2436257Y1293125*
X2436711Y1291875*
Y1291250*
X2436257Y1290000*
X2434893Y1289375*
X2433529*
X2432166Y1290000*
X2431711Y1291250*
X2440802Y1298125D02*
G01Y1289375D01*
Y1295625D02*
G01X2442166Y1297500D01*
X2443075Y1298125*
X2444438*
X2445348Y1297500*
X2445802Y1295625*
Y1289375*
Y1295625D02*
G01X2447166Y1297500D01*
X2448075Y1298125*
X2449438*
X2450348Y1297500*
X2450802Y1295625*
Y1289375*
X2454893Y1302500D02*
G01X2455348Y1301875D01*
X2455802Y1302500*
X2455348Y1303125*
X2454893Y1302500*
X2455348Y1298125D02*
G01Y1289375D01*
X2461257Y1302500D02*
G01Y1291875D01*
X2461711Y1290000*
X2462620Y1289375*
X2463529*
X2459893Y1298125D02*
G01X2463075D01*
X2468984Y1302500D02*
G01Y1291875D01*
X2469438Y1290000*
X2470348Y1289375*
X2471257*
X2467620Y1298125D02*
G01X2470802D01*
X2475348Y1294375D02*
G01X2480802D01*
Y1295625*
X2480348Y1296875*
X2479893Y1297500*
X2478984Y1298125*
X2477620*
X2476711Y1297500*
X2475802Y1296250*
X2475348Y1294375*
Y1293125*
X2475802Y1291250*
X2476711Y1290000*
X2477620Y1289375*
X2478984*
X2479893Y1290000*
X2480802Y1291250*
X2484893Y1298125D02*
G01Y1289375D01*
Y1294375D02*
G01X2485348Y1296250D01*
X2486257Y1297500*
X2487166Y1298125*
X2488529*
X2150398Y1255164D02*
G01X2155170Y1245320D01*
Y1255164D02*
G01X2150398Y1245320D01*
X2161648Y1255164D02*
G01Y1247664D01*
X2161307Y1246257*
X2160966Y1245789*
X2160284Y1245320*
X2159602*
X2158920Y1245789*
X2158579Y1246257*
X2158239Y1247664*
Y1248601*
X2165057Y1246257D02*
G01X2164716Y1245789D01*
X2165057Y1245320*
X2165398Y1245789*
X2165057Y1246257*
X2170511Y1255164D02*
G01X2169829Y1254695D01*
X2169148Y1253757*
X2168807Y1252820*
X2168466Y1251414*
Y1249070*
X2168807Y1247664*
X2169148Y1246726*
X2169829Y1245789*
X2170511Y1245320*
X2171875*
X2172557Y1245789*
X2173239Y1246726*
X2173579Y1247664*
X2173920Y1249070*
Y1251414*
X2173579Y1252820*
X2173239Y1253757*
X2172557Y1254695*
X2171875Y1255164*
X2170511*
X2171534Y1247195D02*
G01X2173579Y1244382D01*
X2176989Y1255164D02*
G01Y1248132D01*
X2177329Y1246726*
X2178011Y1245789*
X2179034Y1245320*
X2179716*
X2180739Y1245789*
X2181420Y1246726*
X2181761Y1248132*
Y1255164*
X2187557D02*
G01X2184829Y1245320D01*
X2187557Y1255164D02*
G01X2190284Y1245320D01*
X2185852Y1248601D02*
G01X2189261D01*
X2193352Y1255164D02*
G01Y1245320D01*
Y1255164D02*
G01X2198125Y1245320D01*
Y1255164D02*
G01Y1245320D01*
X2404075Y1219219D02*
G01Y1209375D01*
Y1219219D02*
G01X2406461D01*
X2407484Y1218750*
X2408166Y1217813*
Y1217813D02*
G01X2408507Y1216875D01*
X2408848Y1215469*
Y1213125*
X2408507Y1211719*
X2408166Y1210781*
X2407484Y1209844*
X2406461Y1209375*
X2404075*
X2136188Y1216875D02*
G01X2135848Y1217813D01*
Y1217813D02*
G01X2135166Y1218750D01*
X2134484Y1219219*
X2133120*
X2132438Y1218750*
X2131757Y1217813*
Y1217813D02*
G01X2131416Y1216875D01*
X2131075Y1215469*
Y1213125*
X2131416Y1211719*
X2131757Y1210781*
X2132438Y1209844*
X2133120Y1209375*
X2134484*
X2135166Y1209844*
X2135848Y1210781*
X2136188Y1211719*
X1859075Y1218219D02*
G01Y1208375D01*
Y1218219D02*
G01X1862143D01*
X1863166Y1217750*
X1863507Y1217281*
X1863848Y1216344*
Y1215406*
X1863507Y1214469*
X1863166Y1214000*
X1862143Y1213531*
X1859075D02*
G01X1862143D01*
X1863166Y1213063*
Y1213063D02*
G01X1863507Y1212594D01*
X1863848Y1211656*
Y1210250*
X1863507Y1209313*
Y1209313D02*
G01X1863166Y1208844D01*
X1862143Y1208375*
X1859075*
X1588802Y1220219D02*
G01X1586075Y1210375D01*
X1588802Y1220219D02*
G01X1591529Y1210375D01*
X1587098Y1213656D02*
G01X1590507D01*
X1443484Y1323219D02*
G01X1440075Y1316656D01*
X1445188*
X1443484Y1323219D02*
G01Y1313375D01*
X1440757Y1510219D02*
G01X1444507D01*
X1442461Y1506469*
X1443484*
X1444166Y1506000*
X1444507Y1505531*
X1444848Y1504125*
Y1503188*
Y1503188D02*
G01X1444507Y1501781D01*
X1443825Y1500844*
X1442802Y1500375*
X1441779*
X1440757Y1500844*
X1440416Y1501313*
Y1501313D02*
G01X1440075Y1502250D01*
X1440416Y1695875D02*
G01Y1696344D01*
X1440757Y1697281*
X1441098Y1697750*
X1441779Y1698219*
X1443143*
X1443825Y1697750*
X1444166Y1697281*
X1444507Y1696344*
Y1695406*
X1444166Y1694469*
X1443484Y1693063*
Y1693063D02*
G01X1440075Y1688375D01*
X1444848*
X1440075Y1883344D02*
G01X1440757Y1883813D01*
Y1883813D02*
G01X1441779Y1885219D01*
Y1875375*
X1588802Y1990219D02*
G01X1586075Y1980375D01*
X1588802Y1990219D02*
G01X1591529Y1980375D01*
X1587098Y1983656D02*
G01X1590507D01*
X1859075Y1988219D02*
G01Y1978375D01*
Y1988219D02*
G01X1862143D01*
X1863166Y1987750*
X1863507Y1987281*
X1863848Y1986344*
Y1985406*
X1863507Y1984469*
X1863166Y1984000*
X1862143Y1983531*
X1859075D02*
G01X1862143D01*
X1863166Y1983063*
Y1983063D02*
G01X1863507Y1982594D01*
X1863848Y1981656*
Y1980250*
X1863507Y1979313*
Y1979313D02*
G01X1863166Y1978844D01*
X1862143Y1978375*
X1859075*
X2136188Y1986875D02*
G01X2135848Y1987813D01*
Y1987813D02*
G01X2135166Y1988750D01*
X2134484Y1989219*
X2133120*
X2132438Y1988750*
X2131757Y1987813*
Y1987813D02*
G01X2131416Y1986875D01*
X2131075Y1985469*
Y1983125*
X2131416Y1981719*
X2131757Y1980781*
X2132438Y1979844*
X2133120Y1979375*
X2134484*
X2135166Y1979844*
X2135848Y1980781*
X2136188Y1981719*
X2404075Y1989219D02*
G01Y1979375D01*
Y1989219D02*
G01X2406461D01*
X2407484Y1988750*
X2408166Y1987813*
Y1987813D02*
G01X2408507Y1986875D01*
X2408848Y1985469*
Y1983125*
X2408507Y1981719*
X2408166Y1980781*
X2407484Y1979844*
X2406461Y1979375*
X2404075*
X2550075Y1883344D02*
G01X2550757Y1883813D01*
Y1883813D02*
G01X2551779Y1885219D01*
Y1875375*
X2550416Y1695875D02*
G01Y1696344D01*
X2550757Y1697281*
X2551098Y1697750*
X2551779Y1698219*
X2553143*
X2553825Y1697750*
X2554166Y1697281*
X2554507Y1696344*
Y1695406*
X2554166Y1694469*
X2553484Y1693063*
Y1693063D02*
G01X2550075Y1688375D01*
X2554848*
X2550757Y1510219D02*
G01X2554507D01*
X2552461Y1506469*
X2553484*
X2554166Y1506000*
X2554507Y1505531*
X2554848Y1504125*
Y1503188*
Y1503188D02*
G01X2554507Y1501781D01*
X2553825Y1500844*
X2552802Y1500375*
X2551779*
X2550757Y1500844*
X2550416Y1501313*
Y1501313D02*
G01X2550075Y1502250D01*
X2553484Y1323219D02*
G01X2550075Y1316656D01*
X2555188*
X2553484Y1323219D02*
G01Y1313375D01*
G54D20*
X2176776Y1336474D02*
G01Y1324847D01*
Y1336474D02*
G01X2182413Y1324847D01*
Y1336474D02*
G01Y1324847D01*
X2186037Y1332598D02*
G01Y1327062D01*
X2186439Y1325401*
X2187244Y1324847*
X2188452*
X2189258Y1325401*
X2190466Y1327062*
Y1332598D02*
G01Y1324847D01*
X2194089Y1332598D02*
G01X2196505Y1324847D01*
X2198921Y1332598D02*
G01X2196505Y1324847D01*
X2204558Y1332598D02*
G01X2203753Y1332045D01*
X2202948Y1330938*
Y1330938D02*
G01X2202545Y1329277D01*
Y1328169*
X2202948Y1326508*
X2203753Y1325401*
X2204558Y1324847*
X2205766*
X2206572Y1325401*
X2207377Y1326508*
X2207780Y1328169*
Y1329277*
X2207377Y1330938*
Y1330938D02*
G01X2206572Y1332045D01*
X2205766Y1332598*
X2204558*
X2212611Y1336474D02*
G01Y1327062D01*
X2213014Y1325401*
X2213819Y1324847*
X2214625*
X2211403Y1332598D02*
G01X2214222D01*
X2220262D02*
G01X2219456Y1332045D01*
X2218651Y1330938*
Y1330938D02*
G01X2218248Y1329277D01*
Y1328169*
X2218651Y1326508*
X2219456Y1325401*
X2220262Y1324847*
X2221470*
X2222275Y1325401*
X2223080Y1326508*
X2223483Y1328169*
Y1329277*
X2223080Y1330938*
Y1330938D02*
G01X2222275Y1332045D01*
X2221470Y1332598*
X2220262*
X2227107D02*
G01Y1324847D01*
Y1330384D02*
G01X2228315Y1332045D01*
X2229120Y1332598*
X2230328*
X2231133Y1332045*
X2231536Y1330384*
Y1324847*
X2244421Y1336474D02*
G01Y1324847D01*
Y1336474D02*
G01X2249655D01*
X2244421Y1330938D02*
G01X2247642D01*
X2244421Y1324847D02*
G01X2249655D01*
X2253279Y1336474D02*
G01Y1324847D01*
X2256903Y1329277D02*
G01X2261734D01*
Y1330384*
X2261332Y1331491*
X2260929Y1332045*
X2260124Y1332598*
X2258916*
X2258111Y1332045*
X2257305Y1330938*
Y1330938D02*
G01X2256903Y1329277D01*
Y1328169*
X2257305Y1326508*
X2258111Y1325401*
X2258916Y1324847*
X2260124*
X2260929Y1325401*
X2261734Y1326508*
X2270190Y1330938D02*
G01X2269385Y1332045D01*
X2268579Y1332598*
X2267372*
X2266566Y1332045*
X2265761Y1330938*
Y1330938D02*
G01X2265358Y1329277D01*
Y1328169*
X2265761Y1326508*
X2266566Y1325401*
X2267372Y1324847*
X2268579*
X2269385Y1325401*
X2270190Y1326508*
X2275022Y1336474D02*
G01Y1327062D01*
X2275424Y1325401*
X2276230Y1324847*
X2277035*
X2273814Y1332598D02*
G01X2276632D01*
X2280659D02*
G01Y1324847D01*
Y1329277D02*
G01X2281062Y1330938D01*
Y1330938D02*
G01X2281867Y1332045D01*
X2282672Y1332598*
X2283880*
X2289517D02*
G01X2288712Y1332045D01*
X2287907Y1330938*
Y1330938D02*
G01X2287504Y1329277D01*
Y1328169*
X2287907Y1326508*
X2288712Y1325401*
X2289517Y1324847*
X2290725*
X2291530Y1325401*
X2292336Y1326508*
X2292738Y1328169*
Y1329277*
X2292336Y1330938*
Y1330938D02*
G01X2291530Y1332045D01*
X2290725Y1332598*
X2289517*
X2296362D02*
G01Y1324847D01*
Y1330384D02*
G01X2297570Y1332045D01*
X2298375Y1332598*
X2299583*
X2300389Y1332045*
X2300791Y1330384*
Y1324847*
X2304415Y1336474D02*
G01X2304818Y1335920D01*
X2305220Y1336474*
X2304818Y1337028*
X2304415Y1336474*
X2304818Y1332598D02*
G01Y1324847D01*
X2313676Y1330938D02*
G01X2312871Y1332045D01*
X2312065Y1332598*
Y1332598D02*
G01X2310858D01*
X2310052Y1332045*
X2309247Y1330938*
Y1330938D02*
G01X2308844Y1329277D01*
Y1328169*
X2309247Y1326508*
X2310052Y1325401*
X2310858Y1324847*
X2312065*
Y1324847D02*
G01X2312871Y1325401D01*
X2313676Y1326508*
X2321729Y1330938D02*
G01X2321326Y1332045D01*
X2320118Y1332598*
X2318911*
X2317703Y1332045*
X2317300Y1330938*
Y1330938D02*
G01X2317703Y1329830D01*
X2318508Y1329277*
X2320521Y1328723*
X2321326Y1328169*
X2321729Y1327062*
Y1326508*
X2321326Y1325401*
X2320118Y1324847*
X2318911*
X2317703Y1325401*
X2317300Y1326508*
X2337432Y1336474D02*
G01Y1324847D01*
X2334614Y1336474D02*
G01X2340251D01*
X2343875Y1329277D02*
G01X2348707D01*
Y1330384*
X2348304Y1331491*
X2347901Y1332045*
X2347096Y1332598*
X2345888*
X2345083Y1332045*
X2344277Y1330938*
Y1330938D02*
G01X2343875Y1329277D01*
Y1328169*
X2344277Y1326508*
X2345083Y1325401*
X2345888Y1324847*
X2347096*
X2347901Y1325401*
X2348707Y1326508*
X2357162Y1330938D02*
G01X2356357Y1332045D01*
X2355552Y1332598*
X2354344*
X2353538Y1332045*
X2352733Y1330938*
Y1330938D02*
G01X2352330Y1329277D01*
Y1328169*
X2352733Y1326508*
X2353538Y1325401*
X2354344Y1324847*
X2355552*
X2356357Y1325401*
X2357162Y1326508*
X2360786Y1336474D02*
G01Y1324847D01*
Y1330384D02*
G01X2361994Y1332045D01*
X2362799Y1332598*
X2364007*
X2364812Y1332045*
X2365215Y1330384*
Y1324847*
X2368839Y1332598D02*
G01Y1324847D01*
Y1330384D02*
G01X2370047Y1332045D01*
X2370852Y1332598*
X2372060*
X2372865Y1332045*
X2373268Y1330384*
Y1324847*
X2378905Y1332598D02*
G01X2378100Y1332045D01*
X2377295Y1330938*
Y1330938D02*
G01X2376892Y1329277D01*
Y1328169*
X2377295Y1326508*
X2378100Y1325401*
X2378905Y1324847*
X2380113*
X2380918Y1325401*
X2381724Y1326508*
X2382126Y1328169*
Y1329277*
X2381724Y1330938*
Y1330938D02*
G01X2380918Y1332045D01*
X2380113Y1332598*
X2378905*
X2385750Y1336474D02*
G01Y1324847D01*
X2391387Y1332598D02*
G01X2390582Y1332045D01*
X2389777Y1330938*
Y1330938D02*
G01X2389374Y1329277D01*
Y1328169*
X2389777Y1326508*
X2390582Y1325401*
X2391387Y1324847*
X2392595*
X2393401Y1325401*
Y1325401D02*
G01X2394206Y1326508D01*
X2394608Y1328169*
Y1329277*
X2394206Y1330938*
Y1330938D02*
G01X2393401Y1332045D01*
Y1332045D02*
G01X2392595Y1332598D01*
X2391387*
X2403064D02*
G01Y1323740D01*
X2402661Y1322079*
X2402259Y1321526*
X2401453Y1320972*
X2400246*
X2399440Y1321526*
X2403064Y1330938D02*
G01X2402259Y1332045D01*
X2401453Y1332598*
X2400246*
X2399440Y1332045*
X2398635Y1330938*
Y1330938D02*
G01X2398232Y1329277D01*
Y1328169*
X2398635Y1326508*
X2399440Y1325401*
X2400246Y1324847*
X2401453*
X2402259Y1325401*
X2403064Y1326508*
X2407091Y1332598D02*
G01X2409506Y1324847D01*
X2411922Y1332598D02*
G01X2409506Y1324847D01*
X2408701Y1322633*
X2407896Y1321526*
X2407091Y1320972*
X2406688*
X2418365Y1338688D02*
G01X2417559Y1337581D01*
X2416754Y1335920*
X2415949Y1333706*
X2415546Y1330938*
Y1330938D02*
G01Y1328723D01*
X2415949Y1325955*
X2416754Y1323740*
X2417559Y1322079*
X2418365Y1320972*
X2427626Y1334813D02*
G01X2426820Y1335920D01*
X2425612Y1336474*
X2424002*
X2422794Y1335920*
X2421989Y1334813*
Y1333706*
X2422391Y1332598*
X2422794Y1332045*
X2423599Y1331491*
X2426015Y1330384*
X2426820Y1329830*
X2427223Y1329277*
X2427626Y1328169*
Y1326508*
X2426820Y1325401*
X2425612Y1324847*
X2424002*
X2422794Y1325401*
X2421989Y1326508*
X2431249Y1336474D02*
G01Y1324847D01*
Y1330384D02*
G01X2432457Y1332045D01*
X2433263Y1332598*
X2434471*
X2435276Y1332045*
X2435679Y1330384*
Y1324847*
X2439302Y1329277D02*
G01X2444134D01*
Y1330384*
X2443732Y1331491*
X2443329Y1332045*
X2442524Y1332598*
X2441316*
X2440510Y1332045*
X2439705Y1330938*
Y1330938D02*
G01X2439302Y1329277D01*
Y1328169*
X2439705Y1326508*
X2440510Y1325401*
X2441316Y1324847*
X2442524*
X2443329Y1325401*
X2444134Y1326508*
X2447758Y1332598D02*
G01Y1324847D01*
Y1330384D02*
G01X2448966Y1332045D01*
X2449771Y1332598*
X2450979*
X2451785Y1332045*
X2452187Y1330384*
Y1324847*
X2461448Y1336474D02*
G01X2455811Y1324847D01*
Y1336474D02*
G01X2461448D01*
X2455811Y1324847D02*
G01X2461448D01*
X2465072Y1336474D02*
G01Y1324847D01*
Y1330384D02*
G01X2466280Y1332045D01*
X2467085Y1332598*
X2468293*
X2469098Y1332045*
X2469501Y1330384*
Y1324847*
X2473125Y1329277D02*
G01X2477957D01*
Y1330384*
X2477554Y1331491*
X2477151Y1332045*
X2476346Y1332598*
X2475138*
X2474333Y1332045*
X2473528Y1330938*
Y1330938D02*
G01X2473125Y1329277D01*
Y1328169*
X2473528Y1326508*
X2474333Y1325401*
X2475138Y1324847*
X2476346*
X2477151Y1325401*
X2477957Y1326508*
X2481581Y1332598D02*
G01Y1324847D01*
Y1330384D02*
G01X2482788Y1332045D01*
X2483594Y1332598*
X2484802*
X2485607Y1332045*
X2486010Y1330384*
Y1324847*
X2489634Y1338688D02*
G01X2490439Y1337581D01*
X2491244Y1335920*
X2492049Y1333706*
X2492452Y1330938*
Y1330938D02*
G01Y1328723D01*
X2492049Y1325955*
X2491244Y1323740*
X2490439Y1322079*
X2489634Y1320972*
X2496076Y1336474D02*
G01Y1324847D01*
X2500908*
X2505739Y1336474D02*
G01Y1327062D01*
X2506142Y1325401*
X2506947Y1324847*
X2507753*
X2504531Y1332598D02*
G01X2507350D01*
X2516208Y1336474D02*
G01Y1324847D01*
Y1330938D02*
G01X2515403Y1332045D01*
X2514598Y1332598*
X2513390*
X2512584Y1332045*
X2511779Y1330938*
Y1330938D02*
G01X2511377Y1329277D01*
Y1328169*
X2511779Y1326508*
X2512584Y1325401*
X2513390Y1324847*
X2514598*
X2515403Y1325401*
X2516208Y1326508*
X2520235Y1325955D02*
G01X2519832Y1325401D01*
X2520235Y1324847*
X2520637Y1325401*
X2520235Y1325955*
M02*
