G04 CAM350/DFMSTREAM V12.1 (Build 1022) Date:  Wed Sep 27 13:34:33 2017 *
G04 Database: (Untitled) *
G04 Layer 4: drill.pho *
%FSLAX35Y35*%
%MOIN*%
%SFA1.000B1.000*%

%MIA0B0*%
%IPPOS*%
%ADD11C,0.00100*%
%ADD70C,0.01000*%
%ADD71C,0.01500*%
%ADD20C,0.01772*%
%LNdrill.pho*%
%LPD*%
G54D11*
X1918902Y1617761D02*
G01X1918904D01*
X1722051D02*
G01X1722054D01*
X1722051Y1490202D02*
G01X1722054D01*
X1722051Y1618155D02*
G01X1722054D01*
G54D70*
X1729272Y1537460D02*
G01X1737272Y1545460D01*
X1729272D02*
G01X1737272Y1537460D01*
X1726122D02*
G01X1734122Y1545460D01*
X1726122D02*
G01X1734122Y1537460D01*
X1733272Y1540574D02*
G75*
G03X1733272Y1542346J886D01*
Y1542346D02*
G01X1730122D01*
Y1542346D02*
G03X1730122Y1540574J-886D01*
Y1540574D02*
G01X1733272D01*
X1729272Y1565610D02*
G01X1737272Y1573610D01*
X1729272D02*
G01X1737272Y1565610D01*
X1726122D02*
G01X1734122Y1573610D01*
X1726122D02*
G01X1734122Y1565610D01*
X1733272Y1568724D02*
G03X1733272Y1570496J886D01*
Y1570496D02*
G01X1730122D01*
Y1570496D02*
G03X1730122Y1568724J-886D01*
Y1568724D02*
G01X1733272D01*
X1828681Y1604312D02*
G01X1836681D01*
Y1612312*
X1828681*
Y1604312*
X1832681Y1608312D02*
G01Y1612312D01*
X1831831Y1604312D02*
G01X1839831D01*
Y1612312*
X1831831*
Y1604312*
X1835831Y1608312D02*
G01Y1612312D01*
X1832681Y1610674D02*
G03X1832681Y1605950J-2362D01*
Y1605950D02*
G01X1835831D01*
Y1605950D02*
G03X1835831Y1610674J2362D01*
Y1610674D02*
G01X1832681D01*
X1780650Y1605099D02*
G01X1788650D01*
Y1613099*
X1780650*
Y1605099*
X1784650Y1609099D02*
G01Y1613099D01*
X1783799Y1605099D02*
G01X1791799D01*
Y1613099*
X1783799*
Y1605099*
X1787799Y1609099D02*
G01Y1613099D01*
X1784650Y1611462D02*
G03X1784650Y1606737J-2362D01*
Y1606737D02*
G01X1787799D01*
Y1606737D02*
G03X1787799Y1611462J2363D01*
Y1611462D02*
G01X1784650D01*
X1736161Y1563430D02*
G01X1744161D01*
X1740161Y1559430D02*
G01Y1567430D01*
X1736161Y1547682D02*
G01X1744161D01*
X1740161Y1543682D02*
G01Y1551682D01*
X1817720Y1494863D02*
G01X1821720Y1498863D01*
X1817720Y1502863*
X1813720Y1498863*
X1817720Y1494863*
Y1498863D02*
G01Y1502863D01*
X1807720Y1494863D02*
G01X1811720Y1498863D01*
X1807720Y1502863*
X1803720Y1498863*
X1807720Y1494863*
Y1498863D02*
G01Y1502863D01*
X1797720Y1494863D02*
G01X1801720Y1498863D01*
X1797720Y1502863*
X1793720Y1498863*
X1797720Y1494863*
Y1498863D02*
G01Y1502863D01*
X1787720Y1494863D02*
G01X1791720Y1498863D01*
X1787720Y1502863*
X1783720Y1498863*
X1787720Y1494863*
Y1498863D02*
G01Y1502863D01*
X1777720Y1494863D02*
G01X1781720Y1498863D01*
X1777720Y1502863*
X1773720Y1498863*
X1777720Y1494863*
Y1498863D02*
G01Y1502863D01*
X1747972Y1495257D02*
G01X1755972D01*
X1747972Y1503257*
X1755972*
X1747972Y1495257*
X1755846D02*
G01X1763846D01*
X1755846Y1503257*
X1763846*
X1755846Y1495257*
X1729936Y1528770D02*
G01X1737936Y1536770D01*
Y1528770*
X1729936Y1536770*
Y1528770*
Y1518770D02*
G01X1737936Y1526770D01*
Y1518770*
X1729936Y1526770*
Y1518770*
Y1508770D02*
G01X1737936Y1516770D01*
Y1508770*
X1729936Y1516770*
Y1508770*
X1760571Y1545257D02*
G01X1768571Y1553257D01*
Y1545257*
X1760571Y1553257*
Y1545257*
X1773957Y1543288D02*
G01X1781957Y1551288D01*
Y1543288*
X1773957Y1551288*
Y1543288*
X1757815Y1555099D02*
G01X1765815Y1563099D01*
Y1555099*
X1757815Y1563099*
Y1555099*
X1747972Y1535021D02*
G01X1755972Y1543021D01*
Y1535021*
X1747972Y1543021*
Y1535021*
Y1542107D02*
G01X1755972Y1550107D01*
Y1542107*
X1747972Y1550107*
Y1542107*
X1744429Y1550769D02*
G01X1752429Y1558769D01*
Y1550769*
X1744429Y1558769*
Y1550769*
X1766870Y1542895D02*
G01X1774870Y1550895D01*
Y1542895*
X1766870Y1550895*
Y1542895*
X1755453Y1543288D02*
G01X1763453Y1551288D01*
Y1543288*
X1755453Y1551288*
Y1543288*
X1757815Y1561005D02*
G01X1765815Y1569005D01*
Y1561005*
X1757815Y1569005*
Y1561005*
X1773957Y1538564D02*
G01X1781957Y1546564D01*
Y1538564*
X1773957Y1546564*
Y1538564*
X1766476Y1535414D02*
G01X1774476Y1543414D01*
Y1535414*
X1766476Y1543414*
Y1535414*
X1755846Y1535021D02*
G01X1763846Y1543021D01*
Y1535021*
X1755846Y1543021*
Y1535021*
X1751909Y1503525D02*
G01X1759909Y1511525D01*
Y1503525*
X1751909Y1511525*
Y1503525*
X1796791Y1505099D02*
G01X1804791Y1513099D01*
Y1505099*
X1796791Y1513099*
Y1505099*
X1775531Y1515336D02*
G01X1783531Y1523336D01*
Y1515336*
X1775531Y1523336*
Y1515336*
X1781831Y1504312D02*
G01X1789831Y1512312D01*
Y1504312*
X1781831Y1512312*
Y1504312*
X1778287Y1525572D02*
G01X1786287Y1533572D01*
Y1525572*
X1778287Y1533572*
Y1525572*
X1809936Y1528770D02*
G01X1817936Y1536770D01*
Y1528770*
X1809936Y1536770*
Y1528770*
Y1488770D02*
G01X1817936Y1496770D01*
Y1488770*
X1809936Y1496770*
Y1488770*
X1799936Y1528770D02*
G01X1807936Y1536770D01*
Y1528770*
X1799936Y1536770*
Y1528770*
Y1488770D02*
G01X1807936Y1496770D01*
Y1488770*
X1799936Y1496770*
Y1488770*
X1789936D02*
G01X1797936Y1496770D01*
Y1488770*
X1789936Y1496770*
Y1488770*
X1779936D02*
G01X1787936Y1496770D01*
Y1488770*
X1779936Y1496770*
Y1488770*
X1769936Y1558770D02*
G01X1777936Y1566770D01*
Y1558770*
X1769936Y1566770*
Y1558770*
Y1528770D02*
G01X1777936Y1536770D01*
Y1528770*
X1769936Y1536770*
Y1528770*
Y1508770D02*
G01X1777936Y1516770D01*
Y1508770*
X1769936Y1516770*
Y1508770*
Y1488770D02*
G01X1777936Y1496770D01*
Y1488770*
X1769936Y1496770*
Y1488770*
X1759936Y1528770D02*
G01X1767936Y1536770D01*
Y1528770*
X1759936Y1536770*
Y1528770*
Y1488770D02*
G01X1767936Y1496770D01*
Y1488770*
X1759936Y1496770*
Y1488770*
X1749936Y1508770D02*
G01X1757936Y1516770D01*
Y1508770*
X1749936Y1516770*
Y1508770*
X1739936Y1538770D02*
G01X1747936Y1546770D01*
Y1538770*
X1739936Y1546770*
Y1538770*
Y1528770D02*
G01X1747936Y1536770D01*
Y1528770*
X1739936Y1536770*
Y1528770*
Y1498770D02*
G01X1747936Y1506770D01*
Y1498770*
X1739936Y1506770*
Y1498770*
Y1488770D02*
G01X1747936Y1496770D01*
Y1488770*
X1739936Y1496770*
Y1488770*
X1752303Y1550375D02*
G01X1760303Y1558375D01*
Y1550375*
X1752303Y1558375*
Y1550375*
X1794823Y1563367D02*
G01X1802823Y1571367D01*
Y1563367*
X1794823Y1571367*
Y1563367*
X1779862Y1522422D02*
G01X1787862Y1530422D01*
Y1522422*
X1779862Y1530422*
Y1522422*
X1783012Y1535021D02*
G01X1791012Y1543021D01*
Y1535021*
X1783012Y1543021*
Y1535021*
X1792461Y1507855D02*
G01X1800461Y1515855D01*
Y1507855*
X1792461Y1515855*
Y1507855*
X1786949Y1529509D02*
G01X1794949Y1537509D01*
Y1529509*
X1786949Y1537509*
Y1529509*
X1802697Y1506281D02*
G01X1810697Y1514281D01*
Y1506281*
X1802697Y1514281*
Y1506281*
X1774350Y1526359D02*
G01X1782350Y1534359D01*
Y1526359*
X1774350Y1534359*
Y1526359*
X1823957Y1504706D02*
G01X1831957Y1512706D01*
Y1504706*
X1823957Y1512706*
Y1504706*
X1819232D02*
G01X1827232Y1512706D01*
Y1504706*
X1819232Y1512706*
Y1504706*
X1828287Y1509430D02*
G01X1836287Y1517430D01*
Y1509430*
X1828287Y1517430*
Y1509430*
X1836949Y1503131D02*
G01X1844949Y1511131D01*
Y1503131*
X1836949Y1511131*
Y1503131*
X1866476Y1533052D02*
G01X1874476Y1541052D01*
Y1533052*
X1866476Y1541052*
Y1533052*
X1878681Y1499194D02*
G01X1886681Y1507194D01*
Y1499194*
X1878681Y1507194*
Y1499194*
Y1505099D02*
G01X1886681Y1513099D01*
Y1505099*
X1878681Y1513099*
Y1505099*
X1890886Y1494863D02*
G01X1898886Y1502863D01*
Y1494863*
X1890886Y1502863*
Y1494863*
X1819626Y1525572D02*
G01X1827626Y1533572D01*
Y1525572*
X1819626Y1533572*
Y1525572*
X1827500Y1529115D02*
G01X1835500Y1537115D01*
Y1529115*
X1827500Y1537115*
Y1529115*
X1837736Y1514942D02*
G01X1845736Y1522942D01*
Y1514942*
X1837736Y1522942*
Y1514942*
X1889936Y1558770D02*
G01X1897936Y1566770D01*
Y1558770*
X1889936Y1566770*
Y1558770*
Y1548770D02*
G01X1897936Y1556770D01*
Y1548770*
X1889936Y1556770*
Y1548770*
Y1488770D02*
G01X1897936Y1496770D01*
Y1488770*
X1889936Y1496770*
Y1488770*
X1879936Y1558770D02*
G01X1887936Y1566770D01*
Y1558770*
X1879936Y1566770*
Y1558770*
Y1548770D02*
G01X1887936Y1556770D01*
Y1548770*
X1879936Y1556770*
Y1548770*
Y1488770D02*
G01X1887936Y1496770D01*
Y1488770*
X1879936Y1496770*
Y1488770*
X1869936Y1558770D02*
G01X1877936Y1566770D01*
Y1558770*
X1869936Y1566770*
Y1558770*
Y1548770D02*
G01X1877936Y1556770D01*
Y1548770*
X1869936Y1556770*
Y1548770*
Y1488770D02*
G01X1877936Y1496770D01*
Y1488770*
X1869936Y1496770*
Y1488770*
X1859936Y1558770D02*
G01X1867936Y1566770D01*
Y1558770*
X1859936Y1566770*
Y1558770*
Y1548770D02*
G01X1867936Y1556770D01*
Y1548770*
X1859936Y1556770*
Y1548770*
Y1518770D02*
G01X1867936Y1526770D01*
Y1518770*
X1859936Y1526770*
Y1518770*
Y1508770D02*
G01X1867936Y1516770D01*
Y1508770*
X1859936Y1516770*
Y1508770*
Y1498770D02*
G01X1867936Y1506770D01*
Y1498770*
X1859936Y1506770*
Y1498770*
Y1488770D02*
G01X1867936Y1496770D01*
Y1488770*
X1859936Y1496770*
Y1488770*
X1849936Y1558770D02*
G01X1857936Y1566770D01*
Y1558770*
X1849936Y1566770*
Y1558770*
Y1548770D02*
G01X1857936Y1556770D01*
Y1548770*
X1849936Y1556770*
Y1548770*
Y1538770D02*
G01X1857936Y1546770D01*
Y1538770*
X1849936Y1546770*
Y1538770*
Y1488770D02*
G01X1857936Y1496770D01*
Y1488770*
X1849936Y1496770*
Y1488770*
X1839936D02*
G01X1847936Y1496770D01*
Y1488770*
X1839936Y1496770*
Y1488770*
X1829936Y1518770D02*
G01X1837936Y1526770D01*
Y1518770*
X1829936Y1526770*
Y1518770*
Y1488770D02*
G01X1837936Y1496770D01*
Y1488770*
X1829936Y1496770*
Y1488770*
X1819936Y1498770D02*
G01X1827936Y1506770D01*
Y1498770*
X1819936Y1506770*
Y1498770*
Y1488770D02*
G01X1827936Y1496770D01*
Y1488770*
X1819936Y1496770*
Y1488770*
X1892067Y1498800D02*
G01X1900067Y1506800D01*
Y1498800*
X1892067Y1506800*
Y1498800*
X1844823Y1517304D02*
G01X1852823Y1525304D01*
Y1517304*
X1844823Y1525304*
Y1517304*
X1891673Y1507068D02*
G01X1899673Y1515068D01*
Y1507068*
X1891673Y1515068*
Y1507068*
X1836161Y1524784D02*
G01X1844161Y1532784D01*
Y1524784*
X1836161Y1532784*
Y1524784*
X1815689Y1559036D02*
G01X1823689Y1567036D01*
Y1559036*
X1815689Y1567036*
Y1559036*
X1890886Y1516517D02*
G01X1898886Y1524517D01*
Y1516517*
X1890886Y1524517*
Y1516517*
Y1522422D02*
G01X1898886Y1530422D01*
Y1522422*
X1890886Y1530422*
Y1522422*
Y1527934D02*
G01X1898886Y1535934D01*
Y1527934*
X1890886Y1535934*
Y1527934*
X1813720Y1505099D02*
G01X1821720Y1513099D01*
Y1505099*
X1813720Y1513099*
Y1505099*
X1822776Y1509430D02*
G01X1830776Y1517430D01*
Y1509430*
X1822776Y1517430*
Y1509430*
X1838524Y1533840D02*
G01X1846524Y1541840D01*
Y1533840*
X1838524Y1541840*
Y1533840*
X1831831Y1515336D02*
G01X1839831Y1523336D01*
Y1515336*
X1831831Y1523336*
Y1515336*
X1838524Y1550375D02*
G01X1846524Y1558375D01*
Y1550375*
X1838524Y1558375*
Y1550375*
X1844035Y1539745D02*
G01X1852035Y1547745D01*
Y1539745*
X1844035Y1547745*
Y1539745*
X1882618Y1511399D02*
G01X1890618Y1519399D01*
Y1511399*
X1882618Y1519399*
Y1511399*
X1885768Y1503131D02*
G01X1893768Y1511131D01*
Y1503131*
X1885768Y1511131*
Y1503131*
X1896398Y1522029D02*
G01X1904398Y1530029D01*
Y1522029*
X1896398Y1530029*
Y1522029*
X1893248Y1540926D02*
G01X1901248Y1548926D01*
Y1540926*
X1893248Y1548926*
Y1540926*
X1909936Y1558770D02*
G01X1917936Y1566770D01*
Y1558770*
X1909936Y1566770*
Y1558770*
Y1548770D02*
G01X1917936Y1556770D01*
Y1548770*
X1909936Y1556770*
Y1548770*
Y1538770D02*
G01X1917936Y1546770D01*
Y1538770*
X1909936Y1546770*
Y1538770*
Y1528770D02*
G01X1917936Y1536770D01*
Y1528770*
X1909936Y1536770*
Y1528770*
Y1518770D02*
G01X1917936Y1526770D01*
Y1518770*
X1909936Y1526770*
Y1518770*
Y1508770D02*
G01X1917936Y1516770D01*
Y1508770*
X1909936Y1516770*
Y1508770*
Y1488770D02*
G01X1917936Y1496770D01*
Y1488770*
X1909936Y1496770*
Y1488770*
X1899936Y1548770D02*
G01X1907936Y1556770D01*
Y1548770*
X1899936Y1556770*
Y1548770*
Y1508770D02*
G01X1907936Y1516770D01*
Y1508770*
X1899936Y1516770*
Y1508770*
Y1488770D02*
G01X1907936Y1496770D01*
Y1488770*
X1899936Y1496770*
Y1488770*
X1720807Y1572029D02*
G01X1728807Y1580029D01*
Y1572029*
X1720807Y1580029*
Y1572029*
Y1583446D02*
G01X1728807Y1591446D01*
Y1583446*
X1720807Y1591446*
Y1583446*
X1721201Y1598013D02*
G01X1729201Y1606013D01*
Y1598013*
X1721201Y1606013*
Y1598013*
X1729936Y1588770D02*
G01X1737936Y1596770D01*
Y1588770*
X1729936Y1596770*
Y1588770*
Y1578770D02*
G01X1737936Y1586770D01*
Y1578770*
X1729936Y1586770*
Y1578770*
X1762539Y1564155D02*
G01X1770539Y1572155D01*
Y1564155*
X1762539Y1572155*
Y1564155*
X1788524Y1576753D02*
G01X1796524Y1584753D01*
Y1576753*
X1788524Y1584753*
Y1576753*
X1769936Y1608770D02*
G01X1777936Y1616770D01*
Y1608770*
X1769936Y1616770*
Y1608770*
Y1598770D02*
G01X1777936Y1606770D01*
Y1598770*
X1769936Y1606770*
Y1598770*
Y1588770D02*
G01X1777936Y1596770D01*
Y1588770*
X1769936Y1596770*
Y1588770*
X1759936Y1608770D02*
G01X1767936Y1616770D01*
Y1608770*
X1759936Y1616770*
Y1608770*
Y1598770D02*
G01X1767936Y1606770D01*
Y1598770*
X1759936Y1606770*
Y1598770*
X1749936Y1608770D02*
G01X1757936Y1616770D01*
Y1608770*
X1749936Y1616770*
Y1608770*
Y1598770D02*
G01X1757936Y1606770D01*
Y1598770*
X1749936Y1606770*
Y1598770*
X1739936Y1608770D02*
G01X1747936Y1616770D01*
Y1608770*
X1739936Y1616770*
Y1608770*
Y1598770D02*
G01X1747936Y1606770D01*
Y1598770*
X1739936Y1606770*
Y1598770*
Y1588770D02*
G01X1747936Y1596770D01*
Y1588770*
X1739936Y1596770*
Y1588770*
Y1578770D02*
G01X1747936Y1586770D01*
Y1578770*
X1739936Y1586770*
Y1578770*
Y1568770D02*
G01X1747936Y1576770D01*
Y1568770*
X1739936Y1576770*
Y1568770*
X1764902Y1583446D02*
G01X1772902Y1591446D01*
Y1583446*
X1764902Y1591446*
Y1583446*
Y1579509D02*
G01X1772902Y1587509D01*
Y1579509*
X1764902Y1587509*
Y1579509*
X1788524Y1573603D02*
G01X1796524Y1581603D01*
Y1573603*
X1788524Y1581603*
Y1573603*
X1805059Y1585021D02*
G01X1813059Y1593021D01*
Y1585021*
X1805059Y1593021*
Y1585021*
X1803091Y1586989D02*
G01X1811091Y1594989D01*
Y1586989*
X1803091Y1594989*
Y1586989*
X1807815Y1587383D02*
G01X1815815Y1595383D01*
Y1587383*
X1807815Y1595383*
Y1587383*
Y1584627D02*
G01X1815815Y1592627D01*
Y1584627*
X1807815Y1592627*
Y1584627*
X1768445Y1576359D02*
G01X1776445Y1584359D01*
Y1576359*
X1768445Y1584359*
Y1576359*
X1785768Y1573603D02*
G01X1793768Y1581603D01*
Y1573603*
X1785768Y1581603*
Y1573603*
X1768445Y1579903D02*
G01X1776445Y1587903D01*
Y1579903*
X1768445Y1587903*
Y1579903*
X1785768D02*
G01X1793768Y1587903D01*
Y1579903*
X1785768Y1587903*
Y1579903*
X1768445Y1583446D02*
G01X1776445Y1591446D01*
Y1583446*
X1768445Y1591446*
Y1583446*
X1751909Y1579509D02*
G01X1759909Y1587509D01*
Y1579509*
X1751909Y1587509*
Y1579509*
X1769232Y1566123D02*
G01X1777232Y1574123D01*
Y1566123*
X1769232Y1574123*
Y1566123*
X1765295Y1576359D02*
G01X1773295Y1584359D01*
Y1576359*
X1765295Y1584359*
Y1576359*
X1785768Y1576753D02*
G01X1793768Y1584753D01*
Y1576753*
X1785768Y1584753*
Y1576753*
X1803484Y1583052D02*
G01X1811484Y1591052D01*
Y1583052*
X1803484Y1591052*
Y1583052*
X1788524Y1579903D02*
G01X1796524Y1587903D01*
Y1579903*
X1788524Y1587903*
Y1579903*
X1863327Y1574784D02*
G01X1871327Y1582784D01*
Y1574784*
X1863327Y1582784*
Y1574784*
X1854272Y1575178D02*
G01X1862272Y1583178D01*
Y1575178*
X1854272Y1583178*
Y1575178*
X1860571Y1582265D02*
G01X1868571Y1590265D01*
Y1582265*
X1860571Y1590265*
Y1582265*
X1854272D02*
G01X1862272Y1590265D01*
Y1582265*
X1854272Y1590265*
Y1582265*
X1847579Y1566123D02*
G01X1855579Y1574123D01*
Y1566123*
X1847579Y1574123*
Y1566123*
X1889936Y1608770D02*
G01X1897936Y1616770D01*
Y1608770*
X1889936Y1616770*
Y1608770*
Y1598770D02*
G01X1897936Y1606770D01*
Y1598770*
X1889936Y1606770*
Y1598770*
Y1588770D02*
G01X1897936Y1596770D01*
Y1588770*
X1889936Y1596770*
Y1588770*
Y1578770D02*
G01X1897936Y1586770D01*
Y1578770*
X1889936Y1586770*
Y1578770*
Y1568770D02*
G01X1897936Y1576770D01*
Y1568770*
X1889936Y1576770*
Y1568770*
X1879936Y1578770D02*
G01X1887936Y1586770D01*
Y1578770*
X1879936Y1586770*
Y1578770*
Y1568770D02*
G01X1887936Y1576770D01*
Y1568770*
X1879936Y1576770*
Y1568770*
X1869936Y1578770D02*
G01X1877936Y1586770D01*
Y1578770*
X1869936Y1586770*
Y1578770*
Y1568770D02*
G01X1877936Y1576770D01*
Y1568770*
X1869936Y1576770*
Y1568770*
X1859936D02*
G01X1867936Y1576770D01*
Y1568770*
X1859936Y1576770*
Y1568770*
X1826713Y1573210D02*
G01X1834713Y1581210D01*
Y1573210*
X1826713Y1581210*
Y1573210*
Y1576753D02*
G01X1834713Y1584753D01*
Y1576753*
X1826713Y1584753*
Y1576753*
Y1569666D02*
G01X1834713Y1577666D01*
Y1569666*
X1826713Y1577666*
Y1569666*
X1829469Y1576753D02*
G01X1837469Y1584753D01*
Y1576753*
X1829469Y1584753*
Y1576753*
X1840098Y1583052D02*
G01X1848098Y1591052D01*
Y1583052*
X1840098Y1591052*
Y1583052*
X1845610D02*
G01X1853610Y1591052D01*
Y1583052*
X1845610Y1591052*
Y1583052*
X1847579Y1581084D02*
G01X1855579Y1589084D01*
Y1581084*
X1847579Y1589084*
Y1581084*
X1845217Y1579903D02*
G01X1853217Y1587903D01*
Y1579903*
X1845217Y1587903*
Y1579903*
X1829469Y1573210D02*
G01X1837469Y1581210D01*
Y1573210*
X1829469Y1581210*
Y1573210*
Y1569666D02*
G01X1837469Y1577666D01*
Y1569666*
X1829469Y1577666*
Y1569666*
X1842854Y1583052D02*
G01X1850854Y1591052D01*
Y1583052*
X1842854Y1591052*
Y1583052*
X1912539Y1598800D02*
G01X1920539Y1606800D01*
Y1598800*
X1912539Y1606800*
Y1598800*
X1909936Y1588770D02*
G01X1917936Y1596770D01*
Y1588770*
X1909936Y1596770*
Y1588770*
Y1578770D02*
G01X1917936Y1586770D01*
Y1578770*
X1909936Y1586770*
Y1578770*
Y1568770D02*
G01X1917936Y1576770D01*
Y1568770*
X1909936Y1576770*
Y1568770*
X1899936Y1588770D02*
G01X1907936Y1596770D01*
Y1588770*
X1899936Y1596770*
Y1588770*
X2543075Y1224375D02*
G01Y1314375D01*
X2113875*
Y1224375*
X2543075*
X2542875Y1274375D02*
G01X2113875D01*
X2542875Y1239375D02*
G01X2113875D01*
X2206875Y1274375D02*
G01Y1239375D01*
X2256875Y1274375D02*
G01Y1239375D01*
X2349875D02*
G01Y1274375D01*
X2399875D02*
G01Y1239375D01*
X2492875Y1274375D02*
G01Y1239375D01*
X2442875D02*
G01Y1224375D01*
X2382875D02*
G01Y1239375D01*
X2332875D02*
G01Y1224375D01*
X2262875D02*
G01Y1239375D01*
X1453075Y1224375D02*
G01X2543075D01*
Y1974375*
X1453075*
Y1224375*
X1463075*
X1433075Y1204375D02*
G01X2563075D01*
Y1994375*
X1433075*
Y1204375*
X1493075*
X1725475Y1224375D02*
G01Y1204375D01*
X1998075Y1224375D02*
G01Y1204375D01*
X2270675Y1224375D02*
G01Y1204375D01*
X1433075Y1411975D02*
G01X1453075D01*
Y1599375D02*
G01X1433075D01*
X1453075Y1786975D02*
G01X1433075D01*
X1725475Y1974375D02*
G01Y1994375D01*
X1998075D02*
G01Y1974375D01*
X2270675D02*
G01Y1994375D01*
X2543075Y1786975D02*
G01X2563075D01*
Y1599375D02*
G01X2543075D01*
Y1411975D02*
G01X2563075D01*
X2113875Y1314375D02*
G01Y1354375D01*
X2543075*
X2451257Y1234000D02*
G01X2450802Y1234625D01*
X2450120Y1234938*
Y1234938D02*
G01X2449211D01*
Y1234938D02*
G01X2448529Y1234625D01*
X2448075Y1234000*
Y1233375*
X2448302Y1232750*
X2448529Y1232438*
Y1232438D02*
G01X2448984Y1232125D01*
X2450348Y1231500*
X2450802Y1231188*
Y1231188D02*
G01X2451029Y1230875D01*
X2451257Y1230250*
Y1229313*
Y1229313D02*
G01X2450802Y1228688D01*
Y1228688D02*
G01X2450120Y1228375D01*
X2449211*
X2448529Y1228688*
Y1228688D02*
G01X2448075Y1229313D01*
X2453302Y1234938D02*
G01Y1228375D01*
X2456484Y1234938D02*
G01Y1228375D01*
X2453302Y1231813D02*
G01X2456484D01*
X2458529Y1234938D02*
G01Y1228375D01*
Y1234938D02*
G01X2461484D01*
X2458529Y1231813D02*
G01X2460348D01*
X2458529Y1228375D02*
G01X2461484D01*
X2463529Y1234938D02*
G01Y1228375D01*
Y1234938D02*
G01X2466484D01*
X2463529Y1231813D02*
G01X2465348D01*
X2463529Y1228375D02*
G01X2466484D01*
X2470120Y1234938D02*
G01Y1228375D01*
X2468529Y1234938D02*
G01X2471711D01*
X2473984Y1232750D02*
G01X2473757Y1232438D01*
Y1232438D02*
G01X2473984Y1232125D01*
X2474211Y1232438*
Y1232438D02*
G01X2473984Y1232750D01*
Y1229000D02*
G01X2473757Y1228688D01*
Y1228688D02*
G01X2473984Y1228375D01*
X2474211Y1228688*
Y1228688D02*
G01X2473984Y1229000D01*
X2481484Y1233688D02*
G01X2481938Y1234000D01*
X2482620Y1234938*
Y1234938D02*
G01Y1228375D01*
X2491257Y1234938D02*
G01X2490802Y1234625D01*
X2490348Y1234000*
X2490120Y1233375*
X2489893Y1232438*
Y1232438D02*
G01Y1230875D01*
X2490120Y1229938*
Y1229938D02*
G01X2490348Y1229313D01*
Y1229313D02*
G01X2490802Y1228688D01*
Y1228688D02*
G01X2491257Y1228375D01*
X2492166*
X2492620Y1228688*
Y1228688D02*
G01X2493075Y1229313D01*
Y1229313D02*
G01X2493302Y1229938D01*
Y1229938D02*
G01X2493529Y1230875D01*
Y1232438*
Y1232438D02*
G01X2493302Y1233375D01*
X2493075Y1234000*
X2492620Y1234625*
X2492166Y1234938*
Y1234938D02*
G01X2491257D01*
X2495575D02*
G01Y1228375D01*
Y1234938D02*
G01X2498529D01*
X2495575Y1231813D02*
G01X2497393D01*
X2505802Y1233688D02*
G01X2506257Y1234000D01*
X2506938Y1234938*
Y1234938D02*
G01Y1228375D01*
X2215257Y1252375D02*
G01Y1252625D01*
X2215438Y1253125*
X2215620Y1253375*
X2215984Y1253625*
X2216711*
X2217075Y1253375*
X2217257Y1253125*
X2217438Y1252625*
Y1252125*
X2217257Y1251625*
X2216893Y1250875*
X2215075Y1248375*
X2217620*
X2220348Y1253625D02*
G01X2219802Y1253375D01*
X2219438Y1252625*
X2219257Y1251375*
Y1250625*
X2219438Y1249375*
X2219802Y1248625*
X2220348Y1248375*
X2220711*
X2221257Y1248625*
X2221620Y1249375*
X2221802Y1250625*
Y1251375*
X2221620Y1252625*
X2221257Y1253375*
X2220711Y1253625*
X2220348*
X2223438Y1252625D02*
G01X2223802Y1252875D01*
X2224348Y1253625*
Y1248375*
X2228529Y1253625D02*
G01X2226711Y1248375D01*
X2225984Y1253625D02*
G01X2228529D01*
X2230348Y1248875D02*
G01X2230166Y1248625D01*
X2230348Y1248375*
X2230529Y1248625*
X2230348Y1248875*
X2233257Y1253625D02*
G01X2232711Y1253375D01*
X2232348Y1252625*
X2232166Y1251375*
Y1250625*
X2232348Y1249375*
X2232711Y1248625*
X2233257Y1248375*
X2233620*
X2234166Y1248625*
X2234529Y1249375*
X2234711Y1250625*
Y1251375*
X2234529Y1252625*
X2234166Y1253375*
X2233620Y1253625*
X2233257*
X2237257D02*
G01X2236711Y1253375D01*
X2236529Y1252875*
Y1252375*
X2236711Y1251875*
X2237075Y1251625*
X2237802Y1251375*
X2238348Y1251125*
X2238711Y1250625*
X2238893Y1250125*
Y1249375*
X2238711Y1248875*
X2238529Y1248625*
X2237984Y1248375*
X2237257*
X2236711Y1248625*
X2236529Y1248875*
X2236348Y1249375*
Y1250125*
X2236529Y1250625*
X2236893Y1251125*
X2237438Y1251375*
X2238166Y1251625*
X2238529Y1251875*
X2238711Y1252375*
Y1252875*
X2238529Y1253375*
X2237984Y1253625*
X2237257*
X2240711Y1248875D02*
G01X2240529Y1248625D01*
X2240711Y1248375*
X2240893Y1248625*
X2240711Y1248875*
X2242529Y1252625D02*
G01X2242893Y1252875D01*
X2243438Y1253625*
Y1248375*
X2247438Y1253625D02*
G01X2245620D01*
X2245438Y1251375*
X2245620Y1251625*
X2246166Y1251875*
X2246711*
X2247257Y1251625*
X2247620Y1251125*
X2247802Y1250375*
X2247620Y1249875*
X2247438Y1249125*
X2247075Y1248625*
X2246529Y1248375*
X2245984*
X2245438Y1248625*
X2245257Y1248875*
X2245075Y1249375*
X2271257Y1234000D02*
G01X2270802Y1234625D01*
X2270120Y1234938*
Y1234938D02*
G01X2269211D01*
Y1234938D02*
G01X2268529Y1234625D01*
X2268075Y1234000*
Y1233375*
X2268302Y1232750*
X2268529Y1232438*
Y1232438D02*
G01X2268984Y1232125D01*
X2270348Y1231500*
X2270802Y1231188*
Y1231188D02*
G01X2271029Y1230875D01*
X2271257Y1230250*
Y1229313*
Y1229313D02*
G01X2270802Y1228688D01*
Y1228688D02*
G01X2270120Y1228375D01*
X2269211*
X2268529Y1228688*
Y1228688D02*
G01X2268075Y1229313D01*
X2276711Y1233375D02*
G01X2276484Y1234000D01*
X2276029Y1234625*
X2275575Y1234938*
Y1234938D02*
G01X2274666D01*
Y1234938D02*
G01X2274211Y1234625D01*
X2273757Y1234000*
X2273529Y1233375*
X2273302Y1232438*
Y1232438D02*
G01Y1230875D01*
X2273529Y1229938*
Y1229938D02*
G01X2273757Y1229313D01*
Y1229313D02*
G01X2274211Y1228688D01*
Y1228688D02*
G01X2274666Y1228375D01*
X2275575*
X2276029Y1228688*
Y1228688D02*
G01X2276484Y1229313D01*
Y1229313D02*
G01X2276711Y1229938D01*
X2280575Y1234938D02*
G01X2278757Y1228375D01*
X2280575Y1234938D02*
G01X2282393Y1228375D01*
X2279438Y1230563D02*
G01X2281711D01*
X2284438Y1234938D02*
G01Y1228375D01*
X2287166*
X2289211Y1234938D02*
G01Y1228375D01*
Y1234938D02*
G01X2292166D01*
X2289211Y1231813D02*
G01X2291029D01*
X2289211Y1228375D02*
G01X2292166D01*
X2294438Y1232750D02*
G01X2294211Y1232438D01*
Y1232438D02*
G01X2294438Y1232125D01*
X2294666Y1232438*
Y1232438D02*
G01X2294438Y1232750D01*
Y1229000D02*
G01X2294211Y1228688D01*
Y1228688D02*
G01X2294438Y1228375D01*
X2294666Y1228688*
Y1228688D02*
G01X2294438Y1229000D01*
X2296711Y1233688D02*
G01X2297166Y1234000D01*
X2297848Y1234938*
Y1234938D02*
G01Y1228375D01*
X2300120Y1232750D02*
G01X2299893Y1232438D01*
Y1232438D02*
G01X2300120Y1232125D01*
X2300348Y1232438*
Y1232438D02*
G01X2300120Y1232750D01*
Y1229000D02*
G01X2299893Y1228688D01*
Y1228688D02*
G01X2300120Y1228375D01*
X2300348Y1228688*
Y1228688D02*
G01X2300120Y1229000D01*
X2302393Y1233688D02*
G01X2302848Y1234000D01*
X2303529Y1234938*
Y1234938D02*
G01Y1228375D01*
X2341257Y1234000D02*
G01X2340802Y1234625D01*
X2340120Y1234938*
Y1234938D02*
G01X2339211D01*
Y1234938D02*
G01X2338529Y1234625D01*
X2338075Y1234000*
Y1233375*
X2338302Y1232750*
X2338529Y1232438*
Y1232438D02*
G01X2338984Y1232125D01*
X2340348Y1231500*
X2340802Y1231188*
Y1231188D02*
G01X2341029Y1230875D01*
X2341257Y1230250*
Y1229313*
Y1229313D02*
G01X2340802Y1228688D01*
Y1228688D02*
G01X2340120Y1228375D01*
X2339211*
X2338529Y1228688*
Y1228688D02*
G01X2338075Y1229313D01*
X2343302Y1234938D02*
G01Y1228375D01*
X2348529Y1234938D02*
G01X2345348Y1228375D01*
Y1234938D02*
G01X2348529D01*
X2345348Y1228375D02*
G01X2348529D01*
X2350575Y1234938D02*
G01Y1228375D01*
Y1234938D02*
G01X2353529D01*
X2350575Y1231813D02*
G01X2352393D01*
X2350575Y1228375D02*
G01X2353529D01*
X2355802Y1232750D02*
G01X2355575Y1232438D01*
Y1232438D02*
G01X2355802Y1232125D01*
X2356029Y1232438*
Y1232438D02*
G01X2355802Y1232750D01*
Y1229000D02*
G01X2355575Y1228688D01*
Y1228688D02*
G01X2355802Y1228375D01*
X2356029Y1228688*
Y1228688D02*
G01X2355802Y1229000D01*
X2359893Y1234938D02*
G01X2358075Y1228375D01*
X2359893Y1234938D02*
G01X2361711Y1228375D01*
X2358757Y1230563D02*
G01X2361029D01*
X2366029Y1234938D02*
G01X2363757Y1230563D01*
Y1230563D02*
G01X2367166D01*
X2366029Y1234938D02*
G01Y1228375D01*
X2120466Y1309938D02*
G01Y1303375D01*
X2118875Y1309938D02*
G01X2122057D01*
X2124102D02*
G01Y1303375D01*
X2127738Y1309938D02*
G01Y1303375D01*
X2126148Y1309938D02*
G01X2129329D01*
X2131375D02*
G01Y1303375D01*
X2134102*
X2136148Y1309938D02*
G01Y1303375D01*
Y1309938D02*
G01X2139102D01*
X2136148Y1306813D02*
G01X2137966D01*
X2136148Y1303375D02*
G01X2139102D01*
X2141375Y1307750D02*
G01X2141148Y1307438D01*
Y1307438D02*
G01X2141375Y1307125D01*
X2141602Y1307438*
Y1307438D02*
G01X2141375Y1307750D01*
Y1304000D02*
G01X2141148Y1303688D01*
Y1303688D02*
G01X2141375Y1303375D01*
X2141602Y1303688*
Y1303688D02*
G01X2141375Y1304000D01*
X2118875Y1269938D02*
G01Y1263375D01*
Y1269938D02*
G01X2120466D01*
Y1269938D02*
G01X2121148Y1269625D01*
X2121602Y1269000*
X2121829Y1268375*
X2122057Y1267438*
Y1267438D02*
G01Y1265875D01*
X2121829Y1264938*
Y1264938D02*
G01X2121602Y1264313D01*
Y1264313D02*
G01X2121148Y1263688D01*
Y1263688D02*
G01X2120466Y1263375D01*
X2118875*
X2124102Y1269938D02*
G01Y1263375D01*
Y1269938D02*
G01X2126148D01*
Y1269938D02*
G01X2126829Y1269625D01*
X2127057Y1269313*
Y1269313D02*
G01X2127284Y1268688D01*
Y1268688D02*
G01Y1268063D01*
Y1268063D02*
G01X2127057Y1267438D01*
Y1267438D02*
G01X2126829Y1267125D01*
X2126148Y1266813*
Y1266813D02*
G01X2124102D01*
X2125693D02*
G01X2127284Y1263375D01*
X2131148Y1269938D02*
G01X2129329Y1263375D01*
X2131148Y1269938D02*
G01X2132966Y1263375D01*
X2130011Y1265563D02*
G01X2132284D01*
X2135011Y1269938D02*
G01X2136148Y1263375D01*
X2137284Y1269938D02*
G01X2136148Y1263375D01*
X2137284Y1269938D02*
G01X2138420Y1263375D01*
X2139557Y1269938D02*
G01X2138420Y1263375D01*
X2141602Y1269938D02*
G01Y1263375D01*
Y1269938D02*
G01X2144784Y1263375D01*
Y1269938D02*
G01Y1263375D01*
X2147057Y1267750D02*
G01X2146829Y1267438D01*
Y1267438D02*
G01X2147057Y1267125D01*
X2147284Y1267438*
Y1267438D02*
G01X2147057Y1267750D01*
Y1264000D02*
G01X2146829Y1263688D01*
Y1263688D02*
G01X2147057Y1263375D01*
X2147284Y1263688*
Y1263688D02*
G01X2147057Y1264000D01*
X2211875Y1269938D02*
G01Y1263375D01*
Y1269938D02*
G01X2213466D01*
Y1269938D02*
G01X2214148Y1269625D01*
X2214602Y1269000*
X2214829Y1268375*
X2215057Y1267438*
Y1267438D02*
G01Y1265875D01*
X2214829Y1264938*
Y1264938D02*
G01X2214602Y1264313D01*
Y1264313D02*
G01X2214148Y1263688D01*
Y1263688D02*
G01X2213466Y1263375D01*
X2211875*
X2218920Y1269938D02*
G01X2217102Y1263375D01*
X2218920Y1269938D02*
G01X2220738Y1263375D01*
X2217784Y1265563D02*
G01X2220057D01*
X2224375Y1269938D02*
G01Y1263375D01*
X2222784Y1269938D02*
G01X2225966D01*
X2228011D02*
G01Y1263375D01*
Y1269938D02*
G01X2230966D01*
X2228011Y1266813D02*
G01X2229829D01*
X2228011Y1263375D02*
G01X2230966D01*
X2233011Y1269938D02*
G01Y1263375D01*
Y1269938D02*
G01X2234602D01*
Y1269938D02*
G01X2235284Y1269625D01*
X2235738Y1269000*
X2235966Y1268375*
X2236193Y1267438*
Y1267438D02*
G01Y1265875D01*
X2235966Y1264938*
Y1264938D02*
G01X2235738Y1264313D01*
Y1264313D02*
G01X2235284Y1263688D01*
Y1263688D02*
G01X2234602Y1263375D01*
X2233011*
X2238466Y1267750D02*
G01X2238238Y1267438D01*
Y1267438D02*
G01X2238466Y1267125D01*
X2238693Y1267438*
Y1267438D02*
G01X2238466Y1267750D01*
Y1264000D02*
G01X2238238Y1263688D01*
Y1263688D02*
G01X2238466Y1263375D01*
X2238693Y1263688*
Y1263688D02*
G01X2238466Y1264000D01*
X2265284Y1268375D02*
G01X2265057Y1269000D01*
X2264602Y1269625*
X2264148Y1269938*
Y1269938D02*
G01X2263238D01*
Y1269938D02*
G01X2262784Y1269625D01*
X2262329Y1269000*
X2262102Y1268375*
X2261875Y1267438*
Y1267438D02*
G01Y1265875D01*
X2262102Y1264938*
Y1264938D02*
G01X2262329Y1264313D01*
Y1264313D02*
G01X2262784Y1263688D01*
Y1263688D02*
G01X2263238Y1263375D01*
X2264148*
X2264602Y1263688*
Y1263688D02*
G01X2265057Y1264313D01*
Y1264313D02*
G01X2265284Y1264938D01*
X2267329Y1269938D02*
G01Y1263375D01*
X2270511Y1269938D02*
G01Y1263375D01*
X2267329Y1266813D02*
G01X2270511D01*
X2272557Y1269938D02*
G01Y1263375D01*
Y1269938D02*
G01X2275511D01*
X2272557Y1266813D02*
G01X2274375D01*
X2272557Y1263375D02*
G01X2275511D01*
X2280966Y1268375D02*
G01X2280738Y1269000D01*
X2280284Y1269625*
X2279829Y1269938*
Y1269938D02*
G01X2278920D01*
Y1269938D02*
G01X2278466Y1269625D01*
X2278011Y1269000*
X2277784Y1268375*
X2277557Y1267438*
Y1267438D02*
G01Y1265875D01*
X2277784Y1264938*
Y1264938D02*
G01X2278011Y1264313D01*
Y1264313D02*
G01X2278466Y1263688D01*
Y1263688D02*
G01X2278920Y1263375D01*
X2279829*
X2280284Y1263688*
Y1263688D02*
G01X2280738Y1264313D01*
Y1264313D02*
G01X2280966Y1264938D01*
X2283011Y1269938D02*
G01Y1263375D01*
X2286193Y1269938D02*
G01X2283011Y1265563D01*
X2284148Y1267125D02*
G01X2286193Y1263375D01*
X2288238Y1269938D02*
G01Y1263375D01*
Y1269938D02*
G01X2291193D01*
X2288238Y1266813D02*
G01X2290057D01*
X2288238Y1263375D02*
G01X2291193D01*
X2293238Y1269938D02*
G01Y1263375D01*
Y1269938D02*
G01X2294829D01*
Y1269938D02*
G01X2295511Y1269625D01*
X2295966Y1269000*
X2296193Y1268375*
X2296420Y1267438*
Y1267438D02*
G01Y1265875D01*
X2296193Y1264938*
Y1264938D02*
G01X2295966Y1264313D01*
Y1264313D02*
G01X2295511Y1263688D01*
Y1263688D02*
G01X2294829Y1263375D01*
X2293238*
X2298693Y1267750D02*
G01X2298466Y1267438D01*
Y1267438D02*
G01X2298693Y1267125D01*
X2298920Y1267438*
Y1267438D02*
G01X2298693Y1267750D01*
Y1264000D02*
G01X2298466Y1263688D01*
Y1263688D02*
G01X2298693Y1263375D01*
X2298920Y1263688*
Y1263688D02*
G01X2298693Y1264000D01*
X2354875Y1269938D02*
G01Y1263375D01*
Y1269938D02*
G01X2356466D01*
Y1269938D02*
G01X2357148Y1269625D01*
X2357602Y1269000*
X2357829Y1268375*
X2358057Y1267438*
Y1267438D02*
G01Y1265875D01*
X2357829Y1264938*
Y1264938D02*
G01X2357602Y1264313D01*
Y1264313D02*
G01X2357148Y1263688D01*
Y1263688D02*
G01X2356466Y1263375D01*
X2354875*
X2361920Y1269938D02*
G01X2360102Y1263375D01*
X2361920Y1269938D02*
G01X2363738Y1263375D01*
X2360784Y1265563D02*
G01X2363057D01*
X2367375Y1269938D02*
G01Y1263375D01*
X2365784Y1269938D02*
G01X2368966D01*
X2371011D02*
G01Y1263375D01*
Y1269938D02*
G01X2373966D01*
X2371011Y1266813D02*
G01X2372829D01*
X2371011Y1263375D02*
G01X2373966D01*
X2376011Y1269938D02*
G01Y1263375D01*
Y1269938D02*
G01X2377602D01*
Y1269938D02*
G01X2378284Y1269625D01*
X2378738Y1269000*
X2378966Y1268375*
X2379193Y1267438*
Y1267438D02*
G01Y1265875D01*
X2378966Y1264938*
Y1264938D02*
G01X2378738Y1264313D01*
Y1264313D02*
G01X2378284Y1263688D01*
Y1263688D02*
G01X2377602Y1263375D01*
X2376011*
X2381466Y1267750D02*
G01X2381238Y1267438D01*
Y1267438D02*
G01X2381466Y1267125D01*
X2381693Y1267438*
Y1267438D02*
G01X2381466Y1267750D01*
Y1264000D02*
G01X2381238Y1263688D01*
Y1263688D02*
G01X2381466Y1263375D01*
X2381693Y1263688*
Y1263688D02*
G01X2381466Y1264000D01*
X2406693Y1269938D02*
G01X2404875Y1263375D01*
X2406693Y1269938D02*
G01X2408511Y1263375D01*
X2405557Y1265563D02*
G01X2407829D01*
X2410557Y1269938D02*
G01Y1263375D01*
Y1269938D02*
G01X2412602D01*
Y1269938D02*
G01X2413284Y1269625D01*
X2413511Y1269313*
Y1269313D02*
G01X2413738Y1268688D01*
Y1268688D02*
G01Y1267750D01*
X2413511Y1267125*
X2413284Y1266813*
Y1266813D02*
G01X2412602Y1266500D01*
X2410557*
X2415784Y1269938D02*
G01Y1263375D01*
Y1269938D02*
G01X2417829D01*
Y1269938D02*
G01X2418511Y1269625D01*
X2418738Y1269313*
Y1269313D02*
G01X2418966Y1268688D01*
Y1268688D02*
G01Y1267750D01*
X2418738Y1267125*
X2418511Y1266813*
Y1266813D02*
G01X2417829Y1266500D01*
X2415784*
X2421011Y1269938D02*
G01Y1263375D01*
Y1269938D02*
G01X2423057D01*
Y1269938D02*
G01X2423738Y1269625D01*
X2423966Y1269313*
Y1269313D02*
G01X2424193Y1268688D01*
Y1268688D02*
G01Y1268063D01*
Y1268063D02*
G01X2423966Y1267438D01*
Y1267438D02*
G01X2423738Y1267125D01*
X2423057Y1266813*
Y1266813D02*
G01X2421011D01*
X2422602D02*
G01X2424193Y1263375D01*
X2427602Y1269938D02*
G01X2427148Y1269625D01*
X2426693Y1269000*
X2426466Y1268375*
X2426238Y1267438*
Y1267438D02*
G01Y1265875D01*
X2426466Y1264938*
Y1264938D02*
G01X2426693Y1264313D01*
Y1264313D02*
G01X2427148Y1263688D01*
Y1263688D02*
G01X2427602Y1263375D01*
X2428511*
X2428966Y1263688*
Y1263688D02*
G01X2429420Y1264313D01*
Y1264313D02*
G01X2429648Y1264938D01*
Y1264938D02*
G01X2429875Y1265875D01*
Y1267438*
Y1267438D02*
G01X2429648Y1268375D01*
X2429420Y1269000*
X2428966Y1269625*
X2428511Y1269938*
Y1269938D02*
G01X2427602D01*
X2431920D02*
G01X2433738Y1263375D01*
X2435557Y1269938D02*
G01X2433738Y1263375D01*
X2437602Y1269938D02*
G01Y1263375D01*
Y1269938D02*
G01X2440557D01*
X2437602Y1266813D02*
G01X2439420D01*
X2437602Y1263375D02*
G01X2440557D01*
X2442602Y1269938D02*
G01Y1263375D01*
Y1269938D02*
G01X2444193D01*
Y1269938D02*
G01X2444875Y1269625D01*
X2445329Y1269000*
X2445557Y1268375*
X2445784Y1267438*
Y1267438D02*
G01Y1265875D01*
X2445557Y1264938*
Y1264938D02*
G01X2445329Y1264313D01*
Y1264313D02*
G01X2444875Y1263688D01*
Y1263688D02*
G01X2444193Y1263375D01*
X2442602*
X2448057Y1267750D02*
G01X2447829Y1267438D01*
Y1267438D02*
G01X2448057Y1267125D01*
X2448284Y1267438*
Y1267438D02*
G01X2448057Y1267750D01*
Y1264000D02*
G01X2447829Y1263688D01*
Y1263688D02*
G01X2448057Y1263375D01*
X2448284Y1263688*
Y1263688D02*
G01X2448057Y1264000D01*
X2497875Y1269938D02*
G01Y1263375D01*
Y1269938D02*
G01X2499466D01*
Y1269938D02*
G01X2500148Y1269625D01*
X2500602Y1269000*
X2500829Y1268375*
X2501057Y1267438*
Y1267438D02*
G01Y1265875D01*
X2500829Y1264938*
Y1264938D02*
G01X2500602Y1264313D01*
Y1264313D02*
G01X2500148Y1263688D01*
Y1263688D02*
G01X2499466Y1263375D01*
X2497875*
X2504920Y1269938D02*
G01X2503102Y1263375D01*
X2504920Y1269938D02*
G01X2506738Y1263375D01*
X2503784Y1265563D02*
G01X2506057D01*
X2510375Y1269938D02*
G01Y1263375D01*
X2508784Y1269938D02*
G01X2511966D01*
X2514011D02*
G01Y1263375D01*
Y1269938D02*
G01X2516966D01*
X2514011Y1266813D02*
G01X2515829D01*
X2514011Y1263375D02*
G01X2516966D01*
X2519011Y1269938D02*
G01Y1263375D01*
Y1269938D02*
G01X2520602D01*
Y1269938D02*
G01X2521284Y1269625D01*
X2521738Y1269000*
X2521966Y1268375*
X2522193Y1267438*
Y1267438D02*
G01Y1265875D01*
X2521966Y1264938*
Y1264938D02*
G01X2521738Y1264313D01*
Y1264313D02*
G01X2521284Y1263688D01*
Y1263688D02*
G01X2520602Y1263375D01*
X2519011*
X2524466Y1267750D02*
G01X2524238Y1267438D01*
Y1267438D02*
G01X2524466Y1267125D01*
X2524693Y1267438*
Y1267438D02*
G01X2524466Y1267750D01*
Y1264000D02*
G01X2524238Y1263688D01*
Y1263688D02*
G01X2524466Y1263375D01*
X2524693Y1263688*
Y1263688D02*
G01X2524466Y1264000D01*
X2388075Y1234938D02*
G01Y1228375D01*
Y1234938D02*
G01X2390120D01*
Y1234938D02*
G01X2390802Y1234625D01*
X2391029Y1234313*
Y1234313D02*
G01X2391257Y1233688D01*
Y1233688D02*
G01Y1233063D01*
Y1233063D02*
G01X2391029Y1232438D01*
Y1232438D02*
G01X2390802Y1232125D01*
X2390120Y1231813*
Y1231813D02*
G01X2388075D01*
X2389666D02*
G01X2391257Y1228375D01*
X2393302Y1234938D02*
G01Y1228375D01*
Y1234938D02*
G01X2396257D01*
X2393302Y1231813D02*
G01X2395120D01*
X2393302Y1228375D02*
G01X2396257D01*
X2398302Y1234938D02*
G01X2400120Y1228375D01*
X2401938Y1234938D02*
G01X2400120Y1228375D01*
X2404211Y1232750D02*
G01X2403984Y1232438D01*
Y1232438D02*
G01X2404211Y1232125D01*
X2404438Y1232438*
Y1232438D02*
G01X2404211Y1232750D01*
Y1229000D02*
G01X2403984Y1228688D01*
Y1228688D02*
G01X2404211Y1228375D01*
X2404438Y1228688*
Y1228688D02*
G01X2404211Y1229000D01*
X2406484Y1233688D02*
G01X2406938Y1234000D01*
X2407620Y1234938*
Y1234938D02*
G01Y1228375D01*
X2409893Y1229000D02*
G01X2409666Y1228688D01*
Y1228688D02*
G01X2409893Y1228375D01*
X2410120Y1228688*
Y1228688D02*
G01X2409893Y1229000D01*
X2413529Y1234938D02*
G01X2412848Y1234625D01*
X2412393Y1233688*
Y1233688D02*
G01X2412166Y1232125D01*
Y1231188*
Y1231188D02*
G01X2412393Y1229625D01*
X2412848Y1228688*
Y1228688D02*
G01X2413529Y1228375D01*
X2413984*
X2414666Y1228688*
Y1228688D02*
G01X2415120Y1229625D01*
X2415348Y1231188*
Y1231188D02*
G01Y1232125D01*
X2415120Y1233688*
Y1233688D02*
G01X2414666Y1234625D01*
X2413984Y1234938*
Y1234938D02*
G01X2413529D01*
X2119075D02*
G01Y1228375D01*
Y1234938D02*
G01X2120666D01*
Y1234938D02*
G01X2121348Y1234625D01*
X2121802Y1234000*
X2122029Y1233375*
X2122257Y1232438*
Y1232438D02*
G01Y1230875D01*
X2122029Y1229938*
Y1229938D02*
G01X2121802Y1229313D01*
Y1229313D02*
G01X2121348Y1228688D01*
Y1228688D02*
G01X2120666Y1228375D01*
X2119075*
X2124302Y1234938D02*
G01X2125438Y1228375D01*
X2126575Y1234938D02*
G01X2125438Y1228375D01*
X2126575Y1234938D02*
G01X2127711Y1228375D01*
X2128848Y1234938D02*
G01X2127711Y1228375D01*
X2134302Y1233375D02*
G01X2134075Y1234000D01*
X2133620Y1234625*
X2133166Y1234938*
Y1234938D02*
G01X2132257D01*
Y1234938D02*
G01X2131802Y1234625D01*
X2131348Y1234000*
X2131120Y1233375*
X2130893Y1232438*
Y1232438D02*
G01Y1230875D01*
X2131120Y1229938*
Y1229938D02*
G01X2131348Y1229313D01*
Y1229313D02*
G01X2131802Y1228688D01*
Y1228688D02*
G01X2132257Y1228375D01*
X2133166*
X2133620Y1228688*
Y1228688D02*
G01X2134075Y1229313D01*
Y1229313D02*
G01X2134302Y1229938D01*
Y1229938D02*
G01Y1230875D01*
X2133166D02*
G01X2134302D01*
X2141575Y1234938D02*
G01Y1228375D01*
Y1234938D02*
G01X2144757Y1228375D01*
Y1234938D02*
G01Y1228375D01*
X2148166Y1234938D02*
G01X2147711Y1234625D01*
X2147257Y1234000*
X2147029Y1233375*
X2146802Y1232438*
Y1232438D02*
G01Y1230875D01*
X2147029Y1229938*
Y1229938D02*
G01X2147257Y1229313D01*
Y1229313D02*
G01X2147711Y1228688D01*
Y1228688D02*
G01X2148166Y1228375D01*
X2149075*
X2149529Y1228688*
Y1228688D02*
G01X2149984Y1229313D01*
Y1229313D02*
G01X2150211Y1229938D01*
Y1229938D02*
G01X2150438Y1230875D01*
Y1232438*
Y1232438D02*
G01X2150211Y1233375D01*
X2149984Y1234000*
X2149529Y1234625*
X2149075Y1234938*
Y1234938D02*
G01X2148166D01*
X2152711Y1229000D02*
G01X2152484Y1228688D01*
Y1228688D02*
G01X2152711Y1228375D01*
X2152938Y1228688*
Y1228688D02*
G01X2152711Y1229000D01*
X2155211Y1232750D02*
G01X2154984Y1232438D01*
Y1232438D02*
G01X2155211Y1232125D01*
X2155438Y1232438*
Y1232438D02*
G01X2155211Y1232750D01*
Y1229000D02*
G01X2154984Y1228688D01*
Y1228688D02*
G01X2155211Y1228375D01*
X2155438Y1228688*
Y1228688D02*
G01X2155211Y1229000D01*
X2162711Y1234938D02*
G01Y1228375D01*
Y1234938D02*
G01X2165893Y1228375D01*
Y1234938D02*
G01Y1228375D01*
X2167938Y1234938D02*
G01X2169757Y1228375D01*
X2171575Y1234938D02*
G01X2169757Y1228375D01*
X2176802Y1234000D02*
G01X2176348Y1234625D01*
X2175666Y1234938*
Y1234938D02*
G01X2174757D01*
Y1234938D02*
G01X2174075Y1234625D01*
X2173620Y1234000*
Y1233375*
X2173848Y1232750*
X2174075Y1232438*
Y1232438D02*
G01X2174529Y1232125D01*
X2175893Y1231500*
X2176348Y1231188*
Y1231188D02*
G01X2176575Y1230875D01*
X2176802Y1230250*
Y1229313*
Y1229313D02*
G01X2176348Y1228688D01*
Y1228688D02*
G01X2175666Y1228375D01*
X2174757*
X2174075Y1228688*
Y1228688D02*
G01X2173620Y1229313D01*
X2178848Y1234938D02*
G01Y1228375D01*
Y1234938D02*
G01X2180893D01*
Y1234938D02*
G01X2181575Y1234625D01*
X2181802Y1234313*
Y1234313D02*
G01X2182029Y1233688D01*
Y1233688D02*
G01Y1232750D01*
X2181802Y1232125*
X2181575Y1231813*
Y1231813D02*
G01X2180893Y1231500D01*
X2178848*
X2185438Y1234938D02*
G01X2184757Y1234625D01*
X2184302Y1233688*
Y1233688D02*
G01X2184075Y1232125D01*
Y1231188*
Y1231188D02*
G01X2184302Y1229625D01*
X2184757Y1228688*
Y1228688D02*
G01X2185438Y1228375D01*
X2185893*
X2186575Y1228688*
Y1228688D02*
G01X2187029Y1229625D01*
X2187257Y1231188*
Y1231188D02*
G01Y1232125D01*
X2187029Y1233688*
Y1233688D02*
G01X2186575Y1234625D01*
X2185893Y1234938*
Y1234938D02*
G01X2185438D01*
X2190666D02*
G01X2189984Y1234625D01*
X2189529Y1233688*
Y1233688D02*
G01X2189302Y1232125D01*
Y1231188*
Y1231188D02*
G01X2189529Y1229625D01*
X2189984Y1228688*
Y1228688D02*
G01X2190666Y1228375D01*
X2191120*
X2191802Y1228688*
Y1228688D02*
G01X2192257Y1229625D01*
X2192484Y1231188*
Y1231188D02*
G01Y1232125D01*
X2192257Y1233688*
Y1233688D02*
G01X2191802Y1234625D01*
X2191120Y1234938*
Y1234938D02*
G01X2190666D01*
X2195893D02*
G01X2195211Y1234625D01*
X2194757Y1233688*
Y1233688D02*
G01X2194529Y1232125D01*
Y1231188*
Y1231188D02*
G01X2194757Y1229625D01*
X2195211Y1228688*
Y1228688D02*
G01X2195893Y1228375D01*
X2196348*
X2197029Y1228688*
Y1228688D02*
G01X2197484Y1229625D01*
X2197711Y1231188*
Y1231188D02*
G01Y1232125D01*
X2197484Y1233688*
Y1233688D02*
G01X2197029Y1234625D01*
X2196348Y1234938*
Y1234938D02*
G01X2195893D01*
X2202484Y1234000D02*
G01X2202257Y1234625D01*
X2201575Y1234938*
Y1234938D02*
G01X2201120D01*
Y1234938D02*
G01X2200438Y1234625D01*
X2199984Y1233688*
Y1233688D02*
G01X2199757Y1232125D01*
Y1230563*
Y1230563D02*
G01X2199984Y1229313D01*
Y1229313D02*
G01X2200438Y1228688D01*
Y1228688D02*
G01X2201120Y1228375D01*
X2201348*
X2202029Y1228688*
Y1228688D02*
G01X2202484Y1229313D01*
Y1229313D02*
G01X2202711Y1230250D01*
Y1230563*
Y1230563D02*
G01X2202484Y1231500D01*
X2202029Y1232125*
X2201348Y1232438*
Y1232438D02*
G01X2201120D01*
Y1232438D02*
G01X2200438Y1232125D01*
X2199984Y1231500*
X2199757Y1230563*
X2204757Y1234938D02*
G01Y1228375D01*
Y1234938D02*
G01X2206802D01*
Y1234938D02*
G01X2207484Y1234625D01*
X2207711Y1234313*
Y1234313D02*
G01X2207938Y1233688D01*
Y1233688D02*
G01Y1233063D01*
Y1233063D02*
G01X2207711Y1232438D01*
Y1232438D02*
G01X2207484Y1232125D01*
X2206802Y1231813*
X2204757D02*
G01X2206802D01*
Y1231813D02*
G01X2207484Y1231500D01*
X2207711Y1231188*
Y1231188D02*
G01X2207938Y1230563D01*
Y1230563D02*
G01Y1229625D01*
X2207711Y1229000*
X2207484Y1228688*
Y1228688D02*
G01X2206802Y1228375D01*
X2204757*
X2209984Y1227125D02*
G01X2214757D01*
X2216120Y1234938D02*
G01X2217938Y1228375D01*
X2219757Y1234938D02*
G01X2217938Y1228375D01*
X2221802Y1233688D02*
G01X2222257Y1234000D01*
X2222938Y1234938*
Y1234938D02*
G01Y1228375D01*
X2225211Y1229000D02*
G01X2224984Y1228688D01*
Y1228688D02*
G01X2225211Y1228375D01*
X2225438Y1228688*
Y1228688D02*
G01X2225211Y1229000D01*
X2228848Y1234938D02*
G01X2228166Y1234625D01*
X2227711Y1233688*
Y1233688D02*
G01X2227484Y1232125D01*
Y1231188*
Y1231188D02*
G01X2227711Y1229625D01*
X2228166Y1228688*
Y1228688D02*
G01X2228848Y1228375D01*
X2229302*
X2229984Y1228688*
Y1228688D02*
G01X2230438Y1229625D01*
X2230666Y1231188*
Y1231188D02*
G01Y1232125D01*
X2230438Y1233688*
Y1233688D02*
G01X2229984Y1234625D01*
X2229302Y1234938*
Y1234938D02*
G01X2228848D01*
X2122084Y1348175D02*
G01X2121857Y1348800D01*
X2121402Y1349425*
X2120948Y1349738*
Y1349738D02*
G01X2120038D01*
Y1349738D02*
G01X2119584Y1349425D01*
X2119129Y1348800*
X2118902Y1348175*
X2118675Y1347238*
Y1347238D02*
G01Y1345675D01*
X2118902Y1344738*
Y1344738D02*
G01X2119129Y1344113D01*
Y1344113D02*
G01X2119584Y1343488D01*
Y1343488D02*
G01X2120038Y1343175D01*
X2120948*
X2121402Y1343488*
Y1343488D02*
G01X2121857Y1344113D01*
Y1344113D02*
G01X2122084Y1344738D01*
X2125493Y1349738D02*
G01X2125038Y1349425D01*
X2124584Y1348800*
X2124357Y1348175*
X2124129Y1347238*
Y1347238D02*
G01Y1345675D01*
X2124357Y1344738*
Y1344738D02*
G01X2124584Y1344113D01*
Y1344113D02*
G01X2125038Y1343488D01*
Y1343488D02*
G01X2125493Y1343175D01*
X2126402*
X2126857Y1343488*
Y1343488D02*
G01X2127311Y1344113D01*
Y1344113D02*
G01X2127538Y1344738D01*
Y1344738D02*
G01X2127766Y1345675D01*
Y1347238*
Y1347238D02*
G01X2127538Y1348175D01*
X2127311Y1348800*
X2126857Y1349425*
X2126402Y1349738*
Y1349738D02*
G01X2125493D01*
X2129811D02*
G01Y1343175D01*
Y1349738D02*
G01X2131629Y1343175D01*
X2133448Y1349738D02*
G01X2131629Y1343175D01*
X2133448Y1349738D02*
G01Y1343175D01*
X2135493Y1349738D02*
G01Y1343175D01*
Y1349738D02*
G01X2137538D01*
Y1349738D02*
G01X2138220Y1349425D01*
X2138448Y1349113*
Y1349113D02*
G01X2138675Y1348488D01*
Y1348488D02*
G01Y1347550D01*
X2138448Y1346925*
X2138220Y1346613*
Y1346613D02*
G01X2137538Y1346300D01*
X2135493*
X2142538Y1349738D02*
G01X2140720Y1343175D01*
X2142538Y1349738D02*
G01X2144357Y1343175D01*
X2141402Y1345363D02*
G01X2143675D01*
X2146402Y1349738D02*
G01Y1343175D01*
Y1349738D02*
G01X2149584Y1343175D01*
Y1349738D02*
G01Y1343175D01*
X2151629Y1349738D02*
G01X2153448Y1346613D01*
Y1346613D02*
G01Y1343175D01*
X2155266Y1349738D02*
G01X2153448Y1346613D01*
X2157538Y1347550D02*
G01X2157311Y1347238D01*
Y1347238D02*
G01X2157538Y1346925D01*
X2157766Y1347238*
Y1347238D02*
G01X2157538Y1347550D01*
Y1343800D02*
G01X2157311Y1343488D01*
Y1343488D02*
G01X2157538Y1343175D01*
X2157766Y1343488*
Y1343488D02*
G01X2157538Y1343800D01*
X1722051Y1490202D02*
G01X1918902D01*
Y1618155*
X1722051*
Y1490202*
X1915358Y1500044D02*
G03X1915358Y1500044I-6299D01*
X1738193D02*
G03X1738193Y1500044I-6299D01*
X1915358Y1608312D02*
G03X1915358Y1608312I-6299D01*
X1738193D02*
G03X1738193Y1608312I-6299D01*
X1918902Y1628391D02*
G01X1839158D01*
X1918902D02*
G01X1908902Y1625891D01*
Y1630891*
X1918902Y1628391*
X1722051D02*
G01X1801795D01*
X1722051D02*
G01X1732051Y1630891D01*
Y1625891*
X1722051Y1628391*
X1918902Y1622761D02*
G01Y1633391D01*
X1722051Y1622761D02*
G01Y1633391D01*
X1807749Y1631203D02*
G01X1805476D01*
X1805249Y1628391*
X1805476Y1628703*
X1806158Y1629016*
X1806840*
X1807522Y1628703*
X1807976Y1628078*
X1808204Y1627141*
X1807976Y1626516*
X1807749Y1625578*
X1807295Y1624953*
X1806613Y1624641*
X1805931*
X1805249Y1624953*
X1805022Y1625266*
X1804795Y1625891*
X1811613Y1631203D02*
G01X1810931Y1630891D01*
X1810476Y1629953*
X1810249Y1628391*
Y1627453*
X1810476Y1625891*
X1810931Y1624953*
X1811613Y1624641*
X1812067*
X1812749Y1624953*
X1813204Y1625891*
X1813431Y1627453*
Y1628391*
X1813204Y1629953*
X1812749Y1630891*
X1812067Y1631203*
X1811613*
X1815704Y1625266D02*
G01X1815476Y1624953D01*
X1815704Y1624641*
X1815931Y1624953*
X1815704Y1625266*
X1819340Y1631203D02*
G01X1818658Y1630891D01*
X1818204Y1629953*
X1817976Y1628391*
Y1627453*
X1818204Y1625891*
X1818658Y1624953*
X1819340Y1624641*
X1819795*
X1820476Y1624953*
X1820931Y1625891*
X1821158Y1627453*
Y1628391*
X1820931Y1629953*
X1820476Y1630891*
X1819795Y1631203*
X1819340*
X1823204Y1629016D02*
G01Y1624641D01*
Y1627766D02*
G01X1823885Y1628703D01*
X1824340Y1629016*
X1825022*
X1825476Y1628703*
X1825704Y1627766*
Y1624641*
Y1627766D02*
G01X1826385Y1628703D01*
X1826840Y1629016*
X1827522*
X1827976Y1628703*
X1828204Y1627766*
Y1624641*
X1830249Y1629016D02*
G01Y1624641D01*
Y1627766D02*
G01X1830931Y1628703D01*
X1831385Y1629016*
X1832067*
X1832522Y1628703*
X1832749Y1627766*
Y1624641*
Y1627766D02*
G01X1833431Y1628703D01*
X1833885Y1629016*
X1834567*
X1835022Y1628703*
X1835249Y1627766*
Y1624641*
X1696854Y1490202D02*
G01Y1547428D01*
Y1490202D02*
G01X1694354Y1500202D01*
X1699354*
X1696854Y1490202*
Y1618155D02*
G01Y1560928D01*
Y1618155D02*
G01X1699354Y1608155D01*
X1694354*
X1696854Y1618155*
X1717051Y1490202D02*
G01X1691854D01*
X1717051Y1618155D02*
G01X1691854D01*
X1681627Y1556991D02*
G01X1684127D01*
X1682763Y1554491*
X1683445*
X1683900Y1554178*
X1684127Y1553866*
X1684354Y1552928*
Y1552303*
X1684127Y1551366*
X1683673Y1550741*
X1682991Y1550428*
X1682309*
X1681627Y1550741*
X1681400Y1551053*
X1681173Y1551678*
X1686627Y1555428D02*
G01Y1555741D01*
X1686854Y1556366*
X1687082Y1556678*
X1687536Y1556991*
X1688445*
X1688900Y1556678*
X1689127Y1556366*
X1689354Y1555741*
Y1555116*
X1689127Y1554491*
X1688673Y1553553*
X1686400Y1550428*
X1689582*
X1691854Y1551053D02*
G01X1691627Y1550741D01*
X1691854Y1550428*
X1692082Y1550741*
X1691854Y1551053*
X1697082Y1556991D02*
G01X1694809D01*
X1694582Y1554178*
X1694809Y1554491*
X1695491Y1554803*
X1696173*
X1696854Y1554491*
X1697309Y1553866*
X1697536Y1552928*
X1697309Y1552303*
X1697082Y1551366*
X1696627Y1550741*
X1695945Y1550428*
X1695263*
X1694582Y1550741*
X1694354Y1551053*
X1694127Y1551678*
X1699582Y1554803D02*
G01Y1550428D01*
Y1553553D02*
G01X1700263Y1554491D01*
X1700718Y1554803*
X1701400*
X1701854Y1554491*
X1702082Y1553553*
Y1550428*
Y1553553D02*
G01X1702763Y1554491D01*
X1703218Y1554803*
X1703900*
X1704354Y1554491*
X1704582Y1553553*
Y1550428*
X1706627Y1554803D02*
G01Y1550428D01*
Y1553553D02*
G01X1707309Y1554491D01*
X1707763Y1554803*
X1708445*
X1708900Y1554491*
X1709127Y1553553*
Y1550428*
Y1553553D02*
G01X1709809Y1554491D01*
X1710263Y1554803*
X1710945*
X1711400Y1554491*
X1711627Y1553553*
Y1550428*
X1958272Y1658202D02*
G01X2216272D01*
X1958272Y1634202D02*
G01X2216272D01*
X1958272Y1610202D02*
G01X2216272D01*
X1958272Y1586202D02*
G01X2216272D01*
X1958272Y1562202D02*
G01X2216272D01*
X1958272Y1538202D02*
G01X2216272D01*
X1958272Y1514202D02*
G01X2216272D01*
X1958272Y1490202D02*
G01X2216272D01*
X1958272Y1658202D02*
G01Y1490202D01*
X2042272Y1658202D02*
G01Y1490202D01*
X2078272Y1658202D02*
G01Y1490202D01*
X2114272Y1658202D02*
G01Y1490202D01*
X2168272Y1658202D02*
G01Y1490202D01*
X2216272Y1658202D02*
G01Y1490202D01*
X1993772Y1646952D02*
G01X1993226Y1647702D01*
X1992408Y1648077*
X1991317*
X1990499Y1647702*
X1989953Y1646952*
Y1646202*
X1990226Y1645452*
X1990499Y1645077*
X1991044Y1644702*
X1992681Y1643952*
X1993226Y1643577*
X1993499Y1643202*
X1993772Y1642452*
Y1641327*
X1993226Y1640577*
X1992408Y1640202*
X1991317*
X1990499Y1640577*
X1989953Y1641327*
X1996226Y1648077D02*
G01Y1640202D01*
X2002499Y1648077D02*
G01X1998681Y1640202D01*
Y1648077D02*
G01X2002499D01*
X1998681Y1640202D02*
G01X2002499D01*
X2004953Y1648077D02*
G01Y1640202D01*
Y1648077D02*
G01X2008499D01*
X2004953Y1644327D02*
G01X2007135D01*
X2004953Y1640202D02*
G01X2008499D01*
X2052135Y1648077D02*
G01X2051590Y1647702D01*
X2051044Y1646952*
X2050772Y1646202*
X2050499Y1645077*
Y1643202*
X2050772Y1642077*
X2051044Y1641327*
X2051590Y1640577*
X2052135Y1640202*
X2053226*
X2053772Y1640577*
X2054317Y1641327*
X2054590Y1642077*
X2054863Y1643202*
Y1645077*
X2054590Y1646202*
X2054317Y1646952*
X2053772Y1647702*
X2053226Y1648077*
X2052135*
X2052953Y1641702D02*
G01X2054590Y1639452D01*
X2059226Y1648077D02*
G01Y1640202D01*
X2057317Y1648077D02*
G01X2061135D01*
X2063590D02*
G01X2065772Y1644327D01*
Y1640202*
X2067953Y1648077D02*
G01X2065772Y1644327D01*
X2090317Y1646952D02*
G01X2089772Y1647702D01*
X2088953Y1648077*
X2087863*
X2087044Y1647702*
X2086499Y1646952*
Y1646202*
X2086772Y1645452*
X2087044Y1645077*
X2087590Y1644702*
X2089226Y1643952*
X2089772Y1643577*
X2090044Y1643202*
X2090317Y1642452*
Y1641327*
X2089772Y1640577*
X2088953Y1640202*
X2087863*
X2087044Y1640577*
X2086499Y1641327*
X2092772Y1648077D02*
G01X2094953Y1644327D01*
Y1640202*
X2097135Y1648077D02*
G01X2094953Y1644327D01*
X2099590Y1648077D02*
G01Y1640202D01*
Y1648077D02*
G01X2101772Y1640202D01*
X2103953Y1648077D02*
G01X2101772Y1640202D01*
X2103953Y1648077D02*
G01Y1640202D01*
X2125772Y1648077D02*
G01Y1640202D01*
Y1648077D02*
G01X2128226D01*
X2129044Y1647702*
X2129317Y1647327*
X2129590Y1646577*
Y1645452*
X2129317Y1644702*
X2129044Y1644327*
X2128226Y1643952*
X2125772*
X2132044Y1648077D02*
G01Y1640202D01*
X2135317*
X2139953Y1648077D02*
G01X2137772Y1640202D01*
X2139953Y1648077D02*
G01X2142135Y1640202D01*
X2138590Y1642827D02*
G01X2141317D01*
X2146499Y1648077D02*
G01Y1640202D01*
X2144590Y1648077D02*
G01X2148408D01*
X2150863D02*
G01Y1640202D01*
Y1648077D02*
G01X2154408D01*
X2150863Y1644327D02*
G01X2153044D01*
X2150863Y1640202D02*
G01X2154408D01*
X2156863Y1648077D02*
G01Y1640202D01*
Y1648077D02*
G01X2158772D01*
X2159590Y1647702*
X2160135Y1646952*
X2160408Y1646202*
X2160681Y1645077*
Y1643202*
X2160408Y1642077*
X2160135Y1641327*
X2159590Y1640577*
X2158772Y1640202*
X2156863*
X2184953Y1648077D02*
G01Y1640202D01*
X2183044Y1648077D02*
G01X2186863D01*
X2190953D02*
G01X2190408Y1647702D01*
X2189863Y1646952*
X2189590Y1646202*
X2189317Y1645077*
Y1643202*
X2189590Y1642077*
X2189863Y1641327*
X2190408Y1640577*
X2190953Y1640202*
X2192044*
X2192590Y1640577*
X2193135Y1641327*
X2193408Y1642077*
X2193681Y1643202*
Y1645077*
X2193408Y1646202*
X2193135Y1646952*
X2192590Y1647702*
X2192044Y1648077*
X2190953*
X2196135D02*
G01Y1640202D01*
X2199408*
X1965908Y1624077D02*
G01X1965090Y1623702D01*
X1964544Y1622577*
X1964272Y1620702*
Y1619577*
X1964544Y1617702*
X1965090Y1616577*
X1965908Y1616202*
X1966453*
X1967272Y1616577*
X1967817Y1617702*
X1968090Y1619577*
Y1620702*
X1967817Y1622577*
X1967272Y1623702*
X1966453Y1624077*
X1965908*
X1970817Y1616952D02*
G01X1970544Y1616577D01*
X1970817Y1616202*
X1971090Y1616577*
X1970817Y1616952*
X1976817Y1622952D02*
G01X1976544Y1623702D01*
X1975726Y1624077*
X1975181*
X1974363Y1623702*
X1973817Y1622577*
X1973544Y1620702*
Y1618827*
X1973817Y1617327*
X1974363Y1616577*
X1975181Y1616202*
X1975453*
X1976272Y1616577*
X1976817Y1617327*
X1977090Y1618452*
Y1618827*
X1976817Y1619952*
X1976272Y1620702*
X1975453Y1621077*
X1975181*
X1974363Y1620702*
X1973817Y1619952*
X1973544Y1618827*
X1983090Y1624077D02*
G01X1980363D01*
X1980090Y1620702*
X1980363Y1621077*
X1981181Y1621452*
X1981999*
X1982817Y1621077*
X1983363Y1620327*
X1983635Y1619202*
X1983363Y1618452*
X1983090Y1617327*
X1982544Y1616577*
X1981726Y1616202*
X1980908*
X1980090Y1616577*
X1979817Y1616952*
X1979544Y1617702*
X2057590Y1622202D02*
G01Y1622577D01*
X2057863Y1623327*
X2058135Y1623702*
X2058681Y1624077*
X2059772*
X2060317Y1623702*
X2060590Y1623327*
X2060863Y1622577*
Y1621827*
X2060590Y1621077*
X2060044Y1619952*
X2057317Y1616202*
X2061135*
X2090272Y1622202D02*
G01X2102272D01*
X2096272Y1616202D02*
G01Y1628202D01*
X2122908Y1624077D02*
G01X2125090Y1620327D01*
Y1616202*
X2127272Y1624077D02*
G01X2125090Y1620327D01*
X2129726Y1624077D02*
G01Y1616202D01*
Y1624077D02*
G01X2133272D01*
X2129726Y1620327D02*
G01X2131908D01*
X2129726Y1616202D02*
G01X2133272D01*
X2139544Y1622952D02*
G01X2138999Y1623702D01*
X2138181Y1624077*
X2137090*
X2136272Y1623702*
X2135726Y1622952*
Y1622202*
X2135999Y1621452*
X2136272Y1621077*
X2136817Y1620702*
X2138453Y1619952*
X2138999Y1619577*
X2139272Y1619202*
X2139544Y1618452*
Y1617327*
X2138999Y1616577*
X2138181Y1616202*
X2137090*
X2136272Y1616577*
X2135726Y1617327*
X2176090Y1622952D02*
G01Y1616202D01*
X2173635Y1619577D02*
G01X2178544D01*
X2185908Y1625577D02*
G01X2180999Y1613577D01*
X2188363Y1619577D02*
G01X2193272D01*
X2197363Y1624077D02*
G01X2196544Y1623702D01*
X2195999Y1622577*
X2195726Y1620702*
Y1619577*
X2195999Y1617702*
X2196544Y1616577*
X2197363Y1616202*
X2197908*
X2198726Y1616577*
X2199272Y1617702*
X2199544Y1619577*
Y1620702*
X2199272Y1622577*
X2198726Y1623702*
X2197908Y1624077*
X2197363*
X2202272Y1616952D02*
G01X2201999Y1616577D01*
X2202272Y1616202*
X2202544Y1616577*
X2202272Y1616952*
X2206635Y1624077D02*
G01X2205817Y1623702D01*
X2205272Y1622577*
X2204999Y1620702*
Y1619577*
X2205272Y1617702*
X2205817Y1616577*
X2206635Y1616202*
X2207181*
X2207999Y1616577*
X2208544Y1617702*
X2208817Y1619577*
Y1620702*
X2208544Y1622577*
X2207999Y1623702*
X2207181Y1624077*
X2206635*
X1965908Y1600077D02*
G01X1965090Y1599702D01*
X1964544Y1598577*
X1964272Y1596702*
Y1595577*
X1964544Y1593702*
X1965090Y1592577*
X1965908Y1592202*
X1966453*
X1967272Y1592577*
X1967817Y1593702*
X1968090Y1595577*
Y1596702*
X1967817Y1598577*
X1967272Y1599702*
X1966453Y1600077*
X1965908*
X1970817Y1592952D02*
G01X1970544Y1592577D01*
X1970817Y1592202*
X1971090Y1592577*
X1970817Y1592952*
X1976272Y1600077D02*
G01X1973544Y1594827D01*
X1977635*
X1976272Y1600077D02*
G01Y1592202D01*
X1983635Y1600077D02*
G01X1980908D01*
X1980635Y1596702*
X1980908Y1597077*
X1981726Y1597452*
X1982544*
X1983363Y1597077*
X1983908Y1596327*
X1984181Y1595202*
X1983908Y1594452*
X1983635Y1593327*
X1983090Y1592577*
X1982272Y1592202*
X1981453*
X1980635Y1592577*
X1980363Y1592952*
X1980090Y1593702*
X1992908Y1597452D02*
G01X1995908Y1592202D01*
Y1597452D02*
G01X1992908Y1592202D01*
X2004635Y1598577D02*
G01X2005181Y1598952D01*
X2005999Y1600077*
Y1592202*
X2008726Y1592952D02*
G01X2008453Y1592577D01*
X2008726Y1592202*
X2008999Y1592577*
X2008726Y1592952*
X2011726Y1598202D02*
G01Y1598577D01*
X2011999Y1599327*
X2012272Y1599702*
X2012817Y1600077*
X2013908*
X2014453Y1599702*
X2014726Y1599327*
X2014999Y1598577*
Y1597827*
X2014726Y1597077*
X2014181Y1595952*
X2011453Y1592202*
X2015272*
X2021272Y1600077D02*
G01X2018544D01*
X2018272Y1596702*
X2018544Y1597077*
X2019363Y1597452*
X2020181*
X2020999Y1597077*
X2021544Y1596327*
X2021817Y1595202*
X2021544Y1594452*
X2021272Y1593327*
X2020726Y1592577*
X2019908Y1592202*
X2019090*
X2018272Y1592577*
X2017999Y1592952*
X2017726Y1593702*
X2057590Y1598202D02*
G01Y1598577D01*
X2057863Y1599327*
X2058135Y1599702*
X2058681Y1600077*
X2059772*
X2060317Y1599702*
X2060590Y1599327*
X2060863Y1598577*
Y1597827*
X2060590Y1597077*
X2060044Y1595952*
X2057317Y1592202*
X2061135*
X2090272D02*
G01X2102272Y1604202D01*
X2090272D02*
G01X2102272Y1592202D01*
X2122908Y1600077D02*
G01X2125090Y1596327D01*
Y1592202*
X2127272Y1600077D02*
G01X2125090Y1596327D01*
X2129726Y1600077D02*
G01Y1592202D01*
Y1600077D02*
G01X2133272D01*
X2129726Y1596327D02*
G01X2131908D01*
X2129726Y1592202D02*
G01X2133272D01*
X2139544Y1598952D02*
G01X2138999Y1599702D01*
X2138181Y1600077*
X2137090*
X2136272Y1599702*
X2135726Y1598952*
Y1598202*
X2135999Y1597452*
X2136272Y1597077*
X2136817Y1596702*
X2138453Y1595952*
X2138999Y1595577*
X2139272Y1595202*
X2139544Y1594452*
Y1593327*
X2138999Y1592577*
X2138181Y1592202*
X2137090*
X2136272Y1592577*
X2135726Y1593327*
X2176090Y1598952D02*
G01Y1592202D01*
X2173635Y1595577D02*
G01X2178544D01*
X2185908Y1601577D02*
G01X2180999Y1589577D01*
X2188363Y1595577D02*
G01X2193272D01*
X2197363Y1600077D02*
G01X2196544Y1599702D01*
X2195999Y1598577*
X2195726Y1596702*
Y1595577*
X2195999Y1593702*
X2196544Y1592577*
X2197363Y1592202*
X2197908*
X2198726Y1592577*
X2199272Y1593702*
X2199544Y1595577*
Y1596702*
X2199272Y1598577*
X2198726Y1599702*
X2197908Y1600077*
X2197363*
X2202272Y1592952D02*
G01X2201999Y1592577D01*
X2202272Y1592202*
X2202544Y1592577*
X2202272Y1592952*
X2206635Y1600077D02*
G01X2205817Y1599702D01*
X2205272Y1598577*
X2204999Y1596702*
Y1595577*
X2205272Y1593702*
X2205817Y1592577*
X2206635Y1592202*
X2207181*
X2207999Y1592577*
X2208544Y1593702*
X2208817Y1595577*
Y1596702*
X2208544Y1598577*
X2207999Y1599702*
X2207181Y1600077*
X2206635*
X1964272Y1574577D02*
G01X1964817Y1574952D01*
X1965635Y1576077*
Y1568202*
X1968363Y1568952D02*
G01X1968090Y1568577D01*
X1968363Y1568202*
X1968635Y1568577*
X1968363Y1568952*
X1971363Y1574202D02*
G01Y1574577D01*
X1971635Y1575327*
X1971908Y1575702*
X1972453Y1576077*
X1973544*
X1974090Y1575702*
X1974363Y1575327*
X1974635Y1574577*
Y1573827*
X1974363Y1573077*
X1973817Y1571952*
X1971090Y1568202*
X1974908*
X1983635Y1573452D02*
G01X1986635Y1568202D01*
Y1573452D02*
G01X1983635Y1568202D01*
X1995635Y1574202D02*
G01Y1574577D01*
X1995908Y1575327*
X1996181Y1575702*
X1996726Y1576077*
X1997817*
X1998363Y1575702*
X1998635Y1575327*
X1998908Y1574577*
Y1573827*
X1998635Y1573077*
X1998090Y1571952*
X1995363Y1568202*
X1999181*
X2057590Y1574202D02*
G01Y1574577D01*
X2057863Y1575327*
X2058135Y1575702*
X2058681Y1576077*
X2059772*
X2060317Y1575702*
X2060590Y1575327*
X2060863Y1574577*
Y1573827*
X2060590Y1573077*
X2060044Y1571952*
X2057317Y1568202*
X2061135*
X2090272D02*
G01X2102272D01*
Y1580202*
X2090272*
Y1568202*
X2096272Y1574202D02*
G01Y1580202D01*
X2122908Y1576077D02*
G01X2125090Y1572327D01*
Y1568202*
X2127272Y1576077D02*
G01X2125090Y1572327D01*
X2129726Y1576077D02*
G01Y1568202D01*
Y1576077D02*
G01X2133272D01*
X2129726Y1572327D02*
G01X2131908D01*
X2129726Y1568202D02*
G01X2133272D01*
X2139544Y1574952D02*
G01X2138999Y1575702D01*
X2138181Y1576077*
X2137090*
X2136272Y1575702*
X2135726Y1574952*
Y1574202*
X2135999Y1573452*
X2136272Y1573077*
X2136817Y1572702*
X2138453Y1571952*
X2138999Y1571577*
X2139272Y1571202*
X2139544Y1570452*
Y1569327*
X2138999Y1568577*
X2138181Y1568202*
X2137090*
X2136272Y1568577*
X2135726Y1569327*
X2176090Y1574952D02*
G01Y1568202D01*
X2173635Y1571577D02*
G01X2178544D01*
X2185908Y1577577D02*
G01X2180999Y1565577D01*
X2188363Y1571577D02*
G01X2193272D01*
X2197363Y1576077D02*
G01X2196544Y1575702D01*
X2195999Y1574577*
X2195726Y1572702*
Y1571577*
X2195999Y1569702*
X2196544Y1568577*
X2197363Y1568202*
X2197908*
X2198726Y1568577*
X2199272Y1569702*
X2199544Y1571577*
Y1572702*
X2199272Y1574577*
X2198726Y1575702*
X2197908Y1576077*
X2197363*
X2202272Y1568952D02*
G01X2201999Y1568577D01*
X2202272Y1568202*
X2202544Y1568577*
X2202272Y1568952*
X2206635Y1576077D02*
G01X2205817Y1575702D01*
X2205272Y1574577*
X2204999Y1572702*
Y1571577*
X2205272Y1569702*
X2205817Y1568577*
X2206635Y1568202*
X2207181*
X2207999Y1568577*
X2208544Y1569702*
X2208817Y1571577*
Y1572702*
X2208544Y1574577*
X2207999Y1575702*
X2207181Y1576077*
X2206635*
X1964272Y1550577D02*
G01X1964817Y1550952D01*
X1965635Y1552077*
Y1544202*
X2060726Y1552077D02*
G01X2057999D01*
X2057726Y1548702*
X2057999Y1549077*
X2058817Y1549452*
X2059635*
X2060453Y1549077*
X2060999Y1548327*
X2061272Y1547202*
X2060999Y1546452*
X2060726Y1545327*
X2060181Y1544577*
X2059363Y1544202*
X2058544*
X2057726Y1544577*
X2057453Y1544952*
X2057181Y1545702*
X2096272Y1544202D02*
G01X2102272Y1550202D01*
X2096272Y1556202*
X2090272Y1550202*
X2096272Y1544202*
Y1550202D02*
G01Y1556202D01*
X2122908Y1552077D02*
G01X2125090Y1548327D01*
Y1544202*
X2127272Y1552077D02*
G01X2125090Y1548327D01*
X2129726Y1552077D02*
G01Y1544202D01*
Y1552077D02*
G01X2133272D01*
X2129726Y1548327D02*
G01X2131908D01*
X2129726Y1544202D02*
G01X2133272D01*
X2139544Y1550952D02*
G01X2138999Y1551702D01*
X2138181Y1552077*
X2137090*
X2136272Y1551702*
X2135726Y1550952*
Y1550202*
X2135999Y1549452*
X2136272Y1549077*
X2136817Y1548702*
X2138453Y1547952*
X2138999Y1547577*
X2139272Y1547202*
X2139544Y1546452*
Y1545327*
X2138999Y1544577*
X2138181Y1544202*
X2137090*
X2136272Y1544577*
X2135726Y1545327*
X2176090Y1550952D02*
G01Y1544202D01*
X2173635Y1547577D02*
G01X2178544D01*
X2185908Y1553577D02*
G01X2180999Y1541577D01*
X2188363Y1547577D02*
G01X2193272D01*
X2197363Y1552077D02*
G01X2196544Y1551702D01*
X2195999Y1550577*
X2195726Y1548702*
Y1547577*
X2195999Y1545702*
X2196544Y1544577*
X2197363Y1544202*
X2197908*
X2198726Y1544577*
X2199272Y1545702*
X2199544Y1547577*
Y1548702*
X2199272Y1550577*
X2198726Y1551702*
X2197908Y1552077*
X2197363*
X2202272Y1544952D02*
G01X2201999Y1544577D01*
X2202272Y1544202*
X2202544Y1544577*
X2202272Y1544952*
X2206635Y1552077D02*
G01X2205817Y1551702D01*
X2205272Y1550577*
X2204999Y1548702*
Y1547577*
X2205272Y1545702*
X2205817Y1544577*
X2206635Y1544202*
X2207181*
X2207999Y1544577*
X2208544Y1545702*
X2208817Y1547577*
Y1548702*
X2208544Y1550577*
X2207999Y1551702*
X2207181Y1552077*
X2206635*
X1965908Y1528077D02*
G01X1965090Y1527702D01*
X1964544Y1526577*
X1964272Y1524702*
Y1523577*
X1964544Y1521702*
X1965090Y1520577*
X1965908Y1520202*
X1966453*
X1967272Y1520577*
X1967817Y1521702*
X1968090Y1523577*
Y1524702*
X1967817Y1526577*
X1967272Y1527702*
X1966453Y1528077*
X1965908*
X1970817Y1520952D02*
G01X1970544Y1520577D01*
X1970817Y1520202*
X1971090Y1520577*
X1970817Y1520952*
X1974908Y1528077D02*
G01X1974090Y1527702D01*
X1973817Y1526952*
Y1526202*
X1974090Y1525452*
X1974635Y1525077*
X1975726Y1524702*
X1976544Y1524327*
X1977090Y1523577*
X1977363Y1522827*
Y1521702*
X1977090Y1520952*
X1976817Y1520577*
X1975999Y1520202*
X1974908*
X1974090Y1520577*
X1973817Y1520952*
X1973544Y1521702*
Y1522827*
X1973817Y1523577*
X1974363Y1524327*
X1975181Y1524702*
X1976272Y1525077*
X1976817Y1525452*
X1977090Y1526202*
Y1526952*
X1976817Y1527702*
X1975999Y1528077*
X1974908*
X2057590Y1526202D02*
G01Y1526577D01*
X2057863Y1527327*
X2058135Y1527702*
X2058681Y1528077*
X2059772*
X2060317Y1527702*
X2060590Y1527327*
X2060863Y1526577*
Y1525827*
X2060590Y1525077*
X2060044Y1523952*
X2057317Y1520202*
X2061135*
X2090272D02*
G01X2102272D01*
X2090272Y1532202*
X2102272*
X2090272Y1520202*
X2122908Y1528077D02*
G01X2125090Y1524327D01*
Y1520202*
X2127272Y1528077D02*
G01X2125090Y1524327D01*
X2129726Y1528077D02*
G01Y1520202D01*
Y1528077D02*
G01X2133272D01*
X2129726Y1524327D02*
G01X2131908D01*
X2129726Y1520202D02*
G01X2133272D01*
X2139544Y1526952D02*
G01X2138999Y1527702D01*
X2138181Y1528077*
X2137090*
X2136272Y1527702*
X2135726Y1526952*
Y1526202*
X2135999Y1525452*
X2136272Y1525077*
X2136817Y1524702*
X2138453Y1523952*
X2138999Y1523577*
X2139272Y1523202*
X2139544Y1522452*
Y1521327*
X2138999Y1520577*
X2138181Y1520202*
X2137090*
X2136272Y1520577*
X2135726Y1521327*
X2176090Y1526952D02*
G01Y1520202D01*
X2173635Y1523577D02*
G01X2178544D01*
X2185908Y1529577D02*
G01X2180999Y1517577D01*
X2188363Y1523577D02*
G01X2193272D01*
X2197363Y1528077D02*
G01X2196544Y1527702D01*
X2195999Y1526577*
X2195726Y1524702*
Y1523577*
X2195999Y1521702*
X2196544Y1520577*
X2197363Y1520202*
X2197908*
X2198726Y1520577*
X2199272Y1521702*
X2199544Y1523577*
Y1524702*
X2199272Y1526577*
X2198726Y1527702*
X2197908Y1528077*
X2197363*
X2202272Y1520952D02*
G01X2201999Y1520577D01*
X2202272Y1520202*
X2202544Y1520577*
X2202272Y1520952*
X2206635Y1528077D02*
G01X2205817Y1527702D01*
X2205272Y1526577*
X2204999Y1524702*
Y1523577*
X2205272Y1521702*
X2205817Y1520577*
X2206635Y1520202*
X2207181*
X2207999Y1520577*
X2208544Y1521702*
X2208817Y1523577*
Y1524702*
X2208544Y1526577*
X2207999Y1527702*
X2207181Y1528077*
X2206635*
X1965908Y1504077D02*
G01X1965090Y1503702D01*
X1964544Y1502577*
X1964272Y1500702*
Y1499577*
X1964544Y1497702*
X1965090Y1496577*
X1965908Y1496202*
X1966453*
X1967272Y1496577*
X1967817Y1497702*
X1968090Y1499577*
Y1500702*
X1967817Y1502577*
X1967272Y1503702*
X1966453Y1504077*
X1965908*
X1970817Y1496952D02*
G01X1970544Y1496577D01*
X1970817Y1496202*
X1971090Y1496577*
X1970817Y1496952*
X1976272Y1504077D02*
G01X1973544Y1498827D01*
X1977635*
X1976272Y1504077D02*
G01Y1496202D01*
X2052408Y1502577D02*
G01X2052953Y1502952D01*
X2053772Y1504077*
Y1496202*
X2060044Y1504077D02*
G01X2057317Y1496202D01*
X2056226Y1504077D02*
G01X2060044D01*
X2065772Y1502952D02*
G01X2065499Y1503702D01*
X2064681Y1504077*
X2064135*
X2063317Y1503702*
X2062772Y1502577*
X2062499Y1500702*
Y1498827*
X2062772Y1497327*
X2063317Y1496577*
X2064135Y1496202*
X2064408*
X2065226Y1496577*
X2065772Y1497327*
X2066044Y1498452*
Y1498827*
X2065772Y1499952*
X2065226Y1500702*
X2064408Y1501077*
X2064135*
X2063317Y1500702*
X2062772Y1499952*
X2062499Y1498827*
X2090272Y1496202D02*
G01X2102272Y1508202D01*
Y1496202*
X2090272Y1508202*
Y1496202*
X2122908Y1504077D02*
G01X2125090Y1500327D01*
Y1496202*
X2127272Y1504077D02*
G01X2125090Y1500327D01*
X2129726Y1504077D02*
G01Y1496202D01*
Y1504077D02*
G01X2133272D01*
X2129726Y1500327D02*
G01X2131908D01*
X2129726Y1496202D02*
G01X2133272D01*
X2139544Y1502952D02*
G01X2138999Y1503702D01*
X2138181Y1504077*
X2137090*
X2136272Y1503702*
X2135726Y1502952*
Y1502202*
X2135999Y1501452*
X2136272Y1501077*
X2136817Y1500702*
X2138453Y1499952*
X2138999Y1499577*
X2139272Y1499202*
X2139544Y1498452*
Y1497327*
X2138999Y1496577*
X2138181Y1496202*
X2137090*
X2136272Y1496577*
X2135726Y1497327*
X2176090Y1502952D02*
G01Y1496202D01*
X2173635Y1499577D02*
G01X2178544D01*
X2185908Y1505577D02*
G01X2180999Y1493577D01*
X2188363Y1499577D02*
G01X2193272D01*
X2197363Y1504077D02*
G01X2196544Y1503702D01*
X2195999Y1502577*
X2195726Y1500702*
Y1499577*
X2195999Y1497702*
X2196544Y1496577*
X2197363Y1496202*
X2197908*
X2198726Y1496577*
X2199272Y1497702*
X2199544Y1499577*
Y1500702*
X2199272Y1502577*
X2198726Y1503702*
X2197908Y1504077*
X2197363*
X2202272Y1496952D02*
G01X2201999Y1496577D01*
X2202272Y1496202*
X2202544Y1496577*
X2202272Y1496952*
X2206635Y1504077D02*
G01X2205817Y1503702D01*
X2205272Y1502577*
X2204999Y1500702*
Y1499577*
X2205272Y1497702*
X2205817Y1496577*
X2206635Y1496202*
X2207181*
X2207999Y1496577*
X2208544Y1497702*
X2208817Y1499577*
Y1500702*
X2208544Y1502577*
X2207999Y1503702*
X2207181Y1504077*
X2206635*
G54D71*
X2263075Y1298125D02*
G01X2264893Y1289375D01*
X2266711Y1298125D02*
G01X2264893Y1289375D01*
X2266711Y1298125D02*
G01X2268529Y1289375D01*
X2270348Y1298125D02*
G01X2268529Y1289375D01*
X2274438Y1302500D02*
G01X2274893Y1301875D01*
X2275348Y1302500*
X2274893Y1303125*
X2274438Y1302500*
X2274893Y1298125D02*
G01Y1289375D01*
X2279438Y1298125D02*
G01Y1289375D01*
Y1294375D02*
G01X2279893Y1296250D01*
X2280802Y1297500*
X2281711Y1298125*
X2283075*
X2287166Y1294375D02*
G01X2292620D01*
Y1295625*
X2292166Y1296875*
X2291711Y1297500*
X2290802Y1298125*
X2289438*
X2288529Y1297500*
X2287620Y1296250*
X2287166Y1294375*
Y1293125*
X2287620Y1291250*
X2288529Y1290000*
X2289438Y1289375*
X2290802*
X2291711Y1290000*
X2292620Y1291250*
X2296711Y1302500D02*
G01Y1289375D01*
X2300802Y1294375D02*
G01X2306257D01*
Y1295625*
X2305802Y1296875*
X2305348Y1297500*
X2304438Y1298125*
X2303075*
X2302166Y1297500*
X2301257Y1296250*
X2300802Y1294375*
Y1293125*
X2301257Y1291250*
X2302166Y1290000*
X2303075Y1289375*
X2304438*
X2305348Y1290000*
X2306257Y1291250*
X2315348Y1296250D02*
G01X2314893Y1297500D01*
X2313529Y1298125*
X2312166*
X2310802Y1297500*
X2310348Y1296250*
X2310802Y1295000*
X2311711Y1294375*
X2313984Y1293750*
X2314893Y1293125*
X2315348Y1291875*
Y1291250*
X2314893Y1290000*
X2313529Y1289375*
X2312166*
X2310802Y1290000*
X2310348Y1291250*
X2324438Y1296250D02*
G01X2323984Y1297500D01*
X2322620Y1298125*
X2321257*
X2319893Y1297500*
X2319438Y1296250*
X2319893Y1295000*
X2320802Y1294375*
X2323075Y1293750*
X2323984Y1293125*
X2324438Y1291875*
Y1291250*
X2323984Y1290000*
X2322620Y1289375*
X2321257*
X2319893Y1290000*
X2319438Y1291250*
X2338984Y1298125D02*
G01Y1285000D01*
Y1296250D02*
G01X2339893Y1297500D01*
X2340802Y1298125*
X2342166*
X2343075Y1297500*
X2343984Y1296250*
X2344438Y1294375*
Y1293125*
X2343984Y1291250*
X2343075Y1290000*
X2342166Y1289375*
X2340802*
X2339893Y1290000*
X2338984Y1291250*
X2350802Y1298125D02*
G01X2349893Y1297500D01*
X2348984Y1296250*
X2348529Y1294375*
Y1293125*
X2348984Y1291250*
X2349893Y1290000*
X2350802Y1289375*
X2352166*
X2353075Y1290000*
X2353984Y1291250*
X2354438Y1293125*
Y1294375*
X2353984Y1296250*
X2353075Y1297500*
X2352166Y1298125*
X2350802*
X2358529D02*
G01X2360348Y1289375D01*
X2362166Y1298125D02*
G01X2360348Y1289375D01*
X2362166Y1298125D02*
G01X2363984Y1289375D01*
X2365802Y1298125D02*
G01X2363984Y1289375D01*
X2369893Y1294375D02*
G01X2375348D01*
Y1295625*
X2374893Y1296875*
X2374438Y1297500*
X2373529Y1298125*
X2372166*
X2371257Y1297500*
X2370348Y1296250*
X2369893Y1294375*
Y1293125*
X2370348Y1291250*
X2371257Y1290000*
X2372166Y1289375*
X2373529*
X2374438Y1290000*
X2375348Y1291250*
X2379438Y1298125D02*
G01Y1289375D01*
Y1294375D02*
G01X2379893Y1296250D01*
X2380802Y1297500*
X2381711Y1298125*
X2383075*
X2398984Y1302500D02*
G01Y1291875D01*
X2399438Y1290000*
X2400348Y1289375*
X2401257*
X2397620Y1298125D02*
G01X2400802D01*
X2405348D02*
G01Y1289375D01*
Y1294375D02*
G01X2405802Y1296250D01*
X2406711Y1297500*
X2407620Y1298125*
X2408984*
X2418529D02*
G01Y1289375D01*
Y1296250D02*
G01X2417620Y1297500D01*
X2416711Y1298125*
X2415348*
X2414438Y1297500*
X2413529Y1296250*
X2413075Y1294375*
Y1293125*
X2413529Y1291250*
X2414438Y1290000*
X2415348Y1289375*
X2416711*
X2417620Y1290000*
X2418529Y1291250*
X2422620Y1298125D02*
G01Y1289375D01*
Y1295625D02*
G01X2423984Y1297500D01*
X2424893Y1298125*
X2426257*
X2427166Y1297500*
X2427620Y1295625*
Y1289375*
X2436711Y1296250D02*
G01X2436257Y1297500D01*
X2434893Y1298125*
X2433529*
X2432166Y1297500*
X2431711Y1296250*
X2432166Y1295000*
X2433075Y1294375*
X2435348Y1293750*
X2436257Y1293125*
X2436711Y1291875*
Y1291250*
X2436257Y1290000*
X2434893Y1289375*
X2433529*
X2432166Y1290000*
X2431711Y1291250*
X2440802Y1298125D02*
G01Y1289375D01*
Y1295625D02*
G01X2442166Y1297500D01*
X2443075Y1298125*
X2444438*
X2445348Y1297500*
X2445802Y1295625*
Y1289375*
Y1295625D02*
G01X2447166Y1297500D01*
X2448075Y1298125*
X2449438*
X2450348Y1297500*
X2450802Y1295625*
Y1289375*
X2454893Y1302500D02*
G01X2455348Y1301875D01*
X2455802Y1302500*
X2455348Y1303125*
X2454893Y1302500*
X2455348Y1298125D02*
G01Y1289375D01*
X2461257Y1302500D02*
G01Y1291875D01*
X2461711Y1290000*
X2462620Y1289375*
X2463529*
X2459893Y1298125D02*
G01X2463075D01*
X2468984Y1302500D02*
G01Y1291875D01*
X2469438Y1290000*
X2470348Y1289375*
X2471257*
X2467620Y1298125D02*
G01X2470802D01*
X2475348Y1294375D02*
G01X2480802D01*
Y1295625*
X2480348Y1296875*
X2479893Y1297500*
X2478984Y1298125*
X2477620*
X2476711Y1297500*
X2475802Y1296250*
X2475348Y1294375*
Y1293125*
X2475802Y1291250*
X2476711Y1290000*
X2477620Y1289375*
X2478984*
X2479893Y1290000*
X2480802Y1291250*
X2484893Y1298125D02*
G01Y1289375D01*
Y1294375D02*
G01X2485348Y1296250D01*
X2486257Y1297500*
X2487166Y1298125*
X2488529*
X2150398Y1255164D02*
G01X2155170Y1245320D01*
Y1255164D02*
G01X2150398Y1245320D01*
X2161648Y1255164D02*
G01Y1247664D01*
X2161307Y1246257*
X2160966Y1245789*
X2160284Y1245320*
X2159602*
X2158920Y1245789*
X2158579Y1246257*
X2158239Y1247664*
Y1248601*
X2165057Y1246257D02*
G01X2164716Y1245789D01*
X2165057Y1245320*
X2165398Y1245789*
X2165057Y1246257*
X2170511Y1255164D02*
G01X2169829Y1254695D01*
X2169148Y1253757*
X2168807Y1252820*
X2168466Y1251414*
Y1249070*
X2168807Y1247664*
X2169148Y1246726*
X2169829Y1245789*
X2170511Y1245320*
X2171875*
X2172557Y1245789*
X2173239Y1246726*
X2173579Y1247664*
X2173920Y1249070*
Y1251414*
X2173579Y1252820*
X2173239Y1253757*
X2172557Y1254695*
X2171875Y1255164*
X2170511*
X2171534Y1247195D02*
G01X2173579Y1244382D01*
X2176989Y1255164D02*
G01Y1248132D01*
X2177329Y1246726*
X2178011Y1245789*
X2179034Y1245320*
X2179716*
X2180739Y1245789*
X2181420Y1246726*
X2181761Y1248132*
Y1255164*
X2187557D02*
G01X2184829Y1245320D01*
X2187557Y1255164D02*
G01X2190284Y1245320D01*
X2185852Y1248601D02*
G01X2189261D01*
X2193352Y1255164D02*
G01Y1245320D01*
Y1255164D02*
G01X2198125Y1245320D01*
Y1255164D02*
G01Y1245320D01*
X2404075Y1219219D02*
G01Y1209375D01*
Y1219219D02*
G01X2406461D01*
X2407484Y1218750*
X2408166Y1217813*
Y1217813D02*
G01X2408507Y1216875D01*
X2408848Y1215469*
Y1213125*
X2408507Y1211719*
X2408166Y1210781*
X2407484Y1209844*
X2406461Y1209375*
X2404075*
X2136188Y1216875D02*
G01X2135848Y1217813D01*
Y1217813D02*
G01X2135166Y1218750D01*
X2134484Y1219219*
X2133120*
X2132438Y1218750*
X2131757Y1217813*
Y1217813D02*
G01X2131416Y1216875D01*
X2131075Y1215469*
Y1213125*
X2131416Y1211719*
X2131757Y1210781*
X2132438Y1209844*
X2133120Y1209375*
X2134484*
X2135166Y1209844*
X2135848Y1210781*
X2136188Y1211719*
X1859075Y1218219D02*
G01Y1208375D01*
Y1218219D02*
G01X1862143D01*
X1863166Y1217750*
X1863507Y1217281*
X1863848Y1216344*
Y1215406*
X1863507Y1214469*
X1863166Y1214000*
X1862143Y1213531*
X1859075D02*
G01X1862143D01*
X1863166Y1213063*
Y1213063D02*
G01X1863507Y1212594D01*
X1863848Y1211656*
Y1210250*
X1863507Y1209313*
Y1209313D02*
G01X1863166Y1208844D01*
X1862143Y1208375*
X1859075*
X1588802Y1220219D02*
G01X1586075Y1210375D01*
X1588802Y1220219D02*
G01X1591529Y1210375D01*
X1587098Y1213656D02*
G01X1590507D01*
X1443484Y1323219D02*
G01X1440075Y1316656D01*
X1445188*
X1443484Y1323219D02*
G01Y1313375D01*
X1440757Y1510219D02*
G01X1444507D01*
X1442461Y1506469*
X1443484*
X1444166Y1506000*
X1444507Y1505531*
X1444848Y1504125*
Y1503188*
Y1503188D02*
G01X1444507Y1501781D01*
X1443825Y1500844*
X1442802Y1500375*
X1441779*
X1440757Y1500844*
X1440416Y1501313*
Y1501313D02*
G01X1440075Y1502250D01*
X1440416Y1695875D02*
G01Y1696344D01*
X1440757Y1697281*
X1441098Y1697750*
X1441779Y1698219*
X1443143*
X1443825Y1697750*
X1444166Y1697281*
X1444507Y1696344*
Y1695406*
X1444166Y1694469*
X1443484Y1693063*
Y1693063D02*
G01X1440075Y1688375D01*
X1444848*
X1440075Y1883344D02*
G01X1440757Y1883813D01*
Y1883813D02*
G01X1441779Y1885219D01*
Y1875375*
X1588802Y1990219D02*
G01X1586075Y1980375D01*
X1588802Y1990219D02*
G01X1591529Y1980375D01*
X1587098Y1983656D02*
G01X1590507D01*
X1859075Y1988219D02*
G01Y1978375D01*
Y1988219D02*
G01X1862143D01*
X1863166Y1987750*
X1863507Y1987281*
X1863848Y1986344*
Y1985406*
X1863507Y1984469*
X1863166Y1984000*
X1862143Y1983531*
X1859075D02*
G01X1862143D01*
X1863166Y1983063*
Y1983063D02*
G01X1863507Y1982594D01*
X1863848Y1981656*
Y1980250*
X1863507Y1979313*
Y1979313D02*
G01X1863166Y1978844D01*
X1862143Y1978375*
X1859075*
X2136188Y1986875D02*
G01X2135848Y1987813D01*
Y1987813D02*
G01X2135166Y1988750D01*
X2134484Y1989219*
X2133120*
X2132438Y1988750*
X2131757Y1987813*
Y1987813D02*
G01X2131416Y1986875D01*
X2131075Y1985469*
Y1983125*
X2131416Y1981719*
X2131757Y1980781*
X2132438Y1979844*
X2133120Y1979375*
X2134484*
X2135166Y1979844*
X2135848Y1980781*
X2136188Y1981719*
X2404075Y1989219D02*
G01Y1979375D01*
Y1989219D02*
G01X2406461D01*
X2407484Y1988750*
X2408166Y1987813*
Y1987813D02*
G01X2408507Y1986875D01*
X2408848Y1985469*
Y1983125*
X2408507Y1981719*
X2408166Y1980781*
X2407484Y1979844*
X2406461Y1979375*
X2404075*
X2550075Y1883344D02*
G01X2550757Y1883813D01*
Y1883813D02*
G01X2551779Y1885219D01*
Y1875375*
X2550416Y1695875D02*
G01Y1696344D01*
X2550757Y1697281*
X2551098Y1697750*
X2551779Y1698219*
X2553143*
X2553825Y1697750*
X2554166Y1697281*
X2554507Y1696344*
Y1695406*
X2554166Y1694469*
X2553484Y1693063*
Y1693063D02*
G01X2550075Y1688375D01*
X2554848*
X2550757Y1510219D02*
G01X2554507D01*
X2552461Y1506469*
X2553484*
X2554166Y1506000*
X2554507Y1505531*
X2554848Y1504125*
Y1503188*
Y1503188D02*
G01X2554507Y1501781D01*
X2553825Y1500844*
X2552802Y1500375*
X2551779*
X2550757Y1500844*
X2550416Y1501313*
Y1501313D02*
G01X2550075Y1502250D01*
X2553484Y1323219D02*
G01X2550075Y1316656D01*
X2555188*
X2553484Y1323219D02*
G01Y1313375D01*
G54D20*
X2176776Y1336474D02*
G01Y1324847D01*
Y1336474D02*
G01X2182413Y1324847D01*
Y1336474D02*
G01Y1324847D01*
X2186037Y1332598D02*
G01Y1327062D01*
X2186439Y1325401*
X2187244Y1324847*
X2188452*
X2189258Y1325401*
X2190466Y1327062*
Y1332598D02*
G01Y1324847D01*
X2194089Y1332598D02*
G01X2196505Y1324847D01*
X2198921Y1332598D02*
G01X2196505Y1324847D01*
X2204558Y1332598D02*
G01X2203753Y1332045D01*
X2202948Y1330938*
Y1330938D02*
G01X2202545Y1329277D01*
Y1328169*
X2202948Y1326508*
X2203753Y1325401*
X2204558Y1324847*
X2205766*
X2206572Y1325401*
X2207377Y1326508*
X2207780Y1328169*
Y1329277*
X2207377Y1330938*
Y1330938D02*
G01X2206572Y1332045D01*
X2205766Y1332598*
X2204558*
X2212611Y1336474D02*
G01Y1327062D01*
X2213014Y1325401*
X2213819Y1324847*
X2214625*
X2211403Y1332598D02*
G01X2214222D01*
X2220262D02*
G01X2219456Y1332045D01*
X2218651Y1330938*
Y1330938D02*
G01X2218248Y1329277D01*
Y1328169*
X2218651Y1326508*
X2219456Y1325401*
X2220262Y1324847*
X2221470*
X2222275Y1325401*
X2223080Y1326508*
X2223483Y1328169*
Y1329277*
X2223080Y1330938*
Y1330938D02*
G01X2222275Y1332045D01*
X2221470Y1332598*
X2220262*
X2227107D02*
G01Y1324847D01*
Y1330384D02*
G01X2228315Y1332045D01*
X2229120Y1332598*
X2230328*
X2231133Y1332045*
X2231536Y1330384*
Y1324847*
X2244421Y1336474D02*
G01Y1324847D01*
Y1336474D02*
G01X2249655D01*
X2244421Y1330938D02*
G01X2247642D01*
X2244421Y1324847D02*
G01X2249655D01*
X2253279Y1336474D02*
G01Y1324847D01*
X2256903Y1329277D02*
G01X2261734D01*
Y1330384*
X2261332Y1331491*
X2260929Y1332045*
X2260124Y1332598*
X2258916*
X2258111Y1332045*
X2257305Y1330938*
Y1330938D02*
G01X2256903Y1329277D01*
Y1328169*
X2257305Y1326508*
X2258111Y1325401*
X2258916Y1324847*
X2260124*
X2260929Y1325401*
X2261734Y1326508*
X2270190Y1330938D02*
G01X2269385Y1332045D01*
X2268579Y1332598*
X2267372*
X2266566Y1332045*
X2265761Y1330938*
Y1330938D02*
G01X2265358Y1329277D01*
Y1328169*
X2265761Y1326508*
X2266566Y1325401*
X2267372Y1324847*
X2268579*
X2269385Y1325401*
X2270190Y1326508*
X2275022Y1336474D02*
G01Y1327062D01*
X2275424Y1325401*
X2276230Y1324847*
X2277035*
X2273814Y1332598D02*
G01X2276632D01*
X2280659D02*
G01Y1324847D01*
Y1329277D02*
G01X2281062Y1330938D01*
Y1330938D02*
G01X2281867Y1332045D01*
X2282672Y1332598*
X2283880*
X2289517D02*
G01X2288712Y1332045D01*
X2287907Y1330938*
Y1330938D02*
G01X2287504Y1329277D01*
Y1328169*
X2287907Y1326508*
X2288712Y1325401*
X2289517Y1324847*
X2290725*
X2291530Y1325401*
X2292336Y1326508*
X2292738Y1328169*
Y1329277*
X2292336Y1330938*
Y1330938D02*
G01X2291530Y1332045D01*
X2290725Y1332598*
X2289517*
X2296362D02*
G01Y1324847D01*
Y1330384D02*
G01X2297570Y1332045D01*
X2298375Y1332598*
X2299583*
X2300389Y1332045*
X2300791Y1330384*
Y1324847*
X2304415Y1336474D02*
G01X2304818Y1335920D01*
X2305220Y1336474*
X2304818Y1337028*
X2304415Y1336474*
X2304818Y1332598D02*
G01Y1324847D01*
X2313676Y1330938D02*
G01X2312871Y1332045D01*
X2312065Y1332598*
Y1332598D02*
G01X2310858D01*
X2310052Y1332045*
X2309247Y1330938*
Y1330938D02*
G01X2308844Y1329277D01*
Y1328169*
X2309247Y1326508*
X2310052Y1325401*
X2310858Y1324847*
X2312065*
Y1324847D02*
G01X2312871Y1325401D01*
X2313676Y1326508*
X2321729Y1330938D02*
G01X2321326Y1332045D01*
X2320118Y1332598*
X2318911*
X2317703Y1332045*
X2317300Y1330938*
Y1330938D02*
G01X2317703Y1329830D01*
X2318508Y1329277*
X2320521Y1328723*
X2321326Y1328169*
X2321729Y1327062*
Y1326508*
X2321326Y1325401*
X2320118Y1324847*
X2318911*
X2317703Y1325401*
X2317300Y1326508*
X2337432Y1336474D02*
G01Y1324847D01*
X2334614Y1336474D02*
G01X2340251D01*
X2343875Y1329277D02*
G01X2348707D01*
Y1330384*
X2348304Y1331491*
X2347901Y1332045*
X2347096Y1332598*
X2345888*
X2345083Y1332045*
X2344277Y1330938*
Y1330938D02*
G01X2343875Y1329277D01*
Y1328169*
X2344277Y1326508*
X2345083Y1325401*
X2345888Y1324847*
X2347096*
X2347901Y1325401*
X2348707Y1326508*
X2357162Y1330938D02*
G01X2356357Y1332045D01*
X2355552Y1332598*
X2354344*
X2353538Y1332045*
X2352733Y1330938*
Y1330938D02*
G01X2352330Y1329277D01*
Y1328169*
X2352733Y1326508*
X2353538Y1325401*
X2354344Y1324847*
X2355552*
X2356357Y1325401*
X2357162Y1326508*
X2360786Y1336474D02*
G01Y1324847D01*
Y1330384D02*
G01X2361994Y1332045D01*
X2362799Y1332598*
X2364007*
X2364812Y1332045*
X2365215Y1330384*
Y1324847*
X2368839Y1332598D02*
G01Y1324847D01*
Y1330384D02*
G01X2370047Y1332045D01*
X2370852Y1332598*
X2372060*
X2372865Y1332045*
X2373268Y1330384*
Y1324847*
X2378905Y1332598D02*
G01X2378100Y1332045D01*
X2377295Y1330938*
Y1330938D02*
G01X2376892Y1329277D01*
Y1328169*
X2377295Y1326508*
X2378100Y1325401*
X2378905Y1324847*
X2380113*
X2380918Y1325401*
X2381724Y1326508*
X2382126Y1328169*
Y1329277*
X2381724Y1330938*
Y1330938D02*
G01X2380918Y1332045D01*
X2380113Y1332598*
X2378905*
X2385750Y1336474D02*
G01Y1324847D01*
X2391387Y1332598D02*
G01X2390582Y1332045D01*
X2389777Y1330938*
Y1330938D02*
G01X2389374Y1329277D01*
Y1328169*
X2389777Y1326508*
X2390582Y1325401*
X2391387Y1324847*
X2392595*
X2393401Y1325401*
Y1325401D02*
G01X2394206Y1326508D01*
X2394608Y1328169*
Y1329277*
X2394206Y1330938*
Y1330938D02*
G01X2393401Y1332045D01*
Y1332045D02*
G01X2392595Y1332598D01*
X2391387*
X2403064D02*
G01Y1323740D01*
X2402661Y1322079*
X2402259Y1321526*
X2401453Y1320972*
X2400246*
X2399440Y1321526*
X2403064Y1330938D02*
G01X2402259Y1332045D01*
X2401453Y1332598*
X2400246*
X2399440Y1332045*
X2398635Y1330938*
Y1330938D02*
G01X2398232Y1329277D01*
Y1328169*
X2398635Y1326508*
X2399440Y1325401*
X2400246Y1324847*
X2401453*
X2402259Y1325401*
X2403064Y1326508*
X2407091Y1332598D02*
G01X2409506Y1324847D01*
X2411922Y1332598D02*
G01X2409506Y1324847D01*
X2408701Y1322633*
X2407896Y1321526*
X2407091Y1320972*
X2406688*
X2418365Y1338688D02*
G01X2417559Y1337581D01*
X2416754Y1335920*
X2415949Y1333706*
X2415546Y1330938*
Y1330938D02*
G01Y1328723D01*
X2415949Y1325955*
X2416754Y1323740*
X2417559Y1322079*
X2418365Y1320972*
X2427626Y1334813D02*
G01X2426820Y1335920D01*
X2425612Y1336474*
X2424002*
X2422794Y1335920*
X2421989Y1334813*
Y1333706*
X2422391Y1332598*
X2422794Y1332045*
X2423599Y1331491*
X2426015Y1330384*
X2426820Y1329830*
X2427223Y1329277*
X2427626Y1328169*
Y1326508*
X2426820Y1325401*
X2425612Y1324847*
X2424002*
X2422794Y1325401*
X2421989Y1326508*
X2431249Y1336474D02*
G01Y1324847D01*
Y1330384D02*
G01X2432457Y1332045D01*
X2433263Y1332598*
X2434471*
X2435276Y1332045*
X2435679Y1330384*
Y1324847*
X2439302Y1329277D02*
G01X2444134D01*
Y1330384*
X2443732Y1331491*
X2443329Y1332045*
X2442524Y1332598*
X2441316*
X2440510Y1332045*
X2439705Y1330938*
Y1330938D02*
G01X2439302Y1329277D01*
Y1328169*
X2439705Y1326508*
X2440510Y1325401*
X2441316Y1324847*
X2442524*
X2443329Y1325401*
X2444134Y1326508*
X2447758Y1332598D02*
G01Y1324847D01*
Y1330384D02*
G01X2448966Y1332045D01*
X2449771Y1332598*
X2450979*
X2451785Y1332045*
X2452187Y1330384*
Y1324847*
X2461448Y1336474D02*
G01X2455811Y1324847D01*
Y1336474D02*
G01X2461448D01*
X2455811Y1324847D02*
G01X2461448D01*
X2465072Y1336474D02*
G01Y1324847D01*
Y1330384D02*
G01X2466280Y1332045D01*
X2467085Y1332598*
X2468293*
X2469098Y1332045*
X2469501Y1330384*
Y1324847*
X2473125Y1329277D02*
G01X2477957D01*
Y1330384*
X2477554Y1331491*
X2477151Y1332045*
X2476346Y1332598*
X2475138*
X2474333Y1332045*
X2473528Y1330938*
Y1330938D02*
G01X2473125Y1329277D01*
Y1328169*
X2473528Y1326508*
X2474333Y1325401*
X2475138Y1324847*
X2476346*
X2477151Y1325401*
X2477957Y1326508*
X2481581Y1332598D02*
G01Y1324847D01*
Y1330384D02*
G01X2482788Y1332045D01*
X2483594Y1332598*
X2484802*
X2485607Y1332045*
X2486010Y1330384*
Y1324847*
X2489634Y1338688D02*
G01X2490439Y1337581D01*
X2491244Y1335920*
X2492049Y1333706*
X2492452Y1330938*
Y1330938D02*
G01Y1328723D01*
X2492049Y1325955*
X2491244Y1323740*
X2490439Y1322079*
X2489634Y1320972*
X2496076Y1336474D02*
G01Y1324847D01*
X2500908*
X2505739Y1336474D02*
G01Y1327062D01*
X2506142Y1325401*
X2506947Y1324847*
X2507753*
X2504531Y1332598D02*
G01X2507350D01*
X2516208Y1336474D02*
G01Y1324847D01*
Y1330938D02*
G01X2515403Y1332045D01*
X2514598Y1332598*
X2513390*
X2512584Y1332045*
X2511779Y1330938*
Y1330938D02*
G01X2511377Y1329277D01*
Y1328169*
X2511779Y1326508*
X2512584Y1325401*
X2513390Y1324847*
X2514598*
X2515403Y1325401*
X2516208Y1326508*
X2520235Y1325955D02*
G01X2519832Y1325401D01*
X2520235Y1324847*
X2520637Y1325401*
X2520235Y1325955*
M02*
