M48
INCH,LZ
VER,1
FMAT,2
T07C0.01575F095B1S3H2000
T08C0.01772F095B1S3H2000
T09C0.02559F197B1S55H2000
T10C0.0315F197B1S55H2000
T11C0.03937F197B1S55H2000
T12C0.04724F139B1S55H2000
DETECT,ON
ATC,ON
%
T07
X173393Y151277
X174393Y150277
Y149277
X175393Y151277
X175591Y150752
X176393Y149277
X177393Y151277
Y149277
X178393
X178583Y150831
X179393Y149277
X179646Y151185
X180079Y15091
X180393Y149277
X18067Y151028
X181393Y149277
X181772Y15091
X182323Y15087
X182393Y150277
Y149277
X182677Y151343
X182796Y15087
X183229Y151343
X183393Y149277
X184095Y150713
X184393Y149277
X185393
X186393Y150277
Y149277
Y151277
X187393Y149277
X188268Y15091
Y150319
X188393Y149277
X188662Y15154
X188977Y150713
X189393Y149277
X189488Y149886
X189567Y151107
X189607Y15028
X190393Y151277
Y149277
X191393Y151277
Y149277
Y153277
Y152277
X19004Y152603
X189488Y152051
Y152642
Y153193
X187048Y153705
X186393Y152277
X184882Y15213
X184252Y153784
X184174Y151894
X184016Y152878
X183583Y151933
X183393Y152277
X18315Y153311
X182362Y152957
X181393Y153277
X180393
X179095Y153351
X178701Y153902
X178386Y152642
X178229Y152957
X177953Y151933
X177835Y153036
X177796Y154256
X177393Y153277
X177048Y153941
X176393Y153277
X175985Y153902
X175197
X174393Y153277
X173393
Y152277
X174393Y154277
X174843Y155477
X175197Y154611
X17563Y155437
X175945Y154729
X176181Y1565
Y15591
X176457Y154926
X177087Y154689
X177393Y156277
X177796Y154729
X179882Y156737
X181969Y156303
X184252Y155437
X184803Y154374
X185393Y156277
Y155277
Y154277
X186393Y156277
Y155277
X187393
Y156277
X188393Y155277
Y156277
X189393
Y155277
X189725Y154492
X190393Y155277
X191393Y154277
Y155277
Y156277
Y158277
Y157277
X189393Y158277
Y157277
X188393Y158277
Y157277
X187393Y158277
Y157277
X186733Y157878
X186457Y158626
X186393Y157277
X185827Y157918
Y158626
X185158Y157012
Y158508
X184961Y158705
X184922Y15839
X184685Y158705
X18441
X183347Y158075
Y157721
Y157366
X183071Y157721
Y158075
Y157366
X181181Y159138
Y158863
X180906Y158902
X180748Y158705
X180709Y159099
X179252Y158075
Y15776
Y15839
X178977Y158075
Y15776
Y15839
X177323Y157012
X177244Y158744
Y158036
Y15839
X176929Y158036
X17689Y158351
Y158744
X176654Y156815
X175591Y158351
X174393Y158277
Y157277
X173393Y158277
X172481Y157603
Y158744
X17252Y160201
X173393Y159277
X174393Y161277
Y160277
Y159277
X175393Y160277
Y161277
X176393Y160277
Y161277
X177393
Y160277
Y159277
X189393Y161277
Y159277
Y160277
X190393Y159277
X191393
X191654Y16028
T08
X173327Y154146G85X173012Y154146
X173327Y156961G85X173012Y156961
T09
X174016Y156343
Y154768
T10
X175197Y149926
X175985
T11
X177772Y149886
X178772
X179772
X180772
X181772
T12
X183268Y160831G85X183583Y160831
X178465Y16091G85X17878Y16091
M30
