%TF.GenerationSoftware,KiCad,Pcbnew,(6.0.7)*%
%TF.CreationDate,2022-08-08T03:52:41+08:00*%
%TF.ProjectId,Solar Charger,536f6c61-7220-4436-9861-726765722e6b,rev?*%
%TF.SameCoordinates,Original*%
%TF.FileFunction,Legend,Bot*%
%TF.FilePolarity,Positive*%
%FSLAX46Y46*%
G04 Gerber Fmt 4.6, Leading zero omitted, Abs format (unit mm)*
G04 Created by KiCad (PCBNEW (6.0.7)) date 2022-08-08 03:52:41*
%MOMM*%
%LPD*%
G01*
G04 APERTURE LIST*
%ADD10C,0.150000*%
G04 APERTURE END LIST*
D10*
X83693666Y-94866666D02*
X82560333Y-94866666D01*
X82427000Y-94800000D01*
X82360333Y-94733333D01*
X82293666Y-94600000D01*
X82293666Y-94333333D01*
X82360333Y-94200000D01*
X82427000Y-94133333D01*
X82560333Y-94066666D01*
X83693666Y-94066666D01*
X82360333Y-93466666D02*
X82293666Y-93266666D01*
X82293666Y-92933333D01*
X82360333Y-92800000D01*
X82427000Y-92733333D01*
X82560333Y-92666666D01*
X82693666Y-92666666D01*
X82827000Y-92733333D01*
X82893666Y-92800000D01*
X82960333Y-92933333D01*
X83027000Y-93200000D01*
X83093666Y-93333333D01*
X83160333Y-93400000D01*
X83293666Y-93466666D01*
X83427000Y-93466666D01*
X83560333Y-93400000D01*
X83627000Y-93333333D01*
X83693666Y-93200000D01*
X83693666Y-92866666D01*
X83627000Y-92666666D01*
X83027000Y-91600000D02*
X82960333Y-91400000D01*
X82893666Y-91333333D01*
X82760333Y-91266666D01*
X82560333Y-91266666D01*
X82427000Y-91333333D01*
X82360333Y-91400000D01*
X82293666Y-91533333D01*
X82293666Y-92066666D01*
X83693666Y-92066666D01*
X83693666Y-91600000D01*
X83627000Y-91466666D01*
X83560333Y-91400000D01*
X83427000Y-91333333D01*
X83293666Y-91333333D01*
X83160333Y-91400000D01*
X83093666Y-91466666D01*
X83027000Y-91600000D01*
X83027000Y-92066666D01*
X81439666Y-94500000D02*
X81439666Y-94233333D01*
X81373000Y-94100000D01*
X81239666Y-93966666D01*
X80973000Y-93900000D01*
X80506333Y-93900000D01*
X80239666Y-93966666D01*
X80106333Y-94100000D01*
X80039666Y-94233333D01*
X80039666Y-94500000D01*
X80106333Y-94633333D01*
X80239666Y-94766666D01*
X80506333Y-94833333D01*
X80973000Y-94833333D01*
X81239666Y-94766666D01*
X81373000Y-94633333D01*
X81439666Y-94500000D01*
X81439666Y-93300000D02*
X80306333Y-93300000D01*
X80173000Y-93233333D01*
X80106333Y-93166666D01*
X80039666Y-93033333D01*
X80039666Y-92766666D01*
X80106333Y-92633333D01*
X80173000Y-92566666D01*
X80306333Y-92500000D01*
X81439666Y-92500000D01*
X81439666Y-92033333D02*
X81439666Y-91233333D01*
X80039666Y-91633333D02*
X81439666Y-91633333D01*
X83793666Y-89866666D02*
X82660333Y-89866666D01*
X82527000Y-89800000D01*
X82460333Y-89733333D01*
X82393666Y-89600000D01*
X82393666Y-89333333D01*
X82460333Y-89200000D01*
X82527000Y-89133333D01*
X82660333Y-89066666D01*
X83793666Y-89066666D01*
X82460333Y-88466666D02*
X82393666Y-88266666D01*
X82393666Y-87933333D01*
X82460333Y-87800000D01*
X82527000Y-87733333D01*
X82660333Y-87666666D01*
X82793666Y-87666666D01*
X82927000Y-87733333D01*
X82993666Y-87800000D01*
X83060333Y-87933333D01*
X83127000Y-88200000D01*
X83193666Y-88333333D01*
X83260333Y-88400000D01*
X83393666Y-88466666D01*
X83527000Y-88466666D01*
X83660333Y-88400000D01*
X83727000Y-88333333D01*
X83793666Y-88200000D01*
X83793666Y-87866666D01*
X83727000Y-87666666D01*
X83127000Y-86600000D02*
X83060333Y-86400000D01*
X82993666Y-86333333D01*
X82860333Y-86266666D01*
X82660333Y-86266666D01*
X82527000Y-86333333D01*
X82460333Y-86400000D01*
X82393666Y-86533333D01*
X82393666Y-87066666D01*
X83793666Y-87066666D01*
X83793666Y-86600000D01*
X83727000Y-86466666D01*
X83660333Y-86400000D01*
X83527000Y-86333333D01*
X83393666Y-86333333D01*
X83260333Y-86400000D01*
X83193666Y-86466666D01*
X83127000Y-86600000D01*
X83127000Y-87066666D01*
X80139666Y-88833333D02*
X81539666Y-88833333D01*
X80139666Y-88166666D02*
X81539666Y-88166666D01*
X80139666Y-87366666D01*
X81539666Y-87366666D01*
X82593666Y-78500000D02*
X83993666Y-78500000D01*
X82993666Y-78033333D01*
X83993666Y-77566666D01*
X82593666Y-77566666D01*
X82593666Y-76900000D02*
X83993666Y-76900000D01*
X83993666Y-76366666D01*
X83927000Y-76233333D01*
X83860333Y-76166666D01*
X83727000Y-76100000D01*
X83527000Y-76100000D01*
X83393666Y-76166666D01*
X83327000Y-76233333D01*
X83260333Y-76366666D01*
X83260333Y-76900000D01*
X82593666Y-75500000D02*
X83993666Y-75500000D01*
X83993666Y-74966666D01*
X83927000Y-74833333D01*
X83860333Y-74766666D01*
X83727000Y-74700000D01*
X83527000Y-74700000D01*
X83393666Y-74766666D01*
X83327000Y-74833333D01*
X83260333Y-74966666D01*
X83260333Y-75500000D01*
X83993666Y-74300000D02*
X83993666Y-73500000D01*
X82593666Y-73900000D02*
X83993666Y-73900000D01*
X80339666Y-76833333D02*
X81739666Y-76833333D01*
X80339666Y-76166666D02*
X81739666Y-76166666D01*
X80339666Y-75366666D01*
X81739666Y-75366666D01*
X82543666Y-84450000D02*
X83943666Y-84450000D01*
X82943666Y-83983333D01*
X83943666Y-83516666D01*
X82543666Y-83516666D01*
X82543666Y-82850000D02*
X83943666Y-82850000D01*
X83943666Y-82316666D01*
X83877000Y-82183333D01*
X83810333Y-82116666D01*
X83677000Y-82050000D01*
X83477000Y-82050000D01*
X83343666Y-82116666D01*
X83277000Y-82183333D01*
X83210333Y-82316666D01*
X83210333Y-82850000D01*
X82543666Y-81450000D02*
X83943666Y-81450000D01*
X83943666Y-80916666D01*
X83877000Y-80783333D01*
X83810333Y-80716666D01*
X83677000Y-80650000D01*
X83477000Y-80650000D01*
X83343666Y-80716666D01*
X83277000Y-80783333D01*
X83210333Y-80916666D01*
X83210333Y-81450000D01*
X83943666Y-80250000D02*
X83943666Y-79450000D01*
X82543666Y-79850000D02*
X83943666Y-79850000D01*
X81689666Y-83450000D02*
X81689666Y-83183333D01*
X81623000Y-83050000D01*
X81489666Y-82916666D01*
X81223000Y-82850000D01*
X80756333Y-82850000D01*
X80489666Y-82916666D01*
X80356333Y-83050000D01*
X80289666Y-83183333D01*
X80289666Y-83450000D01*
X80356333Y-83583333D01*
X80489666Y-83716666D01*
X80756333Y-83783333D01*
X81223000Y-83783333D01*
X81489666Y-83716666D01*
X81623000Y-83583333D01*
X81689666Y-83450000D01*
X81689666Y-82250000D02*
X80556333Y-82250000D01*
X80423000Y-82183333D01*
X80356333Y-82116666D01*
X80289666Y-81983333D01*
X80289666Y-81716666D01*
X80356333Y-81583333D01*
X80423000Y-81516666D01*
X80556333Y-81450000D01*
X81689666Y-81450000D01*
X81689666Y-80983333D02*
X81689666Y-80183333D01*
X80289666Y-80583333D02*
X81689666Y-80583333D01*
X82410333Y-72266666D02*
X82343666Y-72066666D01*
X82343666Y-71733333D01*
X82410333Y-71600000D01*
X82477000Y-71533333D01*
X82610333Y-71466666D01*
X82743666Y-71466666D01*
X82877000Y-71533333D01*
X82943666Y-71600000D01*
X83010333Y-71733333D01*
X83077000Y-72000000D01*
X83143666Y-72133333D01*
X83210333Y-72200000D01*
X83343666Y-72266666D01*
X83477000Y-72266666D01*
X83610333Y-72200000D01*
X83677000Y-72133333D01*
X83743666Y-72000000D01*
X83743666Y-71666666D01*
X83677000Y-71466666D01*
X82343666Y-70666666D02*
X82410333Y-70800000D01*
X82477000Y-70866666D01*
X82610333Y-70933333D01*
X83010333Y-70933333D01*
X83143666Y-70866666D01*
X83210333Y-70800000D01*
X83277000Y-70666666D01*
X83277000Y-70466666D01*
X83210333Y-70333333D01*
X83143666Y-70266666D01*
X83010333Y-70200000D01*
X82610333Y-70200000D01*
X82477000Y-70266666D01*
X82410333Y-70333333D01*
X82343666Y-70466666D01*
X82343666Y-70666666D01*
X82343666Y-69400000D02*
X82410333Y-69533333D01*
X82543666Y-69600000D01*
X83743666Y-69600000D01*
X82343666Y-68266666D02*
X83077000Y-68266666D01*
X83210333Y-68333333D01*
X83277000Y-68466666D01*
X83277000Y-68733333D01*
X83210333Y-68866666D01*
X82410333Y-68266666D02*
X82343666Y-68400000D01*
X82343666Y-68733333D01*
X82410333Y-68866666D01*
X82543666Y-68933333D01*
X82677000Y-68933333D01*
X82810333Y-68866666D01*
X82877000Y-68733333D01*
X82877000Y-68400000D01*
X82943666Y-68266666D01*
X82343666Y-67600000D02*
X83277000Y-67600000D01*
X83010333Y-67600000D02*
X83143666Y-67533333D01*
X83210333Y-67466666D01*
X83277000Y-67333333D01*
X83277000Y-67200000D01*
X81489666Y-71200000D02*
X81489666Y-70933333D01*
X81423000Y-70800000D01*
X81289666Y-70666666D01*
X81023000Y-70600000D01*
X80556333Y-70600000D01*
X80289666Y-70666666D01*
X80156333Y-70800000D01*
X80089666Y-70933333D01*
X80089666Y-71200000D01*
X80156333Y-71333333D01*
X80289666Y-71466666D01*
X80556333Y-71533333D01*
X81023000Y-71533333D01*
X81289666Y-71466666D01*
X81423000Y-71333333D01*
X81489666Y-71200000D01*
X81489666Y-70000000D02*
X80356333Y-70000000D01*
X80223000Y-69933333D01*
X80156333Y-69866666D01*
X80089666Y-69733333D01*
X80089666Y-69466666D01*
X80156333Y-69333333D01*
X80223000Y-69266666D01*
X80356333Y-69200000D01*
X81489666Y-69200000D01*
X81489666Y-68733333D02*
X81489666Y-67933333D01*
X80089666Y-68333333D02*
X81489666Y-68333333D01*
X81600000Y-65616666D02*
X81666666Y-65750000D01*
X81666666Y-65950000D01*
X81600000Y-66150000D01*
X81466666Y-66283333D01*
X81333333Y-66350000D01*
X81066666Y-66416666D01*
X80866666Y-66416666D01*
X80600000Y-66350000D01*
X80466666Y-66283333D01*
X80333333Y-66150000D01*
X80266666Y-65950000D01*
X80266666Y-65816666D01*
X80333333Y-65616666D01*
X80400000Y-65550000D01*
X80866666Y-65550000D01*
X80866666Y-65816666D01*
X80266666Y-64950000D02*
X81666666Y-64950000D01*
X80266666Y-64150000D01*
X81666666Y-64150000D01*
X80266666Y-63483333D02*
X81666666Y-63483333D01*
X81666666Y-63150000D01*
X81600000Y-62950000D01*
X81466666Y-62816666D01*
X81333333Y-62750000D01*
X81066666Y-62683333D01*
X80866666Y-62683333D01*
X80600000Y-62750000D01*
X80466666Y-62816666D01*
X80333333Y-62950000D01*
X80266666Y-63150000D01*
X80266666Y-63483333D01*
X82600357Y-62116666D02*
X82528928Y-61916666D01*
X82528928Y-61583333D01*
X82600357Y-61450000D01*
X82671785Y-61383333D01*
X82814642Y-61316666D01*
X82957500Y-61316666D01*
X83100357Y-61383333D01*
X83171785Y-61450000D01*
X83243214Y-61583333D01*
X83314642Y-61850000D01*
X83386071Y-61983333D01*
X83457500Y-62050000D01*
X83600357Y-62116666D01*
X83743214Y-62116666D01*
X83886071Y-62050000D01*
X83957500Y-61983333D01*
X84028928Y-61850000D01*
X84028928Y-61516666D01*
X83957500Y-61316666D01*
X82528928Y-60516666D02*
X82600357Y-60650000D01*
X82671785Y-60716666D01*
X82814642Y-60783333D01*
X83243214Y-60783333D01*
X83386071Y-60716666D01*
X83457500Y-60650000D01*
X83528928Y-60516666D01*
X83528928Y-60316666D01*
X83457500Y-60183333D01*
X83386071Y-60116666D01*
X83243214Y-60050000D01*
X82814642Y-60050000D01*
X82671785Y-60116666D01*
X82600357Y-60183333D01*
X82528928Y-60316666D01*
X82528928Y-60516666D01*
X82528928Y-59250000D02*
X82600357Y-59383333D01*
X82743214Y-59450000D01*
X84028928Y-59450000D01*
X82528928Y-58116666D02*
X83314642Y-58116666D01*
X83457500Y-58183333D01*
X83528928Y-58316666D01*
X83528928Y-58583333D01*
X83457500Y-58716666D01*
X82600357Y-58116666D02*
X82528928Y-58250000D01*
X82528928Y-58583333D01*
X82600357Y-58716666D01*
X82743214Y-58783333D01*
X82886071Y-58783333D01*
X83028928Y-58716666D01*
X83100357Y-58583333D01*
X83100357Y-58250000D01*
X83171785Y-58116666D01*
X82528928Y-57450000D02*
X83528928Y-57450000D01*
X83243214Y-57450000D02*
X83386071Y-57383333D01*
X83457500Y-57316666D01*
X83528928Y-57183333D01*
X83528928Y-57050000D01*
X80113928Y-60383333D02*
X81613928Y-60383333D01*
X80113928Y-59716666D02*
X81613928Y-59716666D01*
X80113928Y-58916666D01*
X81613928Y-58916666D01*
X93242857Y-62900000D02*
X93385714Y-62828571D01*
X93600000Y-62828571D01*
X93814285Y-62900000D01*
X93957142Y-63042857D01*
X94028571Y-63185714D01*
X94100000Y-63471428D01*
X94100000Y-63685714D01*
X94028571Y-63971428D01*
X93957142Y-64114285D01*
X93814285Y-64257142D01*
X93600000Y-64328571D01*
X93457142Y-64328571D01*
X93242857Y-64257142D01*
X93171428Y-64185714D01*
X93171428Y-63685714D01*
X93457142Y-63685714D01*
X92528571Y-64328571D02*
X92528571Y-62828571D01*
X91671428Y-64328571D01*
X91671428Y-62828571D01*
X90957142Y-64328571D02*
X90957142Y-62828571D01*
X90600000Y-62828571D01*
X90385714Y-62900000D01*
X90242857Y-63042857D01*
X90171428Y-63185714D01*
X90100000Y-63471428D01*
X90100000Y-63685714D01*
X90171428Y-63971428D01*
X90242857Y-64114285D01*
X90385714Y-64257142D01*
X90600000Y-64328571D01*
X90957142Y-64328571D01*
X88542857Y-62878571D02*
X88042857Y-64378571D01*
X87542857Y-62878571D01*
X87042857Y-64378571D02*
X87042857Y-62878571D01*
X86328571Y-64378571D02*
X86328571Y-62878571D01*
X85471428Y-64378571D01*
X85471428Y-62878571D01*
M02*
